<svg width="104" height="36" viewBox="0 0 104 36" fill="none" xmlns="http://www.w3.org/2000/svg">
<path fill-rule="evenodd" clip-rule="evenodd" d="M54.242 7.43535C53.2624 6.9139 52.0645 6.62189 50.486 6.54541H37.865V29.4545H41.924V10.4737H49.8165C50.8665 10.4737 51.698 10.6962 52.149 11.1411C52.6 11.6626 52.8255 12.2536 52.8255 13.067V29.4545H56.955V12.476C56.955 11.4401 56.7295 10.4737 56.2785 9.58373C55.905 8.77027 55.151 8.02633 54.249 7.43535H54.242ZM28.845 29.4545H32.9744V6.54541H28.845V29.4545ZM95.875 29.4545V12.476C95.875 11.4401 95.6495 10.4737 95.1985 9.58373C94.825 8.77027 94.071 8.02633 93.0915 7.43535C92.1895 6.9139 90.914 6.62189 89.413 6.54541H80.7735C80.0195 6.54541 79.5685 6.69142 79.2725 6.99038C78.9695 7.28935 78.8215 7.73432 78.744 8.3253L78.5185 10.4737H88.659C89.709 10.4737 90.5405 10.6962 91.062 11.1411C91.513 11.6626 91.661 12.2536 91.661 13.067V14.4019L83.0919 16.7033C80.7594 17.2943 79.1104 18.1842 77.9829 19.2202C76.8554 20.3326 76.2565 21.737 76.2565 23.3709C76.2565 24.7058 76.5595 25.7418 77.1585 26.7082C77.687 27.5217 78.5115 28.1891 79.491 28.7106C80.393 29.3015 81.5205 29.4545 82.648 29.4545H95.875ZM91.668 18.5527V25.5958H82.951C82.197 25.5958 81.598 25.2968 81.147 24.9283C80.7735 24.4833 80.548 24.0384 80.548 23.3709C80.548 22.8495 80.7735 22.335 81.0765 21.89C81.45 21.5215 82.1265 21.146 82.958 21L91.675 18.5527H91.668ZM62.2895 9.58373C61.916 10.4737 61.613 11.4401 61.613 12.476V29.4545H65.82V13.067C65.82 12.2536 66.0455 11.6556 66.4965 11.1411C66.9475 10.6962 67.772 10.4737 68.829 10.4737H75.742L75.439 8.3253C75.439 7.73432 75.291 7.28935 74.988 6.99038C74.685 6.69142 74.1635 6.54541 73.487 6.54541H68.1525C66.6515 6.62189 65.3761 6.9139 64.474 7.43535C63.4241 8.02633 62.7476 8.77027 62.2966 9.58373H62.2895ZM25.9205 10.4737L25.695 8.3253C25.695 7.73432 25.4695 7.28935 25.1665 6.99038C24.8635 6.69142 24.342 6.54541 23.6655 6.54541H15.3995C13.821 6.62189 12.6935 6.9139 11.6435 7.43535C10.7415 8.02633 10.065 8.77027 9.614 9.58373C9.163 10.4737 8.9375 11.4401 8.9375 12.476V29.4545H13.067V19.5956H23.5105L23.285 17.4472C23.2075 16.8562 23.0595 16.4113 22.7565 16.1888C22.4534 15.8203 21.932 15.6673 21.2555 15.6673H13.0599V13.074C13.0599 12.2605 13.3629 11.6626 13.8139 11.1481C14.2649 10.7031 15.019 10.4806 16.069 10.4806H25.9135L25.9205 10.4737Z" fill="#163D71"/>
</svg>
