<svg width="92" height="36" viewBox="0 0 92 36" fill="none" xmlns="http://www.w3.org/2000/svg">
<rect x="0.590881" width="90.8182" height="36" rx="1" fill="#22303D"/>
<path fill-rule="evenodd" clip-rule="evenodd" d="M7.95453 17.9473L20.6624 30.9821L33.3703 17.9439L20.6624 4.90918L7.95453 17.9473ZM32.4073 17.9473L20.6624 29.9944L8.92072 17.9473L20.6624 5.90358L32.4073 17.9473ZM17.5804 10.3447L20.6624 7.1834L31.1595 17.9337L28.0775 21.0983L17.5804 10.3447ZM24.3699 24.9113L27.4519 21.7501L20.6624 14.7859L17.5804 17.9505L24.3699 24.9113ZM20.6624 28.7143L23.7607 25.553L20.6788 22.3917L17.5968 25.553L20.6624 28.7143ZM16.3325 17.964L20.0401 14.161L16.9581 10.9998L10.1653 17.9505L16.9548 24.9147L20.0368 21.7534L16.3325 17.964ZM80.5473 14.4967C80.2462 14.1194 79.863 13.82 79.4284 13.6225C78.9439 13.4107 78.421 13.3067 77.8943 13.3177C77.3493 13.3102 76.809 13.4218 76.3094 13.6452C75.8097 13.8686 75.3622 14.1986 74.9966 14.6133C74.6232 15.0428 74.3338 15.542 74.1444 16.0837C73.7356 17.2825 73.7356 18.588 74.1444 19.7867C74.326 20.328 74.6047 20.8298 74.966 21.2661C75.3204 21.6773 75.7552 22.0072 76.2422 22.2344C76.7283 22.4655 77.2581 22.5833 77.7938 22.5796C78.3792 22.5903 78.9577 22.45 79.4765 22.1717C79.9639 21.9018 80.3783 21.5121 80.6828 21.0375L83.2702 22.9966C82.7029 23.8274 81.9223 24.4807 81.0149 24.8839C80.1294 25.2844 79.1725 25.492 78.2047 25.4936C77.1738 25.5039 76.1495 25.3248 75.1802 24.9646C74.288 24.6348 73.4713 24.1206 72.7807 23.4538C72.0973 22.7823 71.561 21.9693 71.2073 21.0689C70.8186 20.0714 70.627 19.0048 70.6435 17.9307C70.6271 16.8567 70.8187 15.7901 71.2073 14.7926C71.5611 13.8923 72.0974 13.0793 72.7807 12.4076C73.4701 11.7415 74.2852 11.2273 75.1758 10.8969C76.145 10.5365 77.1694 10.3573 78.2003 10.3679C78.6149 10.3696 79.0287 10.4071 79.4372 10.4799C79.87 10.555 80.2945 10.6736 80.7046 10.8341C81.1277 11.001 81.5297 11.2192 81.9022 11.4841C82.2907 11.7619 82.6368 12.0973 82.9293 12.4794L80.5473 14.4967ZM61.627 14.2724C61.3624 13.9362 61.0088 13.6855 60.6086 13.5506C60.2194 13.4028 59.8086 13.324 59.3936 13.3175C59.1612 13.3186 58.9297 13.3456 58.703 13.3982C58.4684 13.4517 58.242 13.5376 58.03 13.6538C57.8263 13.7599 57.6497 13.9134 57.5142 14.1021C57.3788 14.3049 57.3099 14.5467 57.3176 14.7924C57.3081 14.9862 57.3469 15.1792 57.4302 15.3533C57.5136 15.5274 57.6387 15.6769 57.7939 15.7877C58.1581 16.0533 58.5587 16.2618 58.9827 16.4063C59.4635 16.5677 59.9807 16.7306 60.5343 16.895C61.079 17.0537 61.6007 17.2859 62.0859 17.5854C62.5692 17.8849 62.9789 18.2945 63.2834 18.7823C63.6274 19.3908 63.7928 20.0882 63.7598 20.7907C63.7755 21.5126 63.6258 22.2281 63.3227 22.8798C63.0455 23.4582 62.6435 23.9641 62.1471 24.3592C61.6334 24.7618 61.0486 25.0586 60.4251 25.2334C59.7519 25.4248 59.0562 25.5199 58.3578 25.5158C57.4966 25.5239 56.6406 25.3799 55.8272 25.09C55.0146 24.7873 54.2709 24.3174 53.6419 23.7092L55.8272 21.2346C56.1468 21.6661 56.5658 22.0096 57.0466 22.2343C57.5122 22.4671 58.0233 22.5882 58.5413 22.5884C58.7973 22.5882 59.0524 22.5581 59.3018 22.4988C59.544 22.4436 59.7768 22.3514 59.9924 22.2253C60.1875 22.1154 60.3562 21.9623 60.4862 21.777C60.6139 21.5793 60.6795 21.3461 60.6742 21.109C60.6814 20.9102 60.641 20.7127 60.5564 20.5337C60.4718 20.3547 60.3457 20.1997 60.189 20.0824C59.8184 19.8063 59.4086 19.5901 58.974 19.4413C58.4845 19.265 57.9571 19.0887 57.3919 18.9123C56.8383 18.7434 56.3069 18.5055 55.8097 18.204C55.325 17.9096 54.91 17.5084 54.5947 17.0295C54.2469 16.4519 54.0778 15.7798 54.1095 15.1018C54.0917 14.3984 54.2417 13.7013 54.5466 13.071C54.8307 12.4895 55.2367 11.9798 55.7354 11.5781C56.2452 11.172 56.8249 10.8679 57.4443 10.6815C58.0926 10.4843 58.7654 10.3847 59.4417 10.3856C60.2189 10.3838 60.9922 10.5001 61.7362 10.7308C62.4764 10.9621 63.1581 11.3569 63.7336 11.8874L61.627 14.2724ZM44.6297 10.7667H47.1822L53.2748 25.1124H49.7783L48.572 22.0684H43.1481L41.9811 25.1124H38.5808L44.6297 10.7667ZM45.8142 14.9449L44.114 19.4279H47.5362L45.8142 14.9449ZM65.7003 10.7667H68.7859V25.1304H65.7003V10.7667Z" fill="white"/>
</svg>
