<svg width="104" height="36" viewBox="0 0 104 36" fill="none" xmlns="http://www.w3.org/2000/svg">
<g clip-path="url(#clip0_444_7487)">
<mask id="mask0_444_7487" style="mask-type:luminance" maskUnits="userSpaceOnUse" x="11" y="2" width="82" height="31">
<path d="M92.625 2.45459H11.375V32.7273H92.625V2.45459Z" fill="white"/>
</mask>
<g mask="url(#mask0_444_7487)">
<path d="M16.6536 24.4999L16.6449 15.7731C16.6362 9.41471 21.8801 4.23839 28.3418 4.22559H37.9542V8.27959H28.3462C24.1597 8.28812 20.7577 11.6465 20.7663 15.7646L20.775 24.4956H16.6579L16.6536 24.4999Z" fill="#8D734A"/>
<path d="M34.9812 22.4004H37.9541V18.5427H31.7091C31.4274 18.5427 31.1978 18.7689 31.1978 19.0463L31.1891 31.1187C31.1891 31.396 31.4188 31.6222 31.7005 31.6222H37.9541V27.7645H34.9812V22.4004Z" fill="#8D734A"/>
<path d="M13.2689 31.6264V27.5681H23.4099C23.5876 27.5681 23.7046 27.4828 23.774 27.4145C23.8433 27.3462 23.9257 27.2268 23.9257 27.0561L23.9127 16.6906C23.9127 13.7888 26.3006 11.4247 29.2476 11.4204H37.9498V15.4744H29.2519C28.5802 15.4787 28.0298 16.0206 28.0298 16.6863L28.0428 27.0561C28.0428 28.2723 27.5661 29.4202 26.6906 30.2822C25.8152 31.1442 24.6537 31.6221 23.4143 31.6221H13.2689V31.6264Z" fill="#093F5B"/>
<path d="M20.5106 15.675H13.2689V19.7291H20.5106V15.675Z" fill="#8D734A"/>
<path d="M43.8914 5.21126V6.75178H46.3054V7.70767H43.8914V9.88403H42.6823V4.25537H46.6261V5.21126H43.8914Z" fill="#093F5B"/>
<path d="M47.2892 4.86988C47.2892 4.52849 47.5535 4.26392 47.9479 4.26392C48.3423 4.26392 48.6067 4.51569 48.6067 4.85281C48.6067 5.21554 48.3423 5.48012 47.9479 5.48012C47.5535 5.48012 47.2892 5.21554 47.2892 4.87415M47.3672 5.94099H48.5287V9.88831H47.3672V5.94099Z" fill="#093F5B"/>
<path d="M53.7855 7.6267V9.88841H52.624V7.80166C52.624 7.16583 52.325 6.87138 51.8093 6.87138C51.2502 6.87138 50.8472 7.2085 50.8472 7.93395V9.88841H49.6857V5.94109H50.7995V6.40197C51.1115 6.06484 51.5839 5.88135 52.1257 5.88135C53.0704 5.88135 53.7898 6.4233 53.7898 7.6267" fill="#093F5B"/>
<path d="M58.4574 7.63084V9.88401H57.3696V9.39327C57.1529 9.75173 56.7368 9.94376 56.1474 9.94376C55.207 9.94376 54.6479 9.43167 54.6479 8.74889C54.6479 8.06611 55.1463 7.56683 56.3685 7.56683H57.2916C57.2916 7.07608 56.9925 6.79017 56.3685 6.79017C55.9438 6.79017 55.5017 6.93099 55.2113 7.15716L54.7953 6.3549C55.233 6.04765 55.8831 5.87695 56.5245 5.87695C57.7466 5.87695 58.4574 6.43598 58.4574 7.63084ZM57.2959 8.63794V8.23681H56.4985C55.9568 8.23681 55.7834 8.43311 55.7834 8.69768C55.7834 8.9836 56.0304 9.17563 56.4378 9.17563C56.8279 9.17563 57.1616 9.00067 57.2959 8.63794Z" fill="#093F5B"/>
<path d="M63.6839 7.6267V9.88841H62.5224V7.80166C62.5224 7.16583 62.2234 6.87138 61.7077 6.87138C61.1486 6.87138 60.7456 7.2085 60.7456 7.93395V9.88841H59.5798V5.94109H60.6892V6.40197C61.0013 6.06484 61.4736 5.88135 62.0154 5.88135C62.9601 5.88135 63.6795 6.4233 63.6795 7.6267" fill="#093F5B"/>
<path d="M64.451 7.91249C64.451 6.72189 65.3828 5.87695 66.6872 5.87695C67.528 5.87695 68.1911 6.23541 68.4858 6.88405L67.5843 7.362C67.3676 6.98647 67.0469 6.82004 66.6829 6.82004C66.0935 6.82004 65.6298 7.22544 65.6298 7.91249C65.6298 8.59953 66.0935 9.00494 66.6829 9.00494C67.0469 9.00494 67.3676 8.84278 67.5843 8.46298L68.4858 8.94946C68.1954 9.58103 67.528 9.94802 66.6872 9.94802C65.3828 9.94802 64.451 9.10308 64.451 7.91676" fill="#093F5B"/>
<path d="M75.0991 7.63084V9.88401H74.0114V9.39327C73.7947 9.75173 73.3786 9.94376 72.7892 9.94376C71.8488 9.94376 71.2897 9.43167 71.2897 8.74889C71.2897 8.06611 71.7881 7.56683 73.0103 7.56683H73.9334C73.9334 7.07608 73.6343 6.79017 73.0103 6.79017C72.5855 6.79017 72.1435 6.93099 71.8531 7.15716L71.4371 6.3549C71.8748 6.04765 72.5249 5.87695 73.1663 5.87695C74.3884 5.87695 75.0991 6.43598 75.0991 7.63084ZM73.9377 8.63794V8.23681H73.1403C72.5985 8.23681 72.4252 8.43311 72.4252 8.69768C72.4252 8.9836 72.6722 9.17563 73.0839 9.17563C73.474 9.17563 73.8077 9.00067 73.942 8.63794" fill="#093F5B"/>
<path d="M77.3874 4.43896H76.2259V9.88413H77.3874V4.43896Z" fill="#093F5B"/>
<path d="M69.1965 4.86988C69.1965 4.52849 69.4609 4.26392 69.8553 4.26392C70.2496 4.26392 70.514 4.51569 70.514 4.85281C70.514 5.21554 70.2496 5.48012 69.8553 5.48012C69.4609 5.48012 69.1965 5.21554 69.1965 4.87415M69.2745 5.94099H70.436V9.88831H69.2745V5.94099Z" fill="#093F5B"/>
<path d="M42.6823 16.7802L43.0897 15.82C43.5317 16.1572 44.1861 16.3961 44.8102 16.3961C45.5253 16.3961 45.8156 16.1444 45.8156 15.803C45.8156 14.7703 42.782 15.4787 42.782 13.426C42.782 12.4872 43.4971 11.7063 44.9836 11.7063C45.638 11.7063 46.3097 11.8727 46.7951 12.197L46.4224 13.1657C45.937 12.8756 45.4386 12.7305 44.9749 12.7305C44.2598 12.7305 43.9824 13.0121 43.9824 13.362C43.9824 14.3777 47.0161 13.6778 47.0161 15.7048C47.0161 16.6266 46.2924 17.416 44.8015 17.416C43.9738 17.416 43.1417 17.1557 42.678 16.7759" fill="#093F5B"/>
<path d="M51.7486 15.6792H48.715C48.8277 16.1699 49.2524 16.4729 49.8634 16.4729C50.2882 16.4729 50.5915 16.3492 50.8689 16.0889L51.4886 16.7503C51.1159 17.1685 50.5568 17.3904 49.8331 17.3904C48.4463 17.3904 47.5449 16.5327 47.5449 15.3591C47.5449 14.1856 48.4636 13.3279 49.6858 13.3279C50.9079 13.3279 51.7746 14.1045 51.7746 15.3762C51.7746 15.4658 51.7573 15.5896 51.753 15.6835M48.702 15.0178H50.6782C50.5959 14.5185 50.2145 14.1942 49.6944 14.1942C49.1744 14.1942 48.7843 14.5099 48.702 15.0178Z" fill="#093F5B"/>
<path d="M54.9383 13.3237V14.382C54.8386 14.3735 54.7649 14.3692 54.6783 14.3692C54.0369 14.3692 53.6121 14.7106 53.6121 15.4702V17.3351H52.4507V13.3835H53.5601V13.9041C53.8418 13.52 54.3229 13.3237 54.9383 13.3237Z" fill="#093F5B"/>
<path d="M59.8269 13.3833L58.1367 17.3306H56.9362L55.2504 13.3833H56.4508L57.5603 16.0717L58.7087 13.3833H59.8269Z" fill="#093F5B"/>
<path d="M62.3968 15.3591C62.3968 14.1686 63.3286 13.3279 64.633 13.3279C65.4738 13.3279 66.1412 13.6863 66.4316 14.335L65.5301 14.8129C65.3134 14.4374 64.9927 14.271 64.6287 14.271C64.0393 14.271 63.5756 14.6764 63.5756 15.3634C63.5756 16.0505 64.0393 16.4559 64.6287 16.4559C64.9971 16.4559 65.3134 16.298 65.5301 15.9139L66.4316 16.4004C66.1412 17.032 65.4781 17.399 64.633 17.399C63.3286 17.399 62.3968 16.554 62.3968 15.3634" fill="#093F5B"/>
<path d="M70.9257 15.6792H67.8921C68.0047 16.1699 68.4294 16.4729 69.0405 16.4729C69.4652 16.4729 69.7686 16.3492 70.0459 16.0889L70.6657 16.7503C70.293 17.1685 69.7339 17.3904 69.0102 17.3904C67.6234 17.3904 66.7219 16.5327 66.7219 15.3591C66.7219 14.1856 67.6407 13.3279 68.8628 13.3279C70.0849 13.3279 70.9517 14.1045 70.9517 15.3762C70.9517 15.4658 70.9344 15.5896 70.93 15.6835M67.879 15.0178H69.8553C69.7729 14.5185 69.3915 14.1942 68.8715 14.1942C68.3514 14.1942 67.9614 14.5099 67.879 15.0178Z" fill="#093F5B"/>
<path d="M71.4111 16.9638L71.7968 16.1445C72.1521 16.3706 72.6982 16.5243 73.1923 16.5243C73.7297 16.5243 73.929 16.3834 73.929 16.1615C73.929 15.5172 71.5064 16.1786 71.5064 14.5997C71.5064 13.8529 72.1912 13.3237 73.3613 13.3237C73.9117 13.3237 74.5227 13.4475 74.9041 13.6694L74.5184 14.4845C74.124 14.2626 73.7297 14.19 73.3613 14.19C72.8412 14.19 72.6159 14.3522 72.6159 14.557C72.6159 15.2312 75.0385 14.5783 75.0385 16.1359C75.0385 16.8699 74.345 17.3905 73.1446 17.3905C72.4685 17.3905 71.7794 17.207 71.4067 16.9638" fill="#093F5B"/>
<path d="M60.3035 12.325C60.3035 11.9836 60.5679 11.719 60.9623 11.719C61.3566 11.719 61.621 11.9708 61.621 12.3036C61.621 12.6664 61.3566 12.9309 60.9623 12.9309C60.5679 12.9309 60.3035 12.6664 60.3035 12.325ZM60.3772 13.3918H61.5387V17.3391H60.3772V13.3918Z" fill="#093F5B"/>
<path d="M42.6823 22.0078C42.6823 20.3436 43.8914 19.1572 45.5123 19.1572C46.4137 19.1572 47.1678 19.5029 47.6618 20.1345L46.8861 20.894C46.5351 20.4673 46.0973 20.2454 45.573 20.2454C44.5979 20.2454 43.9044 20.9709 43.9044 22.0121C43.9044 23.0533 44.5979 23.7831 45.573 23.7831C46.0973 23.7831 46.5351 23.5612 46.8861 23.1259L47.6618 23.8812C47.1678 24.5213 46.418 24.867 45.5079 24.867C43.8914 24.867 42.6823 23.6764 42.6823 22.0078Z" fill="#093F5B"/>
<path d="M48.0302 22.8057C48.0302 21.6151 48.962 20.7744 50.2361 20.7744C51.5102 20.7744 52.4377 21.6194 52.4377 22.8057C52.4377 23.992 51.5146 24.837 50.2361 24.837C48.9576 24.837 48.0302 23.992 48.0302 22.8057ZM51.2589 22.8057C51.2589 22.1229 50.8168 21.7132 50.2361 21.7132C49.6554 21.7132 49.209 22.1229 49.209 22.8057C49.209 23.4885 49.6554 23.8981 50.2361 23.8981C50.8168 23.8981 51.2589 23.4885 51.2589 22.8057Z" fill="#093F5B"/>
<path d="M59.8528 22.5199V24.7816H58.6914V22.6991C58.6914 22.059 58.401 21.7646 57.9286 21.7646C57.4086 21.7646 57.0402 22.0974 57.0402 22.8015V24.7816H55.8787V22.6991C55.8787 22.059 55.6014 21.7646 55.116 21.7646C54.6046 21.7646 54.2362 22.0974 54.2362 22.8015V24.7816H53.0748V20.8343H54.1842V21.2909C54.4833 20.9538 54.9296 20.7788 55.441 20.7788C56.0001 20.7788 56.4768 20.9922 56.7628 21.4232C57.0835 21.0178 57.6036 20.7788 58.2103 20.7788C59.1638 20.7788 59.8485 21.3208 59.8485 22.5242" fill="#093F5B"/>
<path d="M67.7447 22.5199V24.7816H66.5832V22.6991C66.5832 22.059 66.2928 21.7646 65.8248 21.7646C65.3004 21.7646 64.9364 22.0974 64.9364 22.8015V24.7816H63.7749V22.6991C63.7749 22.059 63.4975 21.7646 63.0122 21.7646C62.4964 21.7646 62.1324 22.0974 62.1324 22.8015V24.7816H60.9709V20.8343H62.0804V21.2909C62.3794 20.9538 62.8258 20.7788 63.3415 20.7788C63.9006 20.7788 64.3773 20.9922 64.6633 21.4232C64.984 21.0178 65.5041 20.7788 66.1065 20.7788C67.0599 20.7788 67.749 21.3208 67.749 22.5242" fill="#093F5B"/>
<path d="M70.6916 24.4102L71.0774 23.5909C71.4327 23.817 71.9788 23.9707 72.4728 23.9707C73.0102 23.9707 73.2096 23.8299 73.2096 23.6122C73.2096 22.9678 70.787 23.6293 70.787 22.0504C70.787 21.3036 71.4717 20.7744 72.6419 20.7744C73.1922 20.7744 73.8076 20.8982 74.1847 21.1201L73.799 21.9351C73.4046 21.7132 73.0102 21.6407 72.6419 21.6407C72.1218 21.6407 71.8964 21.8029 71.8964 22.0077C71.8964 22.6819 74.319 22.029 74.319 23.5866C74.319 24.3206 73.6256 24.8412 72.4252 24.8412C71.7448 24.8412 71.06 24.6577 70.6873 24.4145" fill="#093F5B"/>
<path d="M74.7221 24.4102L75.1078 23.5909C75.4675 23.817 76.0092 23.9707 76.5033 23.9707C77.0407 23.9707 77.24 23.8299 77.24 23.6122C77.24 22.9678 74.8175 23.6293 74.8175 22.0504C74.8175 21.3036 75.5022 20.7744 76.6766 20.7744C77.227 20.7744 77.8381 20.8982 78.2195 21.1201L77.8338 21.9351C77.4394 21.7132 77.045 21.6407 76.681 21.6407C76.1566 21.6407 75.9356 21.8029 75.9356 22.0077C75.9356 22.6819 78.3582 22.029 78.3582 23.5866C78.3582 24.3206 77.6648 24.8412 76.4643 24.8412C75.7882 24.8412 75.0991 24.6577 74.7264 24.4145" fill="#093F5B"/>
<path d="M81.1664 22.8057C81.1664 21.6151 82.0982 20.7744 83.3723 20.7744C84.6465 20.7744 85.5696 21.6194 85.5696 22.8057C85.5696 23.992 84.6465 24.837 83.3723 24.837C82.0982 24.837 81.1664 23.992 81.1664 22.8057ZM84.3951 22.8057C84.3951 22.1229 83.9574 21.7132 83.3723 21.7132C82.7873 21.7132 82.3452 22.1229 82.3452 22.8057C82.3452 23.4885 82.7916 23.8981 83.3723 23.8981C83.9531 23.8981 84.3951 23.4885 84.3951 22.8057Z" fill="#093F5B"/>
<path d="M90.5231 22.5198V24.7815H89.3617V22.699C89.3617 22.0589 89.0626 21.7644 88.5469 21.7644C87.9878 21.7644 87.5848 22.1016 87.5848 22.8313V24.7815H86.4233V20.8342H87.5371V21.295C87.8535 20.9579 88.3215 20.7744 88.8633 20.7744C89.808 20.7744 90.5274 21.3164 90.5274 22.5198" fill="#093F5B"/>
<path d="M68.6938 19.7632C68.6938 19.4218 68.9581 19.1572 69.3525 19.1572C69.7469 19.1572 70.0113 19.409 70.0113 19.7461C70.0113 20.1089 69.7469 20.3734 69.3525 20.3734C68.9581 20.3734 68.6938 20.1089 68.6938 19.7632ZM68.7675 20.83H69.9289V24.7774H68.7675V20.83Z" fill="#093F5B"/>
<path d="M79.0862 19.7632C79.0862 19.4218 79.3506 19.1572 79.745 19.1572C80.1394 19.1572 80.4037 19.409 80.4037 19.7461C80.4037 20.1089 80.1394 20.3734 79.745 20.3734C79.3506 20.3734 79.0862 20.1089 79.0862 19.7632ZM79.1642 20.83H80.3257V24.7774H79.1642V20.83Z" fill="#093F5B"/>
<path d="M45.5773 31.571L45.573 29.6933L44.6369 31.2424H44.3075L43.3714 29.7317V31.571H42.6823V28.4387H43.2934L44.4852 30.3846L45.6553 28.4387H46.262L46.2707 31.571H45.5773Z" fill="#8D734A"/>
<path d="M49.7117 30.9009H48.2339L47.9522 31.5751H47.1981L48.6153 28.4429H49.3433L50.7648 31.5751H49.9934L49.7117 30.9009ZM49.482 30.3504L48.9793 29.1513L48.4723 30.3504H49.482Z" fill="#8D734A"/>
<path d="M51.5969 30.1968V28.4429H52.3337V30.1712C52.3337 30.7686 52.598 31.0118 53.0444 31.0118C53.4908 31.0118 53.7552 30.7686 53.7552 30.1712V28.4429H54.4832V30.1968C54.4832 31.1185 53.9458 31.6306 53.0401 31.6306C52.1343 31.6306 51.6013 31.1185 51.6013 30.1968" fill="#8D734A"/>
<path d="M57.8246 31.571L57.2135 30.7004H56.5331V31.571H55.7964V28.4387H57.1745C58.024 28.4387 58.557 28.874 58.557 29.5738C58.557 30.0433 58.3187 30.3889 57.9026 30.5639L58.6177 31.571H57.8289H57.8246ZM57.1312 29.0276H56.5288V30.1201H57.1312C57.5819 30.1201 57.8073 29.9152 57.8073 29.5738C57.8073 29.2325 57.5819 29.0276 57.1312 29.0276Z" fill="#8D734A"/>
<path d="M60.4639 28.4387H59.7272V31.571H60.4639V28.4387Z" fill="#8D734A"/>
<path d="M62.4705 29.0319H61.452V28.4387H64.2257V29.0319H63.2029V31.571H62.4705V29.0319Z" fill="#8D734A"/>
<path d="M65.9462 28.4387H65.2094V31.571H65.9462V28.4387Z" fill="#8D734A"/>
<path d="M67.2636 30.1968V28.4429H68.0004V30.1712C68.0004 30.7686 68.2647 31.0118 68.7111 31.0118C69.1575 31.0118 69.4218 30.7686 69.4218 30.1712V28.4429H70.1499V30.1968C70.1499 31.1185 69.6125 31.6306 68.7111 31.6306C67.8097 31.6306 67.2679 31.1185 67.2679 30.1968" fill="#8D734A"/>
<path d="M71.2161 31.2635L71.4674 30.7173C71.7361 30.9093 72.1348 31.0459 72.5162 31.0459C72.9496 31.0459 73.1273 30.9008 73.1273 30.7088C73.1273 30.1241 71.2767 30.5253 71.2767 29.3603C71.2767 28.8269 71.7145 28.3831 72.6202 28.3831C73.0189 28.3831 73.4263 28.4769 73.7253 28.6604L73.5 29.2109C73.2053 29.0488 72.9019 28.9634 72.6202 28.9634C72.1825 28.9634 72.0135 29.1256 72.0135 29.3219C72.0135 29.898 73.864 29.5011 73.864 30.649C73.864 31.1739 73.422 31.622 72.5119 31.622C72.0092 31.622 71.4978 31.4726 71.2161 31.2593" fill="#8D734A"/>
</g>
</g>
<defs>
<clipPath id="clip0_444_7487">
<rect width="81.25" height="30.2727" fill="white" transform="translate(11.375 2.45459)"/>
</clipPath>
</defs>
</svg>
