<svg width="106" height="36" viewBox="0 0 106 36" fill="none" xmlns="http://www.w3.org/2000/svg">
<path fill-rule="evenodd" clip-rule="evenodd" d="M19.1166 14.4055L33.7932 29.0344L37.7389 25.1015L19.1166 6.54541L0.5 25.1015L4.43999 29.0344L19.1166 14.4055ZM16.4709 27.9373C17.9305 29.3923 20.3025 29.3923 21.7622 27.9373C23.2219 26.4824 23.2219 24.1181 21.7622 22.6632C20.2968 21.2083 17.9305 21.2083 16.4709 22.6632C15.0112 24.1181 15.0112 26.4824 16.4709 27.9373ZM47.7571 15.4285V20.4127H55.4832V22.7315H47.7571V29.0344H45.2198V13.1096H56.5209V15.4285H47.7571ZM68.5176 17.7189H71.0093L71.015 17.7133C70.6387 14.0361 67.5369 12.8199 64.6004 12.8199C61.0539 12.8199 58.7047 14.6954 58.7047 17.5996C58.7047 19.9411 60.096 21.4643 63.078 22.0269L65.872 22.5668C67.7536 22.8965 68.3865 23.7603 68.3865 24.7208C68.3865 26.1928 67.0979 27.0624 65.0053 27.0624C62.4679 27.0624 60.8714 25.8689 60.5635 23.8569H58.049C58.3569 27.2783 60.9626 29.313 64.8627 29.313C68.5233 29.313 70.9694 27.392 70.9694 24.4196C70.9694 21.9587 69.2532 20.697 66.2711 20.1116L64.036 19.6683C62.3197 19.3387 61.3789 18.6794 61.3789 17.4177C61.3789 15.8719 62.7188 15.0023 64.7601 15.0023C67.0865 15.0023 68.2382 16.031 68.5176 17.7189ZM86.2732 22.9872H88.879C88.1263 26.8064 85.1443 29.3355 81.1472 29.3355C76.5401 29.3355 72.851 25.8232 72.851 21.0663C72.851 16.3093 76.5401 12.8254 81.1472 12.8254C85.1443 12.8254 88.1263 15.309 88.879 19.1226H86.2732C85.6403 16.6617 83.8043 15.167 81.1529 15.167C77.8858 15.167 75.4226 17.6278 75.4226 21.0663C75.4226 24.5047 77.8915 26.9656 81.1529 26.9656C83.81 26.9656 85.6403 25.4652 86.2732 22.9816V22.9872ZM93.3608 25.2152H101.155L102.797 29.0344H105.5L98.4525 13.1096H96.0806L89.0102 29.0344H91.7129L93.3608 25.2152ZM97.2608 16.1048L100.197 22.9646H94.3016L97.2608 16.1048Z" fill="#133F74"/>
</svg>
