<svg width="64" height="36" viewBox="0 0 64 36" fill="none" xmlns="http://www.w3.org/2000/svg">
<rect x="0.5" width="63" height="36" rx="1" fill="#701B45"/>
<path d="M24.4 3.67725L13.515 32.3227H36.012L46.897 3.67725H24.4ZM47.2105 9.66441L40.3016 27.8896H43.0353L44.9034 22.8081H52.019L53.8872 27.8896H56.7828L49.7085 9.66441H47.2105ZM19.486 9.66512L7.44885 9.66797V27.8945H10.0474V19.9143H15.5919L16.4754 17.591H10.0474V12.0149H18.5957L19.486 9.66512ZM29.9872 9.78616C30.8838 9.78616 31.6887 9.89782 32.399 10.1201C33.1103 10.3418 33.7328 10.6193 34.2658 10.9527C34.7988 11.2861 35.2565 11.6488 35.6371 12.042C36.0182 12.4352 36.3268 12.8106 36.5639 13.1696L34.8371 14.6569C34.6338 14.3667 34.3927 14.0626 34.1142 13.7463C33.8348 13.4305 33.4999 13.1443 33.1109 12.8879C32.7214 12.6315 32.2724 12.4182 31.7644 12.2472C31.2573 12.0763 30.6727 11.9906 30.0127 11.9906C29.0817 11.9906 28.2479 12.1704 27.5113 12.529C26.775 12.888 26.1486 13.3743 25.6321 13.9898C25.1165 14.6052 24.7222 15.3226 24.4517 16.1427C24.1812 16.9633 24.0458 17.8353 24.0458 18.7575C24.0458 19.6807 24.1853 20.548 24.4648 21.3591C24.7442 22.1712 25.1381 22.8764 25.6452 23.4738C26.1532 24.0721 26.7706 24.5417 27.4989 24.8831C28.2266 25.2255 29.0391 25.3958 29.9362 25.3958C30.6983 25.3958 31.3543 25.2979 31.9043 25.1008C32.4547 24.9047 32.92 24.6702 33.3011 24.3962C33.6816 24.1231 33.9947 23.8456 34.2403 23.5635C34.4854 23.2819 34.693 23.0469 34.8619 22.8589L36.5639 24.2939C36.3777 24.6012 36.0895 24.9523 35.7005 25.345C35.311 25.7377 34.8373 26.1096 34.2789 26.4601C33.72 26.8101 33.0765 27.1049 32.3487 27.3442C31.621 27.5835 30.8164 27.7031 29.9362 27.7031C28.6835 27.7031 27.5407 27.4803 26.5086 27.0367C25.476 26.5923 24.5877 25.9732 23.8425 25.1788C23.0978 24.3838 22.5181 23.4443 22.1032 22.3587C21.6878 21.2736 21.481 20.09 21.481 18.8083C21.481 17.5613 21.6878 16.3911 22.1032 15.2975C22.5181 14.2039 23.0978 13.2468 23.8425 12.4267C24.5877 11.6066 25.4804 10.9609 26.521 10.4908C27.5621 10.0212 28.7175 9.78616 29.9872 9.78616ZM48.4557 12.5881L51.2342 20.5946H45.6614L48.4557 12.5881Z" fill="white"/>
</svg>
