<svg width="38" height="36" viewBox="0 0 38 36" fill="none" xmlns="http://www.w3.org/2000/svg">
<rect width="38" height="36" fill="white"/>
<path fill-rule="evenodd" clip-rule="evenodd" d="M15.3394 2.95806C15.274 2.97393 15.2137 2.99374 15.2054 3.00209C15.193 3.0147 15.2375 3.27269 15.2569 3.30028C15.274 3.32475 15.5727 3.24298 15.5727 3.21376C15.5727 3.12258 15.5141 2.9236 15.488 2.9263C15.4716 2.92793 15.4048 2.94226 15.3394 2.95806ZM18.4622 3.13314C18.44 3.19256 18.2913 3.59044 18.1317 4.01714C17.9721 4.44391 17.8433 4.79326 17.8456 4.7935C17.8478 4.79375 17.9356 4.79006 18.0408 4.78532L18.232 4.77672L18.3037 4.5743L18.3754 4.37188L18.7221 4.379L19.0688 4.38604L19.146 4.58306L19.2233 4.78016L19.4201 4.78024L19.6168 4.78032L19.5727 4.67048C19.5484 4.61007 19.3855 4.2153 19.2106 3.79311L18.8926 3.02558L18.6976 3.02534L18.5025 3.02501L18.4622 3.13314ZM17.4406 3.08075L17.2859 3.10465L17.1367 3.47487C16.9969 3.82184 16.985 3.84214 16.9479 3.79696C16.9261 3.77035 16.8133 3.63161 16.6972 3.48862C16.4674 3.20549 16.4771 3.2104 16.2275 3.25149C16.161 3.26246 16.0998 3.2781 16.0917 3.2862C16.0836 3.2943 16.2354 3.48796 16.4291 3.71658C16.6227 3.94511 16.7955 4.15047 16.8132 4.1729C16.8308 4.19533 16.867 4.37074 16.8936 4.5626C16.9202 4.75454 16.9473 4.91685 16.9538 4.92332C16.9653 4.93478 17.2764 4.8914 17.2915 4.87625C17.2957 4.87208 17.2769 4.70739 17.2496 4.51029L17.2001 4.15195L17.4421 3.62171C17.7402 2.96886 17.7405 3.03451 17.4406 3.08075ZM20.457 3.09966C20.2154 3.17316 20.0925 3.32803 20.0925 3.55926C20.0925 3.82519 20.1985 3.93267 20.656 4.13075C20.947 4.25672 21.0164 4.32793 20.9661 4.44923C20.8466 4.73776 20.279 4.5928 20.279 4.27366C20.279 4.23167 19.9685 4.17617 19.9262 4.21063C19.8904 4.23977 19.962 4.51521 20.0328 4.62063C20.2691 4.97243 21.0223 5.01884 21.2406 4.69495C21.4783 4.3425 21.3235 4.00298 20.8387 3.81341C20.4333 3.65494 20.3155 3.49689 20.5347 3.40611C20.7129 3.33228 20.9534 3.42445 21.0074 3.58709C21.0378 3.6786 21.1092 3.70684 21.3192 3.71044L21.4053 3.71191L21.389 3.59306C21.3398 3.2339 20.8566 2.97811 20.457 3.09966ZM15.4519 3.426C15.3541 3.4481 15.2929 3.47495 15.2929 3.4959C15.2929 3.53789 15.6673 5.16323 15.6799 5.17575C15.7117 5.20767 16.0315 5.10274 16.02 5.06427C16.0131 5.04102 15.9252 4.66139 15.8247 4.2207C15.6138 3.29553 15.6536 3.38041 15.4519 3.426ZM18.8268 3.76986C18.9533 4.09702 18.9547 4.0935 18.7045 4.0935C18.4537 4.0935 18.4625 4.11765 18.5845 3.76348C18.6421 3.59666 18.6962 3.46816 18.7049 3.4779C18.7136 3.48764 18.7685 3.61901 18.8268 3.76986ZM22.1234 4.18641C21.4686 5.03971 21.5058 4.96408 21.7138 5.0204C21.9077 5.07286 21.9004 5.07597 22.0374 4.88076C22.1099 4.77738 22.1571 4.73244 22.1847 4.74063C22.207 4.74726 22.3511 4.78892 22.505 4.83336C22.8456 4.9315 22.8168 4.90449 22.8411 5.14841L22.8612 5.35075L23.0392 5.40649C23.1372 5.43718 23.2197 5.46002 23.2227 5.45732C23.2256 5.45454 23.1865 5.02776 23.1357 4.50874L23.0434 3.56523L22.9014 3.5257C22.8233 3.50401 22.7423 3.4797 22.7213 3.47168C22.694 3.46128 22.5234 3.66526 22.1234 4.18641ZM14.2881 3.7661C14.0113 3.83051 13.4579 4.02262 13.4685 4.05053C13.4748 4.06715 13.5924 4.44138 13.7298 4.88207C13.8673 5.32284 13.9823 5.68716 13.9854 5.69174C13.9953 5.70656 14.3017 5.61349 14.3152 5.59156C14.3225 5.57985 14.2878 5.44038 14.2383 5.28158C14.1887 5.12279 14.1482 4.9861 14.1482 4.97775C14.1482 4.9694 14.2425 4.93142 14.358 4.89336C14.9637 4.69372 15.1368 4.27841 14.7721 3.89984C14.6313 3.75366 14.4987 3.71707 14.2881 3.7661ZM22.7709 4.26965C22.8037 4.6465 22.8277 4.61621 22.5626 4.5319L22.3438 4.46233L22.5357 4.20048C22.6412 4.05643 22.7312 3.94224 22.7356 3.94666C22.74 3.95108 22.756 4.09645 22.7709 4.26965ZM14.5081 4.16111C14.6655 4.32867 14.5624 4.50162 14.2406 4.60983L14.049 4.67416L13.9949 4.50465C13.9651 4.41142 13.931 4.30452 13.9191 4.26703C13.8982 4.20065 13.9019 4.1977 14.0675 4.14843C14.3616 4.06068 14.4153 4.06224 14.5081 4.16111ZM24.2604 4.13942C24.0432 4.27743 23.965 4.5211 24.0666 4.74218C24.1092 4.835 24.1781 4.90703 24.5356 5.23215C24.7764 5.45126 24.6171 5.68749 24.2996 5.58206C24.112 5.51969 24.0187 5.40183 24.0187 5.22699V5.0903L23.8616 5.03726C23.6722 4.97325 23.6783 4.96826 23.6667 5.19777C23.6342 5.8417 24.6368 6.21486 24.9529 5.67644C25.1187 5.3938 25.0408 5.16847 24.6698 4.85866C24.3717 4.60974 24.3234 4.5301 24.4148 4.43876C24.5542 4.29944 24.917 4.49401 24.9202 4.70977C24.9219 4.82158 25.1778 4.97971 25.2463 4.9112C25.2945 4.86299 25.299 4.65681 25.2544 4.54001C25.1325 4.22095 24.5202 3.97416 24.2604 4.13942ZM11.5278 4.99903C11.241 5.16028 10.9965 5.30197 10.9846 5.31375C10.9678 5.33029 11.542 6.39723 11.7812 6.7938L11.8218 6.86116L12.3807 6.54669C12.6882 6.37373 12.9512 6.22779 12.9652 6.22255C12.9873 6.21412 12.903 6.02709 12.8501 5.96758C12.8398 5.95596 12.6464 6.05042 12.4205 6.17745C11.9294 6.45354 11.9958 6.45002 11.8653 6.20741L11.7576 6.00704L12.1069 5.8128C12.2991 5.70599 12.472 5.60883 12.4911 5.59688C12.5217 5.57764 12.4769 5.46722 12.3789 5.32005C12.3748 5.31383 12.0635 5.48523 11.7144 5.68577L11.6084 5.74675L11.5149 5.57961C11.4635 5.48769 11.4254 5.40886 11.4301 5.40453C11.4349 5.40011 11.6048 5.30377 11.8077 5.1904C12.0106 5.07704 12.1912 4.97472 12.209 4.96302C12.2474 4.93797 12.1293 4.70346 12.079 4.70486C12.0627 4.70535 11.8147 4.8377 11.5278 4.99903ZM25.9685 4.83762C25.9298 4.89958 25.2158 6.15674 25.1676 6.24768C25.1393 6.30089 25.3413 6.45935 25.4373 6.45935C25.4597 6.45935 26.2533 5.0921 26.2957 4.98029C26.3075 4.94918 26.2763 4.91849 26.1733 4.85947C26.0082 4.76502 26.0133 4.76559 25.9685 4.83762ZM10.3004 5.76206C10.1956 5.84538 10.1541 5.89564 10.1541 5.9391C10.1541 6.00147 10.2221 6.5029 10.2444 6.60562C10.2614 6.68363 10.251 6.68158 9.85013 6.52696L9.49775 6.39109L9.33045 6.5191C9.23845 6.5895 9.16617 6.65015 9.16994 6.65391C9.1737 6.6576 9.4299 6.75001 9.73938 6.85912L10.3019 7.05761L10.5238 7.3436C10.6459 7.50092 10.7543 7.62959 10.7646 7.62959C10.8143 7.62959 11.0444 7.41833 11.024 7.39148C11.0119 7.37552 10.9166 7.25372 10.8121 7.1208C10.7076 6.98787 10.6146 6.86673 10.6055 6.85167C10.5964 6.83652 10.5647 6.57894 10.535 6.27928C10.4661 5.58362 10.4817 5.618 10.3004 5.76206ZM27.0333 6.33379C26.7534 6.68281 26.5098 6.98959 26.492 7.01553C26.4629 7.05761 26.4747 7.07439 26.6021 7.17269C26.6844 7.23613 26.752 7.27198 26.7618 7.25749C26.9138 7.03289 27.0818 6.86927 27.1744 6.85568C27.2297 6.84757 27.3215 6.83407 27.3784 6.82572L27.4818 6.8105L27.4672 6.8957C27.4221 7.16 27.3513 7.66053 27.3513 7.71471C27.3513 7.77185 27.665 8.06463 27.6926 8.03336C27.6972 8.02812 27.7255 7.77774 27.7556 7.47693C27.7856 7.17613 27.8158 6.89505 27.8226 6.85232L27.835 6.77473L28.2101 6.7302C28.8087 6.65907 28.792 6.66275 28.7305 6.61454C28.7019 6.5922 28.6161 6.52491 28.5398 6.46516L28.401 6.35655L27.8963 6.43234C27.6186 6.474 27.388 6.50462 27.3839 6.50044C27.3797 6.49627 27.4794 6.36588 27.6054 6.21077C27.8732 5.88131 27.8656 5.91242 27.7087 5.7916C27.5461 5.66621 27.609 5.61579 27.0333 6.33379ZM28.8232 7.4207C28.0433 8.15508 27.9866 8.36429 28.444 8.82168C28.8302 9.20786 29.0302 9.15727 29.7362 8.49476C30.2354 8.02641 30.2105 8.07101 30.062 7.91427L29.9489 7.79493L29.8394 7.89806C29.7792 7.95487 29.5982 8.12569 29.4374 8.27777C28.9438 8.74416 28.8649 8.7783 28.6756 8.60731C28.4194 8.37583 28.4508 8.29553 29.0094 7.75384L29.4716 7.30578L29.3615 7.17515C29.2243 7.01242 29.2875 6.98361 28.8232 7.4207ZM8.39144 7.39516C8.24125 7.54765 8.20785 7.42758 8.67031 8.39793L9.06901 9.23462L9.20292 9.10235L9.33675 8.97016L9.24794 8.79369C9.13785 8.57506 9.12999 8.59994 9.3988 8.3151L9.62299 8.07764L9.72956 8.11824C9.78816 8.14059 9.87722 8.17652 9.92739 8.19813L10.0187 8.23734L10.1549 8.09942C10.2298 8.02362 10.286 7.95716 10.2798 7.95184C10.2582 7.93309 8.56391 7.2732 8.53771 7.27329C8.52323 7.27337 8.45742 7.32821 8.39144 7.39516ZM9.02604 7.82472C9.35173 7.96027 9.34715 7.94578 9.13147 8.15729L8.99543 8.29062L8.8499 7.99825C8.76985 7.83749 8.71247 7.70587 8.72237 7.70587C8.73228 7.70587 8.86889 7.7594 9.02604 7.82472ZM7.3268 8.52513C7.2925 8.57121 7.2226 8.66698 7.17144 8.73786L7.07854 8.8667L7.46062 9.31909C7.67074 9.56784 7.83854 9.77558 7.83346 9.78065C7.82839 9.78573 7.58078 9.69848 7.28317 9.58683C6.98556 9.47518 6.7319 9.39014 6.71946 9.39783C6.64636 9.44302 6.40916 9.8251 6.44231 9.84425C6.46203 9.85555 6.78657 10.0833 7.16358 10.3504L7.84901 10.8361L7.90565 10.7656C7.93676 10.7268 7.98038 10.6647 8.00248 10.6274L8.04276 10.5598L7.5275 10.1973C7.24413 9.99781 7.00086 9.82436 6.98687 9.81168C6.9574 9.78516 6.92269 9.77239 7.65339 10.0561C8.31851 10.3142 8.23715 10.3047 8.35232 10.1387L8.44579 10.0039L8.01525 9.50162C7.77846 9.22529 7.58471 8.99381 7.58471 8.98726C7.58471 8.98072 7.65625 9.02598 7.74375 9.08802C7.83117 9.14999 8.06813 9.31786 8.27039 9.46111L8.63798 9.72156L8.69078 9.65534C8.71975 9.619 8.76297 9.5563 8.78671 9.51611L8.82984 9.44302L8.13803 8.95313C7.32819 8.37951 7.40488 8.41995 7.3268 8.52513ZM29.9651 9.14638L29.2592 9.642L29.3626 9.79424L29.466 9.94657L29.5852 9.86071C30.1039 9.4873 30.0688 9.50089 30.148 9.64175C30.225 9.77894 30.2136 9.85309 30.0512 10.2641L29.9212 10.5933L30.04 10.7656C30.1053 10.8603 30.1665 10.929 30.1759 10.9182C30.238 10.8475 30.4401 10.2949 30.4497 10.1697L30.4607 10.026L30.5693 10.1026C30.9626 10.3798 31.4903 9.96179 31.2974 9.52585C31.2316 9.3768 30.7317 8.64791 30.6966 8.64954C30.6826 8.6502 30.3534 8.87382 29.9651 9.14638ZM30.9797 9.5856C31.0188 9.72786 30.8568 9.88878 30.7124 9.85097C30.6518 9.83517 30.3283 9.42738 30.3279 9.3664C30.3278 9.34913 30.4042 9.28381 30.4976 9.22112L30.6675 9.1071L30.8153 9.31598C30.8965 9.43082 30.9705 9.55221 30.9797 9.5856ZM31.3678 10.666C30.5279 11.1235 30.4227 11.2582 30.5668 11.6921C30.74 12.2135 31.0882 12.379 31.5459 12.1577C31.728 12.0696 32.5093 11.6563 32.5386 11.6325C32.5535 11.6204 32.4705 11.4436 32.4166 11.3727L32.371 11.3125L31.8772 11.5768C31.1139 11.9855 31.0619 11.992 30.9121 11.6985C30.7832 11.4458 30.8469 11.363 31.3988 11.0654C31.6422 10.9341 31.8897 10.7991 31.9488 10.7653L32.0563 10.7037L31.9803 10.5531C31.8863 10.3669 31.9325 10.3584 31.3678 10.666ZM6.02969 10.6316C5.91739 10.6909 5.82195 10.8327 5.56723 11.319L5.37373 11.6885L6.15435 12.099L6.93505 12.5096L7.01822 12.3539C7.06397 12.2684 7.10138 12.1959 7.10138 12.1931C7.10138 12.1901 6.96681 12.1169 6.80245 12.0303C6.43306 11.8356 6.44713 11.85 6.51589 11.7386C6.60707 11.5911 6.65938 11.5713 7.08124 11.5245L7.46922 11.4814L7.56801 11.3094C7.62228 11.2149 7.65952 11.1302 7.65068 11.1214C7.61753 11.0882 6.94807 11.1635 6.83618 11.2131L6.72609 11.2618L6.73902 11.1008C6.76914 10.7259 6.36152 10.4562 6.02969 10.6316ZM6.3963 11.0337C6.47586 11.1244 6.46858 11.1764 6.33917 11.4409C6.26952 11.5834 6.20616 11.6999 6.19839 11.6999C6.15582 11.6999 5.8294 11.5167 5.8294 11.4928C5.8294 11.4567 6.02748 11.0919 6.08126 11.0291C6.16466 10.9317 6.30864 10.9338 6.3963 11.0337ZM4.8633 12.9716C4.74748 13.3087 4.65753 13.5893 4.66342 13.5952C4.696 13.6278 6.29988 14.1651 6.31601 14.1489C6.33565 14.1291 6.74524 12.9559 6.74524 12.9194C6.74524 12.8885 6.48855 12.8111 6.46702 12.8355C6.45647 12.8476 6.38083 13.0533 6.29898 13.2928L6.15018 13.7281L5.92746 13.6534L5.70466 13.5787L5.84593 13.171C5.92361 12.9468 5.97747 12.7546 5.96552 12.7439C5.95365 12.733 5.89038 12.7065 5.82506 12.6849L5.70621 12.6456L5.58032 13.0059C5.51108 13.2041 5.44674 13.3911 5.43733 13.4214L5.42022 13.4766L5.26225 13.4245C5.1754 13.3957 5.09461 13.3634 5.08266 13.3527C5.0708 13.3419 5.12515 13.148 5.20356 12.9217C5.37373 12.4306 5.37201 12.4534 5.24162 12.4144C5.18424 12.3972 5.12294 12.3776 5.1055 12.371C5.08381 12.3627 5.00711 12.5528 4.8633 12.9716ZM32.0502 12.6657C31.6193 12.8026 31.2611 12.9204 31.2541 12.9274C31.2471 12.9344 31.3241 13.2035 31.4252 13.5256L31.6091 14.1112L31.7379 14.073C31.8088 14.0521 31.874 14.0306 31.8829 14.0253C31.8918 14.0199 31.8416 13.8319 31.7714 13.6074C31.7012 13.3829 31.6507 13.1922 31.6592 13.1836C31.6678 13.1751 31.9699 13.0754 32.3304 12.9618C33.0993 12.72 33.0221 12.7676 32.9626 12.5712C32.9032 12.375 32.9947 12.3655 32.0502 12.6657ZM32.8335 14.2186C31.9258 14.4366 31.8035 14.5302 31.8363 14.9816C31.8738 15.5011 32.0921 15.7416 32.4999 15.7129C32.6822 15.7 33.706 15.4756 33.7447 15.4401C33.7645 15.4217 33.705 15.1451 33.6747 15.1147C33.6667 15.1067 33.4035 15.1593 33.0898 15.2317C32.3092 15.4117 32.2534 15.4049 32.1704 15.1195C32.082 14.8154 32.1796 14.7445 32.9225 14.5728C33.5952 14.4173 33.5405 14.4483 33.4906 14.2502C33.4419 14.0571 33.4953 14.0597 32.8335 14.2186ZM4.67332 14.3836C4.2134 14.5475 4.0988 15.3842 4.50765 15.5927C4.80682 15.7454 5.06588 15.6002 5.29736 15.1501C5.46933 14.8158 5.57885 14.7482 5.71333 14.8933C5.88768 15.0815 5.73748 15.4638 5.47261 15.5062C5.35007 15.5258 5.35687 15.5155 5.33542 15.713L5.31807 15.872H5.40983C6.06088 15.872 6.39074 14.8016 5.82424 14.5274C5.47097 14.3563 5.23933 14.4826 4.96676 14.9944C4.79954 15.3084 4.72939 15.3594 4.61824 15.2483C4.46673 15.0968 4.61152 14.7272 4.82238 14.7272C4.8687 14.7272 4.89089 14.7109 4.90013 14.67C4.98051 14.3162 4.95457 14.2834 4.67332 14.3836ZM4.83391 17.046C4.30417 17.083 3.96475 17.5667 4.13676 18.0392C4.25289 18.3581 4.63008 18.5762 4.68269 18.3549C4.69666 18.2964 4.71612 18.224 4.72603 18.1941C4.74137 18.1478 4.72872 18.1339 4.63979 18.0997C4.04447 17.8709 4.59226 17.2185 5.20147 17.4307C5.53048 17.5453 5.57009 17.9518 5.26607 18.0928C5.19825 18.1243 5.25633 18.4305 5.33125 18.4362C5.51799 18.4504 5.74777 18.1434 5.76533 17.8563C5.78982 17.4553 5.59291 17.1753 5.21726 17.0772C5.055 17.0349 5.02579 17.0325 4.83391 17.046ZM32.5319 18.4948C32.5071 18.8181 32.491 19.0868 32.4963 19.092C32.5174 19.1132 34.0772 19.2301 34.0929 19.2117C34.1073 19.1948 34.1968 18.1581 34.1951 18.028C34.1946 17.9911 34.1708 17.9835 34.0562 17.9835H33.9178L33.9043 18.0916C33.8969 18.1511 33.8789 18.3478 33.8642 18.5287C33.8496 18.7096 33.8349 18.8593 33.8317 18.8613C33.8145 18.8718 33.4584 18.8331 33.4446 18.8192C33.4356 18.8103 33.4418 18.6352 33.4583 18.4303C33.475 18.2253 33.4816 18.0507 33.4732 18.0423C33.4372 18.0064 33.2024 18.0023 33.2003 18.0375C33.1992 18.0568 33.1849 18.2328 33.1685 18.4287L33.1388 18.7849L32.9989 18.7914C32.7948 18.8011 32.7994 18.8128 32.8364 18.3778C32.8543 18.1679 32.8696 17.9762 32.8703 17.9517C32.8715 17.9143 32.8482 17.9072 32.7244 17.9072H32.577L32.5319 18.4948ZM32.443 19.3804C32.4269 19.478 32.4137 19.569 32.4137 19.5826C32.4137 19.5962 32.5347 19.7113 32.6825 19.8384C32.9326 20.0535 32.9473 20.0711 32.8924 20.0914C32.2237 20.3396 32.2735 20.3112 32.2509 20.458C32.2418 20.5172 32.2279 20.6018 32.2198 20.646L32.2054 20.7264L32.723 20.515L33.2405 20.3038L33.5713 20.3625C33.7532 20.3949 33.9048 20.4185 33.9081 20.4152C33.9169 20.4066 33.9656 20.1456 33.9656 20.1075C33.9656 20.0901 33.9174 20.0686 33.8574 20.0594C33.798 20.0504 33.6495 20.0248 33.5273 20.0028L33.3054 19.9627L32.9422 19.631C32.7425 19.4486 32.5551 19.2777 32.5257 19.2512L32.4723 19.2029L32.443 19.3804ZM4.15816 18.7381C4.15675 18.7568 4.16354 18.837 4.17334 18.9164L4.19108 19.061L4.33242 19.0893C4.57692 19.1384 4.57206 19.1321 4.60108 19.4297C4.61536 19.5755 4.63144 19.7095 4.63679 19.7277C4.64262 19.7471 4.57401 19.7987 4.46952 19.8537C4.32415 19.9302 4.29399 19.9566 4.30153 20.001C4.30657 20.0308 4.31476 20.1045 4.3197 20.1649C4.32463 20.2252 4.3384 20.2816 4.35031 20.2903C4.36508 20.3011 5.75406 19.5726 5.87873 19.4886C5.89171 19.4798 5.8381 19.1559 5.82062 19.1375C5.80291 19.1189 4.2643 18.7122 4.18987 18.7066C4.17379 18.7053 4.15958 18.7195 4.15816 18.7381ZM5.20632 19.2968C5.32016 19.3229 5.41245 19.3507 5.41151 19.3587C5.40937 19.3771 4.93243 19.6126 4.9228 19.6001C4.9104 19.5839 4.87934 19.3197 4.88346 19.2655C4.88661 19.2241 4.89913 19.2171 4.94344 19.2313C4.97428 19.2413 5.09255 19.2708 5.20632 19.2968ZM5.19208 20.4074C4.77846 20.4957 4.42979 20.5761 4.41729 20.5861C4.40051 20.5995 4.4381 20.8556 4.46564 20.9155C4.46733 20.9192 4.587 20.8967 4.73147 20.8655C5.07666 20.7909 5.05498 20.7823 5.1042 21.0149C5.18898 21.4147 5.31497 21.5617 5.58776 21.5789C5.90246 21.5986 6.12448 21.4252 6.14184 21.146C6.15107 20.9986 6.00927 20.2691 5.96878 20.2553C5.95526 20.2507 5.6057 20.3191 5.19208 20.4074ZM31.7539 20.899C31.7364 20.9774 31.7318 21.0503 31.7435 21.0609C31.7669 21.0818 32.0091 21.1451 32.0188 21.1328C32.03 21.1184 32.0831 20.8862 32.0831 20.8513C32.0831 20.8221 31.8906 20.7564 31.8053 20.7564C31.7946 20.7564 31.7715 20.8206 31.7539 20.899ZM32.1255 20.9917C32.0754 21.1908 31.9939 21.1501 32.8886 21.3724L33.6559 21.5631L33.6973 21.3983C33.7201 21.3076 33.7354 21.2312 33.7313 21.2283C33.7217 21.2217 32.1942 20.8327 32.1779 20.8327C32.1711 20.8327 32.1476 20.9042 32.1255 20.9917ZM5.82894 21.0314C5.82427 21.1575 5.74421 21.228 5.61673 21.2183C5.48981 21.2087 5.44439 21.1519 5.39335 20.9388C5.34242 20.7265 5.33645 20.7349 5.57481 20.6856L5.76063 20.6471L5.79651 20.7917C5.81632 20.8712 5.83086 20.9791 5.82894 21.0314ZM31.997 21.4851C31.9095 21.7478 31.9004 21.707 32.1431 22.1428C32.26 22.3528 32.3484 22.5274 32.3396 22.531C32.3307 22.5346 32.1873 22.4918 32.0207 22.4359C31.8542 22.3799 31.7159 22.3369 31.7133 22.3403C31.6892 22.3723 31.6074 22.6659 31.6206 22.6733C31.7084 22.7225 33.1353 23.1736 33.1506 23.157C33.1788 23.1261 33.2609 22.867 33.2469 22.8531C33.2405 22.8467 33.1392 22.8093 33.0217 22.7701C32.8151 22.7011 32.8054 22.6943 32.7252 22.5614C32.6067 22.3655 32.5479 22.3968 33.3444 22.2315L33.479 22.2035L33.5468 21.9998C33.5841 21.8879 33.6107 21.7927 33.6057 21.7885C33.6008 21.7843 33.345 21.8471 33.0373 21.9281C32.7296 22.0092 32.4765 22.0735 32.4749 22.071C32.4732 22.0686 32.3801 21.8907 32.2678 21.6758L32.0637 21.285L31.997 21.4851ZM5.50204 21.8836C5.09397 21.9993 4.75629 22.0973 4.75163 22.1013C4.7382 22.1128 4.82998 22.4291 4.84712 22.4304C4.86908 22.432 6.36918 22.0084 6.38279 21.9967C6.41273 21.9711 6.32243 21.6752 6.2845 21.6743C6.26221 21.6737 5.91011 21.768 5.50204 21.8836ZM6.28709 22.2168L6.16392 22.2626L6.23883 22.4802C6.32894 22.7418 6.39037 22.6918 5.67574 22.9387C5.35151 23.0508 5.08148 23.1464 5.0757 23.1511C5.06388 23.1609 5.14953 23.425 5.17486 23.4568C5.18385 23.4681 5.46097 23.383 5.7907 23.2677C6.50759 23.0169 6.433 23.0165 6.5163 23.2716C6.55393 23.3868 6.59514 23.4817 6.60803 23.4827C6.62762 23.4842 6.83646 23.4054 6.86098 23.3872C6.87551 23.3764 6.45108 22.1836 6.43055 22.1772C6.41932 22.1738 6.35484 22.1916 6.28709 22.2168ZM31.5615 23.0819C31.4201 23.1448 31.3764 23.2128 31.1044 23.7945C31.0264 23.9614 30.9713 24.106 30.9822 24.1159C30.993 24.1259 31.3259 24.2833 31.7218 24.4657C32.4414 24.7973 32.4419 24.7975 32.465 24.7367C32.4778 24.7032 32.5109 24.6313 32.5386 24.5769L32.5891 24.478L32.2852 24.3407C32.1181 24.2652 31.9813 24.1966 31.9813 24.1881C31.9811 24.0424 32.158 23.9488 32.5557 23.8841C32.7362 23.8548 32.8856 23.8288 32.8877 23.8264C32.9055 23.8056 33.0483 23.4685 33.042 23.4622C33.0218 23.442 32.3578 23.5561 32.2892 23.5915C32.1869 23.6444 32.1859 23.6439 32.202 23.5448C32.2545 23.2216 31.8709 22.9444 31.5615 23.0819ZM31.813 23.4308C31.939 23.4882 31.9451 23.5754 31.8401 23.8197C31.7244 24.0891 31.7292 24.0862 31.5459 23.9986C31.3682 23.9136 31.3682 23.9144 31.4974 23.6575C31.6231 23.4075 31.677 23.3689 31.813 23.4308ZM6.15572 23.8403C5.56833 23.8713 5.34464 23.8375 5.31119 23.8938C5.2923 23.9256 5.35628 24.012 5.3949 24.0911C5.45869 24.2217 5.4693 24.2258 5.69432 24.205C5.84991 24.1906 5.84185 24.1822 5.98509 24.5094L6.09603 24.7627L5.96064 24.9002L5.82525 25.0376L5.8882 25.1901C5.92279 25.2739 5.96064 25.3494 5.9723 25.358C5.98965 25.3706 7.09661 24.2539 7.17324 24.1464C7.20383 24.1036 7.06405 23.7978 7.01369 23.7973C6.99268 23.7973 6.60663 23.8165 6.15572 23.8403ZM30.7403 24.507C30.6953 24.5823 30.6588 24.6536 30.6593 24.6653C30.6597 24.6771 30.8509 24.8013 31.084 24.9412C31.7051 25.314 31.7691 25.3854 31.6642 25.5881C31.5216 25.8637 31.4237 25.8534 30.8409 25.5009C30.277 25.1599 30.3269 25.1729 30.2299 25.3409C30.1351 25.5053 30.0923 25.4586 30.6392 25.7874C31.4143 26.2533 31.5942 26.2573 31.8806 25.8142C32.1922 25.332 32.107 25.1542 31.3411 24.6885C31.1125 24.5496 30.9023 24.4211 30.8739 24.403C30.8262 24.3728 30.8156 24.3811 30.7403 24.507ZM30.3046 24.5387L30.2293 24.6598L30.3357 24.7304C30.4709 24.8201 30.4675 24.8207 30.5451 24.6977C30.6246 24.5717 30.6221 24.562 30.4872 24.4816L30.38 24.4177L30.3046 24.5387ZM6.54299 24.3201C6.43581 24.4244 6.33926 24.5099 6.3285 24.5101C6.30647 24.5105 6.15615 24.191 6.17196 24.1774C6.18092 24.1697 6.61419 24.1317 6.70366 24.1308C6.72247 24.1305 6.65024 24.2158 6.54299 24.3201ZM30.0616 24.9371C30.0261 24.9978 29.997 25.054 29.997 25.0619C29.997 25.0798 30.2272 25.2161 30.2372 25.2042C30.2676 25.1684 30.3805 24.9732 30.3741 24.9677C30.3489 24.9465 30.1487 24.8267 30.1385 24.8267C30.1318 24.8267 30.0973 24.8764 30.0616 24.9371ZM6.8013 25.2491C6.427 25.4658 6.12207 25.6512 6.12371 25.6609C6.12536 25.6705 6.25167 25.8965 6.40437 26.163L6.68195 26.6474L6.75017 26.6139C6.78761 26.5954 6.8461 26.5624 6.8801 26.5407L6.94189 26.501L6.74599 26.1635C6.63819 25.9779 6.55761 25.8155 6.56696 25.8027C6.57631 25.7899 6.82661 25.6407 7.12327 25.4711L7.67377 25.1546C7.6888 25.1437 7.49798 24.8538 7.49798 24.8538C7.48906 24.8545 6.8013 25.2491 6.8013 25.2491ZM29.6509 26.1126C29.202 26.7 29.2323 26.6342 29.3645 26.7314C29.4898 26.8236 29.4931 26.8221 29.6553 26.5954C29.777 26.4253 29.7132 26.3995 30.3139 26.8617C30.6795 27.1431 30.823 27.2399 30.8458 27.2209C30.863 27.2066 30.913 27.145 30.9568 27.084L31.0364 26.9731L30.542 26.5956C29.921 26.1215 29.9647 26.1847 30.1216 25.9876C30.2831 25.7844 30.2794 25.7634 30.058 25.6334C30.0414 25.6237 29.8738 25.8211 29.6509 26.1126ZM7.90909 26.851C7.90909 26.851 7.30494 27.3809 7.30494 27.3908C7.30502 27.4007 7.34922 27.4601 7.40316 27.5227L7.50131 27.6365L7.7656 27.4094C7.91097 27.2844 8.10359 27.1188 8.19369 27.0412C8.38795 26.8738 8.39325 26.8631 8.01272 27.4031C7.82112 27.675 7.64899 27.7669 7.67812 27.8359C7.69928 27.886 7.75511 27.9377 7.81275 28.0015L7.91155 28.1106L8.4223 27.855C8.70322 27.7144 8.93298 27.6039 8.93298 27.6093C8.93298 27.6148 8.74987 27.7768 8.52601 27.9693C8.06125 28.3691 8.08957 28.3232 8.21792 28.4677C8.31041 28.5718 8.31999 28.5765 8.36419 28.5388C8.39022 28.5167 8.66336 28.2828 8.9712 28.019C9.27896 27.7552 9.53532 27.536 9.54073 27.532C9.55243 27.5234 9.46035 27.4038 9.31874 27.2435L9.21758 27.129L8.74169 27.3657C8.47993 27.4959 8.26261 27.5989 8.25868 27.5946C8.25475 27.5904 8.38801 27.3889 8.55474 27.1468L8.85792 26.7068L8.69831 26.5191C8.61056 26.416 8.52601 26.3304 8.52601 26.3304C8.51897 26.3299 7.90909 26.851 7.90909 26.851ZM28.3599 27.5806L27.9612 27.9686L28.5276 28.549L29.0939 29.1295L29.22 29.0173L29.3463 28.9052L29.2665 28.8057C29.2227 28.7511 29.1172 28.6379 29.0321 28.5543L28.8773 28.4023L29.1119 28.1667L29.3466 27.9311L29.2479 27.83L29.1492 27.7289L28.9032 27.9557L28.6572 28.1825L28.5387 28.0621L28.4202 27.9418L28.687 27.6758C28.9918 27.3721 28.9783 27.4003 28.875 27.2825C28.7711 27.1642 28.8121 27.1405 28.3599 27.5806ZM9.32734 28.3886C8.9216 28.5977 8.57815 28.7733 8.56415 28.7788C8.53329 28.7909 8.70447 28.9979 8.78771 29.0424C8.84181 29.0203 8.8449 29.0207 8.97349 28.9511C9.16167 28.8491 9.13237 28.8408 9.3803 29.0666C9.62266 29.2872 9.61513 29.267 9.53328 29.4759L9.47213 29.632L9.61251 29.7648L9.75289 29.8976L10.0555 29.073L10.3582 28.2484L10.2244 28.1278C10.0612 27.9809 10.1931 27.9425 9.32734 28.3886ZM27.4783 28.4105C26.8315 28.6226 26.6844 29.2955 27.1715 29.8133C27.785 30.4654 28.8446 29.7427 28.45 28.9412C28.2477 28.5302 27.8221 28.2978 27.4783 28.4105ZM9.83433 28.6961C9.71785 28.9996 9.73267 28.9912 9.57232 28.843C9.49718 28.7735 9.4407 28.7116 9.44684 28.7055C9.46714 28.6852 9.91233 28.4459 9.91929 28.4516C9.92306 28.4546 9.88483 28.5647 9.83433 28.6961ZM27.8575 28.7916C28.2416 29.0229 28.2963 29.5233 27.9567 29.7007C27.5323 29.9224 26.9916 29.1825 27.3349 28.8498C27.503 28.6869 27.6554 28.6699 27.8575 28.7916ZM10.4848 29.4112C10.24 29.7637 10.036 30.0606 10.0317 30.071C10.0224 30.0928 10.2559 30.2695 10.294 30.2697C10.308 30.2697 10.3974 30.1556 10.4927 30.0159C10.6742 29.7498 10.6934 29.736 10.78 29.8084C10.8793 29.8914 10.8919 29.9501 10.8919 30.3291V30.6959L11.0461 30.8041C11.1309 30.8636 11.2066 30.9059 11.2143 30.8981C11.2421 30.8703 11.2541 30.2318 11.2286 30.1401L11.2028 30.0475L11.2942 30.0728C11.7525 30.1993 12.0597 29.6039 11.6995 29.2876C11.5932 29.1943 10.9793 28.7698 10.9509 28.77C10.9394 28.7701 10.7297 29.0586 10.4848 29.4112ZM11.2642 29.3336C11.5184 29.5093 11.5629 29.6053 11.4471 29.7286C11.3647 29.8163 11.2848 29.8013 11.0651 29.6571C10.8343 29.5056 10.8397 29.5216 10.9591 29.3419C11.0704 29.1743 11.0351 29.1752 11.2642 29.3336ZM11.89 30.3554C11.4717 31.1585 11.4935 31.0836 11.6521 31.1699C11.8181 31.2602 11.8062 31.2663 11.9346 31.0247L12.0476 30.8118L12.206 30.7604C12.3943 30.6991 12.3928 30.6981 12.3928 30.8817C12.3928 30.9611 12.4003 31.1488 12.4095 31.2989L12.4262 31.5717L12.6251 31.6717L12.824 31.7716L12.8122 31.7017C12.8057 31.6633 12.783 31.4372 12.7618 31.1993C12.7405 30.9615 12.7172 30.7307 12.7099 30.6865L12.6967 30.6062L13.098 30.4732C13.3188 30.4001 13.5098 30.3343 13.5226 30.3269C13.5501 30.3111 13.1876 30.1213 13.1263 30.1195C13.1031 30.1187 12.8999 30.1854 12.6748 30.2677C12.4497 30.3499 12.2659 30.41 12.2662 30.4013C12.2666 30.3925 12.3339 30.2569 12.4159 30.0999L12.5652 29.8145L12.4285 29.7374C12.3533 29.695 12.2828 29.6603 12.272 29.6603C12.2611 29.6603 12.0892 29.9731 11.89 30.3554ZM25.4672 29.7442C25.3656 29.7822 24.7806 30.0853 24.7485 30.1166C24.7371 30.1276 24.897 30.4574 25.1037 30.8494L25.4796 31.5623L25.7858 31.4011C26.3551 31.1015 26.4471 30.9922 26.4296 30.6358C26.4017 30.068 25.8838 29.5883 25.4672 29.7442ZM25.7485 30.08C25.8927 30.1546 26.0751 30.4727 26.0969 30.6877C26.1139 30.8553 26.0665 30.918 25.828 31.0433L25.651 31.1364L25.4802 30.8117C25.3864 30.6332 25.2758 30.4269 25.2346 30.3534L25.1596 30.2198L25.3453 30.1308C25.5488 30.0333 25.6367 30.0222 25.7485 30.08ZM24.006 30.4085C23.843 30.4625 23.2784 30.6766 23.2607 30.6911C23.2536 30.6968 23.8137 32.1797 23.8311 32.2013C23.8453 32.219 24.1459 32.0967 24.1459 32.0733C24.1459 32.0607 24.0955 31.9189 24.0338 31.7584C23.9722 31.5979 23.9293 31.462 23.9385 31.4565C24.0958 31.362 24.2073 31.3965 24.5615 31.6494L24.8166 31.8315L24.9836 31.7727C25.0756 31.7403 25.1654 31.7062 25.1834 31.6967C25.233 31.6709 24.7139 31.2977 24.5442 31.2373L24.4718 31.2115L24.551 31.1376C24.9527 30.7623 24.5527 30.2271 24.006 30.4085ZM13.3786 31.1067C13.2282 31.51 13.1051 31.8518 13.1051 31.8663C13.1051 31.8905 14.1783 32.3072 14.2385 32.3064C14.2642 32.306 14.3675 32.057 14.3483 32.0416C14.3431 32.0375 14.1586 31.9679 13.9382 31.8871C13.7179 31.8063 13.5376 31.7284 13.5376 31.714C13.5376 31.6579 13.6495 31.3846 13.6769 31.3742C13.6927 31.368 13.8581 31.4207 14.0442 31.491C14.2303 31.5615 14.3913 31.6191 14.4018 31.6191C14.4219 31.6191 14.5043 31.4216 14.5043 31.3734C14.5043 31.3582 14.3412 31.285 14.1418 31.2109C13.9424 31.1369 13.7768 31.0748 13.7739 31.073C13.7572 31.0633 13.8798 30.7796 13.9006 30.7796C13.9145 30.7796 14.0973 30.8432 14.3069 30.9209C14.5165 30.9987 14.6908 31.0588 14.6942 31.0545C14.721 31.0211 14.7881 30.8005 14.7752 30.7877C14.7574 30.7698 13.6977 30.3724 13.6696 30.3729C13.6599 30.3731 13.529 30.7033 13.3786 31.1067ZM24.2976 30.7335C24.3497 30.7895 24.363 30.8673 24.3336 30.9439C24.3061 31.0156 23.8543 31.2135 23.8171 31.1703C23.7944 31.144 23.684 30.8509 23.6938 30.843C23.8366 30.7292 24.2275 30.6584 24.2976 30.7335ZM14.9253 30.8605C14.8401 31.1158 14.8399 31.1155 15.0894 31.1739C15.1943 31.1985 15.2882 31.2257 15.2979 31.2344C15.3077 31.2431 15.2478 31.5193 15.165 31.8481C14.9791 32.586 14.979 32.5207 15.1663 32.5605C15.3553 32.6006 15.3125 32.6796 15.4968 31.9498C15.5833 31.607 15.6563 31.3242 15.6589 31.3214C15.6615 31.3185 15.7491 31.3383 15.8536 31.3654C16.1216 31.4351 16.119 31.4357 16.1539 31.2846C16.191 31.1239 16.2678 31.1636 15.5978 30.9965C15.2832 30.918 15.0057 30.8478 14.9812 30.8404C14.9565 30.833 14.9315 30.842 14.9253 30.8605ZM22.327 30.9512C22.243 30.9726 22.1711 30.9928 22.1671 30.9959C22.1571 31.004 21.9586 32.585 21.9583 32.659C21.9581 32.7242 21.9808 32.7245 22.2138 32.6618L22.3068 32.6367L22.3221 32.4556C22.3304 32.356 22.3426 32.2691 22.3492 32.2626C22.3579 32.2538 22.9044 32.107 22.9429 32.1031C22.9459 32.1027 22.995 32.1712 23.052 32.2551C23.1665 32.4237 23.177 32.4272 23.3874 32.3628L23.5318 32.3187L23.0243 31.6191C22.7451 31.2344 22.5083 30.9178 22.4981 30.9158C22.4879 30.9138 22.4109 30.9297 22.327 30.9512ZM16.5263 31.2475C16.0942 31.4358 16.2026 31.9285 16.7234 32.1445C17.0063 32.2617 17.0737 32.3123 17.0737 32.4077C17.0737 32.6959 16.5192 32.6207 16.472 32.3261L16.4566 32.2297H16.2861H16.1155L16.1339 32.3656C16.2233 33.024 17.3704 33.0983 17.4243 32.449C17.4482 32.1606 17.3307 32.021 16.9177 31.8467C16.5951 31.7105 16.5137 31.5975 16.6827 31.5204C16.8697 31.4353 17.1245 31.5479 17.1245 31.7156C17.1245 31.7624 17.2536 31.796 17.4362 31.7969C17.5456 31.7975 17.451 31.4807 17.305 31.358C17.1483 31.226 16.7162 31.1648 16.5263 31.2475ZM20.6353 31.2461C20.1461 31.359 19.9206 31.8644 20.1141 32.4139C20.3448 33.0695 21.4002 33.049 21.5931 32.3853C21.7933 31.6968 21.2876 31.0955 20.6353 31.2461ZM18.4525 31.3851C18.426 31.4031 18.423 31.5634 18.4375 32.2027L18.4555 32.9979L18.9666 32.9882C19.3881 32.9802 19.492 32.9708 19.5591 32.9348C19.8496 32.7788 19.8825 32.3031 19.6124 32.1634L19.5358 32.1238L19.6006 32.0558C19.7783 31.8695 19.7399 31.5721 19.5204 31.4356C19.4205 31.3735 18.5321 31.3314 18.4525 31.3851ZM22.6031 31.6087C22.7715 31.8544 22.7722 31.8391 22.5904 31.8875C22.3639 31.9478 22.3747 31.9609 22.4009 31.6573C22.4286 31.3368 22.4184 31.3393 22.6031 31.6087ZM21.0171 31.5746C21.5003 31.8198 21.2635 32.7207 20.7521 32.583C20.252 32.4484 20.3166 31.5173 20.8261 31.5173C20.869 31.5173 20.9551 31.5431 21.0171 31.5746ZM19.3315 31.7037C19.4873 31.8595 19.3377 32.0007 19.017 32.0007H18.7781V31.837V31.6732L18.8608 31.6615C19.0248 31.6382 19.2898 31.662 19.3315 31.7037ZM19.2599 32.306C19.3593 32.306 19.4396 32.3917 19.4396 32.4977C19.4396 32.6387 19.3767 32.6798 19.1298 32.7003C18.783 32.7292 18.7921 32.7344 18.7834 32.5045L18.7761 32.3087L18.9106 32.2985C18.9847 32.2929 19.0782 32.2922 19.1184 32.2971C19.1586 32.302 19.2222 32.306 19.2599 32.306Z" fill="#9A9A9A"/>
<path d="M19.2631 29.7971C25.7673 29.7971 31.04 24.5244 31.04 18.0201C31.04 11.5159 25.7673 6.24316 19.2631 6.24316C12.7588 6.24316 7.4861 11.5159 7.4861 18.0201C7.4861 24.5244 12.7588 29.7971 19.2631 29.7971Z" fill="#9A9A9A"/>
<path d="M19.0203 34.1679C27.9832 34.1679 35.2491 26.902 35.2491 17.9392C35.2491 8.9763 27.9832 1.71045 19.0203 1.71045C10.0575 1.71045 2.79163 8.9763 2.79163 17.9392C2.79163 26.902 10.0575 34.1679 19.0203 34.1679Z" stroke="#9A9A9A" stroke-width="1.01648"/>
<path d="M2.83305 16.4829L35.1824 16.8323" stroke="#9A9A9A" stroke-width="1.00023"/>
<path fill-rule="evenodd" clip-rule="evenodd" d="M18.4944 6.10497C11.387 6.68087 6.37425 13.1195 7.57157 20.1349C8.4392 25.2186 12.6024 29.2414 17.7184 29.9398C25.7785 31.04 32.5618 24.0389 31.1992 16.0264C30.1716 9.98392 24.5737 5.61246 18.4944 6.10497ZM15.2296 11.6805C15.1904 11.8302 10.9016 25.5883 10.8957 25.5825C10.8889 25.5757 13.6036 11.7139 13.623 11.6571C13.6313 11.6326 13.8175 11.6253 14.4389 11.6253H15.244L15.2296 11.6805ZM17.0952 11.6566C17.0952 11.7004 11.9501 25.5174 11.9381 25.5056C11.9313 25.4988 14.6967 14.7046 15.4697 11.7207L15.4944 11.6253H16.2948C16.9104 11.6253 17.0952 11.6325 17.0952 11.6566ZM18.9686 11.6631C18.9227 11.7829 12.8085 25.5873 12.8035 25.5823C12.7964 25.5752 17.3439 11.6804 17.3641 11.6479C17.3908 11.6046 18.9853 11.6197 18.9686 11.6631ZM20.8334 11.6571C20.8319 11.691 13.8681 25.615 13.8657 25.5889C13.865 25.5804 15.0644 22.4551 16.5312 18.6438C17.9979 14.8327 19.2053 11.6943 19.2142 11.6698C19.2353 11.6122 20.8359 11.5996 20.8334 11.6571ZM22.6858 11.6712C22.6704 11.7302 14.8781 25.52 14.8666 25.5085C14.8582 25.5 21.0574 11.7176 21.097 11.6569C21.1352 11.5985 22.7012 11.6126 22.6858 11.6712ZM22.3347 18.3431C20.9214 22.015 19.7128 25.1538 19.6491 25.3181L19.5331 25.617H18.7212H17.9092L21.4001 18.6353C23.32 14.7953 24.894 11.6566 24.8976 11.6602C24.9014 11.664 23.748 14.6713 22.3347 18.3431ZM23.6881 18.6344L21.4058 25.6044L20.5959 25.6111C19.8705 25.6171 19.7876 25.6137 19.8013 25.5781C19.8441 25.4664 25.9605 11.6546 25.9651 11.6592C25.968 11.6621 24.9434 14.801 23.6881 18.6344ZM26.8124 11.8479C26.7862 11.9423 25.9792 15.0761 25.019 18.8118C24.0587 22.5474 23.27 25.6071 23.2663 25.6109C23.2624 25.6147 22.8982 25.6148 22.4567 25.6111L21.6541 25.6044L24.234 18.6721C25.6529 14.8593 26.819 11.7255 26.8254 11.708C26.8617 11.6081 26.853 11.7017 26.8124 11.8479ZM20.7895 18.6797L17.6676 25.6168L16.8583 25.617C16.4133 25.6171 16.0538 25.6085 16.0594 25.598C16.2299 25.2815 23.8981 11.7291 23.9035 11.7346C23.9079 11.7389 22.5066 14.8643 20.7895 18.6797ZM26.5082 18.6378C25.7649 22.4274 25.151 25.5481 25.1438 25.5725C25.1299 25.6195 23.5322 25.6447 23.5308 25.598C23.5297 25.5621 27.8409 11.7288 27.8502 11.7382C27.8554 11.7433 27.2515 14.8481 26.5082 18.6378ZM17.6421 27.5632V28.4282L17.534 28.4359L17.4259 28.4438V27.7809C17.4259 27.4163 17.4191 27.118 17.4107 27.118C17.4024 27.118 17.3651 27.1394 17.3281 27.1656C17.2909 27.1918 17.2005 27.2435 17.127 27.2805L16.9934 27.3478L16.9941 27.2393C16.9949 27.1353 17.0007 27.1272 17.1336 27.0468C17.2099 27.0006 17.3269 26.9002 17.3936 26.8238C17.4878 26.7157 17.5291 26.6862 17.5785 26.6914L17.6421 26.6982V27.5632ZM18.8887 26.714C19.4401 26.8667 19.4811 28.1544 18.9425 28.4052C18.6605 28.5365 18.3688 28.444 18.2527 28.1865C18.1949 28.0584 18.2147 28.0084 18.3233 28.0084C18.3983 28.0084 18.4136 28.0206 18.4543 28.1127C18.6286 28.5078 19.1049 28.1861 19.1049 27.6732C19.1049 27.6619 19.0534 27.6918 18.9906 27.7399C18.6352 28.0111 18.1827 27.7569 18.1827 27.286C18.1827 26.8677 18.5039 26.6075 18.8887 26.714ZM20.2553 26.7121C20.5947 26.8064 20.7028 27.2578 20.43 27.4416C20.3826 27.4735 20.3567 27.4996 20.3722 27.4996C20.5686 27.4996 20.7184 27.9109 20.6084 28.1483C20.3671 28.6696 19.5154 28.5058 19.5124 27.9376C19.5115 27.7563 19.6793 27.4999 19.799 27.4995C19.816 27.4995 19.7933 27.4771 19.7485 27.4497C19.3152 27.1856 19.7389 26.5687 20.2553 26.7121ZM21.7183 26.7583C22.1067 26.9565 22.0595 27.3697 21.6024 27.774C21.4961 27.8679 21.3473 28.002 21.2717 28.072L21.1343 28.1992L21.5506 28.2119L21.9669 28.2246L21.9746 28.3327L21.9825 28.4409H21.4086H20.8348L20.835 28.3709C20.8355 28.2332 20.9756 28.0472 21.2818 27.7778C21.6051 27.4934 21.7154 27.3614 21.7402 27.229C21.8142 26.8344 21.1895 26.7446 21.1032 27.1374C21.0874 27.2092 21.0748 27.2197 21.0044 27.2194C20.8694 27.2187 20.8549 27.1961 20.8976 27.0522C20.9908 26.7385 21.3955 26.5936 21.7183 26.7583ZM18.5636 26.9434C18.3452 27.1063 18.3646 27.4944 18.5971 27.6146C18.8712 27.7563 19.1434 27.4753 19.0538 27.1429C18.9916 26.9117 18.7421 26.8102 18.5636 26.9434ZM19.8916 26.9634C19.7223 27.1326 19.84 27.3978 20.0843 27.3978C20.1813 27.3978 20.2162 27.3844 20.2771 27.3235C20.4463 27.1543 20.3286 26.889 20.0843 26.889C19.9874 26.889 19.9525 26.9025 19.8916 26.9634ZM19.8837 27.6545C19.5559 27.9123 19.8528 28.4099 20.2339 28.2413C20.5676 28.0937 20.4555 27.6014 20.0881 27.6014C19.9878 27.6014 19.9332 27.6155 19.8837 27.6545Z" fill="#2C2454"/>
</svg>
