<svg width="100" height="36" viewBox="0 0 100 36" fill="none" xmlns="http://www.w3.org/2000/svg">
<rect width="100" height="36" fill="white"/>
<path fill-rule="evenodd" clip-rule="evenodd" d="M96.8285 27.9112C97.2409 28.8931 98.2031 29.5305 99.2598 29.5305H99.6464V30.6589H90.0587V29.5305H91.1068C91.6223 29.5305 91.9659 28.9965 91.7683 28.5228L89.3199 22.7433H80.6257L78.2803 28.273C78.0226 28.8587 78.4607 29.5219 79.1051 29.5219H79.8954V30.6502H74.3714V29.5219H75.1102C75.9607 29.5219 76.7253 29.0137 77.0604 28.2299L86.9058 5H87.1206L96.8285 27.9112ZM84.9728 12.4849L81.1068 21.6149H88.8388L84.9728 12.4849ZM54.3369 10.082V5.46529H35.1873V6.59362H35.9176C36.7166 6.59362 37.3609 7.23961 37.3609 8.04064V28.032C37.3609 28.8588 36.6908 29.5307 35.866 29.5307H35.1787V30.659H44.4485V29.5307H43.8557C42.9795 29.5307 42.275 28.8244 42.275 27.9458V16.9898H47.4554C47.9967 16.9898 48.4348 17.4291 48.4348 17.9717V18.9795H49.5688V13.9149H48.4348V14.8968C48.4348 15.4394 47.9967 15.8787 47.4554 15.8787H42.275V6.60223H51.0379C52.2406 6.60223 53.2114 7.57553 53.2114 8.78138V10.082H54.3369ZM33.1685 29.5307V30.659H24.6719V29.5307H25.6684C26.1753 29.5307 26.5533 29.0139 26.4588 28.4626L23.2801 11.15L15.2474 30.659H15.0499L7.04296 11.1328L3.89003 28.3334C3.77834 28.9536 4.19931 29.5307 4.77491 29.5307H5.64261V30.659H0.402046V29.5307H1.05497C1.81958 29.5307 2.48109 28.9364 2.63573 28.1009L6.14948 8.95365L5.51374 7.40326C5.30756 6.91231 4.86941 6.59362 4.37972 6.59362H3.70962V5.46529H9.66324L16.8883 23.088L24.2251 5.46529H28.8987V6.59362H28.452C27.6616 6.59362 27.0688 7.39465 27.232 8.24736L30.9348 28.0923C31.0894 28.9191 31.7509 29.5221 32.5155 29.5221H33.1685V29.5307ZM57 20.2971V20.7708L57.0086 20.7795C57.0086 28.006 62.0687 29.9956 66.1409 29.9956C69.1821 29.9956 71.1753 28.273 71.1753 25.913C71.1753 23.416 67.5876 21.488 64.1144 19.6215C63.7418 19.4213 63.3705 19.2218 63.0052 19.0224C62.8396 18.9314 62.6754 18.8416 62.5127 18.7527C58.9776 16.8196 56.1667 15.2826 56.1667 10.9431C56.1667 6.15417 60.9519 5 63.8986 5C67.2406 5 69.1048 5.88716 70.1014 6.67958C70.5309 7.02411 71.1495 6.69681 71.1495 6.11111V5.46512H72.1976V13.8803H71.1495V12.907C71.1495 7.04134 66.5533 6.15417 64.079 6.15417C61.6048 6.15417 60.299 7.61843 60.299 9.20326C60.299 10.7881 61.7251 12.8725 66.9227 15.2411C73.3488 18.1696 74.9468 20.8656 74.9468 23.9491C74.9468 27.0327 72.7475 31.124 66.1753 31.124C61.8711 31.124 59.268 29.9784 57.988 29.186C57.5412 28.9104 57 29.2463 57 29.7975V30.6588H55.9519V20.2971H57Z" fill="#11192E"/>
</svg>
