<svg xmlns="http://www.w3.org/2000/svg" width="54" height="50.327" viewBox="0 0 54 50.327">
  <g id="Group_7843" data-name="Group 7843" transform="translate(-781.5 -1145.572)">
    <path id="Path_12512" data-name="Path 12512" d="M9901.7,2243.558h-4.986v-8.4h-.9v8.4h-4.985v18.981h4.985v7.945h.9v-7.945h4.986Zm-.9,17.981h-9.071v-16.981h9.071Z" transform="translate(-9108.829 -1076.157)" fill="#303030" stroke="#303030" stroke-width="1"/>
    <path id="Path_12513" data-name="Path 12513" d="M9901.755,2243.558h-5.011v-8.4h-.9v8.4h-5.011v18.981h5.011v7.945h.9v-7.945h5.011Zm-.9,17.981h-9.116v-16.981h9.116Z" transform="translate(-9094.755 -1083.085)" fill="#303030" stroke="#303030" stroke-width="1"/>
    <path id="Path_12514" data-name="Path 12514" d="M9901.662,2243.558h-4.968v-8.4h-.9v8.4h-4.968v18.981h4.968v7.945h.9v-7.945h4.968Zm-.9,17.981h-9.039v-16.981h9.039Z" transform="translate(-9080.662 -1075.085)" fill="#303030" stroke="#303030" stroke-width="1"/>
    <path id="Path_12515" data-name="Path 12515" d="M9901.662,2243.558h-4.968v-8.4h-.9v8.4h-4.968v18.981h4.968v7.945h.9v-7.945h4.968Zm-.9,17.981h-9.039v-16.981h9.039Z" transform="translate(-9066.662 -1089.085)" fill="#303030" stroke="#303030" stroke-width="1"/>
  </g>
</svg>
