<svg xmlns="http://www.w3.org/2000/svg" width="28" height="28" viewBox="0 0 28 28"><g data-name="Group 3"><path data-name="Rectangle 3" fill="none" d="M0 0h28v28H0z"/><path d="M8.78 12.71a1.179 1.179 0 10-.855-.345 1.161 1.161 0 00.855.345zm5.31 0a1.179 1.179 0 10-.855-.345 1.161 1.161 0 00.855.345zm5.1 0a1.179 1.179 0 10-.855-.345 1.161 1.161 0 00.855.345zM2 26V3.8a1.744 1.744 0 01.54-1.245A1.7 1.7 0 013.8 2h20.4a1.722 1.722 0 011.245.555A1.722 1.722 0 0126 3.8v15.6a1.9 1.9 0 01-1.8 1.8H6.8zm1.8-4.35l2.25-2.25H24.2V3.8H3.8zm0-17.85z" fill="#262b32"/></g></svg>