<svg xmlns="http://www.w3.org/2000/svg" width="28" height="28" viewBox="0 0 28 28"><g data-name="Group 1"><path d="M22.5 5.386A11.952 11.952 0 003.7 19.809L2 26.001l6.335-1.662a11.934 11.934 0 005.71 1.454h.005A11.954 11.954 0 0022.5 5.386zm-8.45 18.39a9.92 9.92 0 01-5.055-1.384l-.363-.215-3.759.986 1-3.665-.236-.376a9.932 9.932 0 118.414 4.654zm5.45-7.439c-.3-.15-1.766-.872-2.04-.971s-.473-.15-.672.15-.771.972-.945 1.171-.348.224-.647.074a8.164 8.164 0 01-2.4-1.482 9 9 0 01-1.661-2.068c-.174-.3-.018-.461.131-.609s.3-.349.448-.523a2.034 2.034 0 00.3-.5.55.55 0 00-.025-.523c-.075-.15-.672-1.619-.921-2.217-.242-.582-.489-.5-.672-.513s-.373-.01-.572-.01a1.1 1.1 0 00-.8.374 3.349 3.349 0 00-1.046 2.496A5.809 5.809 0 009.2 14.271a13.317 13.317 0 005.1 4.509 17.127 17.127 0 001.7.629 4.091 4.091 0 001.881.119 3.076 3.076 0 002.015-1.42 2.5 2.5 0 00.174-1.42c-.074-.124-.274-.2-.572-.349z" fill="#25d366" fillRule="evenodd"/><path data-name="Rectangle 1" fill="none" d="M0 0h28v28H0z"/></g></svg>