<svg xmlns="http://www.w3.org/2000/svg" width="28" height="28" viewBox="0 0 28 28"><g data-name="Group 2"><path data-name="Rectangle 2" fill="none" d="M0 0h28v28H0z"/><path d="M2 20.031V3.291a1.248 1.248 0 01.39-.84 1.117 1.117 0 01.81-.42h15.57a1.157 1.157 0 01.84.4 1.224 1.224 0 01.39.86v10.68a1.248 1.248 0 01-.39.84 1.141 1.141 0 01-.84.42H6.8zm6.03 1.2a1.163 1.163 0 01-.825-.42 1.228 1.228 0 01-.405-.84v-2.94h15v-10.2h3a1.117 1.117 0 01.81.42 1.275 1.275 0 01.39.87v17.88l-4.77-4.77zm10.17-17.4H3.8v11.85l2.25-2.25H18.2zm-14.4 0z" fill="#f19d39"/></g></svg>