<?xml version="1.0" encoding="utf-8"?>
<!-- Generator: Adobe Illustrator 27.8.1, SVG Export Plug-In . SVG Version: 6.00 Build 0)  -->
<svg version="1.1" id="Layer_1" xmlns="http://www.w3.org/2000/svg" xmlns:xlink="http://www.w3.org/1999/xlink" x="0px" y="0px"
	 viewBox="0 0 24 24" style="enable-background:new 0 0 24 24;" xml:space="preserve">
<g>
	<path d="M24,23.1l-9.7-13l8.5-9.2c0.1-0.1,0-0.3-0.1-0.3h-1.5c-0.1,0-0.2,0-0.3,0.1l-7.5,8.1l-6-8C7.2,0.7,7.1,0.6,6.9,0.6H0.2
		C0,0.6-0.1,0.8,0,0.9l9.2,12.3l-9.1,9.9c-0.1,0.1,0,0.3,0.1,0.3h1.5c0.1,0,0.2,0,0.3-0.1l8.1-8.8l6.5,8.7c0.1,0.1,0.2,0.2,0.3,0.2
		h6.7C24,23.4,24.1,23.2,24,23.1z M6.3,2.3l14.6,19.5h-3.2L3.1,2.3H6.3z"/>
</g>
</svg>
