<svg id="Group_9919" data-name="Group 9919" xmlns="http://www.w3.org/2000/svg" xmlns:xlink="http://www.w3.org/1999/xlink" width="203.244" height="17.094" viewBox="0 0 203.244 17.094">
  <defs>
    <clipPath id="clip-path">
      <rect id="Rectangle_2028" data-name="Rectangle 2028" width="203.244" height="17.094" transform="translate(0 0)" fill="none"/>
    </clipPath>
  </defs>
  <g id="Group_9919-2" data-name="Group 9919" clip-path="url(#clip-path)">
    <path id="Path_15155" data-name="Path 15155" d="M187.921,0a.7.7,0,0,1,.228.458q1.548,7.179,3.1,14.36a5.237,5.237,0,0,0,.314,1.091c.215.468.633.62,1.324.491a.813.813,0,0,0,.675-.849c.009-.144,0-.289,0-.433V1.914c0-.881-.11-1.037-.964-1.265-.212-.057-.322-.118-.3-.358.02-.273.215-.183.35-.184,1.495-.006,2.989,0,4.484,0,.144,0,.329-.064.325.207,0,.194-.031.286-.259.34-1.114.263-1.115.279-1.115,1.424q0,6.938-.007,13.874c0,.319.063.444.4.412a6.944,6.944,0,0,0,1.144-.074,2.381,2.381,0,0,0,1.574-1.54,9.881,9.881,0,0,0,.638-2.786c.015-.131.036-.261.042-.392.01-.208.147-.2.3-.206.2-.009.208.1.208.245q0,2.562,0,5.124c0,.171-.048.231-.223.224-.3-.012-.609,0-.913,0q-5.793,0-11.587,0c-.154,0-.4.107-.373-.227.011-.158.047-.232.219-.253a4.765,4.765,0,0,0,.656-.143c.488-.131.678-.38.6-.862-.163-.941-.355-1.878-.532-2.818-.033-.175-.128-.227-.3-.225-.82.008-1.64.006-2.46,0-.148,0-.254.019-.283.191a18.432,18.432,0,0,0-.446,2.791c-.009.69.143.866.831,1.015a2.558,2.558,0,0,0,.27.06c.207.022.149.176.162.3.021.184-.1.176-.228.176-1.031,0-2.063,0-3.1,0-.091,0-.241.052-.224-.125.011-.125-.1-.314.134-.35,1.016-.159,1.188-.974,1.356-1.759Q185.429,7.784,186.89.848c.06-.281.106-.565.158-.848Zm-1.23,5.1a2.658,2.658,0,0,0-.1.266q-.6,3.061-1.2,6.125c-.042.211.02.267.233.263.674-.013,1.349-.019,2.022,0,.313.009.4-.043.323-.384-.436-2.061-.844-4.127-1.278-6.272" fill="#101011"/>
    <path id="Path_15156" data-name="Path 15156" d="M149.021,0c2.168.625,2.96,2.369,3.469,4.3a17.625,17.625,0,0,1,.372,6.488,11.929,11.929,0,0,1-.9,3.6,5.52,5.52,0,0,1-.994,1.551,3.34,3.34,0,0,1-5.187-.163,7.542,7.542,0,0,1-1.437-3.114A18.227,18.227,0,0,1,144,6.367a13.956,13.956,0,0,1,.411-2.239c.516-1.855,1.314-3.481,3.342-4.128Zm1.272,8.5c.009-1.576-.032-3.151-.168-4.721a7.055,7.055,0,0,0-.484-2.3,1.167,1.167,0,0,0-.992-.79,1.283,1.283,0,0,0-1.524,1.052,12.336,12.336,0,0,0-.476,3.377,69.6,69.6,0,0,0,.076,7.99,9.059,9.059,0,0,0,.4,2.279c.246.73.618,1.026,1.265,1.034a1.25,1.25,0,0,0,1.327-1.008,6.764,6.764,0,0,0,.335-1.532,49.909,49.909,0,0,0,.242-5.385" fill="#101011"/>
    <path id="Path_15157" data-name="Path 15157" d="M81.222,0a4.7,4.7,0,0,1,1.51.771c.385.27.734.111.927-.37.057-.142.056-.346.287-.288.208.051.114.241.115.368q.009,2.424,0,4.849c0,.166.081.371-.242.372-.284,0-.273-.157-.295-.349a11.173,11.173,0,0,0-.717-3.089,3.016,3.016,0,0,0-.856-1.212A1.534,1.534,0,0,0,79.387,2a3.656,3.656,0,0,0,.659,2.793,12.516,12.516,0,0,0,1.581,1.815,15.7,15.7,0,0,1,2.13,2.435,5.668,5.668,0,0,1,.479,6.032,3.5,3.5,0,0,1-3.551,1.964,2.78,2.78,0,0,1-1.472-.622c-.721-.525-1-.454-1.375.361-.058.125-.106.194-.25.179-.206-.021-.123-.175-.123-.271q-.009-2.5,0-5.007c0-.152-.042-.313.221-.315.239,0,.269.1.293.3a9.193,9.193,0,0,0,.853,3.17,3.487,3.487,0,0,0,.8,1.063,1.8,1.8,0,0,0,2.979-.693,3.928,3.928,0,0,0-.078-3.1,7.959,7.959,0,0,0-1.565-2.211c-.724-.784-1.5-1.521-2.179-2.346a5.4,5.4,0,0,1-1.45-3.725A3.68,3.68,0,0,1,80.306.059c.017,0,.029-.038.043-.059h.873" fill="#101011"/>
    <path id="Path_15158" data-name="Path 15158" d="M203.244,16.4a1.16,1.16,0,0,1-1.326.583,1.14,1.14,0,0,1-.795-1.106,1.181,1.181,0,0,1,.8-1.112,1.1,1.1,0,0,1,1.233.5c.028.04.061.076.092.114Z" fill="#101011"/>
    <path id="Path_15159" data-name="Path 15159" d="M169.11,8.317c.058.108.156.1.245.124a2.517,2.517,0,0,1,2.048,2.177,27.655,27.655,0,0,1,.32,3.131q.075.962.153,1.924c.017.2.036.429.284.455.27.028.338-.207.39-.413a4.575,4.575,0,0,0,.119-1.25c0-.18.01-.289.247-.28.215.007.314.05.292.283-.034.38-.017.765-.076,1.14a1.531,1.531,0,0,1-1.276,1.417,1.945,1.945,0,0,1-2.187-.9,5.715,5.715,0,0,1-.552-2.553c-.064-1.206-.105-2.414-.162-3.621a3.182,3.182,0,0,0-.086-.582.8.8,0,0,0-.8-.689c-1.352-.157-1.352-.157-1.352,1.175q0,2.7,0,5.4c0,.791.154.974.921,1.179.127.034.344-.018.343.236,0,.174,0,.289-.242.287-1.507-.011-3.016,0-4.524-.006-.114,0-.255.033-.231-.163.015-.13-.061-.291.171-.325,1.026-.154,1.085-.539,1.084-1.579q0-6.385,0-12.771c0-.04,0-.079,0-.119,0-1.189-.811-1.706-1.933-1.242a.963.963,0,0,0-.583.869,9.842,9.842,0,0,0-.067,1.1q-.012,5.361-.012,10.721a4.844,4.844,0,0,1-.2,1.319,3.065,3.065,0,0,1-3.6,2.3,3.488,3.488,0,0,1-3.418-3.781c-.022-3.784-.008-7.568-.009-11.352,0-.953-.046-1.032-.964-1.288-.239-.067-.234-.193-.234-.37,0-.222.162-.165.281-.165q2.3,0,4.6,0c.123,0,.279-.046.278.171,0,.163.018.316-.211.346-1.354.178-1.22.614-1.22,1.583q0,5.637,0,11.273a5.51,5.51,0,0,0,.221,1.592,1.529,1.529,0,0,0,1.471,1.163,1.74,1.74,0,0,0,1.813-.862,4.04,4.04,0,0,0,.436-2.018c0-3.849.086-7.7-.043-11.547-.026-.778-.253-1.025-1.009-1.171-.2-.039-.35-.062-.335-.326.018-.3.229-.2.376-.2,2.633-.005,5.265-.01,7.9,0a4.549,4.549,0,0,1,3.488,1.4,4.231,4.231,0,0,1-1.8,6.681c-.12.044-.24.084-.362.127m-2.391-3.942V7.169c0,.917,0,.917.923.9a1.548,1.548,0,0,0,1.787-1.525,11.71,11.71,0,0,0,.062-3.565c-.231-1.8-.786-2.284-2.457-2.275-.265,0-.324.077-.321.327.014,1.115.006,2.23.006,3.345" fill="#101011"/>
    <path id="Path_15160" data-name="Path 15160" d="M57.626,8.533q0-3.271,0-6.543c0-.963-.085-1.092-1.015-1.348-.233-.064-.246-.178-.243-.363,0-.251.189-.171.313-.172q2.262-.006,4.524,0c.135,0,.307-.05.311.187,0,.182-.006.295-.246.355-1.144.284-1.154.313-1.154,1.486q0,6.9-.008,13.794c0,.337.064.472.429.436a7.687,7.687,0,0,0,1.144-.075,2.237,2.237,0,0,0,1.437-1.26,8.245,8.245,0,0,0,.721-2.68c.034-.247.068-.495.08-.743.009-.191.094-.241.274-.242s.257.053.256.246q-.007,2.562,0,5.124c0,.174-.061.239-.229.22a1.184,1.184,0,0,0-.119,0q-6.211,0-12.421,0c-.124,0-.328.117-.354-.168-.024-.262.114-.314.321-.327a.259.259,0,0,0,.037-.011c1.152-.257,1.233-.363,1.027-1.517-.137-.76-.315-1.513-.453-2.273-.035-.194-.119-.23-.287-.229-.834,0-1.667.008-2.5,0-.191,0-.235.076-.269.244-.163.823-.343,1.643-.44,2.476-.1.857.1,1.127.959,1.31.212.045.328.09.3.338-.029.29-.239.156-.357.157-.965.013-1.931.01-2.9,0-.108,0-.282.089-.3-.136-.015-.185,0-.332.236-.371a1.364,1.364,0,0,0,1.118-1.17c.428-1.648.736-3.322,1.092-4.986.7-3.277,1.4-6.555,2.076-9.839.112-.549.478-.319.767-.374.305-.058.359.111.414.366Q53.746,7.774,55.338,15.1c.031.141.065.281.107.418a1.113,1.113,0,0,0,1.535.871.715.715,0,0,0,.583-.574,3.705,3.705,0,0,0,.061-.665q.006-3.311,0-6.621M52.073,11.75c-.455-2.251-.9-4.46-1.347-6.669-.467,2.146-.88,4.288-1.306,6.428-.04.2-.006.247.194.245.8-.009,1.609,0,2.459,0" fill="#101011"/>
    <path id="Path_15161" data-name="Path 15161" d="M44.906,11.721c.619-3.052,1.222-6.016,1.818-8.981a5.941,5.941,0,0,0,.118-.975c.025-.775-.171-1-.941-1.135C45.725.6,45.562.592,45.579.338,45.589.177,45.623.1,45.8.1c1.018,0,2.037,0,3.056,0,.107,0,.227-.011.215.15-.011.132.071.333-.141.355-.879.092-1.067.76-1.214,1.438q-1.123,5.2-2.226,10.41c-.3,1.409-.61,2.816-.884,4.229-.069.354-.265.339-.526.341-.276,0-.473,0-.547-.361-.628-3.093-1.28-6.181-1.925-9.27a8.939,8.939,0,0,0-.343-1.3c-.1.479-.2.957-.29,1.438q-.879,4.612-1.748,9.227c-.043.228-.14.263-.341.266-.72.009-.724.016-.872-.672q-1.5-6.971-2.994-13.941c-.066-.306-.156-.608-.243-.909a1.076,1.076,0,0,0-.92-.859C33.618.612,33.551.5,33.569.28c.022-.274.226-.172.357-.172q2.083-.01,4.167,0c.13,0,.329-.1.344.182.013.239-.081.307-.306.346-.56.1-.772.418-.7,1.031.137,1.106.414,2.187.632,3.279.438,2.195.9,4.387,1.4,6.593.1-.49.206-.979.3-1.47q.546-2.856,1.088-5.714a.642.642,0,0,0,.008-.269q-.291-1.324-.574-2.649c-.092-.43-.272-.767-.769-.82-.2-.02-.2-.163-.2-.318,0-.2.126-.2.265-.2q2.144,0,4.286,0c.132,0,.239.01.239.179,0,.147.015.274-.184.333-1.04.308-1.134.479-.921,1.563q.9,4.569,1.788,9.139c.02.1.056.2.114.4" fill="#101011"/>
    <path id="Path_15162" data-name="Path 15162" d="M13.255,12.182c0,1.012,0,2.023,0,3.035,0,.82.167,1.017.972,1.223.127.032.337-.018.324.245-.009.183-.02.276-.251.274-1.521-.011-3.042,0-4.563-.008-.1,0-.259.06-.261-.14,0-.154-.039-.327.2-.35a1.574,1.574,0,0,0,.228-.062c.654-.178.824-.383.825-1.053q0-6.818,0-13.636c0-.639-.155-.83-.771-1.008-.1-.03-.2-.061-.305-.082-.2-.04-.179-.191-.179-.337,0-.17.109-.181.24-.18q2.3,0,4.6,0c.132,0,.241.008.229.183-.009.139.027.269-.173.34-1.121.4-1.119.407-1.119,1.6,0,1.8.006,3.6-.006,5.4,0,.265.048.359.338.353,1.018-.019,2.037-.015,3.055,0,.243,0,.311-.06.309-.3-.01-1.957,0-3.914-.008-5.872,0-.753-.145-.922-.885-1.124-.089-.025-.18-.043-.269-.068-.206-.057-.131-.227-.139-.36C15.64.089,15.765.1,15.869.1q2.3,0,4.6,0c.115,0,.25-.024.249.163,0,.156.035.325-.2.358-1.066.149-1.073.619-1.072,1.495q.01,6.5,0,13.006c0,.907.1,1.046.977,1.3.2.057.323.123.294.368-.033.286-.24.155-.359.156q-2.2.015-4.405,0c-.113,0-.307.107-.318-.157-.009-.2.033-.288.256-.341.918-.223,1.044-.394,1.045-1.322,0-2.036-.006-4.072.008-6.108,0-.3-.076-.37-.371-.365-.991.02-1.984.023-2.975,0-.314-.008-.363.1-.359.374.017,1.051.007,2.1.007,3.153" fill="#101011"/>
    <path id="Path_15163" data-name="Path 15163" d="M100.2,8.318a.287.287,0,0,0,.228.119,2.491,2.491,0,0,1,2.066,2.154,27.4,27.4,0,0,1,.32,3.131c.052.654.1,1.308.157,1.962.016.2.044.427.294.446s.318-.194.372-.39a4.3,4.3,0,0,0,.125-1.288c-.008-.2.047-.275.26-.266.189.007.3.028.28.255-.035.392-.018.791-.08,1.178a1.531,1.531,0,0,1-1.245,1.4,1.964,1.964,0,0,1-2.2-.872,5.767,5.767,0,0,1-.568-2.628c-.063-1.181-.1-2.362-.161-3.542-.062-1.129-.771-1.611-1.875-1.308-.21.058-.113.212-.114.318-.008,1.1,0,2.208,0,3.311,0,.986,0,1.971,0,2.956,0,.784.161.975.927,1.178.125.034.345-.022.34.235,0,.169.012.291-.238.289-1.508-.013-3.016-.006-4.524-.007-.109,0-.26.044-.235-.158.016-.127-.052-.255.162-.334,1.1-.409,1.1-.419,1.1-1.6V2.045c0-.158,0-.315-.01-.473A.853.853,0,0,0,94.85.711C94.734.683,94.622.643,94.5.624c-.241-.038-.177-.218-.183-.366-.008-.2.141-.155.251-.153,1.679.027,3.36-.076,5.037.055a3.931,3.931,0,0,1,3.708,4.168,4.083,4.083,0,0,1-3.12,3.99m-2.147-3.9V7.411c0,.672,0,.672.693.656,1.061-.025,1.55-.379,1.745-1.4a10.364,10.364,0,0,0-.05-4.376C100.149,1.075,99.628.7,98.368.7c-.261,0-.326.07-.323.324.014,1.13.006,2.259.006,3.389" fill="#101011"/>
    <path id="Path_15164" data-name="Path 15164" d="M181.086,10.819q0-4.295,0-8.589a3.467,3.467,0,0,0-.077-.665c-.112-.56-.525-.759-1.039-.879-.2-.047-.59.069-.548-.383.015-.152.06-.2.212-.2,1.1,0,2.2,0,3.293,0,.126,0,.244,0,.232.179-.009.139.04.3-.17.34-.116.023-.23.059-.343.093a1,1,0,0,0-.757.95c-.033.432-.067.865-.067,1.3q-.009,6.8,0,13.6c0,.33-.08.416-.409.4-.64-.028-.64-.008-.885-.6q-2.489-6.066-4.979-12.131l-.115-.279c-.114.038-.083.115-.083.168q.006,5.4.021,10.8c0,1.01.286,1.341,1.264,1.547.2.042.3.088.285.311-.012.288-.217.176-.344.177-.992.008-1.984.007-2.976,0-.136,0-.331.085-.328-.2,0-.2.068-.254.265-.29.749-.135.968-.4,1.036-1.248.028-.353.023-.709.023-1.063q0-5.913,0-11.824a2.019,2.019,0,0,0-1.185-1.7c-.225-.078-.174-.224-.18-.372-.008-.194.138-.155.249-.155C174.49.1,175.5.114,176.5.1c.271-.005.32.149.395.339q1.577,3.978,3.162,7.952l.969,2.435.059,0" fill="#101011"/>
    <path id="Path_15165" data-name="Path 15165" d="M108.79,16.953c-1.35,0-2.7,0-4.048,0-.114,0-.3.108-.333-.145-.03-.233.075-.316.283-.376.913-.265.984-.368.984-1.324q0-6.564,0-13.127c0-.981-.168-1.176-1.148-1.346-.155-.027-.36.024-.362-.25,0-.191.032-.282.256-.281q4.128.009,8.256,0c.211,0,.272.073.271.275q-.009,2.523,0,5.046c0,.155.005.279-.218.279s-.289-.052-.313-.28a12.013,12.013,0,0,0-.613-3.075A2.087,2.087,0,0,0,109.427.709c-.4.027-.948-.171-1.177.081-.2.22-.056.75-.056,1.143,0,1.866,0,3.732-.008,5.6,0,.284.052.377.363.368,1.091-.031,1.454-.292,1.726-1.342a8.906,8.906,0,0,0,.257-1.431c.018-.2.078-.33.337-.315.278.017.2.2.2.333q.006,3.1,0,6.19c0,.151.046.311-.217.319-.246.008-.29-.117-.3-.3a9.048,9.048,0,0,0-.263-1.747,1.541,1.541,0,0,0-1.977-1.088c-.2.059-.109.215-.11.324-.006,1.38,0,2.759,0,4.139,0,1.025.008,2.05-.006,3.075,0,.243.064.317.31.307.515-.021,1.031,0,1.547-.018a1.963,1.963,0,0,0,1.688-1,6.463,6.463,0,0,0,.768-2.459c.069-.427.123-.857.165-1.287.019-.2.12-.223.288-.229.2-.007.246.077.246.257,0,1.695-.009,3.39,0,5.085,0,.273-.145.25-.324.249q-2.044,0-4.088,0" fill="#101011"/>
    <path id="Path_15166" data-name="Path 15166" d="M118.071,16.953c-1.35,0-2.7,0-4.049,0-.116,0-.3.1-.322-.157-.016-.2.051-.294.256-.356.971-.294,1.01-.358,1.01-1.383q0-6.564,0-13.129c0-.872-.128-1.055-.96-1.275-.209-.056-.328-.113-.307-.356.026-.3.247-.185.387-.185,2.593-.007,5.186,0,7.78-.011.292,0,.383.068.381.37-.016,1.629-.007,3.259-.009,4.888,0,.16.062.341-.23.347-.274,0-.279-.131-.3-.336a12.064,12.064,0,0,0-.632-3.111A2.072,2.072,0,0,0,118.789.71c-.344,0-.688.008-1.032,0-.188-.006-.279.023-.278.249q.014,3.351,0,6.7c0,.194.063.234.249.239,1.162.033,1.548-.251,1.845-1.388a8.771,8.771,0,0,0,.249-1.392c.02-.211.094-.324.346-.305.281.022.184.212.185.342q.007,3.077,0,6.151c0,.131.095.322-.184.346-.259.023-.318-.1-.333-.312a11.67,11.67,0,0,0-.182-1.4c-.22-1.117-.536-1.389-1.671-1.417-.5-.012-.5-.012-.5.489,0,2.313.007,4.626-.007,6.939,0,.312.051.443.4.417.487-.036.979-.006,1.468-.021a1.955,1.955,0,0,0,1.662-.979,6.336,6.336,0,0,0,.779-2.455c.071-.427.125-.857.165-1.287.02-.208.109-.258.3-.259s.234.1.233.268c0,1.695-.008,3.391,0,5.086,0,.286-.167.237-.334.237h-4.088" fill="#101011"/>
    <path id="Path_15167" data-name="Path 15167" d="M25.625,16.953c-1.35,0-2.7,0-4.048,0-.117,0-.306.11-.343-.137-.033-.223.061-.321.275-.384.929-.272.979-.346.98-1.321q0-6.583,0-13.167c0-.912-.1-1.059-.977-1.3-.2-.055-.289-.125-.28-.34.012-.264.2-.2.341-.2,2.62,0,5.239,0,7.859-.008.292,0,.345.1.343.361-.011,1.63,0,3.259-.008,4.888,0,.149.086.342-.215.356s-.3-.164-.323-.368a12.576,12.576,0,0,0-.561-2.887,3.633,3.633,0,0,0-.524-1.007A1.73,1.73,0,0,0,26.757.715c-.5-.018-1.006,0-1.508-.009C25.057.7,25,.759,25,.948q.009,3.351,0,6.7c0,.226.089.244.279.246,1.171.009,1.5-.238,1.818-1.372a10.967,10.967,0,0,0,.27-1.467c.031-.219.131-.237.31-.243.245-.007.2.154.2.29q0,3.133,0,6.268c0,.15.016.281-.214.28-.2,0-.263-.066-.285-.266-.06-.547-.122-1.1-.235-1.634-.195-.93-.542-1.2-1.5-1.23-.634-.022-.634-.022-.634.626,0,2.286,0,4.573-.006,6.859,0,.262.044.371.338.355.5-.029,1.006-.006,1.508-.018a1.968,1.968,0,0,0,1.718-1.024,7.412,7.412,0,0,0,.815-2.851c.043-.285.077-.572.1-.859.019-.2.122-.248.315-.249.233,0,.211.137.21.284,0,1.682-.006,3.364.006,5.046,0,.252-.1.266-.3.265-1.363-.006-2.725,0-4.088,0" fill="#101011"/>
    <path id="Path_15168" data-name="Path 15168" d="M5.723,8.224q0,3.45,0,6.9c0,.954.108,1.081,1.063,1.287a2.018,2.018,0,0,1,.344.088c.148.062.081.2.086.313.009.2-.154.14-.255.14q-2.422,0-4.843,0c-.107,0-.255.049-.253-.149,0-.158-.024-.3.213-.339,1.082-.181,1.149-.43,1.149-1.551q0-6.879.006-13.758c0-.34-.059-.471-.439-.456a1.566,1.566,0,0,0-1.356.816,6.778,6.778,0,0,0-.8,2.651C.579,4.582.531,5,.5,5.418.49,5.632.426,5.7.2,5.7c-.247,0-.2-.153-.2-.288C0,3.744.011,2.076,0,.407,0,.165.062.1.308.1Q4.476.113,8.644.1c.262,0,.332.075.33.334-.012,1.643-.006,3.285-.007,4.928,0,.16.061.337-.231.342s-.287-.162-.3-.348a12.053,12.053,0,0,0-.492-2.9,4.021,4.021,0,0,0-.5-1.062A1.592,1.592,0,0,0,5.9.706c-.293.019-.171.221-.172.343q-.01,3.588-.005,7.175" fill="#101011"/>
    <path id="Path_15169" data-name="Path 15169" d="M128.743,8.245q0,3.388,0,6.778c0,.184.013.367.016.551a.732.732,0,0,0,.628.747,4.044,4.044,0,0,0,.615.14c.251.023.2.186.207.336.014.2-.133.155-.24.155q-2.421,0-4.841,0c-.1,0-.258.055-.244-.149.01-.145-.043-.277.2-.345,1.158-.332,1.155-.345,1.155-1.541q0-6.9.009-13.792c0-.346-.079-.436-.427-.425a1.541,1.541,0,0,0-1.321.732,6.048,6.048,0,0,0-.8,2.4,10.392,10.392,0,0,0-.171,1.564c0,.2-.057.3-.3.3s-.235-.134-.235-.3c0-1.668.005-3.336,0-5,0-.22.058-.3.288-.3q4.206.009,8.411,0c.2,0,.275.051.274.263-.008,1.694-.005,3.389,0,5.083,0,.134.02.263-.191.252-.169-.008-.284,0-.3-.233a12.786,12.786,0,0,0-.538-3.091,3.272,3.272,0,0,0-.656-1.2,1.354,1.354,0,0,0-.584-.391A1.144,1.144,0,0,0,128.8.76c-.168.1-.056.437-.056.668q-.008,3.408,0,6.817" fill="#101011"/>
    <path id="Path_15170" data-name="Path 15170" d="M90.572,8.242q0,3.449,0,6.9c0,.932.109,1.06,1.017,1.3.128.034.342-.014.341.239,0,.177,0,.287-.244.285-1.587-.01-3.174-.006-4.761,0-.124,0-.245.013-.225-.174.015-.135-.028-.251.185-.317,1.171-.361,1.168-.371,1.168-1.6q0-6.876.009-13.753c0-.329-.079-.411-.408-.405a1.544,1.544,0,0,0-1.349.754A6.114,6.114,0,0,0,85.511,3.9c-.079.505-.124,1.016-.164,1.525-.015.194-.067.274-.279.276s-.254-.1-.253-.287c0-1.668.008-3.337,0-5.005,0-.245.078-.31.318-.31q4.185.01,8.372,0c.235,0,.285.081.284.3q-.011,2.521,0,5.044c0,.168-.016.264-.228.262s-.258-.066-.275-.269a12.471,12.471,0,0,0-.545-3.088,3.441,3.441,0,0,0-.614-1.135,1.578,1.578,0,0,0-1.393-.5c-.23.011-.155.172-.155.283,0,1.077,0,2.154,0,3.231v4.02" fill="#101011"/>
    <path id="Path_15171" data-name="Path 15171" d="M69,16.953c-1.243,0-2.486,0-3.729,0-.116,0-.3.1-.324-.154-.016-.2.043-.3.252-.358.97-.294,1.015-.366,1.015-1.38V1.9c0-.854-.121-1.028-.943-1.243-.225-.059-.363-.117-.323-.38.044-.291.265-.164.4-.165,1.467-.01,2.935-.008,4.4,0,.131,0,.336-.1.348.18.009.207-.023.311-.272.369-1.088.252-1.1.285-1.1,1.394,0,4.624,0,9.247-.01,13.87,0,.37.11.431.457.446,1.378.06,2.22-.271,2.836-2.069a11.387,11.387,0,0,0,.488-2.5c.017-.16-.078-.426.257-.431.191,0,.283.029.282.253q-.013,2.541,0,5.083c0,.264-.126.256-.313.255-1.243,0-2.486,0-3.729,0" fill="#101011"/>
    <path id="Path_15172" data-name="Path 15172" d="M139.9,8V2.008c0-1.032-.076-1.13-1.061-1.371-.052-.013-.106-.014-.157-.027-.211-.052-.133-.223-.143-.355-.013-.162.106-.151.214-.151H143.4c.12,0,.251-.013.243.168-.007.136.053.3-.16.347-.013,0-.027,0-.039.007-1,.342-1.008.358-1.008,1.418q0,5.614-.005,11.23a4.051,4.051,0,0,1-.734,2.406,3.524,3.524,0,0,1-3.853,1.226A3.03,3.03,0,0,1,136,13.256,1.593,1.593,0,0,1,137.49,12.1a1.085,1.085,0,0,1,1.045.653,1.374,1.374,0,0,1-.223,1.475,4.437,4.437,0,0,1-.743.586A.676.676,0,0,0,137.51,16a1.282,1.282,0,0,0,2.211-.57,5,5,0,0,0,.176-1.441c0-.157,0-.315,0-.472V8" fill="#101011"/>
  </g>
</svg>
