<svg id="Group_9918" data-name="Group 9918" xmlns="http://www.w3.org/2000/svg" xmlns:xlink="http://www.w3.org/1999/xlink" width="83.46" height="22.504" viewBox="0 0 83.46 22.504">
  <defs>
    <clipPath id="clip-path">
      <rect id="Rectangle_2027" data-name="Rectangle 2027" width="83.46" height="22.504" transform="translate(0 0)" fill="none"/>
    </clipPath>
  </defs>
  <g id="Group_9918-2" data-name="Group 9918" clip-path="url(#clip-path)">
    <path id="Path_15148" data-name="Path 15148" d="M3.565,10.614V13.97c0,2.432-.019,4.865.013,7.3.008.592-.126.87-.765.9a12.969,12.969,0,0,0-1.987.264c-.6.119-.832.009-.826-.685C.035,17.92.017,14.1.016,10.276.016,7.122.028,3.969,0,.815c0-.54.117-.779.7-.73C1.583.157,2.638-.23,3.3.227s.7,1.559,1,2.381c1.074,2.934,2.126,5.876,3.19,8.813a1.177,1.177,0,0,0,.361.665,1.543,1.543,0,0,0,.1-.842C7.954,7.8,7.972,4.348,7.935.9,7.928.217,8.128.024,8.786.08a15.126,15.126,0,0,0,2.086,0c.505-.027.626.167.625.646q-.021,9.9,0,19.8c0,.5-.173.635-.639.664a24.061,24.061,0,0,0-2.471.275c-.574.1-.84-.047-1.036-.629C6.27,17.63,5.138,14.433,4.022,11.23c-.076-.216-.164-.427-.247-.641l-.21.025" fill="#101011"/>
    <path id="Path_15149" data-name="Path 15149" d="M77.167,5.767c.728-1.7,1.46-3.355,2.148-5.034A.885.885,0,0,1,80.327.08a25.555,25.555,0,0,0,2.567.006c.548-.02.549.158.359.592-1.357,3.108-2.68,6.23-4.05,9.332a1.709,1.709,0,0,0-.01,1.441c1.347,3.43,2.672,6.868,4,10.3.084.216.155.438.264.749-1.3-.172-2.514-.337-3.73-.49-.353-.044-.379-.332-.472-.571-.671-1.716-1.336-3.434-2.009-5.149a1.447,1.447,0,0,0-.414-.752c-.742,1.719-1.5,3.386-2.176,5.083a.891.891,0,0,1-1.192.662,13.774,13.774,0,0,0-2.231-.237c-.563-.02-.6-.185-.394-.663,1.288-2.934,2.531-5.888,3.836-8.815a2.21,2.21,0,0,0,.033-1.89C73.528,6.733,72.414,3.757,71.242.8,71.019.24,71.07.05,71.714.084a23.006,23.006,0,0,0,2.407,0,.808.808,0,0,1,.934.63c.577,1.579,1.208,3.139,1.82,4.706.047.119.056.266.292.348" fill="#101011"/>
    <path id="Path_15150" data-name="Path 15150" d="M14.841,10.4c0-3.179.012-6.358-.011-9.536-.005-.554.07-.8.722-.786,2.781.04,5.563.029,8.344.006.534,0,.777.1.734.7a15.6,15.6,0,0,0,0,2.162c.037.555-.183.667-.687.658-1.631-.027-3.263.01-4.894-.021-.524-.01-.7.135-.68.672.039,1.174.026,2.351.005,3.526-.007.417.135.56.555.548,1.176-.034,2.354-.01,3.529-.056.538-.022.694.166.663.685a13.912,13.912,0,0,0,0,2.082c.056.643-.206.745-.778.725-1.094-.036-2.192.034-3.288.012-.508-.01-.706.119-.689.667.038,1.308.036,2.618,0,3.926-.015.55.168.662.691.614,1.624-.147,3.255-.217,4.879-.365.533-.049.748.077.684.623a6.9,6.9,0,0,0-.006.8c0,2.048,0,2.03-2.011,2.164-2.321.154-4.642.317-6.958.534-.7.066-.83-.148-.823-.8.034-3.178.015-6.357.015-9.536" fill="#101011"/>
    <path id="Path_15151" data-name="Path 15151" d="M39.974,9.79c0-2.993.013-5.985-.012-8.978,0-.545.129-.736.7-.73q4.254.042,8.507,0c.5,0,.653.144.626.636a14.857,14.857,0,0,0,.005,2.162c.059.651-.215.734-.774.722-1.6-.034-3.21.01-4.814-.024-.551-.011-.754.13-.729.708.045,1.04.048,2.085,0,3.125-.028.6.209.708.739.692,1.123-.035,2.248.009,3.37-.02.492-.012.738.081.7.651a17.487,17.487,0,0,0,0,2.243c.031.522-.179.623-.649.611-1.176-.028-2.354.016-3.53-.021-.509-.016-.63.159-.625.641.023,2.217-.006,4.435.022,6.652.006.539-.111.772-.7.729a12.4,12.4,0,0,0-2.084,0c-.695.068-.771-.246-.767-.825.024-2.993.011-5.985.011-8.978" fill="#101011"/>
    <path id="Path_15152" data-name="Path 15152" d="M30.524,11.617c0-2.4-.026-4.811.016-7.216.012-.686-.208-.871-.86-.823-.745.056-1.5-.008-2.246.021-.442.017-.625-.108-.6-.581.035-.773.031-1.55,0-2.324-.017-.444.113-.61.582-.608q4.9.024,9.794,0c.428,0,.554.151.54.563-.026.8-.029,1.6,0,2.4.016.428-.134.558-.55.544-.8-.025-1.608.035-2.407-.02-.621-.043-.754.182-.751.769.023,4.81,0,9.621.03,14.431.005.727-.177,1-.918.945a13.3,13.3,0,0,0-2.005.049c-.495.04-.638-.123-.634-.618.023-2.512.011-5.025.011-7.537" fill="#101011"/>
    <path id="Path_15153" data-name="Path 15153" d="M52.028,9.878c0-2.992.022-5.984-.017-8.975-.008-.682.2-.878.853-.822a12.649,12.649,0,0,0,2,0c.575-.043.705.167.7.717-.021,4.915,0,9.83-.03,14.744-.005.693.163.912.867.924,1.5.026,2.99.173,4.486.227.522.019.776.13.731.723a18.346,18.346,0,0,0-.005,2.162c.02.465-.074.667-.611.635q-4.243-.256-8.492-.437c-.561-.023-.49-.338-.49-.685q0-4.367,0-8.734V9.878" fill="#101011"/>
    <path id="Path_15154" data-name="Path 15154" d="M68.013,10.357c0,3.177-.018,6.355.015,9.532.007.656-.129.919-.831.8a12.352,12.352,0,0,0-2-.168c-.6,0-.737-.234-.734-.815.025-5.394.015-10.787.015-16.181,0-.961.017-1.923-.008-2.883-.011-.411.105-.573.537-.555A18.378,18.378,0,0,0,67.175.081c.652-.05.864.136.855.824-.039,3.15-.017,6.3-.017,9.452" fill="#101011"/>
  </g>
</svg>
