<svg xmlns="http://www.w3.org/2000/svg" xmlns:xlink="http://www.w3.org/1999/xlink" width="100.127" height="30" viewBox="0 0 100.127 30">
  <defs>
    <clipPath id="clip-path">
      <rect id="Rectangle_2026" data-name="Rectangle 2026" width="100.127" height="30" transform="translate(0 0)" fill="none"/>
    </clipPath>
  </defs>
  <g id="Group_9917" data-name="Group 9917" transform="translate(0 0)">
    <g id="Group_9917-2" data-name="Group 9917" clip-path="url(#clip-path)">
      <path id="Path_15138" data-name="Path 15138" d="M15.012,30A15,15,0,1,1,30.038,15.134,14.98,14.98,0,0,1,15.012,30M4.658,10.224a1.375,1.375,0,0,0,1.768,1.338,2.99,2.99,0,0,1,.449-.127,22.35,22.35,0,0,1,3-.533c.749-.083,1.5-.124,2.251-.153a20.685,20.685,0,0,1,2.5.067c.515.043,1.031.08,1.546.13a21.882,21.882,0,0,1,2.718.45,17.446,17.446,0,0,1,5,1.889,1.4,1.4,0,1,0,1.41-2.407,16.365,16.365,0,0,0-1.995-1,23.9,23.9,0,0,0-5.283-1.5c-.715-.124-1.438-.195-2.16-.275C15.074,8.019,14.286,8,13.5,7.957c-.462-.023-.927.011-1.39.018a28,28,0,0,0-3.2.227,20.379,20.379,0,0,0-3.289.7,1.385,1.385,0,0,0-.963,1.327m7.856,2.882c-.617,0-1.232.029-1.846.078a19.448,19.448,0,0,0-4.149.772,1.161,1.161,0,1,0,.661,2.226,19.37,19.37,0,0,1,8.06-.55,17.611,17.611,0,0,1,6.892,2.3,1.161,1.161,0,1,0,1.192-1.992,15.128,15.128,0,0,0-1.587-.853,22.028,22.028,0,0,0-9.223-1.977M12.307,18c-.4,0-1.2.05-2,.133a26.294,26.294,0,0,0-3.321.565.911.911,0,0,0-.691.836.938.938,0,0,0,1.231.944,21.668,21.668,0,0,1,7.209-.5,14.256,14.256,0,0,1,5.841,1.939.931.931,0,0,0,1.329-.29.92.92,0,0,0-.359-1.294,15.133,15.133,0,0,0-1.38-.742A17.811,17.811,0,0,0,12.307,18" fill="#101011"/>
      <path id="Path_15139" data-name="Path 15139" d="M91.307,18.628q.68-1.938,1.354-3.864c.355-1.011.714-2.021,1.062-3.035a.281.281,0,0,1,.313-.22c.724.006,1.448,0,2.173,0,.306,0,.361.076.251.36q-1.653,4.268-3.308,8.535a28.256,28.256,0,0,1-1.12,2.737,3.988,3.988,0,0,1-1.048,1.345,3.266,3.266,0,0,1-2.232.6,4.98,4.98,0,0,1-2.179-.587.228.228,0,0,1-.121-.347q.369-.8.73-1.6c.074-.168.18-.178.327-.1a2.875,2.875,0,0,0,1.081.326,1.175,1.175,0,0,0,1.2-.624.676.676,0,0,0,.058-.691q-1.559-3.682-3.083-7.379a.333.333,0,0,0-.37-.254c-.552.018-1.1.014-1.656,0-.194,0-.251.043-.25.245q.01,3.771,0,7.542c0,.341,0,.341-.348.341h-2c-.3,0-.32-.02-.32-.316,0-2.514,0-5.028.005-7.542,0-.212-.043-.29-.267-.271-.264.023-.531,0-.8.008-.158,0-.222-.066-.221-.217,0-.63,0-1.261,0-1.891,0-.177.084-.247.249-.246.251,0,.5,0,.753,0,.318,0,.278.034.278-.27a5.856,5.856,0,0,1,.157-1.51,2.726,2.726,0,0,1,2.445-2.146,6.414,6.414,0,0,1,2.511.2.26.26,0,0,1,.227.3c-.009.587,0,1.175,0,1.762,0,.257-.068.307-.313.23a4.018,4.018,0,0,0-1.287-.211,1,1,0,0,0-1.071.975c-.017.148-.007.3-.024.449-.021.188.033.253.239.251,1.162-.011,2.324-.005,3.485-.005.353,0,.353,0,.477.321q1.265,3.292,2.529,6.585c.027.07.033.154.114.21" fill="#101011"/>
      <path id="Path_15140" data-name="Path 15140" d="M48.863,12.842a4.564,4.564,0,0,1,1.47-1.162,4.662,4.662,0,0,1,4.968.82,5.112,5.112,0,0,1,1.617,3.048,6.491,6.491,0,0,1-.4,3.742,4.752,4.752,0,0,1-6.041,2.586,4.086,4.086,0,0,1-1.35-.9,2.717,2.717,0,0,1-.2-.244l-.063.046v3.944c0,.285-.032.317-.323.317q-1.021,0-2.043,0c-.259,0-.3-.043-.3-.3V11.793c0-.256.03-.287.283-.288.7,0,1.4,0,2.108,0,.2,0,.287.065.28.274-.011.333,0,.668,0,1.066m-.054,3.887a3.23,3.23,0,0,0,.4,1.63,2.6,2.6,0,0,0,2.513,1.45,2.456,2.456,0,0,0,2.277-1.561,3.55,3.55,0,0,0-.054-3.112,2.614,2.614,0,0,0-4.138-.79,3.125,3.125,0,0,0-.993,2.383" fill="#101011"/>
      <path id="Path_15141" data-name="Path 15141" d="M39.781,8.021a7.734,7.734,0,0,1,4.932,1.62c.242.187.245.217.067.468l-1.069,1.506c-.194.274-.226.278-.491.089a6.112,6.112,0,0,0-2.789-1.2,3.07,3.07,0,0,0-1.848.223,1.292,1.292,0,0,0-.778,1.146,1.234,1.234,0,0,0,.728,1.212,8.907,8.907,0,0,0,2.088.7,11.639,11.639,0,0,1,2.651.91A3.359,3.359,0,0,1,45.2,16.982a3.978,3.978,0,0,1-2.962,4.923,7.925,7.925,0,0,1-5.583-.571A8.2,8.2,0,0,1,34.7,20.05c-.187-.162-.189-.224-.034-.408l1.258-1.5c.181-.215.229-.219.452-.031a6.335,6.335,0,0,0,2.86,1.5,4.622,4.622,0,0,0,2.15-.018,2.055,2.055,0,0,0,.771-.407,1.336,1.336,0,0,0-.151-2.093,6.683,6.683,0,0,0-1.822-.676,17.9,17.9,0,0,1-2.608-.78,4.9,4.9,0,0,1-1.458-.891A3.308,3.308,0,0,1,35.1,12.237,3.966,3.966,0,0,1,38.306,8.2a5.692,5.692,0,0,1,1.475-.183" fill="#101011"/>
      <path id="Path_15142" data-name="Path 15142" d="M63.358,22.207a5.45,5.45,0,0,1-1.043-10.829,5.564,5.564,0,0,1,5.854,2.659,5.439,5.439,0,0,1-3.7,8.046,6.8,6.8,0,0,1-1.112.124M66.2,16.78a3.212,3.212,0,0,0-.361-1.55,2.88,2.88,0,0,0-4.676-.629,3.218,3.218,0,0,0-.693,2.833,2.892,2.892,0,0,0,3.922,2.2A2.938,2.938,0,0,0,66.2,16.78" fill="#101011"/>
      <path id="Path_15143" data-name="Path 15143" d="M70.334,16.669c0-.881,0-1.762,0-2.643,0-.152-.044-.2-.193-.19-.279.011-.56,0-.84.006-.182.006-.264-.064-.263-.249q.006-.914,0-1.826c0-.192.081-.271.274-.265.273.009.545-.007.817.006.161.008.208-.037.206-.2-.01-.759,0-1.518,0-2.278,0-.271.034-.3.312-.3q1.032,0,2.065,0c.267,0,.291.026.291.3,0,.759,0,1.518,0,2.277,0,.157.036.209.2.207.746-.01,1.49-.005,2.237,0,.265,0,.293.028.293.3,0,.587,0,1.175,0,1.762,0,.2-.059.28-.272.277-.754-.01-1.507,0-2.259-.008-.163,0-.2.044-.2.2.008,1.526,0,3.052.007,4.577a2.1,2.1,0,0,0,.045.426.858.858,0,0,0,.9.678,2.92,2.92,0,0,0,1.4-.282c.246-.117.353-.052.354.214,0,.566,0,1.132,0,1.7a.29.29,0,0,1-.166.3,4.444,4.444,0,0,1-3.583.248,2.365,2.365,0,0,1-1.537-1.964,5.127,5.127,0,0,1-.083-.982c0-.76,0-1.519,0-2.278" fill="#101011"/>
      <path id="Path_15144" data-name="Path 15144" d="M79.468,16.748v4.9c0,.305-.013.318-.311.318H77.093c-.268,0-.287-.018-.287-.274q0-4.951,0-9.9c0-.253.028-.281.287-.281h2.086c.263,0,.289.027.289.3v4.94" fill="#101011"/>
      <path id="Path_15145" data-name="Path 15145" d="M78.157,6.906A1.662,1.662,0,1,1,76.48,8.551a1.652,1.652,0,0,1,1.677-1.645" fill="#101011"/>
      <path id="Path_15146" data-name="Path 15146" d="M100.127,13.118a1.644,1.644,0,1,1-1.636-1.639,1.645,1.645,0,0,1,1.636,1.639m-.19,0a1.42,1.42,0,0,0-1.449-1.456,1.467,1.467,0,1,0,1.449,1.456" fill="#101011"/>
      <path id="Path_15147" data-name="Path 15147" d="M99.31,13.919c-.258.059-.44.032-.55-.2-.042-.089-.12-.161-.167-.249-.085-.159-.233-.127-.359-.109-.142.019-.056.149-.072.228a.568.568,0,0,0,0,.193c.019.142-.051.163-.174.166s-.17-.039-.168-.171c.007-.465,0-.93,0-1.4,0-.073-.027-.167.1-.163a6.636,6.636,0,0,1,.858.02.525.525,0,0,1,.456.672.4.4,0,0,1-.216.305c-.166.07-.12.144-.04.247.108.141.207.289.326.457m-.889-.867a.784.784,0,0,0,.332-.036.251.251,0,0,0,.109-.377.905.905,0,0,0-.67-.1c-.01.008-.024.022-.024.032a1.652,1.652,0,0,0,.013.446c.025.087.168.02.24.039" fill="#101011"/>
    </g>
  </g>
</svg>
