<svg xmlns="http://www.w3.org/2000/svg" xmlns:xlink="http://www.w3.org/1999/xlink" width="144.478" height="38.2" viewBox="0 0 144.478 38.2">
  <defs>
    <clipPath id="clip-path">
      <rect id="Rectangle_2030" data-name="Rectangle 2030" width="144.478" height="38.2" transform="translate(0 0)" fill="none"/>
    </clipPath>
  </defs>
  <g id="Group_9921" data-name="Group 9921" transform="translate(0 0)">
    <g id="Group_9921-2" data-name="Group 9921" clip-path="url(#clip-path)">
      <path id="Path_15205" data-name="Path 15205" d="M0,.339Q.839.18,1.85.089T3.859,0a12.966,12.966,0,0,1,2.09.17A5.193,5.193,0,0,1,7.84.85,3.967,3.967,0,0,1,9.21,2.27a4.689,4.689,0,0,1,.529,2.37,4.9,4.9,0,0,1-.46,2.23,4.246,4.246,0,0,1-1.22,1.49,4.9,4.9,0,0,1-1.73.84,7.694,7.694,0,0,1-2.01.26H4c-.148,0-.3,0-.46-.01s-.317-.017-.471-.03-.263-.027-.33-.04V14.2H0ZM4.079,2.36q-.4,0-.76.03t-.58.07V7a2.252,2.252,0,0,0,.24.04c.107.013.22.023.34.03s.237.01.351.01h.25a5.725,5.725,0,0,0,1.069-.1,2.627,2.627,0,0,0,.95-.37,1.924,1.924,0,0,0,.67-.75,2.727,2.727,0,0,0,.25-1.26,2.225,2.225,0,0,0-.24-1.091,1.946,1.946,0,0,0-.63-.689A2.463,2.463,0,0,0,5.1,2.46a5.176,5.176,0,0,0-1.021-.1" fill="#101011"/>
      <path id="Path_15206" data-name="Path 15206" d="M18.659,13.34a5.075,5.075,0,0,1-1.63.81,7.14,7.14,0,0,1-2.191.33,4.249,4.249,0,0,1-3.54-1.41A6.066,6.066,0,0,1,10.179,9.2a5.538,5.538,0,0,1,1.26-3.96,4.661,4.661,0,0,1,3.54-1.32,5.515,5.515,0,0,1,1.48.2,3.462,3.462,0,0,1,1.28.66,3.253,3.253,0,0,1,.9,1.241,4.849,4.849,0,0,1,.34,1.939,8.809,8.809,0,0,1-.05.9q-.051.482-.15,1h-6a2.931,2.931,0,0,0,.65,1.9,2.488,2.488,0,0,0,1.909.64,4.066,4.066,0,0,0,1.471-.25,4.115,4.115,0,0,0,.989-.509ZM14.939,6a1.822,1.822,0,0,0-1.51.61,3.029,3.029,0,0,0-.591,1.63h3.721a2.53,2.53,0,0,0-.33-1.66A1.47,1.47,0,0,0,14.939,6" fill="#101011"/>
      <path id="Path_15207" data-name="Path 15207" d="M26.34,6.641a3.387,3.387,0,0,0-1.12-.221,1.834,1.834,0,0,0-1.17.37,1.783,1.783,0,0,0-.63.951V14.2h-2.6V4.2H22.84l.3,1.32h.08a2.733,2.733,0,0,1,.92-1.141,2.34,2.34,0,0,1,1.359-.4,3.782,3.782,0,0,1,1.181.22Z" fill="#101011"/>
      <path id="Path_15208" data-name="Path 15208" d="M31.979,11.44a.748.748,0,0,0-.34-.641,4.147,4.147,0,0,0-.84-.439c-.334-.133-.7-.271-1.1-.41a4.118,4.118,0,0,1-1.1-.58,3.164,3.164,0,0,1-.84-.94,2.838,2.838,0,0,1-.34-1.47A2.858,2.858,0,0,1,28.3,4.7a3.71,3.71,0,0,1,2.54-.781,8.163,8.163,0,0,1,2.06.241,5.971,5.971,0,0,1,1.44.54l-.58,1.88Q33.3,6.4,32.6,6.2a5.159,5.159,0,0,0-1.42-.2q-1.16,0-1.16.9a.664.664,0,0,0,.34.58,4.477,4.477,0,0,0,.84.41q.5.189,1.1.409a4.8,4.8,0,0,1,1.1.571,2.989,2.989,0,0,1,.84.91,2.744,2.744,0,0,1,.34,1.439,3.05,3.05,0,0,1-.97,2.391,4.242,4.242,0,0,1-2.91.87,7.117,7.117,0,0,1-1.991-.27,6.121,6.121,0,0,1-1.509-.63l.72-1.94a6.957,6.957,0,0,0,1.22.51,4.955,4.955,0,0,0,1.56.25,1.728,1.728,0,0,0,.93-.22.806.806,0,0,0,.35-.74" fill="#101011"/>
      <path id="Path_15209" data-name="Path 15209" d="M35.8,9.2a5.629,5.629,0,0,1,1.24-3.91,4.456,4.456,0,0,1,3.48-1.37,5.226,5.226,0,0,1,2.08.38,3.9,3.9,0,0,1,1.46,1.07,4.569,4.569,0,0,1,.87,1.67,7.605,7.605,0,0,1,.29,2.16,5.659,5.659,0,0,1-1.23,3.91,4.425,4.425,0,0,1-3.47,1.37,5.226,5.226,0,0,1-2.08-.38,3.977,3.977,0,0,1-1.47-1.07,4.5,4.5,0,0,1-.88-1.67A7.565,7.565,0,0,1,35.8,9.2m2.68,0a5.822,5.822,0,0,0,.12,1.22,3.422,3.422,0,0,0,.359.98,1.744,1.744,0,0,0,.631.65,1.792,1.792,0,0,0,.93.23,1.71,1.71,0,0,0,1.52-.74,4.271,4.271,0,0,0,.5-2.34,4.688,4.688,0,0,0-.46-2.23,1.628,1.628,0,0,0-1.56-.85,1.769,1.769,0,0,0-1.5.72,4,4,0,0,0-.54,2.36" fill="#101011"/>
      <path id="Path_15210" data-name="Path 15210" d="M53.139,14.2V8.52a3.346,3.346,0,0,0-.35-1.76A1.307,1.307,0,0,0,51.6,6.22a1.871,1.871,0,0,0-1.25.43,2.391,2.391,0,0,0-.731,1.07V14.2h-2.6V4.2h2.059l.3,1.32h.08a4.321,4.321,0,0,1,1.22-1.12,3.618,3.618,0,0,1,1.96-.48,4.046,4.046,0,0,1,1.32.2,2.259,2.259,0,0,1,.981.66,3.008,3.008,0,0,1,.6,1.25,8.093,8.093,0,0,1,.2,1.95V14.2Z" fill="#101011"/>
      <path id="Path_15211" data-name="Path 15211" d="M57.859,4.781a8.537,8.537,0,0,1,1.9-.571,12.324,12.324,0,0,1,2.3-.21,5.245,5.245,0,0,1,1.741.25,2.506,2.506,0,0,1,1.69,1.811,5.625,5.625,0,0,1,.17,1.439q0,.88-.061,1.771t-.069,1.75q-.01.859.05,1.67a6.272,6.272,0,0,0,.3,1.529h-2.12l-.42-1.38h-.1a3.548,3.548,0,0,1-1.11,1.07,3.368,3.368,0,0,1-1.83.451,3.588,3.588,0,0,1-1.26-.21,2.7,2.7,0,0,1-1.58-1.521,3.065,3.065,0,0,1-.22-1.189,2.784,2.784,0,0,1,.41-1.55,2.953,2.953,0,0,1,1.18-1.021,5.915,5.915,0,0,1,1.84-.54,13.035,13.035,0,0,1,2.389-.089A2.6,2.6,0,0,0,62.9,6.63q-.3-.489-1.341-.489a9.189,9.189,0,0,0-1.649.159,6.107,6.107,0,0,0-1.43.42Zm3.3,7.439a2,2,0,0,0,1.24-.35,2.434,2.434,0,0,0,.68-.75v-1.3A7.238,7.238,0,0,0,61.888,9.8a4.32,4.32,0,0,0-1.009.181,1.7,1.7,0,0,0-.7.4.9.9,0,0,0-.26.66,1.134,1.134,0,0,0,.33.87,1.274,1.274,0,0,0,.91.31" fill="#101011"/>
      <path id="Path_15212" data-name="Path 15212" d="M70.519,10.84a2.177,2.177,0,0,0,.181,1.021.617.617,0,0,0,.58.32,2.792,2.792,0,0,0,.469-.04,2.919,2.919,0,0,0,.571-.181L72.6,14a4.862,4.862,0,0,1-.979.32,5.748,5.748,0,0,1-1.361.161,2.547,2.547,0,0,1-1.74-.531,2.233,2.233,0,0,1-.6-1.75V.2h2.6Z" fill="#101011"/>
      <path id="Path_15213" data-name="Path 15213" d="M84.939,11.1h-4.3l-1.06,3.1h-2.74L81.879.1H83.9l5.04,14.1h-2.88Zm-3.6-2.2h3L83.3,5.78l-.42-2.2h-.1L82.359,5.8Z" fill="#101011"/>
      <path id="Path_15214" data-name="Path 15214" d="M96.778,13.58a4.333,4.333,0,0,1-1.45.67,6.686,6.686,0,0,1-1.75.23,4.873,4.873,0,0,1-2.029-.379A3.47,3.47,0,0,1,90.2,13.03a4.4,4.4,0,0,1-.75-1.67,9.472,9.472,0,0,1-.23-2.16,5.959,5.959,0,0,1,1.14-3.91,4.073,4.073,0,0,1,3.32-1.37,6.99,6.99,0,0,1,1.77.181,5.981,5.981,0,0,1,1.21.459l-.62,2.121a5.151,5.151,0,0,0-.91-.341,4.008,4.008,0,0,0-1.03-.12,1.961,1.961,0,0,0-1.64.711A3.671,3.671,0,0,0,91.9,9.2a4.708,4.708,0,0,0,.14,1.18,2.886,2.886,0,0,0,.42.94,1.958,1.958,0,0,0,.73.63,2.282,2.282,0,0,0,1.05.231,3.23,3.23,0,0,0,1.12-.171,3.948,3.948,0,0,0,.82-.409Z" fill="#101011"/>
      <path id="Path_15215" data-name="Path 15215" d="M105.1,13.58a4.333,4.333,0,0,1-1.45.67,6.686,6.686,0,0,1-1.75.23A4.873,4.873,0,0,1,99.87,14.1a3.47,3.47,0,0,1-1.351-1.071,4.4,4.4,0,0,1-.75-1.67,9.472,9.472,0,0,1-.23-2.16,5.959,5.959,0,0,1,1.14-3.91A4.073,4.073,0,0,1,102,3.92a6.99,6.99,0,0,1,1.77.181,5.981,5.981,0,0,1,1.21.459l-.62,2.121a5.151,5.151,0,0,0-.91-.341,4.008,4.008,0,0,0-1.03-.12,1.961,1.961,0,0,0-1.64.711,3.671,3.671,0,0,0-.56,2.269,4.708,4.708,0,0,0,.14,1.18,2.886,2.886,0,0,0,.42.94,1.958,1.958,0,0,0,.73.63,2.282,2.282,0,0,0,1.05.231,3.23,3.23,0,0,0,1.12-.171,3.948,3.948,0,0,0,.82-.409Z" fill="#101011"/>
      <path id="Path_15216" data-name="Path 15216" d="M105.858,9.2A5.624,5.624,0,0,1,107.1,5.29a4.452,4.452,0,0,1,3.479-1.37,5.223,5.223,0,0,1,2.08.38,3.893,3.893,0,0,1,1.46,1.07,4.569,4.569,0,0,1,.87,1.67,7.57,7.57,0,0,1,.29,2.16,5.663,5.663,0,0,1-1.229,3.91,4.428,4.428,0,0,1-3.471,1.37,5.226,5.226,0,0,1-2.08-.38,3.985,3.985,0,0,1-1.47-1.07,4.511,4.511,0,0,1-.88-1.67,7.6,7.6,0,0,1-.29-2.16m2.68,0a5.822,5.822,0,0,0,.12,1.22,3.394,3.394,0,0,0,.36.98,1.75,1.75,0,0,0,.63.65,1.8,1.8,0,0,0,.93.23,1.712,1.712,0,0,0,1.521-.74,4.271,4.271,0,0,0,.5-2.34,4.688,4.688,0,0,0-.46-2.23,1.63,1.63,0,0,0-1.561-.85,1.769,1.769,0,0,0-1.5.72,4.007,4.007,0,0,0-.54,2.36" fill="#101011"/>
      <path id="Path_15217" data-name="Path 15217" d="M119.578,4.2V9.88a3.946,3.946,0,0,0,.29,1.76,1.163,1.163,0,0,0,1.13.54,1.775,1.775,0,0,0,1.23-.44,2.694,2.694,0,0,0,.73-1.08V4.2h2.6v6.96a15.777,15.777,0,0,0,.081,1.61,9.9,9.9,0,0,0,.239,1.43h-1.96l-.46-1.48h-.08a3.746,3.746,0,0,1-1.279,1.26,3.66,3.66,0,0,1-1.941.5,4.3,4.3,0,0,1-1.36-.2,2.226,2.226,0,0,1-1-.66,3.084,3.084,0,0,1-.61-1.24,7.687,7.687,0,0,1-.21-1.96V4.2Z" fill="#101011"/>
      <path id="Path_15218" data-name="Path 15218" d="M133.958,14.2V8.52a3.356,3.356,0,0,0-.35-1.76,1.309,1.309,0,0,0-1.19-.54,1.872,1.872,0,0,0-1.25.43,2.4,2.4,0,0,0-.73,1.07V14.2h-2.6V4.2h2.06l.3,1.32h.08A4.321,4.321,0,0,1,131.5,4.4a3.618,3.618,0,0,1,1.96-.48,4.046,4.046,0,0,1,1.32.2,2.25,2.25,0,0,1,.98.66,3.009,3.009,0,0,1,.6,1.25,8.1,8.1,0,0,1,.2,1.95V14.2Z" fill="#101011"/>
      <path id="Path_15219" data-name="Path 15219" d="M137.7,4.2h1.38V2.32l2.6-.74V4.2h2.441V6.4h-2.441v3.84a3.827,3.827,0,0,0,.21,1.49.791.791,0,0,0,.79.45,2.635,2.635,0,0,0,.691-.08,4.632,4.632,0,0,0,.649-.24l.46,2a6.589,6.589,0,0,1-1.259.44,6,6,0,0,1-1.46.18,2.63,2.63,0,0,1-2.031-.71,3.41,3.41,0,0,1-.649-2.33V6.4H137.7Z" fill="#101011"/>
      <path id="Path_15220" data-name="Path 15220" d="M0,20.339c.305-.052.636-.1.989-.149s.707-.083,1.061-.11.7-.047,1.029-.06S3.72,20,4,20a10.342,10.342,0,0,1,1.929.18,5.261,5.261,0,0,1,1.7.619,3.328,3.328,0,0,1,1.2,1.21,3.772,3.772,0,0,1,.45,1.931,4.589,4.589,0,0,1-.8,2.8,4.123,4.123,0,0,1-2.139,1.5l.979.62,3.2,5.34H7.359l-3.18-5.481-1.44-.259V34.2H0Zm4.2,2.1c-.279,0-.557.007-.83.02a3.085,3.085,0,0,0-.63.08V26.6H3.9a2.93,2.93,0,0,0,1.821-.52A2.031,2.031,0,0,0,6.4,24.36a1.81,1.81,0,0,0-.559-1.41A2.36,2.36,0,0,0,4.2,22.44" fill="#101011"/>
      <path id="Path_15221" data-name="Path 15221" d="M19.02,33.34a5.075,5.075,0,0,1-1.63.81,7.141,7.141,0,0,1-2.191.33,4.249,4.249,0,0,1-3.54-1.41A6.066,6.066,0,0,1,10.54,29.2a5.538,5.538,0,0,1,1.26-3.96,4.661,4.661,0,0,1,3.54-1.32,5.515,5.515,0,0,1,1.48.2,3.462,3.462,0,0,1,1.28.66,3.253,3.253,0,0,1,.9,1.241,4.849,4.849,0,0,1,.34,1.939,8.809,8.809,0,0,1-.05.9q-.051.481-.15,1h-6a2.931,2.931,0,0,0,.65,1.9,2.488,2.488,0,0,0,1.909.64,4.066,4.066,0,0,0,1.471-.25,4.115,4.115,0,0,0,.989-.509ZM15.3,26a1.822,1.822,0,0,0-1.51.61,3.029,3.029,0,0,0-.591,1.63H16.92a2.53,2.53,0,0,0-.33-1.66A1.47,1.47,0,0,0,15.3,26" fill="#101011"/>
      <path id="Path_15222" data-name="Path 15222" d="M21.18,24.2h1.9l.3,1.2h.08a3.311,3.311,0,0,1,1.231-1.12,3.788,3.788,0,0,1,1.729-.36,3.377,3.377,0,0,1,2.821,1.19,6.2,6.2,0,0,1,.94,3.83,8.251,8.251,0,0,1-.3,2.31A4.859,4.859,0,0,1,28.99,33a3.884,3.884,0,0,1-1.441,1.1,4.736,4.736,0,0,1-1.949.38,4.855,4.855,0,0,1-1.021-.089,3.573,3.573,0,0,1-.8-.291v4.1h-2.6Zm4.46,1.92a1.737,1.737,0,0,0-1.19.38,2.474,2.474,0,0,0-.67,1.141V31.8a2.137,2.137,0,0,0,1.48.48,1.927,1.927,0,0,0,1.68-.79,4.638,4.638,0,0,0,.559-2.61,3.933,3.933,0,0,0-.439-2.04,1.54,1.54,0,0,0-1.42-.72" fill="#101011"/>
      <path id="Path_15223" data-name="Path 15223" d="M37.5,26.641a3.387,3.387,0,0,0-1.12-.221,1.834,1.834,0,0,0-1.17.37,1.783,1.783,0,0,0-.63.951V34.2h-2.6v-10H34l.3,1.32h.08a2.733,2.733,0,0,1,.92-1.141,2.34,2.34,0,0,1,1.359-.4,3.782,3.782,0,0,1,1.181.22Z" fill="#101011"/>
      <path id="Path_15224" data-name="Path 15224" d="M47,33.34a5.075,5.075,0,0,1-1.63.81,7.141,7.141,0,0,1-2.191.33,4.249,4.249,0,0,1-3.54-1.41,6.066,6.066,0,0,1-1.119-3.87,5.538,5.538,0,0,1,1.26-3.96,4.661,4.661,0,0,1,3.54-1.32,5.515,5.515,0,0,1,1.48.2,3.462,3.462,0,0,1,1.28.66,3.253,3.253,0,0,1,.9,1.241,4.849,4.849,0,0,1,.34,1.939,8.809,8.809,0,0,1-.05.9q-.051.481-.15,1h-6a2.931,2.931,0,0,0,.65,1.9,2.488,2.488,0,0,0,1.909.64,4.066,4.066,0,0,0,1.471-.25,4.115,4.115,0,0,0,.989-.509ZM43.279,26a1.822,1.822,0,0,0-1.51.61,3.029,3.029,0,0,0-.591,1.63H44.9a2.53,2.53,0,0,0-.33-1.66,1.47,1.47,0,0,0-1.29-.58" fill="#101011"/>
      <path id="Path_15225" data-name="Path 15225" d="M53.3,31.44a.748.748,0,0,0-.34-.641,4.12,4.12,0,0,0-.84-.439c-.333-.133-.7-.271-1.1-.41a4.109,4.109,0,0,1-1.1-.58,3.178,3.178,0,0,1-.84-.94,2.848,2.848,0,0,1-.34-1.47,2.858,2.858,0,0,1,.88-2.26,3.714,3.714,0,0,1,2.54-.781,8.177,8.177,0,0,1,2.061.241,5.961,5.961,0,0,1,1.439.54l-.58,1.88q-.459-.18-1.16-.38A5.154,5.154,0,0,0,52.5,26q-1.159,0-1.16.9a.663.663,0,0,0,.341.58,4.447,4.447,0,0,0,.84.41q.5.189,1.1.409a4.8,4.8,0,0,1,1.1.571,3,3,0,0,1,.84.91,2.744,2.744,0,0,1,.34,1.439,3.05,3.05,0,0,1-.97,2.391,4.243,4.243,0,0,1-2.91.87,7.117,7.117,0,0,1-1.991-.27,6.1,6.1,0,0,1-1.509-.63l.719-1.94a6.991,6.991,0,0,0,1.22.51,4.961,4.961,0,0,0,1.561.25,1.724,1.724,0,0,0,.929-.22.8.8,0,0,0,.35-.74" fill="#101011"/>
      <path id="Path_15226" data-name="Path 15226" d="M65.6,33.34a5.081,5.081,0,0,1-1.631.81,7.134,7.134,0,0,1-2.19.33,4.248,4.248,0,0,1-3.54-1.41,6.061,6.061,0,0,1-1.12-3.87,5.538,5.538,0,0,1,1.26-3.96,4.663,4.663,0,0,1,3.54-1.32,5.528,5.528,0,0,1,1.481.2,3.477,3.477,0,0,1,1.28.66,3.241,3.241,0,0,1,.9,1.241,4.849,4.849,0,0,1,.34,1.939,8.809,8.809,0,0,1-.05.9q-.05.481-.15,1h-6a2.931,2.931,0,0,0,.65,1.9,2.492,2.492,0,0,0,1.91.64,4.061,4.061,0,0,0,1.47-.25,4.106,4.106,0,0,0,.99-.509ZM61.879,26a1.822,1.822,0,0,0-1.51.61,3.02,3.02,0,0,0-.59,1.63H63.5a2.518,2.518,0,0,0-.33-1.66,1.469,1.469,0,0,0-1.29-.58" fill="#101011"/>
      <path id="Path_15227" data-name="Path 15227" d="M73.879,34.2V28.52a3.356,3.356,0,0,0-.35-1.76,1.309,1.309,0,0,0-1.19-.54,1.872,1.872,0,0,0-1.25.43,2.4,2.4,0,0,0-.73,1.07V34.2h-2.6v-10h2.06l.3,1.32h.08a4.321,4.321,0,0,1,1.22-1.12,3.618,3.618,0,0,1,1.96-.48,4.046,4.046,0,0,1,1.32.2,2.25,2.25,0,0,1,.98.66,3.009,3.009,0,0,1,.6,1.25,8.1,8.1,0,0,1,.2,1.95V34.2Z" fill="#101011"/>
      <path id="Path_15228" data-name="Path 15228" d="M77.619,24.2H79V22.32l2.6-.74V24.2h2.44v2.2H81.6v3.84a3.807,3.807,0,0,0,.21,1.49.79.79,0,0,0,.79.45,2.627,2.627,0,0,0,.69-.08,4.64,4.64,0,0,0,.65-.24l.46,2a6.638,6.638,0,0,1-1.259.44,6.006,6.006,0,0,1-1.46.18,2.629,2.629,0,0,1-2.031-.71A3.4,3.4,0,0,1,79,31.44V26.4h-1.38Z" fill="#101011"/>
      <path id="Path_15229" data-name="Path 15229" d="M85.579,24.781a8.537,8.537,0,0,1,1.9-.571,12.324,12.324,0,0,1,2.3-.21,5.244,5.244,0,0,1,1.741.25,2.506,2.506,0,0,1,1.69,1.811,5.625,5.625,0,0,1,.17,1.439q0,.88-.061,1.771t-.069,1.75q-.011.859.05,1.67a6.272,6.272,0,0,0,.3,1.529h-2.12l-.42-1.38h-.1a3.548,3.548,0,0,1-1.11,1.07,3.368,3.368,0,0,1-1.83.451,3.588,3.588,0,0,1-1.26-.21,2.7,2.7,0,0,1-1.58-1.521,3.065,3.065,0,0,1-.22-1.189,2.784,2.784,0,0,1,.41-1.55,2.953,2.953,0,0,1,1.18-1.021,5.915,5.915,0,0,1,1.84-.54,13.036,13.036,0,0,1,2.389-.089,2.6,2.6,0,0,0-.159-1.611q-.3-.489-1.341-.489a9.189,9.189,0,0,0-1.649.159,6.107,6.107,0,0,0-1.43.42Zm3.3,7.439a2,2,0,0,0,1.24-.35,2.434,2.434,0,0,0,.68-.75v-1.3a7.239,7.239,0,0,0-1.191-.021,4.32,4.32,0,0,0-1.009.181,1.7,1.7,0,0,0-.7.4.9.9,0,0,0-.26.66,1.134,1.134,0,0,0,.33.87,1.274,1.274,0,0,0,.91.31" fill="#101011"/>
      <path id="Path_15230" data-name="Path 15230" d="M94.519,24.2H95.9V22.32l2.6-.74V24.2h2.44v2.2H98.5v3.84a3.807,3.807,0,0,0,.21,1.49.79.79,0,0,0,.79.45,2.627,2.627,0,0,0,.69-.08,4.64,4.64,0,0,0,.65-.24l.46,2a6.638,6.638,0,0,1-1.259.44,6.006,6.006,0,0,1-1.46.18,2.629,2.629,0,0,1-2.031-.71,3.4,3.4,0,0,1-.65-2.33V26.4h-1.38Z" fill="#101011"/>
      <path id="Path_15231" data-name="Path 15231" d="M102.4,21.38a1.318,1.318,0,0,1,.431-.99,1.654,1.654,0,0,1,1.19-.41,1.806,1.806,0,0,1,1.23.41,1.27,1.27,0,0,1,.47.99,1.213,1.213,0,0,1-.47.97,1.864,1.864,0,0,1-1.23.39,1.7,1.7,0,0,1-1.19-.39,1.257,1.257,0,0,1-.431-.97m.38,2.82h2.6v10h-2.6Z" fill="#101011"/>
      <path id="Path_15232" data-name="Path 15232" d="M111.379,29.44l.34,1.54h.1l.281-1.58,1.7-5.2h2.8l-4.18,10.1h-1.58L106.5,24.2h3.02Z" fill="#101011"/>
      <path id="Path_15233" data-name="Path 15233" d="M125.319,33.34a5.075,5.075,0,0,1-1.63.81,7.141,7.141,0,0,1-2.191.33,4.249,4.249,0,0,1-3.54-1.41,6.066,6.066,0,0,1-1.119-3.87,5.538,5.538,0,0,1,1.26-3.96,4.661,4.661,0,0,1,3.54-1.32,5.515,5.515,0,0,1,1.48.2,3.462,3.462,0,0,1,1.28.66,3.253,3.253,0,0,1,.9,1.241,4.849,4.849,0,0,1,.34,1.939,8.807,8.807,0,0,1-.05.9q-.051.481-.15,1h-6a2.931,2.931,0,0,0,.65,1.9A2.488,2.488,0,0,0,122,32.4a4.066,4.066,0,0,0,1.471-.25,4.115,4.115,0,0,0,.989-.509ZM121.6,26a1.822,1.822,0,0,0-1.51.61,3.029,3.029,0,0,0-.591,1.63h3.721a2.53,2.53,0,0,0-.33-1.66A1.47,1.47,0,0,0,121.6,26" fill="#101011"/>
    </g>
  </g>
</svg>
