<svg id="Group_9916" data-name="Group 9916" xmlns="http://www.w3.org/2000/svg" xmlns:xlink="http://www.w3.org/1999/xlink" width="90.962" height="29.76" viewBox="0 0 90.962 29.76">
  <defs>
    <clipPath id="clip-path">
      <rect id="Rectangle_2025" data-name="Rectangle 2025" width="90.962" height="29.76" transform="translate(0 0)" fill="none"/>
    </clipPath>
  </defs>
  <g id="Group_9916-2" data-name="Group 9916" clip-path="url(#clip-path)">
    <path id="Path_15120" data-name="Path 15120" d="M0,15.625c.085.005.169.015.254.015H6.677a5.719,5.719,0,0,1,1.7.231,3.317,3.317,0,0,1,2.422,3.19,3.969,3.969,0,0,1-.111,1.128,2.493,2.493,0,0,1-1.283,1.6c-.071.04-.164.052-.2.141a.833.833,0,0,0,.271.128,3.1,3.1,0,0,1,1.776,2.081,4.424,4.424,0,0,1-.345,3.29,3.667,3.667,0,0,1-2.884,1.91,8.451,8.451,0,0,1-1.367.093H0ZM5.183,26.372h.861a3.1,3.1,0,0,0,.694-.039,1.313,1.313,0,0,0,1.025-1.474,1.27,1.27,0,0,0-1.246-1.281c-.891-.026-1.783-.008-2.675-.017-.144,0-.14.072-.14.173V26.2c0,.143.036.184.18.18.434-.01.868,0,1.3,0m-.161-5.339v-.009c.388,0,.776.017,1.163,0a1.084,1.084,0,0,0,1.074-1.095v-.021a1.066,1.066,0,0,0-.9-1.206L6.276,18.7c-.818-.09-1.642-.018-2.463-.036-.122,0-.111.079-.111.156v2.067c0,.123.037.159.158.157.388-.007.775,0,1.163,0" fill="#101011"/>
    <path id="Path_15121" data-name="Path 15121" d="M0,0H6.656A5.88,5.88,0,0,1,8.288.212,3.334,3.334,0,0,1,10.8,3.589,2.66,2.66,0,0,1,9.276,6.212a.435.435,0,0,0-.057.038c-.005,0-.008.013-.012.019-.007.055.04.058.072.071A3.21,3.21,0,0,1,11.39,9.249a4.288,4.288,0,0,1-.726,2.934A3.731,3.731,0,0,1,8.18,13.672a7.98,7.98,0,0,1-1.528.117H.252c-.084,0-.168.013-.252.019V0M5.147,10.74h0c.418,0,.837.008,1.255,0a1.274,1.274,0,0,0,1.281-.883A1.39,1.39,0,0,0,6.3,7.918c-.8-.006-1.608,0-2.413-.006-.137,0-.189.027-.188.176q.01,1.242,0,2.483c0,.129.033.173.168.17.426-.008.852,0,1.278,0M5.029,3.026h0c-.387,0-.775,0-1.162,0-.131,0-.169.034-.167.167q.01,1.021,0,2.042c0,.124.022.173.161.172C4.6,5.4,5.348,5.412,6.091,5.4A1.116,1.116,0,0,0,7.262,4.342a1.138,1.138,0,0,0,0-.143A1.1,1.1,0,0,0,6.226,3.028a1.044,1.044,0,0,0-.125,0c-.356-.01-.712,0-1.069,0" fill="#101011"/>
    <path id="Path_15122" data-name="Path 15122" d="M60.053,29.756c-.306-.061-.614-.116-.918-.185a4,4,0,0,1-1.835-.9,3.044,3.044,0,0,1-1-2.223c-.005-.1.021-.135.125-.135h2.908c.107,0,.123.05.141.134a1.425,1.425,0,0,0,1.634,1.181,1.4,1.4,0,0,0,.45-.152.73.73,0,0,0,.457-.669.7.7,0,0,0-.4-.724,3.964,3.964,0,0,0-1.228-.325,12.549,12.549,0,0,1-1.974-.415,2.8,2.8,0,0,1-1.964-3.23,2.909,2.909,0,0,1,2.074-2.446,6.038,6.038,0,0,1,2.673-.354,5.9,5.9,0,0,1,1.923.4,2.86,2.86,0,0,1,1.85,2.313c.047.3.049.3-.241.3H62.006c-.15,0-.227-.021-.265-.191a.892.892,0,0,0-.812-.716,1.576,1.576,0,0,0-.8.059.662.662,0,0,0-.467.628.565.565,0,0,0,.42.572,6.143,6.143,0,0,0,1.492.328,9.4,9.4,0,0,1,1.828.424,2.807,2.807,0,0,1,1.953,2.69,3.163,3.163,0,0,1-2.777,3.439c-.358.08-.723.128-1.085.19Z" fill="#101011"/>
    <path id="Path_15123" data-name="Path 15123" d="M25.7,29.756c-.306-.062-.614-.116-.918-.187a4.006,4.006,0,0,1-1.815-.888,3.013,3.013,0,0,1-1-2.2c-.006-.131.024-.171.161-.17q1.409.009,2.815,0c.131,0,.183.025.2.171a1.178,1.178,0,0,0,1.151,1.1,2.068,2.068,0,0,0,.783-.057.746.746,0,0,0,.6-.731.711.711,0,0,0-.475-.748,5.728,5.728,0,0,0-1.466-.336,7.145,7.145,0,0,1-2.184-.592,2.632,2.632,0,0,1-1.443-2.182,2.942,2.942,0,0,1,2.152-3.294,6.431,6.431,0,0,1,4.5.08,2.776,2.776,0,0,1,1.874,2.414c.018.151-.009.2-.171.2-.946-.008-1.892-.005-2.839,0-.121,0-.189-.01-.22-.16a.9.9,0,0,0-.813-.744,1.6,1.6,0,0,0-.8.055.671.671,0,0,0-.476.646c-.011.311.19.457.436.562a6.075,6.075,0,0,0,1.47.322,7.8,7.8,0,0,1,2.148.559A2.728,2.728,0,0,1,31,26.032a3.711,3.711,0,0,1-.114,1.335,3.023,3.023,0,0,1-1.917,1.974,5.7,5.7,0,0,1-1.669.377c-.042,0-.1-.019-.118.042Z" fill="#101011"/>
    <path id="Path_15124" data-name="Path 15124" d="M69.457,29.756c-.3-.107-.614-.107-.917-.185a3.8,3.8,0,0,1-2.19-1.3,3.127,3.127,0,0,1-.618-1.768c-.009-.137.019-.185.171-.184.939.008,1.877,0,2.816,0,.093,0,.164-.015.187.128a1.208,1.208,0,0,0,1.264,1.149h.017a1.956,1.956,0,0,0,.668-.068.758.758,0,0,0,.6-.713.72.72,0,0,0-.482-.767,5.682,5.682,0,0,0-1.444-.331,8.053,8.053,0,0,1-2.02-.505,2.657,2.657,0,0,1-1.633-2.348,2.932,2.932,0,0,1,2.169-3.221,6.46,6.46,0,0,1,4.484.079,2.791,2.791,0,0,1,1.89,2.429c.018.146,0,.186-.156.185q-1.443-.009-2.886,0a.16.16,0,0,1-.187-.13l0-.015a1.212,1.212,0,0,0-1.847-.579.6.6,0,0,0,.092,1.034,4,4,0,0,0,1.276.325,10.872,10.872,0,0,1,2.018.43,2.89,2.89,0,0,1,2.064,3.149,3.115,3.115,0,0,1-2.579,2.97,5.7,5.7,0,0,1-1.166.2c-.037,0-.079-.007-.1.042Z" fill="#101011"/>
    <path id="Path_15125" data-name="Path 15125" d="M40.722,5.432a3.11,3.11,0,0,1,2.8-1.766,2.754,2.754,0,0,1,2.762,1.727c.106-.15.188-.271.275-.387a3.481,3.481,0,0,1,4.256-1.031,3.059,3.059,0,0,1,1.6,2.24,6.3,6.3,0,0,1,.145,1.429v5.927c0,.188-.054.227-.231.226q-1.477-.013-2.956,0c-.183,0-.23-.047-.229-.23.007-1.751,0-3.5,0-5.253a3.163,3.163,0,0,0-.127-.986.994.994,0,0,0-.856-.746,1.089,1.089,0,0,0-1.087.432,2.167,2.167,0,0,0-.386,1.337q-.01,2.6,0,5.206c0,.2-.049.241-.242.239q-1.478-.016-2.956,0c-.173,0-.219-.041-.219-.217.007-1.751,0-3.5,0-5.253a3.132,3.132,0,0,0-.13-1.009.991.991,0,0,0-.842-.733A1.09,1.09,0,0,0,41.208,7a2.13,2.13,0,0,0-.393,1.335q-.01,2.6,0,5.206c0,.2-.047.255-.252.253-.985-.012-1.97-.009-2.956,0-.157,0-.21-.034-.21-.2q.008-4.729,0-9.459c0-.137.025-.184.175-.183q1.455.01,2.909,0c.133,0,.171.038.168.169-.008.431,0,.862,0,1.293l.056.018" fill="#101011"/>
    <path id="Path_15126" data-name="Path 15126" d="M87.7,5.007V4.1c0-.109.026-.145.141-.145.985,0,1.97.007,2.956,0,.171,0,.16.084.16.2v8.227a5.874,5.874,0,0,1-.337,2.073,3.619,3.619,0,0,1-2.476,2.353,6.832,6.832,0,0,1-4.448-.159,3.4,3.4,0,0,1-2.208-2.636c-.028-.139-.033-.2.149-.2.978.009,1.955.007,2.933,0a.217.217,0,0,1,.241.154A.821.821,0,0,0,85,14.23a1.644,1.644,0,0,0,1.647.353,1.194,1.194,0,0,0,.893-1.021,6.367,6.367,0,0,0,.064-1.33c-.088-.039-.118.019-.149.055a3.274,3.274,0,0,1-4.158.53,3.86,3.86,0,0,1-1.829-2.6,6.535,6.535,0,0,1,.482-4.5,3.421,3.421,0,0,1,2.34-1.962,3.006,3.006,0,0,1,3.317,1.2c.019.03.029.075.107.056m.04,3.508a3.02,3.02,0,0,0-.357-1.472A1.357,1.357,0,0,0,86.144,6.3a1.316,1.316,0,0,0-1.221.791A3.18,3.18,0,0,0,84.952,10a1.307,1.307,0,0,0,1.228.778,1.365,1.365,0,0,0,1.252-.819,3.262,3.262,0,0,0,.317-1.437" fill="#101011"/>
    <path id="Path_15127" data-name="Path 15127" d="M56.7,12.536c0,.354-.006.707,0,1.061,0,.143-.023.2-.186.2q-1.443-.012-2.885,0c-.16,0-.188-.054-.188-.2q0-6.7,0-13.409c0-.164.057-.185.2-.184,1.008,0,2.017.007,3.025,0,.166,0,.2.049.2.206-.006,1.511,0,3.021,0,4.532a.429.429,0,0,0,.016.219c.045.019.063-.01.08-.034a3.5,3.5,0,0,1,5.615.3,6.015,6.015,0,0,1,.9,2.7,8.027,8.027,0,0,1-.357,3.551A3.638,3.638,0,0,1,60.469,14a3.286,3.286,0,0,1-3.763-1.467m.04-3.728a3.579,3.579,0,0,0,.392,1.791,1.458,1.458,0,0,0,1.4.828,1.358,1.358,0,0,0,1.249-.989,4.6,4.6,0,0,0,.005-3.222,1.449,1.449,0,0,0-.876-.934,1.469,1.469,0,0,0-1.825.837A3.628,3.628,0,0,0,56.749,8.8" fill="#101011"/>
    <path id="Path_15128" data-name="Path 15128" d="M39.25,20.937c.083-.106.165-.212.249-.317a3.453,3.453,0,0,1,3.991-1.1,3.013,3.013,0,0,1,1.851,2.406,5.926,5.926,0,0,1,.1,1.247v6.019c0,.19-.039.244-.237.241-.993-.012-1.986-.01-2.979,0-.166,0-.2-.044-.2-.2.006-1.766,0-3.532,0-5.3a3.138,3.138,0,0,0-.1-.874,1.086,1.086,0,0,0-.9-.864,1.249,1.249,0,0,0-1.285.462,1.83,1.83,0,0,0-.371,1.1c-.014,1.216-.012,2.432-.015,3.648v1.813c0,.151-.019.216-.2.214-1.016-.009-2.033-.007-3.049,0-.142,0-.182-.035-.182-.18q.008-4.742,0-9.481c0-.137.028-.188.178-.187q1.453.01,2.909,0c.16,0,.172.064.17.192-.006.382,0,.765,0,1.147l.049.015" fill="#101011"/>
    <path id="Path_15129" data-name="Path 15129" d="M18.163,28.175c-.267.275-.494.548-.763.784a3.32,3.32,0,0,1-4.682-.364q-.066-.076-.126-.156a3.985,3.985,0,0,1-.623-2.2c-.015-2.153-.007-4.307-.014-6.46,0-.157.045-.192.2-.192,1,.006,2,.008,3,0,.173,0,.219.039.218.216-.007,1.751,0,3.5,0,5.252a4.011,4.011,0,0,0,.036.6,1.06,1.06,0,0,0,.867,1.038,1.329,1.329,0,0,0,1.511-.64,2.414,2.414,0,0,0,.227-1.15V19.837c0-.207.052-.255.255-.252.985.012,1.97.009,2.955,0,.16,0,.207.036.207.2q-.007,4.729,0,9.458c0,.153-.041.191-.192.19q-1.443-.01-2.886,0c-.139,0-.188-.03-.183-.178.012-.36,0-.72,0-1.08" fill="#101011"/>
    <path id="Path_15130" data-name="Path 15130" d="M70.6,9.767H67.548c-.174,0-.209.046-.169.208a4.059,4.059,0,0,0,.193.666,1.628,1.628,0,0,0,2.111.874,1.173,1.173,0,0,0,.684-.658.245.245,0,0,1,.276-.172c.954.006,1.908.008,2.863,0,.192,0,.215.045.161.219a4.186,4.186,0,0,1-3.679,3.091,5.651,5.651,0,0,1-3.319-.418,4.566,4.566,0,0,1-2.594-3.491,5.829,5.829,0,0,1,.645-4.173,4.483,4.483,0,0,1,3.606-2.234,4.966,4.966,0,0,1,3.313.733,4.822,4.822,0,0,1,2,3.048,9.437,9.437,0,0,1,.241,2.118c0,.172-.057.2-.21.2-1.024-.007-2.048,0-3.072,0M68.9,7.837c.458,0,.916-.007,1.373,0,.163,0,.192-.048.174-.2a2.216,2.216,0,0,0-.315-.96,1.431,1.431,0,0,0-2.417.01,2.836,2.836,0,0,0-.337.956c-.035.162.021.194.173.191.45-.009.9,0,1.349,0" fill="#101011"/>
    <path id="Path_15131" data-name="Path 15131" d="M55.814,26.318a4.1,4.1,0,0,1-2.579,3.011,5.755,5.755,0,0,1-4.075.044A4.544,4.544,0,0,1,46.141,25.6a5.837,5.837,0,0,1,.5-3.753A4.515,4.515,0,0,1,50.6,19.3a4.964,4.964,0,0,1,2.931.627,4.776,4.776,0,0,1,2.186,3.152,9.144,9.144,0,0,1,.243,2.117c0,.178-.048.213-.218.213-2.009-.006-4.019,0-6.028,0-.282,0-.288,0-.23.286a3.321,3.321,0,0,0,.15.535,1.619,1.619,0,0,0,2.079.944,1.217,1.217,0,0,0,.754-.707c.038-.09.075-.146.2-.145,1.039.006,2.078,0,3.148,0m-4.824-2.846h1.4c.088,0,.169.014.153-.128a2.339,2.339,0,0,0-.334-1.05,1.433,1.433,0,0,0-2.392,0,2.726,2.726,0,0,0-.353,1c-.03.157.013.183.157.18.457-.008.915,0,1.373,0" fill="#101011"/>
    <path id="Path_15132" data-name="Path 15132" d="M26.267,8.846a5.834,5.834,0,0,1-.528,2.609A4.355,4.355,0,0,1,23,13.84a5.755,5.755,0,0,1-3.524-.007,4.34,4.34,0,0,1-2.873-2.7,5.991,5.991,0,0,1,.117-4.744,4.493,4.493,0,0,1,3.783-2.662,5.437,5.437,0,0,1,3.065.44,4.6,4.6,0,0,1,2.587,3.5,5.738,5.738,0,0,1,.1,1.184m-6.606.106c.01.19.013.439.039.684a3.317,3.317,0,0,0,.419,1.433,1.27,1.27,0,0,0,2.172.06,2.013,2.013,0,0,0,.244-.472,5.462,5.462,0,0,0,.25-2.288,3.483,3.483,0,0,0-.44-1.616A1.265,1.265,0,0,0,21.216,6.1a1.357,1.357,0,0,0-1.29,1.019,5.429,5.429,0,0,0-.267,1.837" fill="#101011"/>
    <path id="Path_15133" data-name="Path 15133" d="M36.741,8.811a5.919,5.919,0,0,1-.523,2.628,4.352,4.352,0,0,1-2.659,2.372,5.741,5.741,0,0,1-3.568.033,4.324,4.324,0,0,1-2.9-2.7,5.964,5.964,0,0,1,.184-4.91,4.485,4.485,0,0,1,3.7-2.509,5.449,5.449,0,0,1,3.066.431,4.593,4.593,0,0,1,2.6,3.51,5.479,5.479,0,0,1,.1,1.143m-6.607.139c.011.193.015.45.042.7a3.269,3.269,0,0,0,.426,1.431,1.267,1.267,0,0,0,2.145.069,2.014,2.014,0,0,0,.267-.512,5.445,5.445,0,0,0,.247-2.242,3.517,3.517,0,0,0-.439-1.64A1.268,1.268,0,0,0,31.7,6.09a1.355,1.355,0,0,0-1.293,1.015,5.476,5.476,0,0,0-.27,1.841" fill="#101011"/>
    <path id="Path_15134" data-name="Path 15134" d="M12.023,6.893q0-3.323-.006-6.645c0-.213.061-.25.257-.248Q13.8.015,15.322,0c.178,0,.215.048.215.219q-.008,6.668,0,13.336c0,.2-.053.244-.245.242-1.008-.01-2.016-.012-3.024,0-.216,0-.25-.065-.25-.26.007-2.215,0-4.43,0-6.645" fill="#101011"/>
    <path id="Path_15135" data-name="Path 15135" d="M77.648,5.613c.207-.249.358-.518.55-.761a2.794,2.794,0,0,1,2.58-1.082c.2.016.288.08.284.31-.017.859-.011,1.719,0,2.579,0,.163-.032.214-.2.184a3.224,3.224,0,0,0-1.316.016,2.184,2.184,0,0,0-1.658,1.933,6.593,6.593,0,0,0-.074,1.041v3.741c0,.169-.036.224-.216.222q-1.5-.013-3,0c-.166,0-.2-.049-.2-.208q.007-4.716,0-9.433c0-.162.037-.205.2-.2q1.431.014,2.861,0c.171,0,.2.052.2.208-.01.485,0,.97,0,1.455" fill="#101011"/>
    <path id="Path_15136" data-name="Path 15136" d="M31.579,24.51V19.818c0-.181.043-.234.23-.232q1.489.015,2.977,0c.17,0,.222.037.222.216q-.009,4.714,0,9.43c0,.163-.042.206-.2.2q-1.512-.01-3.024,0c-.173,0-.2-.058-.2-.212,0-1.572,0-3.143,0-4.715" fill="#101011"/>
    <path id="Path_15137" data-name="Path 15137" d="M33.3,18.8c-.512,0-1.024-.007-1.535,0-.16,0-.193-.051-.192-.2q.01-1.185,0-2.369c0-.144.027-.2.189-.2q1.522.012,3.047,0c.156,0,.192.046.191.195-.007.79-.009,1.579,0,2.369,0,.171-.057.2-.212.2-.5-.009-.992,0-1.488,0" fill="#101011"/>
  </g>
</svg>
