<svg xmlns="http://www.w3.org/2000/svg" xmlns:xlink="http://www.w3.org/1999/xlink" width="95.584" height="41.516" viewBox="0 0 95.584 41.516">
  <defs>
    <clipPath id="clip-path">
      <rect id="Rectangle_2029" data-name="Rectangle 2029" width="95.584" height="41.516" transform="translate(0 0)" fill="none"/>
    </clipPath>
  </defs>
  <g id="Group_9920" data-name="Group 9920" transform="translate(0 0)">
    <g id="Group_9920-2" data-name="Group 9920" clip-path="url(#clip-path)">
      <path id="Path_15173" data-name="Path 15173" d="M39.84,41.516a2.466,2.466,0,0,0-.752-.183,4.281,4.281,0,0,1-3.3-3.655,6.287,6.287,0,0,1,.392-3.478A4.015,4.015,0,0,1,39.4,31.774a5.369,5.369,0,0,1,2.6.145,3.638,3.638,0,0,1,2.522,3.025A10.908,10.908,0,0,1,44.6,36.89c0,.316-.118.353-.386.351-1.669-.01-3.337,0-5.006-.011-.279,0-.331.062-.288.339A1.508,1.508,0,0,0,40.8,38.954a1.135,1.135,0,0,0,.941-.852c.075-.249.188-.223.361-.168.74.234,1.478.473,2.221.7.2.06.237.135.17.335a3.53,3.53,0,0,1-2.8,2.427c-.21.047-.439-.006-.632.124Zm.4-5.962c.363,0,.725,0,1.088,0,.072,0,.165.044.188-.1a1.312,1.312,0,0,0-.841-1.323A1.363,1.363,0,0,0,39,35.391c-.009.166.067.165.185.164.352,0,.7,0,1.056,0" fill="#101011"/>
      <path id="Path_15174" data-name="Path 15174" d="M63.6,41.516a3.068,3.068,0,0,0-.785-.187,4.364,4.364,0,0,1-3.328-4.057,6.29,6.29,0,0,1,.6-3.386,4.009,4.009,0,0,1,3.072-2.112,5.127,5.127,0,0,1,3.074.335,3.678,3.678,0,0,1,2.051,2.872,10.658,10.658,0,0,1,.072,2.044c0,.243-.143.211-.292.211H63.958c-.375,0-.749,0-1.124,0-.088,0-.188-.033-.191.131a1.576,1.576,0,0,0,1.393,1.6,1.231,1.231,0,0,0,1.457-.86c.085-.246.183-.24.384-.174.727.239,1.457.471,2.191.688.221.065.242.15.175.358a3.6,3.6,0,0,1-3.2,2.468c-.075.009-.176-.054-.221.063Zm.377-5.962c.364,0,.727,0,1.091,0,.079,0,.162.023.186-.111a1.294,1.294,0,0,0-.846-1.318,1.357,1.357,0,0,0-1.658,1.287c-.019.16.071.143.169.143h1.058" fill="#101011"/>
      <path id="Path_15175" data-name="Path 15175" d="M7.486,9.6a3.8,3.8,0,0,0-.27.732,1.32,1.32,0,0,0,1.162,1.611,1.192,1.192,0,0,0,.221.033c.215,0,.277.1.286.311.04.9.425,1.286,1.335,1.322.289.012.42.05.406.4a1.106,1.106,0,0,0,1.168,1.256,1.126,1.126,0,0,0,1.211-1.191.729.729,0,0,0,0-.192c-.042-.2.032-.271.234-.257a1.6,1.6,0,0,0,.414-.031,1.138,1.138,0,0,0,1.078-1.27c.011-.239.08-.349.323-.358a1.526,1.526,0,0,0,.373-.08,1.278,1.278,0,0,0,.934-1.708c-.055-.19-.14-.371-.225-.591H16.4q3.5,0,7,0c.216,0,.319.021.319.286A22.537,22.537,0,0,1,18.55,24.524a23.736,23.736,0,0,1-6.387,5.523.518.518,0,0,1-.6.007,23.749,23.749,0,0,1-6.106-5.175,22.389,22.389,0,0,1-4.691-8.9A22.934,22.934,0,0,1,0,9.842c0-.181.025-.265.24-.264,2.366.008,4.732.005,7.1.006.039,0,.078.006.146.012M7.341,19.674c-.012-.268-.012-.258.244-.248A1.74,1.74,0,0,0,8,19.379a1.2,1.2,0,0,0,.956-.991,1.127,1.127,0,0,0-.677-1.251,1.509,1.509,0,0,0-.7-.184c-.282.016-.3-.112-.293-.333a1.151,1.151,0,0,0-.966-1.239c-.223-.058-.51.051-.648-.074-.159-.144-.015-.444-.069-.672,0-.01-.007-.02-.009-.03a1.226,1.226,0,0,0-1.38-.93c-.226,0-.276-.056-.274-.278a1.208,1.208,0,0,0-1.32-1.371c-.263-.008-.355-.043-.354-.339a1.34,1.34,0,0,0-1.178-1.3c-.212-.024-.319.007-.292.254.034.306.042.616.059.925a21.2,21.2,0,0,0,1.239,6A22.086,22.086,0,0,0,4.509,22.33a.336.336,0,0,0,.509.146,1.075,1.075,0,0,0,.664-1.071c-.009-.284.03-.38.356-.382a1.266,1.266,0,0,0,1.3-1.349M22.9,11.027a2.027,2.027,0,0,1,.005-.424c.049-.245-.079-.23-.243-.208a1.339,1.339,0,0,0-1.121,1.318c0,.251-.065.309-.313.312a1.209,1.209,0,0,0-1.356,1.366c0,.267-.095.28-.308.283-.934.012-1.38.456-1.367,1.375,0,.242-.057.3-.3.294a1.205,1.205,0,0,0-1.375,1.342c0,.217-.062.263-.264.265a1.692,1.692,0,0,0-.794.217,1.067,1.067,0,0,0-.619.836,1.237,1.237,0,0,0,1.456,1.4c.174-.024.18.016.168.173A1.257,1.257,0,0,0,17.8,21.023c.313,0,.331.106.324.353a1.1,1.1,0,0,0,.645,1.086c.182.093.287.071.413-.115A21.633,21.633,0,0,0,22.9,11.027M8.863,24.416c-.136-.028-.25-.059-.366-.075a1.22,1.22,0,0,0-1.179.418.643.643,0,0,0,.04,1.021,24.193,24.193,0,0,0,4.222,3.369.439.439,0,0,0,.543-.008,24.074,24.074,0,0,0,4.263-3.417.652.652,0,0,0-.048-1.091,1.128,1.128,0,0,0-1.04-.287c-.337.09-.438.021-.374-.311a.522.522,0,0,0,0-.1,1.152,1.152,0,0,0-1.157-1.224c-.188-.009-.443.084-.548-.007s-.061-.357-.1-.543a1.2,1.2,0,0,0-1.125-1,1.218,1.218,0,0,0-1.316.883,2.547,2.547,0,0,0-.071.695c-1.289-.167-1.79.31-1.748,1.676M7.475,23.3c.025-.074-.069-.231.071-.255s.124.149.161.237a.931.931,0,0,1,.061.312c.008.137.024.259.191.283a.322.322,0,0,0,.344-.112.3.3,0,0,0-.044-.381c-.108-.145-.22-.288-.326-.435-.044-.06-.09-.133-.02-.2s.134,0,.185.051c.077.074.146.156.221.231s.129.235.265.2.191-.206.219-.331c.055-.244-.167-.274-.32-.305a.975.975,0,0,1-.7-.554,2.837,2.837,0,0,1-.186-.607c-.04-.155-.075-.327-.283-.333s-.265.167-.292.321c-.11.606-.342,1.1-1.026,1.22-.107.02-.217.1-.191.219.03.141.073.309.222.368.12.047.174-.089.243-.166s.143-.16.221-.232c.057-.053.111-.163.207-.084s.017.157-.031.224c-.117.165-.243.324-.357.491a.255.255,0,0,0,.018.326.336.336,0,0,0,.354.086c.128-.028.153-.121.166-.238a3.869,3.869,0,0,1,.092-.435c.017-.073.035-.166.125-.16.106.007.072.111.079.179a1.412,1.412,0,0,1-.116.62.333.333,0,0,0,.083.409.31.31,0,0,0,.388.006.346.346,0,0,0,.088-.409,1.373,1.373,0,0,1-.116-.543m9.278-9.576a.873.873,0,0,1,.218.625.256.256,0,0,0,.209.276.3.3,0,0,0,.317-.1.278.278,0,0,0,.005-.356,2.689,2.689,0,0,1-.169-.232c-.079-.148-.356-.3-.189-.439.141-.115.263.175.393.288.082.071.125.242.262.185a.419.419,0,0,0,.209-.34c.037-.224-.143-.265-.3-.294a1,1,0,0,1-.773-.687,3.8,3.8,0,0,1-.133-.49c-.039-.16-.086-.33-.286-.327s-.242.182-.292.334c-.02.059-.015.127-.031.188-.126.474-.331.88-.876.985a.917.917,0,0,0-.176.066.167.167,0,0,0-.113.224.525.525,0,0,0,.207.346c.1.051.156-.077.219-.145.1-.1.192-.2.287-.3.047-.05.11-.1.166-.055.073.051.048.133,0,.2-.1.137-.2.275-.31.407a.344.344,0,0,0-.06.437.288.288,0,0,0,.313.114c.2-.042.212-.2.23-.368.02-.186.01-.4.237-.515a1.5,1.5,0,0,1-.078.839c-.091.249.013.422.239.447.276.031.4-.155.311-.46a1.016,1.016,0,0,1-.038-.846m-9.43,0a.855.855,0,0,1,.231.6c.024.136.037.281.216.31a.313.313,0,0,0,.317-.109.335.335,0,0,0-.038-.414c-.088-.12-.184-.234-.268-.357-.053-.079-.189-.168-.066-.266.095-.075.168.044.233.11.105.106.2.217.307.325.056.06.118.109.183.02a.575.575,0,0,0,.171-.4c-.017-.12-.145-.175-.266-.2-.587-.1-.8-.535-.927-1.047-.022-.092-.043-.185-.069-.277a.242.242,0,0,0-.226-.194.245.245,0,0,0-.242.177,4.077,4.077,0,0,0-.113.4,1.09,1.09,0,0,1-.843.93.88.88,0,0,0-.207.078.17.17,0,0,0-.105.21.56.56,0,0,0,.206.349c.109.064.159-.068.222-.13.106-.105.2-.217.31-.324a.121.121,0,0,1,.145-.037c.07.044.042.121.008.17-.121.175-.257.339-.375.516a.263.263,0,0,0-.006.353.329.329,0,0,0,.347.106c.129-.036.161-.134.18-.266a.9.9,0,0,1,.208-.607c.138.086.089.214.1.326a1.858,1.858,0,0,1-.139.553.331.331,0,0,0,.088.349.321.321,0,0,0,.364.027c.2-.111.173-.295.1-.476a1.227,1.227,0,0,1-.043-.8m4.352,4.655a.579.579,0,0,1,.06.5,2.127,2.127,0,0,1-.106.366.311.311,0,0,0,.1.373.306.306,0,0,0,.388.006.337.337,0,0,0,.1-.38,1.443,1.443,0,0,1-.1-.268c-.016-.19-.133-.485.058-.535.135-.036.165.294.183.48.015.143.023.289.193.329a.3.3,0,0,0,.348-.1.326.326,0,0,0-.042-.411c-.115-.154-.232-.307-.344-.463a.114.114,0,0,1,0-.147c.056-.061.12-.033.167.015.119.122.232.251.352.372.064.066.124.157.237.052.256-.238.211-.523-.13-.59-.553-.109-.751-.5-.889-.971a1.582,1.582,0,0,0-.022-.158c-.06-.149-.049-.361-.285-.368s-.276.169-.31.339c-.117.588-.343,1.075-1.02,1.186a.2.2,0,0,0-.185.223.467.467,0,0,0,.213.372c.121.059.174-.091.246-.159s.158-.174.239-.259c.051-.053.114-.125.188-.063s.027.139-.017.2c-.122.174-.251.344-.37.52a.24.24,0,0,0,.025.322.332.332,0,0,0,.355.082c.118-.03.149-.121.161-.242a.893.893,0,0,1,.215-.622m4.668,4.93a.913.913,0,0,1-.085.482.349.349,0,0,0,.074.459.28.28,0,0,0,.357.016.362.362,0,0,0,.092-.485,1.3,1.3,0,0,1-.1-.622c.006-.053.024-.111.084-.12s.091.046.1.1a3.524,3.524,0,0,1,.106.463c.014.124.02.238.165.271a.332.332,0,0,0,.376-.106.285.285,0,0,0-.023-.355c-.1-.148-.219-.288-.327-.432-.053-.07-.111-.162-.04-.23.09-.088.146.03.2.079.079.071.147.155.221.232.235.246.339.221.449-.1.09-.263-.1-.336-.275-.365-.547-.092-.73-.495-.865-.948-.022-.071-.03-.145-.049-.217-.042-.153-.069-.326-.284-.327s-.268.179-.292.326A1.257,1.257,0,0,1,15.2,22.646c-.114.021-.208.1-.182.22a.519.519,0,0,0,.194.355c.127.077.182-.068.253-.134.1-.094.192-.2.288-.3.045-.047.1-.1.163-.047a.128.128,0,0,1,0,.175c-.118.165-.243.324-.362.487a.3.3,0,0,0-.014.384.309.309,0,0,0,.321.094c.162-.023.2-.14.206-.277a1.31,1.31,0,0,1,.117-.493c.017-.039.041-.074.093-.068s.058.055.061.094c.005.064,0,.128,0,.174M7.753,12.752c.148-.149.281-.228.241-.382-.022-.089-.173-.1-.218-.068-.138.1-.025.245-.023.45m-1.3-.053c-.038-.172.165-.313-.032-.427-.065-.038-.207.007-.22.078-.028.155.084.251.252.349m10.738-.006c.1-.1.286-.167.2-.347a.18.18,0,0,0-.228-.035c-.152.12.037.246.027.382M6.616,21.958c.06-.144.148-.276.039-.4a.173.173,0,0,0-.23.035c-.082.178.1.239.191.361m10.6,0c.071-.116.267-.163.178-.344a.167.167,0,0,0-.227-.041c-.153.129.034.246.049.385M11.255,17.3c-.09-.134.2-.28-.022-.39-.058-.029-.2-.007-.218.073-.038.157.1.235.24.317m-3.26,4.665c.1-.116.275-.166.195-.348a.161.161,0,0,0-.224-.047c-.1.113-.05.247.029.395m4.578-4.659c.152-.057.258-.144.226-.3-.019-.1-.137-.084-.189-.061-.19.085-.015.237-.037.364m3.27,4.624c.015-.133.135-.268,0-.373-.051-.039-.177-.024-.2.034-.069.172.08.25.2.339m.047-9.215c-.034-.2.095-.347-.062-.445a.149.149,0,0,0-.194.072c-.056.167.078.235.256.373" fill="#101011"/>
      <path id="Path_15176" data-name="Path 15176" d="M11.86,8.856q-5.76,0-11.522.006C.079,8.863,0,8.813,0,8.538Q.016,4.722,0,.907C0,.631.079.581.338.582q11.522.01,23.045,0c.257,0,.341.049.34.324q-.018,3.816,0,7.631c0,.276-.082.326-.34.325Q17.622,8.85,11.86,8.856m6.583-5.141A.814.814,0,0,0,17.94,3a2.849,2.849,0,0,0-1.1-.169c-.145,0-.209.067-.208.218q0,1.521,0,3.044c0,.131.038.192.182.192q1.653-.006,3.305,0c.124,0,.2-.027.2-.177q0-1.538,0-3.076a.17.17,0,0,0-.154-.2,1.537,1.537,0,0,0-1.724.886m-4.691.839c0-.491,0-.983,0-1.474,0-.153-.039-.249-.209-.251a3.739,3.739,0,0,0-1.05.077.632.632,0,0,0-.527.635c-.005.843,0,1.687-.006,2.531,0,.173.056.216.221.212.438-.01.877-.012,1.315,0,.2.006.262-.059.257-.256-.011-.491,0-.983,0-1.474m-10.268.01c0,.48.013.961,0,1.441-.009.232.071.289.29.28.406-.016.813-.019,1.219,0,.231.012.259-.085.257-.279-.008-.8,0-1.6,0-2.4a.639.639,0,0,0-.577-.713,4.269,4.269,0,0,0-.924-.064c-.189,0-.264.064-.259.263.011.491,0,.982,0,1.474m3.684,0c0-.492-.006-.984,0-1.475,0-.2-.069-.27-.261-.263a4.412,4.412,0,0,0-.925.063A.643.643,0,0,0,5.4,3.6c-.006.813,0,1.625-.005,2.438,0,.169.03.251.226.245.439-.014.878-.012,1.317,0,.188.005.238-.067.234-.243-.008-.492,0-.984,0-1.476m2.871-.021c0,.491.007.982,0,1.472,0,.187.042.273.247.268q.672-.017,1.345,0c.172.005.216-.053.214-.217-.007-.833,0-1.665-.006-2.5a.659.659,0,0,0-.563-.674,3.978,3.978,0,0,0-.986-.067c-.188,0-.256.082-.252.275.012.48,0,.96,0,1.44M11.5,6.89c0-.032,0-.065,0-.1a.685.685,0,0,0-.142-.035c-.47,0-.94,0-1.41,0-.426,0-.426,0-.426-.409,0-1.089,0-2.177,0-3.266,0-.084.054-.188-.058-.257-.184-.114-.308-.037-.327.2s.107.528-.218.687c-.089.044-.043.178.042.208.225.079.176.256.177.418q0,.608,0,1.216c0,.133.03.264-.159.33a.143.143,0,0,0-.019.272c.222.092.19.258.175.417-.026.264.1.336.337.322s.513,0,.769,0Zm6.573-.05c-.044-.142-.16-.08-.242-.081-.47-.006-.941-.013-1.411,0-.262.008-.352-.083-.348-.353.014-1.1,0-2.2.006-3.3,0-.145.036-.326-.186-.323s-.149.19-.157.314c-.014.222.067.466-.231.592-.1.041-.063.2.034.233.245.082.194.271.2.445,0,.384,0,.768,0,1.153,0,.15.013.285-.176.359-.12.047-.172.212-.027.272.232.094.218.264.2.44-.027.254.093.3.319.3.6-.012,1.2,0,1.8-.007.075,0,.168.044.229-.047M4.993,6.889a.329.329,0,0,0-.34-.132c-.449,0-.9-.018-1.346.005-.3.016-.386-.1-.382-.386.012-1.11,0-2.22.008-3.33,0-.146-.013-.25-.178-.26-.207-.013-.161.145-.169.264,0,.021,0,.043,0,.064-.014.207.082.445-.213.561a.14.14,0,0,0,.01.242c.27.1.2.311.2.5,0,.373,0,.747,0,1.121,0,.133.033.268-.159.331-.133.043-.163.228-.046.279.256.111.208.308.2.5,0,.153.037.244.212.244.714,0,1.428,0,2.2,0m7.176,0h2.139c.159,0,.233-.067.23-.232,0-.2-.061-.422.2-.535a.119.119,0,0,0-.012-.212c-.264-.1-.192-.315-.194-.5,0-.373,0-.746,0-1.12,0-.147-.017-.287.166-.359.1-.038.15-.179.044-.23-.3-.145-.189-.4-.208-.627-.01-.122.03-.3-.157-.286s-.1.186-.1.287c-.006,1.12-.011,2.24,0,3.36,0,.257-.082.336-.332.329-.491-.015-.982-.008-1.474,0-.095,0-.217-.055-.309.13M5.62,6.834c.016.018.027.043.039.043.7.006,1.39.007,2.085.014.187,0,.2-.115.2-.256,0-.181-.061-.381.195-.475a.133.133,0,0,0,.007-.251c-.251-.1-.2-.291-.2-.475,0-.385,0-.769,0-1.154,0-.142-.01-.267.168-.331.1-.037.181-.195.063-.253-.33-.162-.209-.443-.229-.688-.008-.1,0-.218-.126-.221-.166,0-.088.139-.088.218,0,1.133-.008,2.266,0,3.4,0,.257-.074.366-.347.357-.492-.017-.984-.008-1.476,0-.1,0-.216-.051-.284.075m13.154,0c.074.1.176.054.261.054.577.005,1.154-.008,1.731.008.248.006.358-.062.329-.325-.017-.16-.038-.318.185-.41.145-.06.1-.242-.04-.3s-.15-.152-.15-.273a12.269,12.269,0,0,0-.012-1.343c-.028-.266.265-.25.278-.445.014-.219-.375-.2-.27-.478a.992.992,0,0,0,0-.318c0-.1,0-.215-.12-.222-.168-.009-.094.13-.094.211,0,1.121-.009,2.241,0,3.362,0,.306-.1.418-.412.405-.469-.021-.94-.01-1.41,0-.093,0-.213-.059-.284.074M20.719,6.5V3.013c0-.112-.04-.186-.167-.182-.146,0-.092.118-.092.189,0,1.014,0,2.028-.008,3.042a.407.407,0,0,0,.267.434m-13.133,0c0-1.165,0-2.291,0-3.416,0-.113,0-.233-.15-.231-.177,0-.11.154-.11.243-.005,1.012,0,2.024-.008,3.036,0,.179.071.274.267.368m-4.5-.051a.348.348,0,0,0,.266-.379c-.007-.992,0-1.984-.006-2.976,0-.093.057-.24-.118-.241-.157,0-.142.127-.142.234V6.444m13.134.007a.345.345,0,0,0,.265-.385c-.006-1,0-2-.006-3,0-.084.076-.24-.116-.228-.148.008-.143.128-.143.237V6.451m-2.069.025c0-1.15,0-2.272,0-3.393,0-.111.006-.228-.143-.235-.19-.008-.114.148-.115.232-.005,1,0,2.008-.007,3.012a.367.367,0,0,0,.264.384m-4.5.02c.164-.13.267-.2.265-.388-.01-1.015,0-2.03-.008-3.046,0-.077.062-.212-.1-.215-.146,0-.159.1-.158.221,0,1.122,0,2.243,0,3.428m-2.273.072a4.377,4.377,0,0,0-1.8-.094,4.668,4.668,0,0,0,1.8.094m13.15,0a4.085,4.085,0,0,0-1.8-.084,5.07,5.07,0,0,0,1.8.084m-6.565-.014a6,6,0,0,0-1.823-.148c.132.227,1.012.3,1.823.148m2.367.063c.553,0,1.055,0,1.557,0,.136,0,.225-.032.231-.2-.484,0-.965.005-1.445,0-.139,0-.21.077-.343.206m-6.553,0c.539,0,1.041,0,1.544,0,.138,0,.22-.036.22-.2-.481,0-.962.005-1.442,0-.136,0-.214.064-.322.2M4.985,6.4c-.6.1-1.2-.117-1.753.176.506.043,1.008.041,1.51.045.123,0,.209-.026.243-.221m13.665.31a.211.211,0,0,0-.217-.233.2.2,0,0,0-.233.2c-.01.14.075.209.215.212s.223-.046.235-.181M5.494,6.7c-.006-.134-.062-.223-.211-.223a.209.209,0,0,0-.228.215.181.181,0,0,0,.2.2c.134,0,.233-.033.24-.189m6.587-.018c-.034-.116-.088-.21-.237-.206a.2.2,0,0,0-.211.225c0,.129.082.183.21.188.146.006.214-.067.238-.207" fill="#101011"/>
      <path id="Path_15177" data-name="Path 15177" d="M32.858,20.772a4.235,4.235,0,0,1,1.451.68,2.987,2.987,0,0,1-.863,5.049,6.151,6.151,0,0,1-2.131.38c-1.8.01-3.6,0-5.394.009-.228,0-.28-.06-.279-.282q.01-5.677,0-11.354c0-.216.044-.289.277-.288,1.765.011,3.531,0,5.3.01a4.952,4.952,0,0,1,1.755.32,2.794,2.794,0,0,1,1.86,2.875,2.64,2.64,0,0,1-1.973,2.6m-2.772,1.3c-.362,0-.662,0-.961,0-.136,0-.188.039-.187.182.007.566,0,1.133,0,1.7,0,.086-.011.182.119.177a11.443,11.443,0,0,0,2.143-.076.922.922,0,0,0,.719-.942.945.945,0,0,0-.687-.968,4.505,4.505,0,0,0-1.149-.071M28.941,18.8c0,.31,0,.62,0,.93,0,.135.039.192.181.189.481-.011.965.014,1.443-.027a1.09,1.09,0,0,0-.044-2.174c-.459-.026-.919-.007-1.379-.018-.153,0-.207.047-.2.2.01.3,0,.6,0,.9" fill="#101011"/>
      <path id="Path_15178" data-name="Path 15178" d="M72.953,38.061c.289-1.937.709-3.786,1.084-5.643.1-.512.114-.509.641-.509.727,0,1.455,0,2.183,0,.167,0,.25.043.282.214.374,1.944.827,3.872,1.159,5.841.087-.422.168-.845.262-1.266.337-1.517.682-3.032,1.012-4.55.04-.183.1-.242.289-.24q1.349.015,2.7,0c.225,0,.264.039.2.268q-1.21,4.431-2.4,8.868c-.048.182-.131.224-.308.223q-1.59-.013-3.179,0c-.191,0-.269-.038-.311-.248-.338-1.67-.716-3.332-.952-5.021-.009-.067-.016-.127-.112-.158-.173,1.119-.363,2.233-.6,3.338-.133.624-.263,1.25-.385,1.877-.029.15-.08.213-.247.212-1.091-.007-2.183-.01-3.274,0-.2,0-.222-.111-.257-.244q-.771-2.847-1.542-5.7c-.285-1.057-.56-2.117-.858-3.171-.059-.211-.027-.252.185-.249.91.009,1.82.018,2.729-.005.285-.007.381.093.436.352.4,1.884.876,3.751,1.219,5.647.006.03.016.06.043.162" fill="#101011"/>
      <path id="Path_15179" data-name="Path 15179" d="M32.963,36.1a2.4,2.4,0,0,1,1.756,1.988c.14.622.332,1.232.5,1.846a2.877,2.877,0,0,0,.743,1.33H33.922c-.429,0-.859-.026-1.284.008A.622.622,0,0,1,32,40.9a5.918,5.918,0,0,1-.5-1.541c-.112-.41-.2-.827-.325-1.234a.868.868,0,0,0-.877-.66c-.342-.01-.686.006-1.027-.016-.234-.016-.306.045-.3.293.016,1.08,0,2.16.013,3.239,0,.229-.065.283-.286.28-.931-.012-1.862-.014-2.793,0-.225,0-.254-.077-.254-.271q.008-5.694,0-11.388c0-.2.045-.271.262-.27,1.637.01,3.275-.009,4.913.012a6.324,6.324,0,0,1,2.41.423,3.122,3.122,0,0,1,1.993,2.711,4.18,4.18,0,0,1-.066,1.492,2.737,2.737,0,0,1-1.865,2.02c-.107.039-.217.068-.326.1M28.97,33.451c0,.364,0,.727,0,1.091,0,.129,0,.227.181.222a14.747,14.747,0,0,0,1.6-.048,1.264,1.264,0,0,0,0-2.509c-.523-.072-1.048-.019-1.571-.042-.182-.009-.212.072-.209.227.009.353,0,.706,0,1.059" fill="#101011"/>
      <path id="Path_15180" data-name="Path 15180" d="M36.368,6.517c0,1.882-.009,3.763.007,5.644,0,.3-.085.351-.358.346q-1.347-.027-2.7,0c-.25.005-.3-.071-.295-.3.012-1.347,0-2.694.01-4.041,0-.2-.031-.273-.254-.271q-1.782.02-3.563,0c-.208,0-.243.063-.242.252.009,1.347,0,2.694.01,4.041,0,.247-.053.327-.315.322-.919-.017-1.839-.012-2.759,0-.2,0-.271-.043-.271-.261q.01-5.709,0-11.418c0-.2.062-.244.253-.242q1.411.014,2.824,0c.21,0,.269.055.267.266-.01,1.293,0,2.587-.01,3.881,0,.214.038.289.272.286q1.766-.02,3.532,0c.22,0,.258-.069.256-.268-.008-1.294,0-2.588-.008-3.881,0-.218.044-.289.275-.285Q34.7.6,36.1.582c.236,0,.277.076.276.291-.008,1.881,0,3.762,0,5.644" fill="#101011"/>
      <path id="Path_15181" data-name="Path 15181" d="M86.87,4.134c0-1.282,0-2.564-.005-3.846,0-.217.042-.292.276-.288.93.014,1.861.012,2.792,0,.2,0,.248.055.248.251q-.009,6,0,11.99c0,.186-.036.266-.245.263q-1.251-.016-2.5,0c-.2,0-.253-.066-.281-.246-.065-.406-.154-.807-.245-1.272a2.685,2.685,0,0,1-2.643,1.74,3.37,3.37,0,0,1-3.238-1.667,4.923,4.923,0,0,1-.691-2.206,7.3,7.3,0,0,1,.515-3.727,3.82,3.82,0,0,1,4.786-1.982,2.539,2.539,0,0,1,1.236.989m.029,3.6c-.006-.309,0-.617-.031-.926A1.463,1.463,0,0,0,85.6,5.348a1.538,1.538,0,0,0-1.689.982,3.947,3.947,0,0,0-.064,2.842,1.537,1.537,0,0,0,2.948-.136,4.672,4.672,0,0,0,.1-1.3" fill="#101011"/>
      <path id="Path_15182" data-name="Path 15182" d="M62.839,19.252a2.871,2.871,0,0,1,2.228-1.877,2.693,2.693,0,0,1,3.469,2.745c.033,2.18,0,4.361.012,6.541,0,.192-.067.228-.24.226-.92-.007-1.841-.011-2.761,0-.228,0-.28-.06-.279-.282q.015-2.406,0-4.811a6.211,6.211,0,0,0-.063-.828.958.958,0,0,0-.783-.894,1.141,1.141,0,0,0-1.274.512,1.9,1.9,0,0,0-.262.976c-.005,1.646-.013,3.292,0,4.938,0,.3-.052.4-.377.392-.877-.026-1.755-.017-2.632,0-.227,0-.312-.037-.311-.292q.013-4.394,0-8.786c0-.218.048-.294.28-.29.813.014,1.627.011,2.44,0,.2,0,.271.044.3.256.056.464.155.922.253,1.474" fill="#101011"/>
      <path id="Path_15183" data-name="Path 15183" d="M41.765,25.283a2.727,2.727,0,0,1-3.088,1.826,2.692,2.692,0,0,1-2.608-2.916c-.05-2.148-.01-4.3-.017-6.445,0-.193.071-.226.242-.225.931.007,1.862.011,2.792,0,.216,0,.265.064.264.27q-.012,2.613,0,5.226a4.869,4.869,0,0,0,.074.826.861.861,0,0,0,.69.786,1.088,1.088,0,0,0,1.137-.421A2.508,2.508,0,0,0,41.7,22.67c.016-1.6.014-3.207,0-4.81,0-.255.043-.347.324-.341.9.02,1.8.016,2.7,0,.229,0,.28.066.28.286q-.01,4.409,0,8.818c0,.213-.061.267-.269.264-.813-.012-1.626-.01-2.439,0-.18,0-.259-.035-.285-.236-.055-.431-.15-.857-.244-1.369" fill="#101011"/>
      <path id="Path_15184" data-name="Path 15184" d="M68.99,11.281a3.119,3.119,0,0,1-3.737,1.283,2.4,2.4,0,0,1-1.729-2.6,2.72,2.72,0,0,1,2.4-2.7,9.47,9.47,0,0,1,2.165-.186c.608.008.609,0,.605-.618a1.469,1.469,0,0,0-.051-.475.674.674,0,0,0-.676-.528.726.726,0,0,0-.763.466c-.017.039-.029.08-.044.12-.061.165.012.419-.149.489-.144.061-.353-.023-.532-.051-.779-.124-1.557-.257-2.338-.371-.169-.025-.2-.064-.177-.239A3.167,3.167,0,0,1,66.3,3.181a6,6,0,0,1,3.566-.006,2.72,2.72,0,0,1,2.015,2.758c.009,1.111,0,2.223,0,3.335a2.754,2.754,0,0,0,.01.352.464.464,0,0,0,.654.436c.121-.033.238-.08.387-.131,0,.741,0,1.456,0,2.17,0,.167-.113.214-.222.277a2.667,2.667,0,0,1-3.661-1.03c-.009-.017-.029-.028-.065-.061m-.849-2.5a1.894,1.894,0,0,0-.987.2.821.821,0,0,0-.4.926.748.748,0,0,0,.722.567,1.024,1.024,0,0,0,1.215-1.124c.006-.578.006-.578-.553-.573" fill="#101011"/>
      <path id="Path_15185" data-name="Path 15185" d="M42.56,11.252A2.659,2.659,0,0,1,40.5,12.673a3.4,3.4,0,0,1-2.29-.379,2.578,2.578,0,0,1-1.1-2.648,2.752,2.752,0,0,1,2.406-2.387A10.273,10.273,0,0,1,42,7.085c.218.006.305-.042.284-.275a4.662,4.662,0,0,0-.06-.763.694.694,0,0,0-.658-.589.715.715,0,0,0-.79.467.664.664,0,0,0-.084.273c.03.417-.2.353-.48.3-.8-.14-1.6-.266-2.4-.366-.288-.035-.311-.161-.265-.39a3.1,3.1,0,0,1,1.877-2.387A5.662,5.662,0,0,1,43.7,3.28a2.657,2.657,0,0,1,1.745,2.745c.012,1.079,0,2.159,0,3.238,0,.086,0,.172,0,.257.055.525.287.683.778.491.235-.092.285-.054.279.192-.014.587-.016,1.175,0,1.763a.414.414,0,0,1-.252.424,2.7,2.7,0,0,1-3.7-1.138m-.825-2.473A2.047,2.047,0,0,0,40.687,9a.819.819,0,0,0-.354.913.718.718,0,0,0,.684.564,1.06,1.06,0,0,0,1.264-1.152c.007-.546.007-.546-.546-.543" fill="#101011"/>
      <path id="Path_15186" data-name="Path 15186" d="M75.4,22.865c-.856,0-1.712.009-2.568-.006-.234,0-.263.085-.242.279a1.539,1.539,0,0,0,1.937,1.435,1.15,1.15,0,0,0,.9-.862c.06-.2.143-.226.336-.162.746.247,1.5.484,2.251.7.212.062.229.142.166.333A3.383,3.383,0,0,1,75.9,26.866a5.449,5.449,0,0,1-3.846-.161,4.205,4.205,0,0,1-2.594-3.5,6.084,6.084,0,0,1,.385-3.326,4.007,4.007,0,0,1,3.216-2.48,5.576,5.576,0,0,1,2.445.085,3.725,3.725,0,0,1,2.742,3.268,15.325,15.325,0,0,1,.056,1.727c0,.285-.073.405-.4.4-.833-.026-1.668-.009-2.5-.009M73.9,21.183c.364,0,.727,0,1.091,0,.073,0,.165.044.194-.1A1.229,1.229,0,0,0,74.111,19.7a1.378,1.378,0,0,0-1.42,1.247c-.044.189-.019.245.179.238.342-.013.685,0,1.027,0" fill="#101011"/>
      <path id="Path_15187" data-name="Path 15187" d="M82.929,17.314a5,5,0,0,1,2.329.477A2.868,2.868,0,0,1,86.8,19.8c.031.135.059.2-.128.228q-1.3.176-2.6.386c-.174.028-.249-.014-.3-.172a1,1,0,0,0-1.288-.576.532.532,0,0,0-.456.51.509.509,0,0,0,.417.537c.454.115.917.194,1.379.272a5.115,5.115,0,0,1,1.812.586,2.7,2.7,0,0,1,1.322,2.536,2.6,2.6,0,0,1-1.419,2.408,6.05,6.05,0,0,1-3.231.595,4.891,4.891,0,0,1-2.1-.51,3.162,3.162,0,0,1-1.492-1.688c-.074-.183-.038-.261.14-.329q1.1-.42,2.2-.862c.171-.07.222-.045.292.133a1.482,1.482,0,0,0,1.878.9c.243-.073.456-.195.477-.493a.544.544,0,0,0-.416-.573,16.058,16.058,0,0,0-1.924-.457,5.5,5.5,0,0,1-.91-.3,2.549,2.549,0,0,1-1.539-3.013,2.967,2.967,0,0,1,2.542-2.454,6.185,6.185,0,0,1,1.461-.153" fill="#101011"/>
      <path id="Path_15188" data-name="Path 15188" d="M91.8,17.316a4.7,4.7,0,0,1,2.1.477,2.944,2.944,0,0,1,1.543,1.979c.041.158.024.237-.181.263-.856.112-1.71.246-2.564.38-.151.024-.214,0-.272-.16a1.009,1.009,0,0,0-1.312-.584.529.529,0,0,0-.427.5.5.5,0,0,0,.4.546c.464.116.938.193,1.41.277a4.639,4.639,0,0,1,2.021.741,2.518,2.518,0,0,1,1.065,2.053,2.774,2.774,0,0,1-2.372,3.111,6.647,6.647,0,0,1-3.848-.078,3.108,3.108,0,0,1-2-1.928c-.069-.18-.022-.236.134-.3.734-.282,1.469-.566,2.2-.865.185-.076.243-.04.314.142a1.49,1.49,0,0,0,1.887.878c.253-.08.458-.219.473-.5a.566.566,0,0,0-.434-.567,11.432,11.432,0,0,0-1.645-.389,3.942,3.942,0,0,1-2.133-1.011,2.939,2.939,0,0,1,.884-4.418,5.693,5.693,0,0,1,2.764-.547" fill="#101011"/>
      <path id="Path_15189" data-name="Path 15189" d="M49.873,17.315a4.99,4.99,0,0,1,2.554.545,2.883,2.883,0,0,1,1.417,1.925c.036.148.044.22-.154.246-.867.115-1.732.248-2.594.388-.148.024-.214,0-.256-.14a1,1,0,0,0-1.3-.616.527.527,0,0,0-.46.506.515.515,0,0,0,.437.552c.456.108.918.187,1.38.267a4.711,4.711,0,0,1,2.124.816,2.924,2.924,0,0,1-.653,4.831,6.584,6.584,0,0,1-3.005.478,4.99,4.99,0,0,1-2.069-.492,3.149,3.149,0,0,1-1.523-1.7c-.06-.148-.085-.257.122-.334q1.109-.41,2.2-.861c.19-.078.239-.04.309.146a1.493,1.493,0,0,0,1.922.863.541.541,0,0,0,.435-.492.551.551,0,0,0-.409-.552,10.28,10.28,0,0,0-1.644-.4,6.177,6.177,0,0,1-1.218-.369,2.493,2.493,0,0,1-1.566-2.58,2.976,2.976,0,0,1,2.6-2.884,6.547,6.547,0,0,1,1.345-.147" fill="#101011"/>
      <path id="Path_15190" data-name="Path 15190" d="M49.505,37.889c.478-1.966,1.155-3.82,1.738-5.7.064-.2.139-.288.37-.284.877.016,1.755.013,2.633,0,.229,0,.294.027.2.276q-1.622,4.415-3.22,8.839c-.055.153-.1.249-.3.246-1.038-.013-2.077-.01-3.115,0a.26.26,0,0,1-.29-.216q-1.545-4.443-3.1-8.88c-.075-.215-.024-.267.2-.264q1.477.016,2.955,0c.187,0,.25.062.3.238.512,1.844,1.074,3.674,1.54,5.53a1.587,1.587,0,0,0,.089.216" fill="#101011"/>
      <path id="Path_15191" data-name="Path 15191" d="M59.019,9.16c.473-1.959,1.154-3.827,1.741-5.724.069-.222.154-.3.389-.292.961.014,1.922.006,2.911.006-.42,1.162-.829,2.3-1.242,3.433-.681,1.875-1.369,3.749-2.042,5.627a.377.377,0,0,1-.433.3c-.994-.016-1.99-.012-2.984,0a.275.275,0,0,1-.313-.226q-1.531-4.428-3.085-8.847c-.094-.264-.034-.291.213-.287.941.012,1.883.016,2.824,0,.257,0,.368.063.436.316.5,1.869,1.078,3.716,1.543,5.594a1.092,1.092,0,0,0,.042.107" fill="#101011"/>
      <path id="Path_15192" data-name="Path 15192" d="M76.853,5.24a2.943,2.943,0,0,1,2.986-2.089c.117,0,.192-.009.18.166-.07,1.086-.132,2.172-.176,3.26-.011.272-.094.265-.3.179a2.316,2.316,0,0,0-1.166-.135A1.5,1.5,0,0,0,77.02,8.115c-.079.961-.024,1.923-.038,2.884q-.011.641,0,1.283c0,.163-.044.223-.217.222q-1.413-.012-2.825,0c-.176,0-.243-.045-.242-.233q.008-4.456,0-8.915c0-.216.106-.209.257-.208.77,0,1.541.011,2.311,0,.224,0,.288.072.309.282.055.53.134,1.058.207,1.586a1.569,1.569,0,0,0,.071.228" fill="#101011"/>
      <path id="Path_15193" data-name="Path 15193" d="M50.393,5.255c.1-.235.186-.463.3-.674a3.106,3.106,0,0,1,2.76-1.436c.188.022.129.139.125.226q-.067,1.374-.146,2.747c-.013.231-.046.461-.07.691-.216-.053-.43-.114-.647-.159a2.188,2.188,0,0,0-1.138.057,1.6,1.6,0,0,0-1.01,1.657q-.018,1.906,0,3.814c0,.273-.081.333-.34.328-.888-.016-1.776-.01-2.663,0-.188,0-.281-.018-.28-.251q.012-4.44,0-8.878c0-.181.049-.232.23-.23.791.01,1.583.008,2.374,0,.158,0,.213.036.233.207.075.63.176,1.257.27,1.9" fill="#101011"/>
      <path id="Path_15194" data-name="Path 15194" d="M55.195,36.575c0-1.443.006-2.886-.006-4.329,0-.254.044-.35.325-.344q1.332.028,2.664,0c.266-.005.312.085.311.326q-.01,4.377,0,8.754c0,.218-.045.287-.275.284-.92-.015-1.841-.013-2.761,0-.211,0-.264-.056-.263-.265.009-1.475.005-2.95.005-4.425" fill="#101011"/>
      <path id="Path_15195" data-name="Path 15195" d="M58.2,22.219c0,1.463,0,2.927.006,4.39,0,.23-.065.283-.286.28q-1.364-.018-2.727,0c-.2,0-.27-.041-.269-.258q.012-4.422,0-8.845c0-.21.054-.266.264-.264.908.012,1.818.016,2.726,0,.257,0,.291.085.29.31-.01,1.463-.005,2.927-.005,4.39" fill="#101011"/>
      <path id="Path_15196" data-name="Path 15196" d="M56.54,16.944a1.685,1.685,0,0,1-1.8-1.7,1.807,1.807,0,0,1,3.611-.005,1.672,1.672,0,0,1-1.816,1.71" fill="#101011"/>
      <path id="Path_15197" data-name="Path 15197" d="M56.857,27.9a1.721,1.721,0,1,1-.023,3.438,1.722,1.722,0,1,1,.023-3.438" fill="#101011"/>
      <path id="Path_15198" data-name="Path 15198" d="M19.253,4.78a3.635,3.635,0,0,0,.2.429c.064.1.177.183.3.094a.253.253,0,0,0,.072-.367,1.034,1.034,0,0,0-.3-.24.588.588,0,0,1-.269-.662c.085-.309.52-.51.755-.313.127.106.022.322.047.506-.172-.044-.113-.222-.206-.3s-.163-.2-.294-.1a.229.229,0,0,0-.022.362,1.723,1.723,0,0,0,.3.234.58.58,0,0,1,.217.729.432.432,0,0,1-.6.26c-.256-.072-.263-.046-.206-.629" fill="#101011"/>
      <path id="Path_15199" data-name="Path 15199" d="M18.434,3.688c.248.583.331,1.176.591,1.71-.066.079-.161.048-.235.038-.109-.016-.394.123-.212-.213a.2.2,0,0,0-.112-.265c-.1-.026-.263-.077-.319.039s-.2.291.073.389a.471.471,0,0,1-.376.032c.285-.533.34-1.139.59-1.73m-.111.736c-.017.139-.165.241-.09.377a.186.186,0,0,0,.175.013c.126-.143-.062-.252-.085-.39" fill="#101011"/>
      <path id="Path_15200" data-name="Path 15200" d="M17.118,3.887c-.281.014-.266.231-.354.382-.093-.491-.093-.491.368-.491h.256c.452,0,.452,0,.393.486-.1-.136-.085-.36-.3-.375a2.437,2.437,0,0,0,.108,1.516,2.07,2.07,0,0,1-.558.034,7.283,7.283,0,0,0,.09-1.552" fill="#101011"/>
      <path id="Path_15201" data-name="Path 15201" d="M13.174,5.428h-.629a2.466,2.466,0,0,0-.007-1.64h.58a2.16,2.16,0,0,0,.056,1.64" fill="#101011"/>
      <path id="Path_15202" data-name="Path 15202" d="M4.309,5.533c-.256-.6-.308-1.2-.587-1.733l.545.009c-.213.368.117.657.15.995.038-.336.383-.622.149-1l.331,0c-.27.527-.344,1.113-.588,1.723" fill="#101011"/>
      <path id="Path_15203" data-name="Path 15203" d="M6.477,5.023c-.121-.079-.045-.312-.3-.322,0,.129-.009.261,0,.391.008.1-.066.236.077.278a.35.35,0,0,0,.367-.142c.067-.078.058-.205.169-.26.033.488.019.505-.411.505H5.74A2.5,2.5,0,0,0,5.717,3.81a6.2,6.2,0,0,1,.876.009c.306.045.09.3.129.458-.105-.1-.09-.279-.253-.33-.184-.058-.321-.06-.287.2a.456.456,0,0,0,0,.064c.025.115-.074.3.063.335.157.038.119-.189.231-.3Z" fill="#101011"/>
      <path id="Path_15204" data-name="Path 15204" d="M11.532,5.4c-.264.058-.264.058-.734-.65-.07.4-.063.44.129.662a1.5,1.5,0,0,1-.6.01,2.145,2.145,0,0,0,0-1.639c.225,0,.438,0,.651,0a.372.372,0,0,1,.387.228.422.422,0,0,1-.071.505c-.178.131-.11.229-.035.361.1.171.185.347.278.524m-.781-1.156c.076.088-.12.308.127.309.166,0,.192-.168.193-.316s-.009-.353-.189-.347-.093.219-.131.354" fill="#101011"/>
    </g>
  </g>
</svg>
