<svg xmlns="http://www.w3.org/2000/svg" width="49.947" height="55.705" viewBox="0 0 49.947 55.705">
  <g id="Group_7791" data-name="Group 7791" transform="translate(-242.172 36.932)">
    <g id="Group_7787" data-name="Group 7787" transform="translate(249.43 -30.674)">
      <g id="Group_7786" data-name="Group 7786">
        <path id="Path_12516" data-name="Path 12516" d="M281.783,16.515h2.879V13.636h-2.879Zm0-5.758h2.879V7.877h-2.879Zm0-14.4V-.761h2.879V-3.64Zm0,8.638h2.879V2.119h-2.879ZM267.827-6.519h2.879V-9.4h-2.879Zm0-17.275h2.879v-2.879h-2.879Zm0-5.758h2.879v-2.879h-2.879Zm0,17.275h2.879v-2.879h-2.879Zm0-5.758h2.879v-2.879h-2.879Zm0,34.551h2.879V13.636h-2.879Zm0-5.758h2.879V7.877h-2.879Zm0-5.758h2.879V2.119h-2.879Zm0-5.758h2.879V-3.64h-2.879Zm-7.2-5.758h2.879V-9.4h-2.879Zm0-17.275h2.879v-2.879h-2.879Zm0-5.758h2.879v-2.879h-2.879Zm0,17.275h2.879v-2.879h-2.879Zm0-5.758h2.879v-2.879h-2.879Zm0,34.551h2.879V13.636h-2.879Zm0-5.758h2.879V7.877h-2.879Zm0-5.758h2.879V2.119h-2.879Zm0-5.758h2.879V-3.64h-2.879ZM246.672-6.519h2.879V-9.4h-2.879Zm0,5.758h2.879V-3.64h-2.879Zm0,5.758h2.879V2.119h-2.879Zm0,5.758h2.879V7.877h-2.879Zm0,5.758h2.879V13.636h-2.879Z" transform="translate(-247.672 32.432)" fill="#303030"/>
      </g>
    </g>
    <g id="Group_7788" data-name="Group 7788" transform="translate(242.672 -11.958)">
      <path id="Path_12517" data-name="Path 12517" d="M245.112,10.8h-1.44V-19.432h8.638v1.44h-7.2Z" transform="translate(-243.672 19.432)" fill="#303030" stroke="#303030" stroke-width="1"/>
    </g>
    <g id="Group_7789" data-name="Group 7789" transform="translate(281.541 -7.64)">
      <path id="Path_12518" data-name="Path 12518" d="M280.749,9.481h-1.44V-14.992h-6.638v-1.44h8.077Z" transform="translate(-270.672 16.432)" fill="#303030" stroke="#303030" stroke-width="1"/>
    </g>
    <g id="Group_7790" data-name="Group 7790" transform="translate(255.189 -36.432)">
      <path id="Path_12519" data-name="Path 12519" d="M276.145,18.273h-1.44V-34.992H253.112V18.273h-1.44V-36.432h24.473Z" transform="translate(-251.672 36.432)" fill="#303030" stroke="#303030" stroke-width="1"/>
    </g>
  </g>
</svg>
