<svg xmlns="http://www.w3.org/2000/svg" width="49.003" height="53.006" viewBox="0 0 49.003 53.006">
  <g id="Group_7773" data-name="Group 7773" transform="translate(-145.1 -25.249)">
    <g id="Group_7770" data-name="Group 7770" transform="translate(169.79 25.752)">
      <g id="Group_7769" data-name="Group 7769">
        <path id="Path_12465" data-name="Path 12465" d="M167.478,25.761l.338,51.965,1.33-.009-.338-51.965Zm-3.653,51.991,1.33-.008-.338-51.965-1.33.008Z" transform="translate(-163.488 -25.752)" fill="#303030" stroke="#303030" stroke-width="1"/>
      </g>
    </g>
    <g id="Group_7771" data-name="Group 7771" transform="translate(178.06 31.695)">
      <path id="Path_12466" data-name="Path 12466" d="M182.354,36.565c-4.546-5.579-12.686-5-12.768-4.991l-.105-1.327c.36-.021,8.921-.633,13.9,5.478Z" transform="translate(-169.481 -30.22)" fill="#303030" stroke="#303030" stroke-width="1"/>
    </g>
    <g id="Group_7772" data-name="Group 7772" transform="translate(178.359 49.094)">
      <path id="Path_12467" data-name="Path 12467" d="M169.715,65.852l-.009-1.33c6.754-.044,13.957-2.578,13.913-9.558-.064-9.7-12.6-10.4-12.728-10.4l.023-.653L170.9,43.9v-.665a21.613,21.613,0,0,1,7.014,1.74c4.573,2.048,7.006,5.5,7.035,9.983C185,62.916,177.112,65.8,169.715,65.852Z" transform="translate(-169.706 -43.232)" fill="#303030" stroke="#303030" stroke-width="1"/>
    </g>
    <path id="Path_12468" data-name="Path 12468" d="M166.767,32.669l-.231-1.329a19,19,0,0,0-14.943,13.913l-5.99.039.009,1.351,5.682-.037a18.9,18.9,0,0,0-.112,6.721l-5.528.036.009,1.351,5.777-.037a19,19,0,0,0,15.341,14.645L167,67.99a17.669,17.669,0,0,1-14.2-13.323l12.632-.083-.009-1.351-12.9.084a18.509,18.509,0,0,1-.257-2.892,18.29,18.29,0,0,1,.392-3.829l12.725-.083-.009-1.349-12.386.08A17.651,17.651,0,0,1,166.767,32.669Z" transform="translate(0 1.845)" fill="#303030" stroke="#303030" stroke-width="1"/>
  </g>
</svg>
