<svg width="33" height="32" viewBox="0 0 33 32" fill="none" xmlns="http://www.w3.org/2000/svg">
<path d="M15.3706 19.4259C15.3706 22.1176 13.9682 23.8118 11.7282 23.8118C9.48824 23.8118 8.08588 22.1082 8.08588 19.4259C8.08588 16.7247 9.48824 15.0306 11.7282 15.0306C13.9682 15.0306 15.3706 16.7247 15.3706 19.4259ZM18.4953 9.92941L17.5165 9.99529C16.9612 10.0329 16.7165 10.2306 16.7165 10.5882C16.7165 10.9647 17.0271 11.1718 17.46 11.1718C18.0529 11.1718 18.4953 10.7859 18.4953 10.2682V9.92941ZM32.5 16C32.5 24.9318 25.4318 32 16.5 32C7.56824 32 0.5 24.9318 0.5 16C0.5 7.06824 7.56824 0 16.5 0C25.4318 0 32.5 7.06824 32.5 16ZM20.2082 9.73176C20.2082 11.0306 20.9235 11.8212 22.0906 11.8212C23.0788 11.8212 23.7 11.2659 23.8035 10.4753H23.0318C22.9282 10.9082 22.5894 11.1435 22.0906 11.1435C21.4318 11.1435 21.0271 10.6071 21.0271 9.73176C21.0271 8.86588 21.4318 8.34824 22.0906 8.34824C22.6176 8.34824 22.9471 8.64941 23.0318 9.03529H23.8035C23.7 8.26353 23.0976 7.68 22.0906 7.68C20.9235 7.67059 20.2082 8.46118 20.2082 9.73176ZM9.45059 7.75529V11.7459H10.2412V9.29882C10.2412 8.78118 10.6082 8.36706 11.0882 8.36706C11.5588 8.36706 11.86 8.64941 11.86 9.10118V11.7459H12.6318V9.22353C12.6318 8.74353 12.9612 8.36706 13.4788 8.36706C13.9965 8.36706 14.2506 8.63059 14.2506 9.18588V11.7459H15.0412V8.98823C15.0412 8.16 14.5706 7.67059 13.7612 7.67059C13.2059 7.67059 12.7447 7.95294 12.5471 8.38588H12.4812C12.3024 7.95294 11.9259 7.67059 11.38 7.67059C10.8435 7.67059 10.4388 7.93412 10.2694 8.38588H10.2129V7.74588L9.45059 7.75529ZM16.7729 19.4259C16.7729 15.9529 14.8341 13.7694 11.7282 13.7694C8.62235 13.7694 6.68353 15.9529 6.68353 19.4259C6.68353 22.8988 8.62235 25.0729 11.7282 25.0729C14.8341 25.0729 16.7729 22.8894 16.7729 19.4259ZM17.2624 11.8118C17.7894 11.8118 18.2224 11.5859 18.4671 11.1812H18.5329V11.7459H19.2953V9.01647C19.2953 8.17882 18.7306 7.68 17.7235 7.68C16.8106 7.68 16.1706 8.12235 16.0859 8.79059H16.8482C16.9329 8.49882 17.2435 8.33882 17.6859 8.33882C18.2224 8.33882 18.5047 8.58353 18.5047 9.02588V9.37412L17.4224 9.44C16.4718 9.49647 15.9353 9.91059 15.9353 10.6353C15.9259 11.3506 16.4906 11.8118 17.2624 11.8118ZM25.8929 21.7788C25.8929 20.2259 24.9894 19.3224 22.7118 18.8235L21.4976 18.56C20.0012 18.2306 19.4176 17.6376 19.4176 16.7812C19.4176 15.6706 20.4718 15.0024 21.8365 15.0024C23.2671 15.0024 24.2082 15.7365 24.3306 16.9412H25.6953C25.6294 15.0871 24.0576 13.7788 21.8741 13.7788C19.6059 13.7788 18.0153 15.0494 18.0153 16.8471C18.0153 18.4 18.9659 19.3976 21.1588 19.8776L22.3729 20.1412C23.8882 20.4706 24.5 21.0824 24.5 21.9953C24.5 23.0682 23.4176 23.8494 21.94 23.8494C20.3682 23.8494 19.2765 23.1341 19.1165 21.9576H17.7518C17.8835 23.8494 19.4741 25.0729 21.8647 25.0729C24.3024 25.0729 25.8929 23.8024 25.8929 21.7788Z" fill="#1D1D1F"/>
</svg>
