<svg id="Logo" xmlns="http://www.w3.org/2000/svg" width="168.575" height="45" viewBox="0 0 168.575 45">
  <g id="Group_24" data-name="Group 24" transform="translate(0 -53.525)">
    <g id="Group_23" data-name="Group 23" transform="translate(0 53.525)">
      <path id="Path_3236" data-name="Path 3236" d="M-88.321,134.083-90.8,147.338h-5.873l2.252-12.1a16.108,16.108,0,0,0,.353-3.27c0-2.561-.927-4.594-3.844-4.594a6.335,6.335,0,0,0-4.416,2.165c-1.326,1.547-1.857,4.152-2.21,6.139l-2.165,11.664h-5.875l4.55-24.518h5.434l-.4,2.121c2.208-1.768,4.284-2.96,7.244-2.96a8.25,8.25,0,0,1,6.76,3.4,8.21,8.21,0,0,1,1.1,4.549A21.91,21.91,0,0,1-88.321,134.083Z" transform="translate(175.817 -114.674)" fill="#f88a01"/>
      <path id="Path_3237" data-name="Path 3237" d="M-62.378,137.706H-81.416a4.675,4.675,0,0,0,.574,2.032,5.7,5.7,0,0,0,5.257,3,7.445,7.445,0,0,0,6.228-3.136h6.184c-2.386,4.815-8,8.525-13.385,8.525-6.23,0-10.778-4.2-10.778-10.512,0-8.217,7.287-15.638,15.549-15.638,6.228,0,10.559,4.2,10.559,10.425A12.993,12.993,0,0,1-62.378,137.706ZM-72.714,127.37a8.584,8.584,0,0,0-8,5.61h13.564v-.221C-67.1,129.314-69.314,127.37-72.714,127.37Z" transform="translate(196.296 -114.674)" fill="#f88a01"/>
      <path id="Path_3238" data-name="Path 3238" d="M-53.992,129.491h-5.74c0-1.283-.62-2.121-1.945-2.121a2.672,2.672,0,0,0-2.694,2.518c0,2.826,9.322,1.634,9.322,8.173,0,5.433-4.947,10.07-10.293,10.07-4.329,0-7.731-2.384-7.731-6.98,0-.529.043-1.016.087-1.545h6.009c.132,1.766.574,3.136,2.65,3.136a3.131,3.131,0,0,0,3.181-3c0-3.313-9.189-1.811-9.189-8.7,0-5.081,4.817-9.055,9.72-9.055,3.712,0,6.713,2.561,6.713,6.36A9.151,9.151,0,0,1-53.992,129.491Z" transform="translate(207.869 -114.674)" fill="#f88a01"/>
      <path id="Path_3239" data-name="Path 3239" d="M-49.186,131.322h-3.507l-3.55,19.16h-5.831l3.55-19.16h-2.851l.965-5.173h2.851l.583-3.224a6.022,6.022,0,0,1,5.922-4.933h.815l-1.489,8.157h3.507Z" transform="translate(216.795 -117.91)" fill="#f88a01"/>
      <path id="Path_3240" data-name="Path 3240" d="M-108.537,131.3h0l-3.55,19.16h-5.831l3.55-19.16h0l.965-5.174h0l.583-3.226a6.022,6.022,0,0,1,5.922-4.931h.815l-1.489,8.157h0Z" transform="translate(171.481 -117.926)" fill="#f88a01"/>
      <path id="Path_3241" data-name="Path 3241" d="M-92.407,126H-98.64l5.346,24.531h5.568l13.282-26.842H-34.02s5.157.176,6.083-5.7H-74.7a6.085,6.085,0,0,0-5.922,4.192l-8.76,18.348s-.214.433-.306-.058Z" transform="translate(187.124 -117.924)" fill="#f88a01"/>
      <path id="Path_3242" data-name="Path 3242" d="M-120.67,142.767c-1.188,6.253-4.623,11.273-10.744,13.474a15.4,15.4,0,0,1-5.284.969c-5.2,0-9.731-2.775-10.789-8.1h6.693a6.192,6.192,0,0,0,5.548,2.73c4.447,0,7.882-3.478,8.894-7.617l-.087-.089a11.41,11.41,0,0,1-8.718,3.92,10.287,10.287,0,0,1-10.349-10.613c0-7.925,7.09-15.455,15.1-15.455,2.949,0,5.724,1.056,7.09,3.831h.087l.572-2.994h5.681Q-118.822,132.791-120.67,142.767Zm-10.171-15.412c-4.8,0-8.718,4.534-8.718,9.159a5.887,5.887,0,0,0,6.032,6.164c4.623,0,8.586-4.712,8.586-9.159A5.856,5.856,0,0,0-130.842,127.355Z" transform="translate(147.487 -114.673)" fill="#131313"/>
      <path id="Path_3243" data-name="Path 3243" d="M-116.954,138.07l7.662,12.461h-7.4l-6.164-11.448h-.089l-2.112,11.448h-5.858l6.034-32.584h5.856l-3.656,19.638h.089l9.952-11.492h6.737Z" transform="translate(160.936 -117.947)" fill="#131313"/>
      <g id="Group_19" data-name="Group 19" transform="translate(30.19 34.622)">
        <path id="Path_3244" data-name="Path 3244" d="M-129.073,137.168l1.125,3.136,1.726-3.136h1.781l-2.84,4.873-.5,2.971h-1.639l.525-3.036-1.924-4.808Z" transform="translate(130.821 -136.972)" fill="#131313"/>
        <path id="Path_3245" data-name="Path 3245" d="M-128.36,141.635a4.049,4.049,0,0,1,.163-1.054,3.406,3.406,0,0,1,.558-1.125,3.313,3.313,0,0,1,1.038-.9,3.221,3.221,0,0,1,1.6-.366,3.348,3.348,0,0,1,1.06.165,2.294,2.294,0,0,1,.853.5,2.322,2.322,0,0,1,.562.853,3.283,3.283,0,0,1,.2,1.2,3.984,3.984,0,0,1-.165,1.054,3.4,3.4,0,0,1-.556,1.125,3.314,3.314,0,0,1-1.038.9,3.229,3.229,0,0,1-1.607.366,3.045,3.045,0,0,1-1.033-.176,2.435,2.435,0,0,1-.851-.518,2.472,2.472,0,0,1-.58-.853A3.03,3.03,0,0,1-128.36,141.635Zm1.572.022a1.575,1.575,0,0,0,.344,1.1,1.134,1.134,0,0,0,.87.371,1.383,1.383,0,0,0,.643-.158,1.639,1.639,0,0,0,.536-.449,2.251,2.251,0,0,0,.366-.7,2.961,2.961,0,0,0,.136-.927,1.57,1.57,0,0,0-.344-1.1,1.128,1.128,0,0,0-.868-.371,1.39,1.39,0,0,0-.645.158,1.673,1.673,0,0,0-.534.447,2.253,2.253,0,0,0-.366.7A2.928,2.928,0,0,0-126.788,141.656Z" transform="translate(132.818 -136.141)" fill="#131313"/>
        <path id="Path_3246" data-name="Path 3246" d="M-119.892,144.1h-1.42l.239-1.049a3.019,3.019,0,0,1-.873.88,2.169,2.169,0,0,1-1.192.322,2.027,2.027,0,0,1-.61-.094,1.625,1.625,0,0,1-.536-.284,1.357,1.357,0,0,1-.382-.485,1.628,1.628,0,0,1-.141-.71,4.792,4.792,0,0,1,.027-.562c.018-.15.045-.33.082-.542l.612-3.288h1.54l-.612,3.244a4.238,4.238,0,0,0-.087.688.845.845,0,0,0,.071.366.633.633,0,0,0,.181.23.661.661,0,0,0,.235.114.893.893,0,0,0,.223.033,1.347,1.347,0,0,0,1.092-.469,2.577,2.577,0,0,0,.525-1.246l.534-2.96h1.54Z" transform="translate(135.7 -136.062)" fill="#131313"/>
        <path id="Path_3247" data-name="Path 3247" d="M-117.237,138.211l-.228,1.594c-.065-.014-.139-.033-.219-.054a1.04,1.04,0,0,0-.274-.033,1.592,1.592,0,0,0-.458.065,1,1,0,0,0-.415.257,1.788,1.788,0,0,0-.36.551,4.566,4.566,0,0,0-.284.951l-.458,2.632h-1.551l1.047-5.811h1.409l-.283,1.179c.167-.263.321-.48.458-.656a2.2,2.2,0,0,1,.42-.415,1.324,1.324,0,0,1,.453-.212,2.329,2.329,0,0,1,.558-.06Z" transform="translate(138.397 -136.135)" fill="#131313"/>
        <path id="Path_3248" data-name="Path 3248" d="M-111.9,139.868a1.771,1.771,0,0,0-.453-1.1,1.6,1.6,0,0,0-1.152-.355,1.939,1.939,0,0,0-1.235.377,2.788,2.788,0,0,0-.764.917,3.933,3.933,0,0,0-.393,1.136,5.858,5.858,0,0,0-.109,1.033,2.865,2.865,0,0,0,.114.835,1.789,1.789,0,0,0,.344.65,1.533,1.533,0,0,0,.583.426,2.116,2.116,0,0,0,.848.154,1.912,1.912,0,0,0,.989-.23,2.3,2.3,0,0,0,.621-.518,2.081,2.081,0,0,0,.339-.558c.069-.178.111-.293.127-.344h-2.032l.23-1.288h3.583l-.71,4.1h-1.1l-.033-.862a2.278,2.278,0,0,1-.551.507,3.339,3.339,0,0,1-.639.328,3.294,3.294,0,0,1-.645.176,3.8,3.8,0,0,1-.578.049,3.671,3.671,0,0,1-.967-.149,2.816,2.816,0,0,1-1.022-.529,3.01,3.01,0,0,1-.808-1.043,3.788,3.788,0,0,1-.328-1.688,6.2,6.2,0,0,1,.268-1.835,4.647,4.647,0,0,1,.792-1.54,3.832,3.832,0,0,1,1.306-1.06,3.985,3.985,0,0,1,1.819-.393,4.435,4.435,0,0,1,1.244.168,2.822,2.822,0,0,1,1.005.52,2.46,2.46,0,0,1,.672.873,2.924,2.924,0,0,1,.245,1.246Z" transform="translate(141.513 -137.06)" fill="#131313"/>
        <path id="Path_3249" data-name="Path 3249" d="M-111.978,137.168h1.552l-1.42,7.844h-1.54Z" transform="translate(144.969 -136.972)" fill="#131313"/>
        <path id="Path_3250" data-name="Path 3250" d="M-111.867,141.635a3.983,3.983,0,0,1,.165-1.054,3.366,3.366,0,0,1,.556-1.125,3.313,3.313,0,0,1,1.038-.9,3.229,3.229,0,0,1,1.607-.366,3.348,3.348,0,0,1,1.06.165,2.3,2.3,0,0,1,.851.5,2.3,2.3,0,0,1,.562.853,3.245,3.245,0,0,1,.2,1.2,4.049,4.049,0,0,1-.163,1.054,3.406,3.406,0,0,1-.558,1.125,3.314,3.314,0,0,1-1.038.9,3.227,3.227,0,0,1-1.6.366,3.045,3.045,0,0,1-1.033-.176,2.443,2.443,0,0,1-.853-.518,2.468,2.468,0,0,1-.578-.853A3,3,0,0,1-111.867,141.635Zm1.574.022a1.567,1.567,0,0,0,.344,1.1,1.128,1.128,0,0,0,.868.371,1.4,1.4,0,0,0,.645-.158,1.634,1.634,0,0,0,.534-.449,2.214,2.214,0,0,0,.366-.7,2.909,2.909,0,0,0,.138-.927,1.578,1.578,0,0,0-.344-1.1,1.134,1.134,0,0,0-.869-.371,1.4,1.4,0,0,0-.645.158,1.673,1.673,0,0,0-.534.447,2.292,2.292,0,0,0-.366.7A2.982,2.982,0,0,0-110.293,141.656Z" transform="translate(146.201 -136.141)" fill="#131313"/>
        <path id="Path_3251" data-name="Path 3251" d="M-107.034,137.168h1.531l-.558,2.849a2.871,2.871,0,0,1,.667-.688,1.61,1.61,0,0,1,.984-.281,2,2,0,0,1,.982.217,1.842,1.842,0,0,1,.639.58,2.327,2.327,0,0,1,.35.813,4.147,4.147,0,0,1,.1.922,4.65,4.65,0,0,1-.179,1.263,3.9,3.9,0,0,1-.531,1.152,2.91,2.91,0,0,1-.873.842,2.269,2.269,0,0,1-1.223.328,1.879,1.879,0,0,1-.656-.11,1.5,1.5,0,0,1-.509-.306,1.538,1.538,0,0,1-.339-.453,1.665,1.665,0,0,1-.158-.551l-.187,1.266h-1.464Zm2.054,3.1a1.044,1.044,0,0,0-.563.147,1.513,1.513,0,0,0-.4.371,1.981,1.981,0,0,0-.272.495,3.91,3.91,0,0,0-.165.529,3.79,3.79,0,0,0-.082.462q-.022.206-.022.293a1.9,1.9,0,0,0,.065.5,1.13,1.13,0,0,0,.2.413.973.973,0,0,0,.342.279,1.1,1.1,0,0,0,.493.1,1.033,1.033,0,0,0,.562-.147,1.524,1.524,0,0,0,.406-.371,1.955,1.955,0,0,0,.272-.5,4.041,4.041,0,0,0,.165-.54,3.932,3.932,0,0,0,.082-.473c.014-.143.022-.25.022-.322a1.378,1.378,0,0,0-.284-.882A.981.981,0,0,0-104.98,140.271Z" transform="translate(148.971 -136.972)" fill="#131313"/>
        <path id="Path_3252" data-name="Path 3252" d="M-101.615,143.546h-.022a1.7,1.7,0,0,1-.618.58,1.886,1.886,0,0,1-.955.23,2,2,0,0,1-.7-.116,1.6,1.6,0,0,1-.558-.339,1.543,1.543,0,0,1-.371-.545,1.992,1.992,0,0,1-.13-.748,1.781,1.781,0,0,1,.572-1.4,3.191,3.191,0,0,1,1.81-.645l.534-.054a2.684,2.684,0,0,0,.694-.143.407.407,0,0,0,.257-.426.507.507,0,0,0-.235-.469,1.312,1.312,0,0,0-.672-.141,1.134,1.134,0,0,0-.594.147.657.657,0,0,0-.3.5h-1.5a2.088,2.088,0,0,1,.223-.665,1.834,1.834,0,0,1,.485-.569,2.463,2.463,0,0,1,.772-.4,3.412,3.412,0,0,1,1.054-.149,2.707,2.707,0,0,1,1.681.455,1.458,1.458,0,0,1,.591,1.217,2.7,2.7,0,0,1-.022.344c-.014.112-.033.232-.054.355l-.46,2.589a2.051,2.051,0,0,0-.038.257c0,.062-.005.129-.005.2a.67.67,0,0,0,.054.288.669.669,0,0,0,.121.181v.1h-1.618Zm-1.846-1.1a.628.628,0,0,0,.208.52.8.8,0,0,0,.524.168,1.326,1.326,0,0,0,.5-.1,1.155,1.155,0,0,0,.426-.306,1.712,1.712,0,0,0,.306-.518,2.413,2.413,0,0,0,.141-.737,5.032,5.032,0,0,1-.639.1,5.024,5.024,0,0,0-.694.12,1.571,1.571,0,0,0-.551.246A.579.579,0,0,0-103.461,142.443Z" transform="translate(151.799 -136.141)" fill="#131313"/>
        <path id="Path_3253" data-name="Path 3253" d="M-100.423,137.168h1.551l-1.42,7.844h-1.54Z" transform="translate(154.344 -136.972)" fill="#131313"/>
        <path id="Path_3254" data-name="Path 3254" d="M-97.145,138.523h-2.076l.252-1.355h5.559l-.25,1.355h-1.848l-1.179,6.489h-1.638Z" transform="translate(156.463 -136.972)" fill="#131313"/>
        <path id="Path_3255" data-name="Path 3255" d="M-92.854,138.211l-.23,1.594c-.065-.014-.138-.033-.219-.054a1.035,1.035,0,0,0-.272-.033,1.6,1.6,0,0,0-.46.065,1.017,1.017,0,0,0-.415.257,1.822,1.822,0,0,0-.36.551,4.576,4.576,0,0,0-.283.951l-.46,2.632H-97.1l1.049-5.811h1.409l-.284,1.179c.167-.263.321-.48.458-.656a2.255,2.255,0,0,1,.42-.415,1.332,1.332,0,0,1,.455-.212,2.3,2.3,0,0,1,.556-.06Z" transform="translate(158.181 -136.135)" fill="#131313"/>
        <path id="Path_3256" data-name="Path 3256" d="M-91.713,143.546h-.022a1.713,1.713,0,0,1-.616.58,1.9,1.9,0,0,1-.956.23,2.008,2.008,0,0,1-.7-.116,1.574,1.574,0,0,1-.556-.339,1.524,1.524,0,0,1-.373-.545,1.992,1.992,0,0,1-.13-.748,1.782,1.782,0,0,1,.574-1.4,3.179,3.179,0,0,1,1.808-.645l.534-.054a2.684,2.684,0,0,0,.694-.143.4.4,0,0,0,.257-.426.5.5,0,0,0-.235-.469,1.312,1.312,0,0,0-.672-.141,1.138,1.138,0,0,0-.594.147.657.657,0,0,0-.3.5h-1.5a2.087,2.087,0,0,1,.223-.665,1.817,1.817,0,0,1,.487-.569,2.434,2.434,0,0,1,.77-.4,3.429,3.429,0,0,1,1.054-.149,2.706,2.706,0,0,1,1.681.455,1.458,1.458,0,0,1,.591,1.217,2.7,2.7,0,0,1-.022.344c-.015.112-.033.232-.054.355l-.458,2.589a2.052,2.052,0,0,0-.038.257c-.005.062-.007.129-.007.2a.643.643,0,0,0,.056.288.628.628,0,0,0,.12.181v.1h-1.618Zm-1.846-1.1a.628.628,0,0,0,.208.52.8.8,0,0,0,.524.168,1.326,1.326,0,0,0,.5-.1,1.155,1.155,0,0,0,.426-.306,1.712,1.712,0,0,0,.306-.518,2.413,2.413,0,0,0,.141-.737,4.978,4.978,0,0,1-.639.1,5.072,5.072,0,0,0-.694.12,1.571,1.571,0,0,0-.551.246A.579.579,0,0,0-93.559,142.443Z" transform="translate(159.834 -136.141)" fill="#131313"/>
        <path id="Path_3257" data-name="Path 3257" d="M-87.949,143.908a2.742,2.742,0,0,1-.743.918,1.966,1.966,0,0,1-1.234.35,1.72,1.72,0,0,1-.891-.219,1.936,1.936,0,0,1-.607-.569,2.389,2.389,0,0,1-.348-.792,3.624,3.624,0,0,1-.111-.889,5.115,5.115,0,0,1,.159-1.219,4.108,4.108,0,0,1,.5-1.2,3.072,3.072,0,0,1,.864-.911,2.111,2.111,0,0,1,1.244-.366,1.581,1.581,0,0,1,.781.174,1.76,1.76,0,0,1,.5.4,1.5,1.5,0,0,1,.261.431,1.071,1.071,0,0,1,.078.284l.578-3.136h1.54l-1.42,7.844h-1.386Zm.2-2.282a2.139,2.139,0,0,0-.054-.493,1.25,1.25,0,0,0-.181-.409.893.893,0,0,0-.328-.284,1.055,1.055,0,0,0-.485-.1,1.082,1.082,0,0,0-.77.279,1.986,1.986,0,0,0-.471.661,3.054,3.054,0,0,0-.228.775,4.355,4.355,0,0,0-.06.612,1.625,1.625,0,0,0,.114.665,1.044,1.044,0,0,0,.279.388.878.878,0,0,0,.35.187,1.3,1.3,0,0,0,.328.049,1.082,1.082,0,0,0,.694-.23,1.774,1.774,0,0,0,.469-.572,2.874,2.874,0,0,0,.263-.754A3.965,3.965,0,0,0-87.752,141.626Z" transform="translate(162.418 -136.972)" fill="#131313"/>
        <path id="Path_3258" data-name="Path 3258" d="M-87.4,139.283h1.531l-1.049,5.811H-88.45Zm.438-2.217h1.529l-.252,1.355h-1.529Z" transform="translate(165.203 -137.055)" fill="#131313"/>
        <path id="Path_3259" data-name="Path 3259" d="M-85.972,138.358h1.42l-.241,1.049a3.041,3.041,0,0,1,.873-.88,2.168,2.168,0,0,1,1.192-.321,2.045,2.045,0,0,1,.605.092,1.617,1.617,0,0,1,.542.284,1.358,1.358,0,0,1,.382.486,1.627,1.627,0,0,1,.141.71c0,.116,0,.219-.005.306s-.011.172-.022.257l-.033.25c-.011.083-.027.181-.049.29l-.612,3.288h-1.54l.612-3.244a4.237,4.237,0,0,0,.087-.688.845.845,0,0,0-.071-.366.633.633,0,0,0-.181-.23.668.668,0,0,0-.234-.114.919.919,0,0,0-.225-.033,1.353,1.353,0,0,0-1.092.469,2.559,2.559,0,0,0-.524,1.246l-.536,2.96h-1.54Z" transform="translate(166.362 -136.13)" fill="#131313"/>
        <path id="Path_3260" data-name="Path 3260" d="M-78.713,138.369h1.475l-.984,5.44a8.341,8.341,0,0,1-.29,1.136,2.291,2.291,0,0,1-.5.853,2.127,2.127,0,0,1-.851.534,4.03,4.03,0,0,1-1.333.187,3.065,3.065,0,0,1-1.284-.225,2.14,2.14,0,0,1-.726-.518,1.519,1.519,0,0,1-.328-.6,2.041,2.041,0,0,1-.076-.453h1.572a1.427,1.427,0,0,0,.045.179.561.561,0,0,0,.125.219.747.747,0,0,0,.274.179,1.234,1.234,0,0,0,.475.078,1.4,1.4,0,0,0,.552-.1,1.02,1.02,0,0,0,.409-.355,2.5,2.5,0,0,0,.306-.674,7.548,7.548,0,0,0,.228-1.078,2.14,2.14,0,0,1-.688.748,1.681,1.681,0,0,1-.927.259,2.111,2.111,0,0,1-.978-.206,1.787,1.787,0,0,1-.645-.558,2.407,2.407,0,0,1-.36-.819,4.155,4.155,0,0,1-.114-.984,4.339,4.339,0,0,1,.168-1.163,3.736,3.736,0,0,1,.514-1.109,2.913,2.913,0,0,1,.851-.826,2.174,2.174,0,0,1,1.185-.322,1.868,1.868,0,0,1,.793.149,1.614,1.614,0,0,1,.5.355,1.552,1.552,0,0,1,.29.437,4.309,4.309,0,0,1,.152.4Zm-3.081,3.273a2.334,2.334,0,0,0,.054.514,1.056,1.056,0,0,0,.187.417.915.915,0,0,0,.339.279,1.119,1.119,0,0,0,.513.105,1.092,1.092,0,0,0,.694-.219,1.679,1.679,0,0,0,.453-.554,2.489,2.489,0,0,0,.246-.723,4.083,4.083,0,0,0,.071-.728,1.362,1.362,0,0,0-.274-.906.988.988,0,0,0-.8-.322,1.075,1.075,0,0,0-.667.214,1.73,1.73,0,0,0-.464.533,2.667,2.667,0,0,0-.268.69A3.087,3.087,0,0,0-81.795,141.642Z" transform="translate(169.132 -136.141)" fill="#131313"/>
        <path id="Path_3261" data-name="Path 3261" d="M-77.147,137.168h2.7a3.894,3.894,0,0,1,1.288.187,2.364,2.364,0,0,1,.853.5,1.855,1.855,0,0,1,.475.721,2.489,2.489,0,0,1,.149.859,2.745,2.745,0,0,1-.8,2.09,3.325,3.325,0,0,1-2.38.761h-1.574l-.491,2.73h-1.639Zm.962,3.759h1.453a1.9,1.9,0,0,0,.672-.105,1.246,1.246,0,0,0,.458-.283,1.072,1.072,0,0,0,.263-.426,1.644,1.644,0,0,0,.082-.52,1.712,1.712,0,0,0-.049-.415.805.805,0,0,0-.179-.344.885.885,0,0,0-.344-.23,1.537,1.537,0,0,0-.542-.081h-1.377Z" transform="translate(173.222 -136.972)" fill="#131313"/>
        <path id="Path_3262" data-name="Path 3262" d="M-71.619,143.546h-.022a1.718,1.718,0,0,1-.618.58,1.9,1.9,0,0,1-.956.23,2.015,2.015,0,0,1-.7-.116,1.59,1.59,0,0,1-.556-.339,1.52,1.52,0,0,1-.371-.545,1.992,1.992,0,0,1-.13-.748,1.781,1.781,0,0,1,.572-1.4,3.185,3.185,0,0,1,1.808-.645l.536-.054a2.719,2.719,0,0,0,.694-.143.406.406,0,0,0,.255-.426.506.506,0,0,0-.234-.469,1.316,1.316,0,0,0-.672-.141,1.145,1.145,0,0,0-.6.147.662.662,0,0,0-.3.5h-1.5a2.048,2.048,0,0,1,.225-.665,1.81,1.81,0,0,1,.485-.569,2.453,2.453,0,0,1,.77-.4,3.428,3.428,0,0,1,1.054-.149,2.712,2.712,0,0,1,1.683.455,1.458,1.458,0,0,1,.591,1.217,2.7,2.7,0,0,1-.022.344c-.016.112-.034.232-.056.355l-.458,2.589a2.047,2.047,0,0,0-.038.257c0,.062-.005.129-.005.2a.669.669,0,0,0,.054.288.627.627,0,0,0,.12.181v.1h-1.616Zm-1.846-1.1a.633.633,0,0,0,.207.52.809.809,0,0,0,.525.168,1.317,1.317,0,0,0,.5-.1,1.126,1.126,0,0,0,.426-.306,1.642,1.642,0,0,0,.306-.518,2.359,2.359,0,0,0,.143-.737,5.032,5.032,0,0,1-.639.1,5.024,5.024,0,0,0-.694.12,1.581,1.581,0,0,0-.552.246A.582.582,0,0,0-73.465,142.443Z" transform="translate(176.14 -136.141)" fill="#131313"/>
        <path id="Path_3263" data-name="Path 3263" d="M-67.605,138.211l-.228,1.594c-.065-.014-.139-.033-.219-.054a1.04,1.04,0,0,0-.274-.033,1.592,1.592,0,0,0-.458.065,1,1,0,0,0-.415.257,1.789,1.789,0,0,0-.36.551,4.566,4.566,0,0,0-.284.951l-.458,2.632h-1.552l1.049-5.811H-69.4l-.284,1.179c.168-.263.321-.48.46-.656a2.2,2.2,0,0,1,.42-.415,1.324,1.324,0,0,1,.453-.212,2.329,2.329,0,0,1,.558-.06Z" transform="translate(178.669 -136.135)" fill="#131313"/>
        <path id="Path_3264" data-name="Path 3264" d="M-68.25,137.367h1.507l-.306,1.672h.83l-.185,1.071h-.853l-.48,2.8q-.022.12-.038.239a1.608,1.608,0,0,0-.016.208.266.266,0,0,0,.092.23.439.439,0,0,0,.257.065,1.22,1.22,0,0,0,.322-.038q.136-.038.255-.06l-.174,1.244c-.138.036-.279.069-.42.1a2.589,2.589,0,0,1-.509.043,2.615,2.615,0,0,1-.5-.049,1.262,1.262,0,0,1-.453-.179,1.011,1.011,0,0,1-.328-.344,1.06,1.06,0,0,1-.127-.542,1.775,1.775,0,0,1,.022-.255c.015-.1.04-.254.078-.466l.5-2.993h-.83l.217-1.071h.821Z" transform="translate(180.495 -136.811)" fill="#131313"/>
        <path id="Path_3265" data-name="Path 3265" d="M-66.886,138.358h1.42l-.241,1.049a3.024,3.024,0,0,1,.875-.88,2.166,2.166,0,0,1,1.19-.321,2.056,2.056,0,0,1,.607.092,1.608,1.608,0,0,1,.54.284,1.338,1.338,0,0,1,.382.486,1.6,1.6,0,0,1,.143.71c0,.116,0,.219-.005.306s-.011.172-.022.257l-.033.25c-.011.083-.027.181-.051.29l-.61,3.288h-1.54l.61-3.244a4.236,4.236,0,0,0,.087-.688.845.845,0,0,0-.071-.366.629.629,0,0,0-.179-.23.676.676,0,0,0-.236-.114.9.9,0,0,0-.225-.033,1.353,1.353,0,0,0-1.092.469,2.576,2.576,0,0,0-.524,1.246l-.534,2.96h-1.542Z" transform="translate(181.85 -136.13)" fill="#131313"/>
        <path id="Path_3266" data-name="Path 3266" d="M-62.878,141.81a1.06,1.06,0,0,0-.016.12q-.005.065-.005.2a1.061,1.061,0,0,0,.065.366.939.939,0,0,0,.2.322.926.926,0,0,0,.339.23,1.265,1.265,0,0,0,.491.087,1.156,1.156,0,0,0,.634-.174,1.13,1.13,0,0,0,.4-.426h1.694a2.462,2.462,0,0,1-.339.676,2.413,2.413,0,0,1-.58.58,3.023,3.023,0,0,1-.824.409,3.373,3.373,0,0,1-1.065.159,2.765,2.765,0,0,1-1.071-.2,2.161,2.161,0,0,1-.792-.556,2.444,2.444,0,0,1-.493-.886,3.847,3.847,0,0,1-.168-1.179,3.931,3.931,0,0,1,.179-1.147,3.33,3.33,0,0,1,.558-1.076,3.034,3.034,0,0,1,.956-.8,2.813,2.813,0,0,1,1.366-.317,3,3,0,0,1,.949.154,2.082,2.082,0,0,1,.8.486,2.416,2.416,0,0,1,.552.848,3.3,3.3,0,0,1,.207,1.234,4.926,4.926,0,0,1-.022.5,3.185,3.185,0,0,1-.065.4Zm2.534-1.071v-.219a1.4,1.4,0,0,0-.06-.4.947.947,0,0,0-.19-.355,1.016,1.016,0,0,0-.344-.252,1.244,1.244,0,0,0-.52-.1,1.159,1.159,0,0,0-.524.114,1.173,1.173,0,0,0-.388.306,1.638,1.638,0,0,0-.257.426,2.314,2.314,0,0,0-.143.476Z" transform="translate(184.712 -136.141)" fill="#131313"/>
        <path id="Path_3267" data-name="Path 3267" d="M-57.058,138.211l-.228,1.594c-.065-.014-.139-.033-.219-.054a1.04,1.04,0,0,0-.274-.033,1.592,1.592,0,0,0-.458.065,1,1,0,0,0-.415.257,1.789,1.789,0,0,0-.36.551,4.566,4.566,0,0,0-.284.951l-.458,2.632h-1.552l1.049-5.811h1.409l-.283,1.179a7.708,7.708,0,0,1,.458-.656,2.2,2.2,0,0,1,.42-.415,1.324,1.324,0,0,1,.453-.212,2.329,2.329,0,0,1,.558-.06Z" transform="translate(187.227 -136.135)" fill="#131313"/>
      </g>
    </g>
  </g>
</svg>
