<svg id="Group_8576" data-name="Group 8576" xmlns="http://www.w3.org/2000/svg" xmlns:xlink="http://www.w3.org/1999/xlink" width="129" height="98" viewBox="0 0 129 98">
  <defs>
    <clipPath id="clip-path">
      <rect id="Rectangle_476" data-name="Rectangle 476" width="129" height="98" fill="#fff"/>
    </clipPath>
  </defs>
  <g id="Group_8478" data-name="Group 8478" clip-path="url(#clip-path)">
    <path id="Path_13588" data-name="Path 13588" d="M22.686,39.575c.408.021.79.03,1.145.03h.875a8.582,8.582,0,0,0,2.03-.239,5.733,5.733,0,0,0,1.76-.74,3.8,3.8,0,0,0,1.235-1.289,3.63,3.63,0,0,0,.463-1.87,3.945,3.945,0,0,0-.231-1.419,3.016,3.016,0,0,0-.633-1.019,2.921,2.921,0,0,0-.944-.66,4.778,4.778,0,0,0-1.146-.34v-.12a3.429,3.429,0,0,0,1.166-.489,3.059,3.059,0,0,0,.784-.76,2.861,2.861,0,0,0,.432-.95,4.265,4.265,0,0,0,.131-1.04,3.091,3.091,0,0,0-.443-1.719,3.055,3.055,0,0,0-1.176-1.06,5.519,5.519,0,0,0-1.669-.53,12.109,12.109,0,0,0-1.92-.15c-.388,0-.781.007-1.176.02s-.781.034-1.156.06-.728.06-1.056.1-.62.08-.874.12v13.8a8.866,8.866,0,0,0,1.156.18c.423.04.838.07,1.247.09m.251-11.988a6.181,6.181,0,0,1,.684-.058c.294-.014.617-.02.965-.02a4.771,4.771,0,0,1,.885.079,2.268,2.268,0,0,1,.754.277,1.507,1.507,0,0,1,.532.534,1.634,1.634,0,0,1,.2.851,1.567,1.567,0,0,1-.553,1.246,3.674,3.674,0,0,1-1.317.712,6.024,6.024,0,0,1-.614.059q-.372.02-.653.02h-.885Zm0,5.78H24.4a9.248,9.248,0,0,1,1.045.059,2.856,2.856,0,0,1,.945.268,1.618,1.618,0,0,1,.944,1.613,1.722,1.722,0,0,1-.221.89,1.925,1.925,0,0,1-.583.624,2.558,2.558,0,0,1-.834.367,3.985,3.985,0,0,1-.975.119c-.134,0-.291,0-.472-.009l-.523-.021c-.168-.006-.325-.016-.472-.029a1.286,1.286,0,0,1-.321-.059Z" transform="translate(0.953 1.04)" fill="#fff"/>
    <path id="Path_13589" data-name="Path 13589" d="M34.779,36.3H39.1l1.125,3.1h2.9l-5.066-14.1H36.025L30.959,39.4h2.755ZM36.508,31l.422-2.22h.1l.422,2.2L38.5,34.1H35.483Z" transform="translate(1.454 1.044)" fill="#fff"/>
    <path id="Path_13590" data-name="Path 13590" d="M46.964,34.587c.067.014.177.027.332.041s.312.023.472.029.315.01.463.01h.321a7.784,7.784,0,0,0,2.021-.26,4.955,4.955,0,0,0,1.739-.839,4.254,4.254,0,0,0,1.226-1.49A4.872,4.872,0,0,0,54,29.848a4.652,4.652,0,0,0-.533-2.369,3.962,3.962,0,0,0-1.377-1.42,5.268,5.268,0,0,0-1.9-.68,13.3,13.3,0,0,0-2.1-.17q-1.005,0-2.021.09t-1.859.251V39.406h2.755Zm0-6.918c.148-.027.341-.05.583-.07s.5-.03.764-.03a5.246,5.246,0,0,1,1.025.1,2.457,2.457,0,0,1,.894.36,1.955,1.955,0,0,1,.633.689,2.2,2.2,0,0,1,.242,1.09,2.715,2.715,0,0,1-.251,1.259,1.945,1.945,0,0,1-.673.751,2.69,2.69,0,0,1-.956.37,5.811,5.811,0,0,1-1.075.1H47.9c-.114,0-.231,0-.352-.01s-.235-.017-.342-.03a2,2,0,0,1-.241-.04Z" transform="translate(2.076 1.04)" fill="#fff"/>
    <path id="Path_13591" data-name="Path 13591" d="M58.428,34.587c.067.014.177.027.332.041s.312.023.472.029.315.01.463.01h.321a7.785,7.785,0,0,0,2.021-.26,4.955,4.955,0,0,0,1.739-.839A4.254,4.254,0,0,0,65,32.077a4.872,4.872,0,0,0,.463-2.229,4.652,4.652,0,0,0-.533-2.369,3.962,3.962,0,0,0-1.377-1.42,5.268,5.268,0,0,0-1.9-.68,13.3,13.3,0,0,0-2.1-.17q-1.005,0-2.021.09t-1.859.251V39.406h2.755Zm0-6.918c.148-.027.341-.05.583-.07s.5-.03.764-.03a5.246,5.246,0,0,1,1.025.1,2.457,2.457,0,0,1,.894.36,1.955,1.955,0,0,1,.633.689,2.2,2.2,0,0,1,.242,1.09,2.715,2.715,0,0,1-.251,1.259,1.944,1.944,0,0,1-.673.751,2.69,2.69,0,0,1-.956.37,5.811,5.811,0,0,1-1.075.1h-.251c-.114,0-.231,0-.352-.01s-.235-.017-.342-.03a2,2,0,0,1-.241-.04Z" transform="translate(2.615 1.04)" fill="#fff"/>
    <path id="Path_13592" data-name="Path 13592" d="M75.581,36.958H69.892v-3.42h5.086V31.1H69.892V27.841H75.48V25.4H67.137v14h8.444Z" transform="translate(3.153 1.048)" fill="#fff"/>
    <path id="Path_13593" data-name="Path 13593" d="M80.043,39.575c.408.021.79.03,1.145.03h.875a8.582,8.582,0,0,0,2.03-.239,5.733,5.733,0,0,0,1.76-.74,3.8,3.8,0,0,0,1.235-1.289,3.63,3.63,0,0,0,.463-1.87,3.945,3.945,0,0,0-.231-1.419,3.016,3.016,0,0,0-.633-1.019,2.921,2.921,0,0,0-.944-.66,4.778,4.778,0,0,0-1.146-.34v-.12a3.429,3.429,0,0,0,1.166-.489,3.059,3.059,0,0,0,.784-.76,2.861,2.861,0,0,0,.432-.95,4.265,4.265,0,0,0,.131-1.04,3.091,3.091,0,0,0-.443-1.719,3.055,3.055,0,0,0-1.176-1.06,5.519,5.519,0,0,0-1.669-.53,12.109,12.109,0,0,0-1.92-.15c-.388,0-.781.007-1.176.02s-.781.034-1.156.06-.728.06-1.056.1-.62.08-.874.12v13.8a8.866,8.866,0,0,0,1.156.18c.423.04.838.07,1.247.09m.251-11.988a6.181,6.181,0,0,1,.684-.058c.294-.014.617-.02.965-.02a4.771,4.771,0,0,1,.885.079,2.268,2.268,0,0,1,.754.277,1.507,1.507,0,0,1,.532.534,1.634,1.634,0,0,1,.2.851,1.567,1.567,0,0,1-.553,1.246,3.674,3.674,0,0,1-1.317.712,6.025,6.025,0,0,1-.614.059q-.372.02-.653.02h-.885Zm0,5.78h1.468a9.248,9.248,0,0,1,1.045.059,2.856,2.856,0,0,1,.945.268,1.618,1.618,0,0,1,.944,1.613,1.721,1.721,0,0,1-.221.89,1.925,1.925,0,0,1-.583.624,2.558,2.558,0,0,1-.834.367,3.985,3.985,0,0,1-.975.119c-.134,0-.291,0-.472-.009l-.523-.021c-.168-.006-.325-.016-.472-.029a1.286,1.286,0,0,1-.321-.059Z" transform="translate(3.647 1.04)" fill="#fff"/>
    <path id="Path_13594" data-name="Path 13594" d="M92.074,39.4h2.755V27.841h4.1V25.4H87.952v2.44h4.122Z" transform="translate(4.131 1.048)" fill="#fff"/>
    <rect id="Rectangle_473" data-name="Rectangle 473" width="2.755" height="13.997" transform="translate(105.272 26.449)" fill="#fff"/>
    <rect id="Rectangle_474" data-name="Rectangle 474" width="2.166" height="66.82" transform="translate(14.778 15.531)" fill="#fff"/>
    <rect id="Rectangle_475" data-name="Rectangle 475" width="2.166" height="66.82" transform="translate(112.256 15.531)" fill="#fff"/>
    <path id="Path_13595" data-name="Path 13595" d="M0,97.88H129.2V0H0Zm128.154-1.041H1.047V1.041H128.154Z" fill="#fff"/>
  </g>
</svg>
