<?xml version="1.0" encoding="utf-8"?>
<!-- Generator: Adobe Illustrator 27.1.1, SVG Export Plug-In . SVG Version: 6.00 Build 0)  -->
<svg version="1.1" id="Layer_1" xmlns="http://www.w3.org/2000/svg" xmlns:xlink="http://www.w3.org/1999/xlink" x="0px" y="0px"
	 viewBox="0 0 100 100" style="enable-background:new 0 0 100 100;" xml:space="preserve">
<style type="text/css">
	.st0{fill:none;}
	.st1{fill:#353535;}
</style>
<rect id="Rectangle_2358" class="st0" width="100" height="100"/>
<g id="Group_10418" transform="translate(427 771)">
	<path id="Path_15802" class="st1" d="M-345.6-728.9v41.8h-62.2v-41.2l30.3,22L-345.6-728.9z M-350.3-734.1l3,2.7l-2.9,2
		L-350.3-734.1z M-406-731.2l4.2-3.6v6.5L-406-731.2z M-399.7-726.9l0.1-20.1l47.5,0.1l0.2,18.9l-25.3,18.1L-399.7-726.9z
		 M-377.3-755.4l8.3,6.6l-16.6,0.1L-377.3-755.4z M-377.5-759l-12.1,10.2l-12.2,0.1l0,10.2l-9.2,7.8v46.8h68.3v-46.8l-7.5-6.1v-12
		H-365L-377.5-759z"/>
	<g id="Group_10417" transform="translate(0 0)">
		<g>
			<defs>
				<rect id="SVGID_1_" x="-411" y="-759" width="68.3" height="75.1"/>
			</defs>
			<clipPath id="SVGID_00000155827892178141712700000002190735909067099541_">
				<use xlink:href="#SVGID_1_"  style="overflow:visible;"/>
			</clipPath>
		</g>
	</g>
</g>
<g id="Group_10416">
	<g>
		<path class="st1" d="M64.3,34.7c-0.1,0.6-0.5,1-0.9,1.4c-4.3,4.3-8.6,8.5-12.8,12.8c-0.6,0.6-1.2,0.8-2,0.6
			c-0.3-0.1-0.6-0.3-0.8-0.5c-2.2-2.2-4.4-4.3-6.5-6.5c-0.9-0.9-0.8-2.1,0.2-2.9c0.7-0.6,1.8-0.5,2.5,0.3c1.7,1.7,3.4,3.4,5,5
			c0.1,0.1,0.1,0.2,0.2,0.3c0.1-0.1,0.1-0.2,0.2-0.3c3.9-3.9,7.8-7.8,11.7-11.7c0.6-0.6,1.2-0.8,2-0.6c0.7,0.2,1.1,0.7,1.3,1.4
			c0,0.1,0,0.1,0,0.2C64.3,34.3,64.3,34.5,64.3,34.7z"/>
	</g>
</g>
</svg>
