<svg xmlns="http://www.w3.org/2000/svg" xmlns:xlink="http://www.w3.org/1999/xlink" width="100" height="100" viewBox="0 0 100 100">
  <defs>
    <clipPath id="clip-path">
      <rect id="Rectangle_2362" data-name="Rectangle 2362" width="72.803" height="67.098" fill="none"/>
    </clipPath>
  </defs>
  <g id="Group_10431" data-name="Group 10431" transform="translate(-768 -759)">
    <rect id="Rectangle_2361" data-name="Rectangle 2361" width="100" height="100" transform="translate(768 759)" fill="none"/>
    <g id="Group_10422" data-name="Group 10422" transform="translate(781.599 775)">
      <g id="Group_10421" data-name="Group 10421" clip-path="url(#clip-path)">
        <path id="Path_15808" data-name="Path 15808" d="M76.051,62.922c2.818,2.786,3.59,6.612,1.712,8.5s-5.718,1.156-8.536-1.631L63.062,63.7c-2.818-2.787-3.589-6.612-1.712-8.5s5.719-1.155,8.537,1.631Z" transform="translate(-5.987 -5.374)" fill="#353535"/>
        <path id="Path_15809" data-name="Path 15809" d="M68.359,59.008,65.2,62.185l-11.8-11.678,3.158-3.179Z" transform="translate(-5.3 -4.697)" fill="#353535"/>
        <path id="Path_15810" data-name="Path 15810" d="M24.877,18.855A18.1,18.1,0,0,1,46.335,15.7l2.524-4.854A23.5,23.5,0,0,0,21,15a22.58,22.58,0,0,0-5.624,9.114l5.183,1.749s2.292-4.966,4.322-7.009" transform="translate(-1.526 -0.797)" fill="#353535"/>
        <path id="Path_15811" data-name="Path 15811" d="M51.775,21.2A18.09,18.09,0,0,1,24.826,45.245,19.541,19.541,0,0,1,19.5,32.469c-1.713-.761-5.289-1.992-5.4-2.071a23.558,23.558,0,1,0,40.5-14.256Z" transform="translate(-1.391 -1.602)" fill="#353535"/>
        <path id="Path_15812" data-name="Path 15812" d="M21.053,31.3c-4.519-1.72-8.872-3.641-13.392-5.361C4.145,36.071,5.69,32.6,2.173,42.734q-.335.969-.673,1.938" transform="translate(-0.149 -2.574)" fill="none" stroke="#f9a900" stroke-linecap="round" stroke-width="3"/>
        <path id="Path_15813" data-name="Path 15813" d="M57.964,2.5c-6,10.36-11.63,21.612-17.881,32.864-6.251-1.875-16.877-6.388-16.877-6.388" transform="translate(-2.303 -0.248)" fill="none" stroke="#f9a900" stroke-linecap="round" stroke-width="5"/>
        <path id="Path_15814" data-name="Path 15814" d="M12.488,25.421a3.962,3.962,0,1,1-3.962-3.96,3.962,3.962,0,0,1,3.962,3.96" transform="translate(-0.453 -2.13)" fill="#f9a900"/>
        <path id="Path_15815" data-name="Path 15815" d="M46.911,38.323A6.013,6.013,0,1,1,40.9,32.31a6.011,6.011,0,0,1,6.009,6.013" transform="translate(-3.462 -3.207)" fill="#f9a900"/>
      </g>
    </g>
  </g>
</svg>
