<svg width="24" height="24" viewBox="0 0 24 24" fill="none" xmlns="http://www.w3.org/2000/svg">
<path d="M14.8847 5.42817C15.7967 5.6061 16.6348 6.05212 17.2918 6.70915C17.9488 7.36617 18.3949 8.20431 18.5728 9.11629M14.8847 1.69336C16.7794 1.90385 18.5463 2.75234 19.8951 4.09952C21.244 5.44669 22.0947 7.21248 22.3076 9.10696M21.3739 16.5579V19.359C21.375 19.619 21.3217 19.8764 21.2175 20.1147C21.1133 20.353 20.9606 20.5668 20.7689 20.7426C20.5773 20.9184 20.3511 21.0523 20.1048 21.1356C19.8584 21.2189 19.5974 21.2498 19.3384 21.2264C16.4653 20.9142 13.7054 19.9324 11.2806 18.3599C9.02459 16.9264 7.11191 15.0137 5.67837 12.7577C4.10039 10.3219 3.11838 7.5486 2.8119 4.66253C2.78857 4.40433 2.81925 4.1441 2.902 3.89841C2.98475 3.65272 3.11775 3.42695 3.29254 3.23548C3.46732 3.04401 3.68006 2.89103 3.91721 2.78628C4.15436 2.68153 4.41072 2.62731 4.66997 2.62706H7.47107C7.92421 2.6226 8.3635 2.78306 8.70707 3.07854C9.05065 3.37401 9.27506 3.78434 9.33848 4.23303C9.45671 5.12945 9.67597 6.00961 9.99207 6.85673C10.1177 7.19093 10.1449 7.55413 10.0704 7.9033C9.99595 8.25247 9.82294 8.57298 9.5719 8.82685L8.3861 10.0126C9.71528 12.3502 11.6508 14.2857 13.9883 15.6149L15.1741 14.4291C15.428 14.178 15.7485 14.005 16.0977 13.9305C16.4468 13.8561 16.81 13.8833 17.1442 14.0089C17.9914 14.325 18.8715 14.5443 19.7679 14.6625C20.2215 14.7265 20.6357 14.9549 20.9318 15.3044C21.2279 15.6539 21.3853 16.1 21.3739 16.5579Z" stroke="black" stroke-width="1.6" stroke-linecap="round" stroke-linejoin="round"/>
</svg>
