<svg width="24" height="24" viewBox="0 0 24 24" fill="none" xmlns="http://www.w3.org/2000/svg">
<path fill-rule="evenodd" clip-rule="evenodd" d="M2.86051 5.62504C3.01928 5.14762 3.47224 4.79922 4.00002 4.79922H20C20.5278 4.79922 20.9808 5.14762 21.1395 5.62504L12 12.0227L2.86051 5.62504ZM1.20005 5.98584C1.19993 5.99357 1.19992 6.0013 1.20002 6.00902V17.9992C1.20002 19.541 2.45819 20.7992 4.00002 20.7992H20C21.5418 20.7992 22.8 19.541 22.8 17.9992V6.00908M21.2 7.53574V17.9992C21.2 18.6574 20.6582 19.1992 20 19.1992H4.00002C3.34185 19.1992 2.80002 18.6574 2.80002 17.9992V7.53574L11.5413 13.6546C11.8167 13.8474 12.1833 13.8474 12.4588 13.6546L21.2 7.53574ZM22.8 5.98576C22.7927 4.45008 21.5374 3.19922 20 3.19922H4.00002C2.46265 3.19922 1.2073 4.45012 1.20005 5.98584" fill="black"/>
</svg>
