<svg xmlns="http://www.w3.org/2000/svg" xmlns:xlink="http://www.w3.org/1999/xlink" width="90" height="90" viewBox="0 0 90 90">
  <defs>
    <clipPath id="clip-path">
      <rect id="Rectangle_2069" data-name="Rectangle 2069" width="46.62" height="19.643" transform="translate(0 0)" fill="none"/>
    </clipPath>
  </defs>
  <g id="Group_9947" data-name="Group 9947" transform="translate(-8133 16322)">
    <rect id="Rectangle_2034" data-name="Rectangle 2034" width="90" height="90" rx="4" transform="translate(8133 -16322)" fill="#131313"/>
    <g id="Group_10020" data-name="Group 10020" transform="translate(8154.69 -16286.821)">
      <g id="Group_10019" data-name="Group 10019" clip-path="url(#clip-path)">
        <path id="Path_15342" data-name="Path 15342" d="M3.5,14.1a3.325,3.325,0,0,0,2.322-.736,2.6,2.6,0,0,0,.806-2.024,2.282,2.282,0,0,0-.943-2.025A4.76,4.76,0,0,0,2.99,8.672l-1.817.069V.323H9.085V3.129H3.749v3.1l.942-.092a6.087,6.087,0,0,1,2.036.414A4.561,4.561,0,0,1,8.28,7.579a4.411,4.411,0,0,1,.988,1.587,5.939,5.939,0,0,1,.346,2.082,5.825,5.825,0,0,1-.461,2.391,4.745,4.745,0,0,1-1.276,1.727A5.46,5.46,0,0,1,5.957,16.4a8.063,8.063,0,0,1-2.415.346,10.787,10.787,0,0,1-1.967-.172A6.589,6.589,0,0,1,0,16.1l.805-2.482a5.758,5.758,0,0,0,1.161.355A7.952,7.952,0,0,0,3.5,14.1" fill="#fff"/>
        <path id="Path_15343" data-name="Path 15343" d="M19.136.047,21.39,1.059,13.179,19.643l-2.254-1.059Z" fill="#fff"/>
        <path id="Path_15344" data-name="Path 15344" d="M31.785,4.256a7.029,7.029,0,0,1-.426,2.369,14.572,14.572,0,0,1-1.081,2.346A22.209,22.209,0,0,1,28.83,11.19q-.793,1.068-1.553,1.966l-1.219.944v.115l1.656-.322H32.13v2.529H22.447V14.881q.552-.574,1.242-1.346T25.081,11.9q.7-.861,1.368-1.781a20.053,20.053,0,0,0,1.2-1.851,11.331,11.331,0,0,0,.839-1.807A4.951,4.951,0,0,0,28.8,4.807a2.266,2.266,0,0,0-.54-1.553,2.19,2.19,0,0,0-1.714-.609,4.016,4.016,0,0,0-1.507.31,4.273,4.273,0,0,0-1.3.8l-1.2-2.117A7.554,7.554,0,0,1,24.574.449,7.316,7.316,0,0,1,27.254,0a5.718,5.718,0,0,1,1.817.276,4.076,4.076,0,0,1,1.426.806A3.712,3.712,0,0,1,31.44,2.4a4.619,4.619,0,0,1,.345,1.852" fill="#fff"/>
        <path id="Path_15345" data-name="Path 15345" d="M46.62,11.937H44.09v4.484H41.307V11.937H34.338v-1.7L41.629.207H44.09V9.545h2.53ZM41.307,6.025l.207-1.932h-.092L40.64,5.75l-2.392,3.1-1.15.873,1.473-.183h2.736Z" fill="#fff"/>
      </g>
    </g>
  </g>
</svg>
