<svg xmlns="http://www.w3.org/2000/svg" xmlns:xlink="http://www.w3.org/1999/xlink" width="90" height="90" viewBox="0 0 90 90">
  <defs>
    <clipPath id="clip-path">
      <rect id="Rectangle_2041" data-name="Rectangle 2041" width="74.324" height="14.988" fill="rgba(0,0,0,0)"/>
    </clipPath>
  </defs>
  <g id="Group_9948" data-name="Group 9948" transform="translate(-8256 16322)">
    <rect id="Rectangle_2035" data-name="Rectangle 2035" width="90" height="90" rx="4" transform="translate(8256 -16322)" fill="#131313"/>
    <g id="Group_9941" data-name="Group 9941" transform="translate(8264 -16284)">
      <g id="Group_9940" data-name="Group 9940" transform="translate(0 0)" clip-path="url(#clip-path)">
        <path id="Path_15263" data-name="Path 15263" d="M78.143,9.646a1.238,1.238,0,0,0-.941-.366c-1.02.018-2.041.01-3.062,0-.459,0-.851.069-.911.63a13.063,13.063,0,0,0,.023,2.717,30.378,30.378,0,0,0,3.534,3.333,54.224,54.224,0,0,0,6.317,0c1.045-.37.737-.963.19-1.487-1.7-1.626-3.438-3.214-5.149-4.829" transform="translate(-9.471 -1.201)" fill="#fff"/>
        <path id="Path_15264" data-name="Path 15264" d="M73.6,6.817a18.345,18.345,0,0,0,3.517.147,1.152,1.152,0,0,0,1.125-.605l5.1-4.7a.871.871,0,0,0,.382-.909A.89.89,0,0,0,82.81.159c-.843-.046-1.7.051-2.525-.063a6.194,6.194,0,0,0-5.933,2.239c-.8.9-1.391,1.678-1.178,2.9.093.541-.309,1.219.429,1.587" transform="translate(-9.466 0)" fill="#fff"/>
        <path id="Path_15265" data-name="Path 15265" d="M66.235,6.822a12.464,12.464,0,0,0,4.021.026.485.485,0,0,0,.494-.476.394.394,0,0,0,0-.064,11.383,11.383,0,0,0-.1-2.842L67.467.427a.906.906,0,0,0-.648-.3C64.96.142,63.1.142,61.242.182A.908.908,0,0,0,60.284.7a.918.918,0,0,0,.386,1.01q2.778,2.557,5.563,5.106" transform="translate(-7.799 -0.016)" fill="#fff"/>
        <path id="Path_15266" data-name="Path 15266" d="M60.533,15.764c.871.565,1.847.135,2.761.283a6.661,6.661,0,0,0,6.718-2.584,4.124,4.124,0,0,0,.482-4,15.627,15.627,0,0,0-4.154-.147c-.174,0-.368.192-.522.333-1.722,1.6-3.445,3.195-5.149,4.813-.379.36-.774.795-.14,1.3" transform="translate(-7.792 -1.197)" fill="#fff"/>
        <path id="Path_15267" data-name="Path 15267" d="M35.1,3.879h0c.272.555.789.355,1.213.357,4.282.014,8.565.032,12.847-.013.851-.01,1.073.25,1.039,1.062-.062,1.5-.04,3.011-.007,4.516.014.6-.1.871-.8.864q-3.788-.059-7.581,0c-.688.01-.827-.25-.8-.86.042-.978,0-1.96.011-2.94a.885.885,0,0,0-.735-1.014.905.905,0,0,0-.212-.008,31.16,31.16,0,0,0-4.614.087c-.609.1-.621.552-.62,1.026q.007,3.347,0,6.695c0,.508.038.982.64,1.15q8.724.022,17.448.05a1.727,1.727,0,0,0,1.124-.481c.011,0,.022-.008.033-.022a3.625,3.625,0,0,0,1.887-2.51l.01-.075a.929.929,0,0,0,.193-.687q-.012-3.914-.037-7.828A3.962,3.962,0,0,0,52.377.122L35.847.08c-.421,0-.906.122-.92.522A6.855,6.855,0,0,0,35.1,3.879" transform="translate(-4.506 -0.01)" fill="#fff"/>
        <path id="Path_15268" data-name="Path 15268" d="M9.576,13.159h0l.4.583a3.156,3.156,0,0,0,2.649,1.132c4.708-.011,9.417,0,14.126-.008.945,0,1.89-.05,2.835-.077.461-.125.415-.5.416-.848v-1.89c0-1.48-.154-1.639-1.609-1.639-4.212,0-8.424-.023-12.636.018-.8.008-1.007-.207-.98-.989.06-1.714.015-3.431.013-5.146.383-.024.766-.067,1.15-.067,4.1-.006,8.209,0,12.314-.01a2.1,2.1,0,0,0,1.132-.108c.551-.069.642-.467.648-.916.007-.6-.03-1.194.01-1.787C30.105.4,29.651.058,28.66.062c-5.449.022-10.9,0-16.345-.014A3.268,3.268,0,0,0,10.79.325C9.2,1.016,8.825,2.439,8.774,3.934c-.08,2.3-.064,4.607,0,6.908a2.588,2.588,0,0,0,.8,2.316" transform="translate(-1.129 -0.006)" fill="#fff"/>
        <path id="Path_15269" data-name="Path 15269" d="M.9,14.847c1.578-.036,3.157-.042,4.736-.06a.833.833,0,0,0,.645-.941q.01-6.4,0-12.8c0-.674-.334-1.015-1.05-1C3.83.069,2.425.056,1.023.052.556.049.187.158.114.7-.1,5.137.058,9.582.037,14.025a.746.746,0,0,0,.863.823" transform="translate(0 -0.006)" fill="#fff"/>
      </g>
    </g>
  </g>
</svg>
