<svg xmlns="http://www.w3.org/2000/svg" xmlns:xlink="http://www.w3.org/1999/xlink" width="90" height="90" viewBox="0 0 90 90">
  <defs>
    <clipPath id="clip-path">
      <rect id="Rectangle_2070" data-name="Rectangle 2070" width="51.221" height="16.744" transform="translate(0 0)" fill="none"/>
    </clipPath>
  </defs>
  <g id="Group_9951" data-name="Group 9951" transform="translate(-8588 16322)">
    <rect id="Rectangle_2037" data-name="Rectangle 2037" width="90" height="90" rx="4" transform="translate(8588 -16322)" fill="#131313"/>
    <g id="Group_10023" data-name="Group 10023" transform="translate(8607.39 -16285.372)">
      <path id="Path_15346" data-name="Path 15346" d="M3.727,3.519V7.406H0V9.935H3.727v3.934h2.69V9.935h3.749V7.406H6.417V3.519Z" fill="#fff"/>
      <g id="Group_10022" data-name="Group 10022">
        <g id="Group_10021" data-name="Group 10021" clip-path="url(#clip-path)">
          <path id="Path_15347" data-name="Path 15347" d="M16.675,14.215a2.918,2.918,0,0,0,2.174-.76,2.526,2.526,0,0,0,.747-1.84,2.32,2.32,0,0,0-.781-1.931,3.951,3.951,0,0,0-2.461-.621H14.7V7.475L17.481,3.68l1.31-1.035-1.817.207H13.111V.322H21.9V1.955L18.654,6.3l-1.013.621v.115l.967-.138a5.144,5.144,0,0,1,1.529.367,3.728,3.728,0,0,1,1.265.863,4.169,4.169,0,0,1,.862,1.391,5.24,5.24,0,0,1,.322,1.91,5.644,5.644,0,0,1-.448,2.346A4.63,4.63,0,0,1,20.9,15.434a5.2,5.2,0,0,1-1.852.988,7.769,7.769,0,0,1-2.277.322,12.431,12.431,0,0,1-2.093-.183,6.042,6.042,0,0,1-1.748-.53l.806-2.484a6.4,6.4,0,0,0,2.943.668" fill="#fff"/>
          <path id="Path_15348" data-name="Path 15348" d="M25.093,8.35q0-4.233,1.449-6.291A4.783,4.783,0,0,1,30.7,0,4.751,4.751,0,0,1,34.96,2.036q1.356,2.035,1.357,6.314,0,4.254-1.461,6.324a4.8,4.8,0,0,1-4.174,2.071,4.632,4.632,0,0,1-4.232-2.174A11.8,11.8,0,0,1,25.093,8.35m2.99,0a12.158,12.158,0,0,0,.609,4.336,2.1,2.1,0,0,0,4,.125,11.572,11.572,0,0,0,.633-4.461,12.17,12.17,0,0,0-.6-4.3,2.1,2.1,0,0,0-2.047-1.517,2.061,2.061,0,0,0-1.99,1.425,11.859,11.859,0,0,0-.609,4.393" fill="#fff"/>
          <path id="Path_15349" data-name="Path 15349" d="M42.572,9.545h-.828v6.877H38.593V.322h3.151V7.453l.736-.322L46.92.322h3.588L45.815,7.084l-1.242.875,1.288.9,5.359,7.566H47.334Z" fill="#fff"/>
        </g>
      </g>
    </g>
  </g>
</svg>
