<svg xmlns="http://www.w3.org/2000/svg" xmlns:xlink="http://www.w3.org/1999/xlink" width="90" height="90" viewBox="0 0 90 90">
  <defs>
    <clipPath id="clip-path">
      <rect id="Rectangle_2042" data-name="Rectangle 2042" width="48.365" height="24.609" transform="translate(0 0)" fill="rgba(0,0,0,0)"/>
    </clipPath>
  </defs>
  <g id="Group_9950" data-name="Group 9950" transform="translate(-8482 16322)">
    <rect id="Rectangle_2036" data-name="Rectangle 2036" width="90" height="90" rx="4" transform="translate(8482 -16322)" fill="#131313"/>
    <g id="Group_9943" data-name="Group 9943" transform="translate(8503 -16289)">
      <g id="Group_9942" data-name="Group 9942" clip-path="url(#clip-path)">
        <path id="Path_15270" data-name="Path 15270" d="M25.177,23.487a.735.735,0,0,0,.384-.268.824.824,0,0,0,.144-.5.673.673,0,0,0-.082-.346.572.572,0,0,0-.215-.216.923.923,0,0,0-.3-.112,1.912,1.912,0,0,0-.346-.032H24.6l-.185.011a1.546,1.546,0,0,0-.191.02l-.177.027v2.485h.488v-1.03l.257.047.57.983h.573l-.575-.958Zm-.437-.293h-.208v-.728a.53.53,0,0,1,.112-.015h.15a.424.424,0,0,1,.293.091.329.329,0,0,1,.1.253.369.369,0,0,1-.121.309.524.524,0,0,1-.327.094" fill="#fff"/>
        <path id="Path_15271" data-name="Path 15271" d="M12.917,22.029l-.9,2.528h.49L12.7,24h.772l.2.555h.517l-.9-2.528Zm-.1,1.578L13,23.048l.076-.4H13.1l.076.395.188.56Z" fill="#fff"/>
        <path id="Path_15272" data-name="Path 15272" d="M6.738,22.029l-.9,2.528h.49L6.519,24h.772l.2.555h.517l-.9-2.528Zm-.1,1.578.186-.559.076-.4h.017l.076.395.188.56Z" fill="#fff"/>
        <path id="Path_15273" data-name="Path 15273" d="M9.445,23.487a.735.735,0,0,0,.384-.268.824.824,0,0,0,.144-.5.673.673,0,0,0-.082-.346.572.572,0,0,0-.215-.216.922.922,0,0,0-.3-.112,1.912,1.912,0,0,0-.346-.032H8.865l-.185.011a1.546,1.546,0,0,0-.191.02l-.177.027v2.485H8.8v-1.03l.257.047.57.983H10.2L9.624,23.6Zm-.437-.293H8.8v-.728a.53.53,0,0,1,.112-.015h.15a.424.424,0,0,1,.293.091.325.325,0,0,1,.1.253.369.369,0,0,1-.121.309.524.524,0,0,1-.327.094" fill="#fff"/>
        <path id="Path_15274" data-name="Path 15274" d="M2.273,22.029l-.9,2.528h.49L2.054,24h.772l.2.555h.517l-.9-2.528Zm-.1,1.578.186-.559.076-.4h.012l.08.4.188.56Z" fill="#fff"/>
        <path id="Path_15275" data-name="Path 15275" d="M40.568,22.029l-.9,2.528h.49L40.349,24h.772l.2.555h.517l-.9-2.528Zm-.1,1.578.186-.559.076-.4h.017l.076.395.188.56Z" fill="#fff"/>
        <path id="Path_15276" data-name="Path 15276" d="M27.741,9.275a6.624,6.624,0,0,0,.62-3.01,6.319,6.319,0,0,0-.714-3.2A5.325,5.325,0,0,0,25.8,1.148,7.021,7.021,0,0,0,23.244.23,17.657,17.657,0,0,0,20.423,0q-1.35,0-2.714.121t-2.5.337V19.171h3.7V12.665a4.21,4.21,0,0,0,.448.053c.2.018.416.032.632.041s.424.014.622.014h.431a10.416,10.416,0,0,0,2.715-.351,6.644,6.644,0,0,0,2.334-1.135,5.746,5.746,0,0,0,1.65-2.012m-3.6-1.363a2.607,2.607,0,0,1-.906,1.012,3.579,3.579,0,0,1-1.283.5,7.779,7.779,0,0,1-1.445.135h-.336c-.153,0-.31-.005-.472-.014s-.315-.023-.46-.041a2.958,2.958,0,0,1-.324-.054V3.322c.2-.036.46-.068.784-.1s.666-.041,1.026-.041a6.921,6.921,0,0,1,1.377.136,3.292,3.292,0,0,1,1.2.486,2.657,2.657,0,0,1,.85.932,2.986,2.986,0,0,1,.325,1.47,3.7,3.7,0,0,1-.337,1.7" fill="#fff"/>
        <path id="Path_15277" data-name="Path 15277" d="M6.576,19.5a4.547,4.547,0,0,0,2.106-.446A4.055,4.055,0,0,0,10.1,17.861a4.749,4.749,0,0,0,.8-1.714,8.453,8.453,0,0,0,.244-2.053V.272h-3.7v12.88a6.5,6.5,0,0,1-.31,2.215,1.361,1.361,0,0,1-1.445.837,3.5,3.5,0,0,1-1.593-.351l-.81,3.019a6.967,6.967,0,0,0,1.593.46,9.9,9.9,0,0,0,1.7.162" fill="#fff"/>
        <path id="Path_15278" data-name="Path 15278" d="M.552,23.754a.884.884,0,0,1-.041.293.181.181,0,0,1-.192.112.459.459,0,0,1-.212-.047l-.107.4a.971.971,0,0,0,.212.061,1.416,1.416,0,0,0,.225.021.6.6,0,0,0,.28-.059.542.542,0,0,0,.189-.157.638.638,0,0,0,.1-.228,1.039,1.039,0,0,0,.033-.272V22.046H.547Z" fill="#fff"/>
        <path id="Path_15279" data-name="Path 15279" d="M4.777,23.237l.194-.136L5.7,22.047h-.56L4.45,23.109l-.115.05V22.046h-.49v2.508h.49V23.485h.13l.741,1.069h.607l-.835-1.18Z" fill="#fff"/>
        <path id="Path_15280" data-name="Path 15280" d="M12.163,22.046H10.206v.437h.736v2.071h.49v-2.07h.732Z" fill="#fff"/>
        <path id="Path_15281" data-name="Path 15281" d="M15.327,24.554h.492V23.541h.918V23.1h-.919v-.62h1v-.437H15.327Z" fill="#fff"/>
        <path id="Path_15282" data-name="Path 15282" d="M18.6,23.631a.65.65,0,0,1-.1.4.4.4,0,0,1-.327.126.675.675,0,0,1-.2-.027.343.343,0,0,1-.144-.089.4.4,0,0,1-.083-.165.958.958,0,0,1-.027-.25V22.046h-.5v1.682q0,.871.955.871a1.168,1.168,0,0,0,.362-.054.67.67,0,0,0,.28-.168.8.8,0,0,0,.18-.29,1.244,1.244,0,0,0,.064-.419V22.046H18.6Z" fill="#fff"/>
        <path id="Path_15283" data-name="Path 15283" d="M19.4,22.484h.735v2.07h.492v-2.07h.732v-.437H19.4Z" fill="#fff"/>
        <path id="Path_15284" data-name="Path 15284" d="M23.065,23.631a.65.65,0,0,1-.1.4.4.4,0,0,1-.327.126.675.675,0,0,1-.2-.027.343.343,0,0,1-.144-.089.4.4,0,0,1-.083-.165.958.958,0,0,1-.027-.25V22.046h-.492v1.682q0,.871.955.871a1.168,1.168,0,0,0,.362-.054.67.67,0,0,0,.28-.168.8.8,0,0,0,.18-.29,1.244,1.244,0,0,0,.064-.419V22.046h-.468Z" fill="#fff"/>
        <path id="Path_15285" data-name="Path 15285" d="M26.78,23.506h.908v-.437H26.78v-.585h1v-.437H26.289v2.507h1.505v-.439H26.78Z" fill="#fff"/>
        <path id="Path_15286" data-name="Path 15286" d="M29.529,23.268a1.488,1.488,0,0,0-.278-.156c-.1-.044-.191-.085-.275-.126a.921.921,0,0,1-.21-.133.229.229,0,0,1,.007-.362.435.435,0,0,1,.263-.068,1.339,1.339,0,0,1,.339.041.887.887,0,0,1,.239.091l.153-.411a1.027,1.027,0,0,0-.319-.107A2.1,2.1,0,0,0,29.037,22a1.259,1.259,0,0,0-.345.042.757.757,0,0,0-.268.133.582.582,0,0,0-.172.224.74.74,0,0,0-.062.318.671.671,0,0,0,.083.348.791.791,0,0,0,.212.227,1.341,1.341,0,0,0,.277.154c.1.042.192.083.277.123a.909.909,0,0,1,.21.13.237.237,0,0,1,.085.186.251.251,0,0,1-.115.225.647.647,0,0,1-.337.073,1.212,1.212,0,0,1-.18-.014,1.365,1.365,0,0,1-.166-.036,1.027,1.027,0,0,1-.142-.047.7.7,0,0,1-.1-.047l-.157.421a1.448,1.448,0,0,0,.3.1,2.033,2.033,0,0,0,.473.05,1.473,1.473,0,0,0,.374-.045.823.823,0,0,0,.292-.144.689.689,0,0,0,.186-.242.807.807,0,0,0,.068-.346.637.637,0,0,0-.085-.336.826.826,0,0,0-.212-.225" fill="#fff"/>
        <path id="Path_15287" data-name="Path 15287" d="M31.728,23.506h.908v-.437h-.908v-.585h1v-.437H31.237v2.507h1.507v-.439H31.728Z" fill="#fff"/>
        <path id="Path_15288" data-name="Path 15288" d="M35.175,22.046h-.534l-.405.725-.083.254-.078-.254-.387-.725h-.593l.7,1.233-.776,1.275h.534L34,23.779l.094-.265.1.265.44.775h.585l-.761-1.3Z" fill="#fff"/>
        <path id="Path_15289" data-name="Path 15289" d="M36.766,24.137a1,1,0,0,1-.272.032.69.69,0,0,1-.3-.062.608.608,0,0,1-.219-.177.771.771,0,0,1-.133-.273A1.411,1.411,0,0,1,35.8,23.3a1,1,0,0,1,.182-.658.6.6,0,0,1,.478-.212,1.793,1.793,0,0,1,.274.018.694.694,0,0,1,.2.057l.1-.416a1.238,1.238,0,0,0-.247-.068A1.919,1.919,0,0,0,36.424,22a1.239,1.239,0,0,0-.4.067.956.956,0,0,0-.363.218,1.136,1.136,0,0,0-.266.4,1.632,1.632,0,0,0-.1.619,1.77,1.77,0,0,0,.091.6,1.106,1.106,0,0,0,.247.405.9.9,0,0,0,.355.225,1.285,1.285,0,0,0,.43.071,1.839,1.839,0,0,0,.363-.036.753.753,0,0,0,.292-.118l-.1-.4a.724.724,0,0,1-.194.083" fill="#fff"/>
        <path id="Path_15290" data-name="Path 15290" d="M45.081,19.172l-5.724-9.8,5.455-9.1H40.788L37.737,5.724l-.622,1.917-.647-1.917L33.551.272H29.1l5.266,9.29-5.806,9.61H32.58l3.348-5.832.7-2,.729,2,3.324,5.832Z" fill="#fff"/>
        <path id="Path_15291" data-name="Path 15291" d="M38.864,23.069h-.918V22.046h-.492v2.508h.492V23.506h.918v1.048h.492V22.046h-.492Z" fill="#fff"/>
        <path id="Path_15292" data-name="Path 15292" d="M43.6,23.366l.057.384h-.018l-.191-.384-.95-1.337h-.359v2.528H42.6V23.248l-.057-.4h.02l.2.4.942,1.327h.358V22.048H43.6Z" fill="#fff"/>
        <path id="Path_15293" data-name="Path 15293" d="M45.468,23.545l.542.057v.473a.425.425,0,0,1-.151.07.744.744,0,0,1-.182.023.647.647,0,0,1-.257-.05.541.541,0,0,1-.21-.156.758.758,0,0,1-.139-.269,1.555,1.555,0,0,1,0-.79.724.724,0,0,1,.147-.271.558.558,0,0,1,.224-.153.83.83,0,0,1,.284-.047,1.788,1.788,0,0,1,.283.02,1.081,1.081,0,0,1,.2.056l.1-.413a2.114,2.114,0,0,0-.26-.068A2,2,0,0,0,45.671,22a1.332,1.332,0,0,0-.424.07,1.02,1.02,0,0,0-.374.227,1.121,1.121,0,0,0-.269.4,1.6,1.6,0,0,0-.1.605,1.806,1.806,0,0,0,.086.588,1.115,1.115,0,0,0,.238.407.917.917,0,0,0,.357.234,1.3,1.3,0,0,0,.446.076,1.6,1.6,0,0,0,.413-.057.969.969,0,0,0,.362-.183V23.247h-.938Z" fill="#fff"/>
        <path id="Path_15294" data-name="Path 15294" d="M47.348,24.119v-.613h.908v-.439h-.908v-.583h1v-.437H46.856v2.507h1.509v-.437Z" fill="#fff"/>
      </g>
    </g>
  </g>
</svg>
