<svg xmlns="http://www.w3.org/2000/svg" xmlns:xlink="http://www.w3.org/1999/xlink" width="90" height="90" viewBox="0 0 90 90">
  <defs>
    <clipPath id="clip-path">
      <rect id="Rectangle_2043" data-name="Rectangle 2043" width="42.328" height="42.246" fill="rgba(0,0,0,0)"/>
    </clipPath>
  </defs>
  <g id="Group_9949" data-name="Group 9949" transform="translate(-8374 16322)">
    <rect id="Rectangle_2039" data-name="Rectangle 2039" width="90" height="90" rx="4" transform="translate(8374 -16322)" fill="#131313"/>
    <g id="Group_9945" data-name="Group 9945" transform="translate(8398 -16298)">
      <g id="Group_9944" data-name="Group 9944" transform="translate(0 0)" clip-path="url(#clip-path)">
        <path id="Path_15295" data-name="Path 15295" d="M44.867,19.807a2.118,2.118,0,0,0-.036-.327,6.454,6.454,0,0,0-.695-1.719c-.546-.9-1.109-1.787-1.668-2.677-.494-.786-.992-1.57-1.485-2.356q-.962-1.532-1.921-3.066-.818-1.3-1.639-2.6-.759-1.208-1.518-2.414c-.435-.694-.866-1.389-1.3-2.081C34.246,2,33.929,1.413,33.534.881A1.855,1.855,0,0,0,31.867.01a3.974,3.974,0,0,1-.437,0,.879.879,0,0,0-.384.079,2.481,2.481,0,0,0-1.206,1.084c-.259.45-.545.883-.818,1.324-.55.89-1.109,1.767-1.664,2.651L25.875,7.507q-.754,1.2-1.512,2.4a.315.315,0,0,0,0,.368q.978,1.553,1.951,3.113c.141.226.167.228.312,0,.4-.632.794-1.268,1.192-1.9l1.666-2.65c.6-.954,1.195-1.911,1.8-2.862.311-.491.7-.479,1.012.017q.89,1.416,1.775,2.83.815,1.3,1.631,2.593,1.282,2.04,2.563,4.081c.836,1.334,1.672,2.66,2.486,4a2.943,2.943,0,0,1,.056,3.122c-.431.783-.919,1.532-1.4,2.287q-.682,1.077-1.359,2.154-.727,1.157-1.452,2.313l-1.5,2.381q-.58.922-1.156,1.845-.508.811-1.015,1.623c-.231.369-.456.743-.7,1.1a.5.5,0,0,1-.906-.012l-.013-.022q-.356-.57-.72-1.138c-.132-.209-.162-.207-.3.007-.632,1-1.26,2-1.9,3a.482.482,0,0,0,0,.584c.445.7.884,1.4,1.324,2.1a3.588,3.588,0,0,0,.6.8,1.572,1.572,0,0,0,.832.479c.061.008.124.031.111.117h1.032a1.4,1.4,0,0,1,.28-.117,1.9,1.9,0,0,0,.968-.745c.292-.425.552-.87.831-1.3.505-.786,1-1.581,1.493-2.371.534-.85,1.072-1.7,1.6-2.553.592-.95,1.195-1.893,1.785-2.846.382-.614.771-1.223,1.151-1.838.431-.7.874-1.388,1.308-2.082.615-.978,1.228-1.966,1.857-2.935a14.515,14.515,0,0,0,.8-1.381,5.806,5.806,0,0,0,.534-1.585,1.255,1.255,0,0,1,.111-.379V20.152a.421.421,0,0,1-.159-.342" transform="translate(-2.685 -0.001)" fill="#fff"/>
        <path id="Path_15296" data-name="Path 15296" d="M20.523,32.47a.493.493,0,0,0,0-.7c-.231-.356-.456-.721-.683-1.082l-1.018-1.621c-.1-.157-.2-.311-.315-.479l-.054.08-1.483,2.359L15.43,33.479c-.438.7-.87,1.4-1.313,2.09a6.382,6.382,0,0,1-.569.856.444.444,0,0,1-.726-.009,4.577,4.577,0,0,1-.411-.613c-.445-.7-.879-1.4-1.319-2.1q-.741-1.178-1.485-2.356-.829-1.32-1.655-2.639c-.428-.681-.859-1.362-1.287-2.046-.6-.962-1.208-1.922-1.807-2.886A12.134,12.134,0,0,1,4.1,22.493a3.158,3.158,0,0,1,.149-3.059c.527-.9,1.1-1.779,1.657-2.669s1.128-1.8,1.69-2.693l.97-1.541q.663-1.057,1.324-2.114l1.294-2.053c.4-.644.808-1.29,1.217-1.932a4.3,4.3,0,0,1,.436-.643.435.435,0,0,1,.682-.028,1.306,1.306,0,0,1,.173.216c.24.374.473.752.712,1.125.093.146.15.144.254,0,.016-.021.028-.044.043-.067.6-.95,1.187-1.9,1.787-2.846.278-.439.281-.431,0-.862-.406-.618-.8-1.245-1.171-1.882A3.357,3.357,0,0,0,14.289.27,1.291,1.291,0,0,0,13.452,0,5.617,5.617,0,0,1,12.8,0,.719.719,0,0,0,12.5.064a2.593,2.593,0,0,0-1.165.978c-.275.425-.538.857-.808,1.285Q9.862,3.393,9.2,4.45,8.39,5.737,7.586,7.024q-.829,1.317-1.66,2.634L4.614,11.745,3.145,14.08c-.545.868-1.092,1.735-1.633,2.606A13.235,13.235,0,0,0,.58,18.281,5.767,5.767,0,0,0,0,20.741a7.349,7.349,0,0,1,0,.767A4.505,4.505,0,0,0,.241,23.02a7.306,7.306,0,0,0,.946,1.994c.431.69.866,1.377,1.3,2.066Q3.15,28.137,3.812,29.2q.741,1.178,1.485,2.356.89,1.424,1.779,2.841Q7.8,35.549,8.53,36.705l1.657,2.637c.342.543.688,1.084,1.018,1.635a2.339,2.339,0,0,0,1.374,1.179c.043.012.089.031.071.089h1.032a.265.265,0,0,1,.172-.111,1.888,1.888,0,0,0,1.078-.784c.35-.527.681-1.067,1.018-1.6q.727-1.157,1.45-2.313.829-1.32,1.659-2.637c.487-.775.972-1.55,1.464-2.323" transform="translate(0 0)" fill="#fff"/>
        <path id="Path_15297" data-name="Path 15297" d="M30.274,34.153q.811-1.293,1.626-2.58l1.541-2.449q.941-1.5,1.88-3c.558-.89,1.116-1.783,1.664-2.682a2.331,2.331,0,0,0,.341-1.3,2.668,2.668,0,0,0-.348-1.236c-.294-.527-.613-1.039-.938-1.548-.429-.672-.861-1.341-1.286-2.016-.5-.793-.993-1.591-1.491-2.387-.438-.7-.879-1.393-1.317-2.089q-.594-.945-1.186-1.89c-.222-.356-.445-.706-.669-1.06-.032-.051-.037-.125-.117-.127s-.1.06-.132.112q-.989,1.578-1.979,3.157a.318.318,0,0,0,0,.379q.819,1.294,1.633,2.593c.545.869,1.086,1.742,1.63,2.611.589.94,1.183,1.877,1.77,2.819a1.258,1.258,0,0,1,.047,1.374c-.118.206-.248.406-.374.607q-.59.941-1.18,1.879c-.332.534-.661,1.061-.994,1.59q-.811,1.292-1.625,2.58-.735,1.169-1.469,2.339-.837,1.334-1.674,2.66-.93,1.474-1.868,2.947a.459.459,0,0,1-.769.084,2.914,2.914,0,0,1-.346-.5c-.178-.282-.356-.568-.534-.849-.089-.133-.135-.132-.219,0-.164.255-.323.514-.485.772q-.741,1.181-1.482,2.36a.342.342,0,0,0-.055.356c.076.139.163.271.246.406l1.059,1.69a4.192,4.192,0,0,0,.731,1,1.476,1.476,0,0,0,.8.438.179.179,0,0,1,.154.126h.978c.014-.1.1-.1.17-.121a1.934,1.934,0,0,0,1.12-.852c.583-.923,1.156-1.85,1.74-2.775q.829-1.32,1.66-2.638.874-1.393,1.746-2.788" transform="translate(-2.192 -1.082)" fill="#fff"/>
        <path id="Path_15298" data-name="Path 15298" d="M14.2,10.6l-1.6,2.548-1.076,1.711q-.631,1-1.266,2c-.356.558-.712,1.113-1.055,1.677a15.051,15.051,0,0,0-.883,1.485,2.492,2.492,0,0,0,.133,2.436c.381.644.784,1.276,1.18,1.911q.949,1.517,1.9,3.032.725,1.151,1.453,2.3.831,1.318,1.661,2.638c.213.339.43.677.632,1.022.113.191.154.2.282.011l.022-.033.6-.962q.667-1.075,1.348-2.149a.292.292,0,0,0,0-.344c-.3-.482-.6-.967-.9-1.447q-1.165-1.857-2.332-3.713-.89-1.408-1.779-2.814a1.356,1.356,0,0,1-.056-1.5c.127-.221.267-.434.406-.649q.65-1.027,1.3-2.053c.291-.462.575-.929.864-1.391q.586-.934,1.175-1.868.51-.81,1.017-1.622.658-1.046,1.317-2.09t1.3-2.081c.339-.541.675-1.083,1.015-1.623.248-.395.49-.794.753-1.18a.466.466,0,0,1,.84.011c.116.166.224.337.333.508.151.238.3.479.445.716.089.133.173.131.267,0,.012-.018.024-.037.036-.056l1.188-1.889c.232-.369.463-.738.7-1.106a.485.485,0,0,0-.013-.589c-.121-.173-.228-.356-.344-.534-.437-.661-.812-1.361-1.276-2a2.52,2.52,0,0,0-.876-.766,1.8,1.8,0,0,0-.9-.131h-.45a.3.3,0,0,0-.129.02,2.71,2.71,0,0,0-1.276,1.027c-.362.574-.712,1.156-1.067,1.73q-.735,1.184-1.476,2.363Q16.8,6.466,15.968,7.779q-.89,1.41-1.768,2.82" transform="translate(-0.89 0)" fill="#fff"/>
        <path id="Path_15299" data-name="Path 15299" d="M29.516,21.68c-.065-.1-.126-.211-.191-.316l-1.316-2.1-1.316-2.1q-.659-1.05-1.317-2.1-.738-1.173-1.477-2.344-.883-1.408-1.764-2.819c-.1-.157-.142-.155-.239,0-.033.052-.068.1-.1.154-.615.978-1.226,1.952-1.847,2.923a.459.459,0,0,0,0,.559c.5.777.991,1.558,1.483,2.34.641,1.02,1.278,2.046,1.92,3.064q.89,1.418,1.789,2.833a.739.739,0,0,1-.006.864c-.422.655-.834,1.315-1.252,1.971a.323.323,0,0,0,0,.381q.418.65.826,1.3c.382.612.761,1.226,1.146,1.837.1.162.161.163.267,0,.46-.729.916-1.46,1.375-2.19l1.945-3.093a1.036,1.036,0,0,0,.2-.647.806.806,0,0,0-.121-.514" transform="translate(-2.193 -1.081)" fill="#fff"/>
        <path id="Path_15300" data-name="Path 15300" d="M21.754,21.694c.223-.356.445-.706.67-1.061a.485.485,0,0,0,.1-.256.569.569,0,0,0-.123-.3c-.189-.3-.381-.592-.568-.89q-.667-1.067-1.339-2.135c-.111-.178-.17-.178-.279,0q-.551.878-1.1,1.757l-2.234,3.57a1.049,1.049,0,0,0-.008,1.193c.37.593.746,1.184,1.117,1.779q.757,1.208,1.512,2.418c.474.757.952,1.512,1.423,2.268q.676,1.079,1.35,2.16l1.311,2.092c.205.328.411.656.623.983.1.149.149.148.246,0,.068-.1.13-.209.2-.313l1.779-2.824a.354.354,0,0,0,0-.408q-.55-.87-1.1-1.743l-1.666-2.647q-.815-1.3-1.63-2.593l-.89-1.423a.583.583,0,0,1,0-.671c.2-.316.4-.632.6-.949" transform="translate(-1.844 -1.869)" fill="#fff"/>
      </g>
    </g>
  </g>
</svg>
