<?xml version="1.0" encoding="UTF-8"?><svg id="Layer_2" xmlns="http://www.w3.org/2000/svg" xmlns:xlink="http://www.w3.org/1999/xlink" viewBox="0 0 163.92 163.92"><defs><style>.cls-1{fill:none;}.cls-2{opacity:.05;}.cls-2,.cls-3,.cls-4,.cls-5,.cls-6,.cls-7,.cls-8,.cls-9,.cls-10,.cls-11,.cls-12,.cls-13,.cls-14,.cls-15,.cls-16,.cls-17,.cls-18,.cls-19,.cls-20,.cls-21,.cls-22,.cls-23,.cls-24{fill:#1d1d1b;}.cls-3{opacity:.02;}.cls-4{opacity:.12;}.cls-5{opacity:.07;}.cls-6{opacity:.1;}.cls-25{fill:url(#linear-gradient);}.cls-26{clip-path:url(#clippath);}.cls-27{fill:#fff;}.cls-28{fill:#094e98;}.cls-8{opacity:.14;}.cls-9{opacity:.21;}.cls-10{opacity:.19;}.cls-11{opacity:.17;}.cls-29{fill:url(#Brass_03);}.cls-30{fill:url(#linear-gradient-8);}.cls-31{fill:url(#linear-gradient-3);}.cls-32{fill:url(#linear-gradient-4);}.cls-33{fill:url(#linear-gradient-2);}.cls-34{fill:url(#linear-gradient-6);}.cls-35{fill:url(#linear-gradient-7);}.cls-36{fill:url(#linear-gradient-5);}.cls-37{fill:url(#Brass_03-2);}.cls-12{opacity:0;}.cls-13{opacity:.48;}.cls-14{opacity:.5;}.cls-15{opacity:.33;}.cls-16{opacity:.29;}.cls-17{opacity:.31;}.cls-18{opacity:.26;}.cls-19{opacity:.24;}.cls-20{opacity:.45;}.cls-21{opacity:.43;}.cls-22{opacity:.38;}.cls-23{opacity:.4;}.cls-24{opacity:.36;}</style><linearGradient id="linear-gradient" x1="23.75" y1="23.75" x2="139.98" y2="139.98" gradientTransform="translate(106.04 -31.42) rotate(56.99)" gradientUnits="userSpaceOnUse"><stop offset="0" stop-color="#ffe964"/><stop offset=".01" stop-color="#f6da5b"/><stop offset=".05" stop-color="#dcad42"/><stop offset=".09" stop-color="#c98d30"/><stop offset=".12" stop-color="#be7a25"/><stop offset=".14" stop-color="#ba7322"/><stop offset=".19" stop-color="#c6852f"/><stop offset=".29" stop-color="#e5b551"/><stop offset=".36" stop-color="#ffdc6d"/><stop offset=".45" stop-color="#ffffb5"/><stop offset=".56" stop-color="#fcfdf6"/><stop offset=".65" stop-color="#ffff9c"/><stop offset=".76" stop-color="#d5a13c"/><stop offset=".89" stop-color="#fddc53"/><stop offset=".91" stop-color="#f3cf4c"/><stop offset=".93" stop-color="#dbad3b"/><stop offset=".97" stop-color="#b47720"/><stop offset="1" stop-color="#8b3e04"/></linearGradient><linearGradient id="linear-gradient-2" x1="81.96" y1="2.7" x2="81.96" y2="162.22" gradientTransform="translate(149.87 -11.97) rotate(80.87)" gradientUnits="userSpaceOnUse"><stop offset="0" stop-color="#ba8b01"/><stop offset=".04" stop-color="#ccaa37"/><stop offset=".1" stop-color="#e7d786"/><stop offset=".14" stop-color="#f8f4b7"/><stop offset=".16" stop-color="#ffffcb"/><stop offset=".17" stop-color="#fcf9c0"/><stop offset=".21" stop-color="#f5e6a0"/><stop offset=".26" stop-color="#f0d888"/><stop offset=".3" stop-color="#edd07a"/><stop offset=".33" stop-color="#ecce76"/><stop offset=".48" stop-color="#a26f14"/><stop offset=".49" stop-color="#a67318"/><stop offset=".53" stop-color="#c19233"/><stop offset=".57" stop-color="#d4a847"/><stop offset=".61" stop-color="#e0b553"/><stop offset=".65" stop-color="#e4ba58"/><stop offset=".67" stop-color="#ecd07e"/><stop offset=".7" stop-color="#f4e4a0"/><stop offset=".72" stop-color="#faf3b9"/><stop offset=".74" stop-color="#fdfbc7"/><stop offset=".76" stop-color="#ffffcd"/><stop offset=".85" stop-color="#e5bd5d"/><stop offset="1" stop-color="#a26f14"/></linearGradient><linearGradient id="linear-gradient-3" x1="3.52" y1="81.98" x2="160.36" y2="81.98" gradientUnits="userSpaceOnUse"><stop offset="0" stop-color="#a26f14"/><stop offset=".02" stop-color="#ae822c"/><stop offset=".06" stop-color="#c6a85c"/><stop offset=".1" stop-color="#dbc784"/><stop offset=".15" stop-color="#eadfa3"/><stop offset=".19" stop-color="#f5f1b9"/><stop offset=".23" stop-color="#fcfbc6"/><stop offset=".26" stop-color="#ffffcb"/><stop offset=".3" stop-color="#f5e6a2"/><stop offset=".33" stop-color="#edd382"/><stop offset=".37" stop-color="#e8c56a"/><stop offset=".4" stop-color="#e5bc5c"/><stop offset=".42" stop-color="#e4ba58"/><stop offset=".45" stop-color="#ecd07e"/><stop offset=".49" stop-color="#f4e4a0"/><stop offset=".52" stop-color="#faf3b9"/><stop offset=".55" stop-color="#fdfbc7"/><stop offset=".57" stop-color="#ffffcd"/><stop offset=".73" stop-color="#e5bd5d"/><stop offset=".9" stop-color="#ffffcd"/><stop offset="1" stop-color="#a26f14"/></linearGradient><linearGradient id="linear-gradient-4" x1="81.97" y1="1.6" x2="81.97" y2="158.43" xlink:href="#linear-gradient-3"/><linearGradient id="linear-gradient-5" x1="12.54" y1="81.66" x2="151.38" y2="82.26" gradientTransform="translate(163.83 -.09) rotate(89.93)" xlink:href="#linear-gradient-2"/><linearGradient id="linear-gradient-6" x1="81.96" y1="14.42" x2="81.96" y2="150.11" gradientTransform="translate(9.91 -8.83) rotate(6.57)" gradientUnits="userSpaceOnUse"><stop offset="0" stop-color="#a26f14"/><stop offset=".01" stop-color="#ae822c"/><stop offset=".04" stop-color="#c6a85c"/><stop offset=".07" stop-color="#dbc784"/><stop offset=".1" stop-color="#eadfa3"/><stop offset=".13" stop-color="#f5f1b9"/><stop offset=".15" stop-color="#fcfbc6"/><stop offset=".18" stop-color="#ffffcb"/><stop offset=".19" stop-color="#f3eba9"/><stop offset=".21" stop-color="#e2ce76"/><stop offset=".24" stop-color="#d3b64c"/><stop offset=".26" stop-color="#c8a32b"/><stop offset=".28" stop-color="#c09513"/><stop offset=".3" stop-color="#bb8d05"/><stop offset=".32" stop-color="#ba8b01"/><stop offset=".34" stop-color="#c39513"/><stop offset=".39" stop-color="#daaf44"/><stop offset=".42" stop-color="#e4ba58"/><stop offset=".45" stop-color="#ecd07e"/><stop offset=".49" stop-color="#f4e4a0"/><stop offset=".52" stop-color="#faf3b9"/><stop offset=".55" stop-color="#fdfbc7"/><stop offset=".57" stop-color="#ffffcd"/><stop offset=".76" stop-color="#e5bd5d"/><stop offset=".83" stop-color="#ffffcd"/><stop offset="1" stop-color="#a26f14"/></linearGradient><linearGradient id="Brass_03" x1="130.77" y1="34.83" x2="130.77" y2="128.72" gradientUnits="userSpaceOnUse"><stop offset="0" stop-color="#ba8b01"/><stop offset=".04" stop-color="#ccaa37"/><stop offset=".11" stop-color="#e7d786"/><stop offset=".16" stop-color="#f8f4b7"/><stop offset=".18" stop-color="#ffffcb"/><stop offset=".3" stop-color="#ffffcb"/><stop offset=".31" stop-color="#fcf9c0"/><stop offset=".34" stop-color="#f5e6a0"/><stop offset=".37" stop-color="#f0d888"/><stop offset=".4" stop-color="#edd07a"/><stop offset=".43" stop-color="#ecce76"/><stop offset=".49" stop-color="#a26f14"/><stop offset=".61" stop-color="#a26f14"/><stop offset=".61" stop-color="#a67318"/><stop offset=".62" stop-color="#c19233"/><stop offset=".64" stop-color="#d4a847"/><stop offset=".66" stop-color="#e0b553"/><stop offset=".67" stop-color="#e4ba58"/><stop offset=".67" stop-color="#d9a94d"/><stop offset=".68" stop-color="#c38737"/><stop offset=".68" stop-color="#b36e27"/><stop offset=".68" stop-color="#a9601d"/><stop offset=".69" stop-color="#a65b1a"/><stop offset=".7" stop-color="#a96221"/><stop offset=".71" stop-color="#b47537"/><stop offset=".73" stop-color="#c6965a"/><stop offset=".75" stop-color="#dec28b"/><stop offset=".77" stop-color="#fdfbc9"/><stop offset=".77" stop-color="#ffffcd"/><stop offset=".8" stop-color="#ffffcd"/><stop offset=".85" stop-color="#e5bd5d"/><stop offset=".89" stop-color="#bb913b"/><stop offset=".91" stop-color="#bb913b"/><stop offset=".91" stop-color="#be9337"/><stop offset=".93" stop-color="#c3972f"/><stop offset=".95" stop-color="#c5992e"/><stop offset="1" stop-color="#7f470a"/></linearGradient><linearGradient id="Brass_03-2" x1="33.11" x2="33.11" xlink:href="#Brass_03"/><linearGradient id="linear-gradient-7" x1="33.83" y1="44.57" x2="130.09" y2="44.57" gradientUnits="userSpaceOnUse"><stop offset="0" stop-color="#a26f14"/><stop offset="0" stop-color="#a67318"/><stop offset=".05" stop-color="#c19233"/><stop offset=".09" stop-color="#d4a847"/><stop offset=".13" stop-color="#e0b553"/><stop offset=".16" stop-color="#e4ba58"/><stop offset=".24" stop-color="#eccf7c"/><stop offset=".32" stop-color="#f4e49e"/><stop offset=".4" stop-color="#faf3b7"/><stop offset=".47" stop-color="#fdfbc5"/><stop offset=".53" stop-color="#ffffcb"/><stop offset=".59" stop-color="#f6e9a7"/><stop offset=".66" stop-color="#efd687"/><stop offset=".73" stop-color="#e9c86f"/><stop offset=".79" stop-color="#e6bf61"/><stop offset=".84" stop-color="#e5bd5d"/><stop offset="1" stop-color="#a26f14"/></linearGradient><linearGradient id="linear-gradient-8" x1="34.17" y1="119.48" x2="129.75" y2="119.48" xlink:href="#linear-gradient-7"/><clipPath id="clippath"><rect class="cls-1" x="25.32" y="62.93" width="113.28" height="39.06"/></clipPath></defs><g id="Ebene_1"><g><g><circle class="cls-25" cx="81.96" cy="81.96" r="81.96" transform="translate(-31.42 106.04) rotate(-56.99)"/><circle class="cls-33" cx="81.96" cy="81.96" r="80.17" transform="translate(-11.97 149.87) rotate(-80.87)"/><path class="cls-31" d="M81.1,153.42c.22,0,.44,.09,.61,.27,.34,.35,.34,.92,0,1.27-1.7,1.72-3.52,3.39-5.46,4.98-.39,.33-.99,.27-1.33-.11-.34-.38-.28-.95,.11-1.27,1.93-1.57,3.75-3.2,5.45-4.9,.17-.17,.39-.25,.61-.25Zm-7.32-.2c-1.85,1.53-3.82,2.99-5.89,4.36-.42,.28-.53,.84-.23,1.25,.3,.41,.89,.52,1.31,.23,2.08-1.41,4.05-2.89,5.9-4.45,.38-.32,.42-.88,.12-1.26-.15-.19-.36-.3-.58-.32-.22-.02-.45,.04-.63,.2Zm-6.63-1.08c-1.99,1.35-4.08,2.61-6.27,3.79-.44,.24-.61,.78-.35,1.22,.26,.44,.84,.6,1.28,.35,2.2-1.2,4.3-2.5,6.29-3.88,.4-.28,.51-.84,.24-1.25-.13-.2-.33-.33-.55-.38-.22-.04-.45,0-.65,.13Zm-6.5-1.7c-2.1,1.15-4.31,2.22-6.6,3.18-.46,.19-.68,.72-.46,1.18,.22,.46,.78,.68,1.25,.47,2.3-.99,4.52-2.08,6.63-3.27,.43-.24,.58-.79,.36-1.22-.11-.21-.3-.36-.51-.43-.21-.06-.45-.04-.66,.07Zm-6.31-2.3c-2.2,.95-4.5,1.8-6.87,2.54-.48,.15-.74,.65-.57,1.13,.17,.48,.71,.74,1.19,.59,2.39-.77,4.69-1.65,6.91-2.63,.45-.2,.65-.73,.47-1.18-.09-.23-.26-.39-.47-.47-.2-.09-.44-.09-.66,0Zm-6.07-2.89c-2.29,.74-4.65,1.37-7.08,1.89-.49,.1-.8,.58-.67,1.07,.13,.49,.64,.81,1.13,.7,2.45-.54,4.83-1.2,7.13-1.96,.47-.16,.72-.67,.58-1.13-.07-.23-.22-.41-.42-.51-.2-.1-.43-.13-.66-.05Zm-5.77-3.44c-2.34,.52-4.76,.93-7.23,1.22-.5,.06-.85,.5-.77,1.01,.08,.5,.56,.87,1.06,.8,2.49-.31,4.92-.74,7.28-1.29,.48-.11,.78-.59,.68-1.07-.05-.24-.19-.43-.37-.55-.18-.12-.42-.17-.65-.11Zm-5.43-3.97c-2.38,.3-4.82,.49-7.31,.54-.5,.01-.89,.42-.86,.93,.03,.51,.48,.91,.98,.9,2.51-.08,4.97-.28,7.37-.61,.49-.07,.83-.52,.78-1-.03-.24-.15-.44-.32-.58-.17-.14-.4-.21-.64-.17Zm-5.04-4.46c-2.4,.08-4.85,.04-7.33-.14-.5-.03-.93,.34-.94,.85-.02,.51,.39,.95,.9,.98,2.5,.15,4.97,.18,7.39,.08,.49-.02,.87-.44,.87-.93,0-.24-.1-.46-.26-.61-.16-.15-.38-.24-.62-.23Zm-4.6-4.91c-2.4-.14-4.83-.41-7.28-.82-.5-.08-.96,.25-1.02,.76-.07,.51,.3,.98,.8,1.06,2.48,.39,4.93,.64,7.35,.76,.49,.03,.91-.36,.95-.84,.02-.24-.06-.47-.2-.63-.15-.17-.35-.28-.6-.29Zm-4.13-5.31c-2.38-.36-4.77-.86-7.18-1.49-.49-.13-.98,.16-1.09,.66-.11,.5,.21,1.01,.7,1.13,2.43,.62,4.85,1.1,7.25,1.45,.49,.07,.94-.27,1.03-.75,.04-.24-.02-.47-.14-.65-.13-.18-.33-.31-.57-.34Zm-3.61-5.67c-2.33-.58-4.67-1.3-7-2.16-.47-.17-.99,.07-1.14,.55-.15,.48,.11,1.02,.59,1.19,2.36,.84,4.73,1.54,7.08,2.12,.48,.11,.96-.18,1.09-.65,.06-.23,.03-.47-.08-.66-.11-.19-.3-.33-.53-.4Zm-3.07-5.98c-2.26-.8-4.53-1.74-6.77-2.81-.46-.22-.99-.02-1.19,.44-.2,.47,.01,1.03,.47,1.24,2.27,1.06,4.56,1.99,6.85,2.77,.46,.16,.97-.09,1.15-.54,.09-.23,.07-.46-.02-.66-.09-.2-.26-.36-.49-.44Zm-2.49-6.24c-2.18-1.01-4.34-2.16-6.48-3.43-.43-.26-.98-.12-1.23,.33-.25,.45-.08,1.03,.35,1.28,2.16,1.27,4.36,2.41,6.56,3.41,.45,.2,.98,0,1.19-.43,.11-.22,.12-.46,.04-.66-.07-.21-.23-.39-.45-.49Zm-1.89-6.45c-2.07-1.21-4.12-2.56-6.12-4.03-.41-.3-.97-.21-1.25,.21-.28,.42-.18,1.01,.23,1.31,2.03,1.47,4.11,2.81,6.21,4.01,.43,.24,.98,.09,1.23-.32,.13-.21,.16-.44,.1-.66-.05-.21-.19-.41-.4-.53Zm-1.27-6.6c-1.95-1.4-3.86-2.93-5.72-4.59-.37-.34-.94-.3-1.27,.09-.32,.39-.27,.99,.11,1.33,1.89,1.65,3.83,3.18,5.8,4.58,.4,.28,.96,.19,1.25-.2,.15-.19,.2-.43,.16-.64-.03-.22-.15-.42-.35-.56Zm-.64-6.69c-1.81-1.58-3.57-3.28-5.26-5.1-.34-.37-.91-.39-1.27-.03-.36,.36-.36,.96-.02,1.33,1.72,1.82,3.51,3.52,5.35,5.1,.37,.32,.94,.28,1.27-.08,.16-.18,.24-.4,.23-.62-.01-.22-.11-.44-.3-.6Zm-.02-6.73c-1.66-1.74-3.25-3.6-4.77-5.57-.31-.4-.87-.47-1.26-.14-.39,.33-.45,.92-.14,1.32,1.55,1.97,3.17,3.83,4.86,5.57,.34,.35,.91,.36,1.27,.03,.18-.16,.28-.38,.28-.6,0-.22-.07-.44-.24-.62Zm.6-6.7c-1.48-1.89-2.9-3.89-4.22-5.99-.27-.43-.82-.55-1.24-.26-.42,.29-.54,.88-.26,1.31,1.36,2.11,2.8,4.11,4.31,6,.31,.38,.87,.45,1.26,.15,.2-.15,.31-.35,.34-.57,.03-.22-.03-.45-.18-.64Zm1.23-6.61c-1.3-2.02-2.52-4.14-3.64-6.36-.23-.45-.77-.62-1.21-.38-.44,.25-.62,.82-.38,1.28,1.15,2.23,2.4,4.36,3.73,6.38,.27,.41,.83,.53,1.24,.27,.21-.13,.34-.32,.39-.54,.05-.22,.01-.45-.12-.65Zm1.85-6.46c-1.1-2.13-2.12-4.36-3.02-6.68-.18-.47-.71-.69-1.17-.49-.47,.2-.69,.76-.5,1.23,.94,2.33,1.97,4.57,3.11,6.71,.23,.43,.77,.6,1.21,.39,.22-.11,.37-.29,.44-.5,.07-.21,.06-.45-.06-.66Zm2.45-6.26c-.9-2.23-1.7-4.54-2.38-6.93-.14-.48-.64-.76-1.12-.6-.49,.16-.76,.69-.62,1.18,.71,2.41,1.54,4.73,2.46,6.97,.19,.45,.71,.67,1.17,.5,.23-.09,.4-.25,.48-.46,.09-.2,.1-.44,0-.66Zm3.03-6c-.69-2.3-1.26-4.68-1.72-7.12-.09-.49-.56-.81-1.06-.7-.49,.11-.82,.62-.72,1.12,.48,2.46,1.09,4.86,1.8,7.17,.15,.47,.65,.74,1.12,.61,.23-.06,.42-.21,.52-.41,.11-.19,.14-.43,.07-.66Zm3.58-5.69c-.47-2.36-.82-4.78-1.05-7.25-.05-.5-.48-.86-.99-.8-.5,.07-.88,.54-.82,1.04,.25,2.49,.63,4.93,1.12,7.31,.1,.48,.58,.79,1.05,.71,.24-.04,.44-.18,.56-.36,.13-.18,.18-.41,.13-.65Zm4.09-5.34c-.25-2.39-.37-4.83-.37-7.32,0-.5-.4-.9-.91-.88-.51,.02-.92,.45-.92,.96,.02,2.51,.17,4.97,.44,7.38,.05,.49,.5,.84,.98,.8,.24-.02,.45-.14,.59-.3,.14-.17,.22-.39,.19-.64Zm4.57-4.93c-.02-2.4,.08-4.85,.31-7.32,.05-.5-.32-.94-.82-.96-.51-.03-.96,.37-1.01,.87-.21,2.5-.29,4.97-.25,7.39,0,.49,.42,.88,.9,.89,.24,0,.46-.09,.62-.25,.16-.16,.25-.37,.25-.62Zm5.01-4.49c.2-2.4,.53-4.82,.99-7.26,.09-.49-.23-.96-.73-1.04-.5-.08-.99,.28-1.08,.78-.44,2.47-.75,4.92-.93,7.33-.04,.49,.33,.92,.82,.97,.24,.03,.47-.05,.64-.19,.17-.14,.29-.35,.3-.59Zm5.41-4c.42-2.37,.97-4.75,1.66-7.14,.14-.48-.14-.98-.63-1.1-.49-.12-1.01,.18-1.15,.67-.67,2.42-1.21,4.83-1.61,7.21-.08,.49,.25,.95,.72,1.04,.24,.05,.47,0,.65-.13,.18-.12,.31-.32,.36-.56Zm5.75-3.48c.64-2.32,1.41-4.64,2.32-6.95,.18-.47-.05-.99-.53-1.16-.48-.17-1.03,.09-1.21,.56-.9,2.34-1.66,4.69-2.28,7.03-.13,.48,.16,.97,.62,1.11,.23,.07,.47,.04,.66-.07,.19-.11,.34-.29,.41-.52Zm6.05-2.92c.85-2.24,1.84-4.48,2.97-6.7,.23-.45,.05-.99-.41-1.2-.46-.21-1.03,0-1.26,.45-1.11,2.25-2.09,4.51-2.93,6.79-.17,.46,.07,.98,.52,1.16,.23,.09,.46,.08,.66,0,.2-.09,.37-.25,.46-.48Zm6.3-2.34c1.06-2.16,2.26-4.29,3.59-6.39,.27-.42,.14-.98-.3-1.23-.44-.25-1.02-.11-1.29,.33-1.32,2.13-2.51,4.3-3.56,6.48-.21,.44-.03,.98,.41,1.2,.22,.11,.45,.13,.66,.06,.21-.07,.39-.22,.5-.44Zm6.49-1.73c1.26-2.04,2.65-4.06,4.17-6.02,.31-.4,.23-.96-.18-1.26-.41-.3-1.01-.2-1.32,.2-1.52,2-2.9,4.04-4.16,6.11-.25,.42-.12,.97,.29,1.24,.2,.13,.44,.17,.65,.12,.21-.05,.41-.18,.54-.39Zm6.63-1.11c1.45-1.92,3.02-3.79,4.72-5.61,.34-.37,.32-.93-.06-1.27-.38-.33-.99-.3-1.33,.08-1.7,1.85-3.27,3.75-4.71,5.7-.29,.39-.21,.95,.17,1.26,.19,.15,.42,.21,.64,.18,.22-.03,.43-.14,.57-.33Zm6.71-.49c1.62-1.77,3.36-3.49,5.22-5.14,.38-.33,.41-.9,.05-1.27-.35-.37-.95-.38-1.33-.05-1.86,1.69-3.6,3.43-5.22,5.23-.33,.36-.3,.93,.05,1.27,.18,.17,.4,.24,.62,.24,.22,0,.44-.1,.6-.28Zm6.73,.14c1.78-1.62,3.67-3.17,5.68-4.64,.41-.3,.49-.86,.17-1.26-.32-.4-.92-.48-1.32-.17-2.01,1.5-3.91,3.08-5.69,4.72-.36,.34-.38,.9-.06,1.27,.16,.18,.38,.28,.59,.3,.22,.01,.45-.06,.63-.22Zm6.68,.76c1.92-1.44,3.95-2.81,6.09-4.08,.43-.26,.57-.81,.29-1.24-.28-.43-.87-.56-1.3-.29-2.14,1.31-4.18,2.7-6.1,4.17-.39,.3-.46,.86-.18,1.26,.14,.2,.35,.32,.56,.35,.22,.03,.45-.02,.64-.16Zm6.58,1.39c2.05-1.25,4.2-2.42,6.45-3.49,.45-.22,.64-.75,.41-1.2-.24-.45-.81-.64-1.27-.41-2.26,1.1-4.41,2.29-6.47,3.57-.42,.26-.54,.82-.3,1.23,.12,.21,.31,.35,.53,.4,.21,.05,.45,.02,.66-.1Zm6.42,2c2.16-1.05,4.41-2.01,6.75-2.86,.47-.17,.71-.69,.52-1.16-.19-.47-.75-.71-1.22-.53-2.35,.88-4.61,1.86-6.78,2.95-.44,.22-.62,.76-.41,1.2,.1,.22,.28,.37,.49,.45,.21,.07,.44,.07,.66-.04Zm6.2,2.6c2.25-.85,4.58-1.59,6.99-2.22,.49-.13,.77-.62,.62-1.1-.15-.49-.68-.78-1.17-.65-2.42,.66-4.77,1.42-7.03,2.3-.46,.18-.69,.7-.53,1.16,.08,.23,.24,.4,.44,.49,.2,.09,.43,.11,.66,.02Zm5.93,3.17c2.32-.63,4.71-1.15,7.16-1.56,.5-.08,.83-.54,.72-1.04-.1-.5-.6-.84-1.1-.75-2.47,.43-4.88,.97-7.21,1.63-.47,.13-.75,.63-.63,1.1,.06,.23,.21,.42,.4,.53,.19,.11,.42,.15,.66,.08Zm5.61,3.71c2.36-.41,4.79-.71,7.28-.88,.5-.03,.87-.46,.82-.97-.06-.5-.52-.89-1.03-.85-2.5,.19-4.95,.51-7.33,.95-.48,.09-.81,.56-.73,1.04,.04,.24,.17,.44,.35,.57,.18,.13,.41,.19,.65,.14Zm5.24,4.22c2.39-.19,4.84-.26,7.33-.2,.5,.01,.91-.38,.91-.89,0-.51-.43-.93-.94-.94-2.51-.04-4.97,.05-7.39,.27-.49,.04-.85,.48-.83,.97,.01,.24,.13,.45,.29,.6,.17,.15,.39,.22,.63,.2Zm4.82,4.69c2.4,.03,4.85,.19,7.31,.48,.5,.06,.94-.3,.98-.8,.04-.51-.35-.97-.85-1.03-2.49-.27-4.96-.41-7.38-.42-.49,0-.89,.4-.91,.88,0,.24,.08,.46,.23,.62,.15,.16,.37,.26,.61,.26Zm4.37,5.11c2.39,.25,4.8,.64,7.24,1.16,.49,.11,.97-.21,1.05-.71,.09-.5-.25-1-.75-1.1-2.46-.5-4.9-.87-7.31-1.11-.49-.05-.93,.31-.99,.8-.03,.24,.04,.47,.17,.64,.14,.17,.34,.29,.58,.32Zm3.87,5.5c2.35,.48,4.72,1.08,7.1,1.83,.48,.15,.98-.11,1.11-.61,.13-.49-.16-1.02-.65-1.17-2.4-.73-4.8-1.32-7.17-1.78-.48-.09-.95,.23-1.06,.7-.05,.24,0,.47,.11,.65,.12,.18,.31,.32,.55,.37Zm3.34,5.83c2.3,.69,4.6,1.52,6.89,2.49,.46,.2,.99-.02,1.17-.5,.18-.48-.06-1.03-.53-1.22-2.32-.95-4.65-1.77-6.97-2.45-.47-.14-.97,.14-1.12,.6-.07,.23-.05,.47,.05,.66,.1,.2,.28,.35,.52,.42Zm2.78,6.12c2.22,.91,4.44,1.95,6.63,3.12,.44,.24,.99,.07,1.21-.39,.23-.46,.03-1.03-.42-1.27-2.22-1.17-4.46-2.2-6.71-3.09-.46-.18-.98,.04-1.17,.49-.1,.22-.09,.46,0,.66,.08,.2,.25,.38,.47,.47Zm2.19,6.35c2.13,1.11,4.23,2.36,6.31,3.74,.42,.28,.97,.16,1.24-.27,.26-.43,.13-1.02-.29-1.3-2.1-1.37-4.24-2.61-6.39-3.71-.44-.22-.98-.05-1.21,.38-.12,.21-.14,.45-.07,.66,.07,.21,.21,.4,.43,.51Zm1.58,6.53c2.01,1.31,3.99,2.75,5.92,4.31,.39,.32,.96,.26,1.26-.15,.31-.41,.23-1-.17-1.32-1.96-1.56-3.97-3-6.01-4.3-.41-.26-.97-.14-1.24,.26-.14,.2-.18,.43-.13,.65,.04,.22,.17,.42,.38,.55Zm.96,6.65c1.88,1.49,3.72,3.11,5.5,4.85,.36,.35,.93,.34,1.27-.03,.34-.38,.32-.98-.05-1.33-1.81-1.74-3.67-3.35-5.58-4.84-.39-.3-.95-.23-1.26,.14-.16,.19-.22,.42-.2,.63,.03,.22,.13,.43,.32,.58Zm.33,6.72c1.74,1.66,3.41,3.44,5.02,5.34,.32,.38,.89,.43,1.27,.08,.38-.34,.41-.95,.08-1.33-1.64-1.9-3.35-3.68-5.11-5.34-.36-.34-.93-.32-1.27,.03-.17,.17-.25,.39-.25,.61,0,.22,.09,.44,.27,.61Zm-.29,6.72c1.57,1.81,3.08,3.74,4.5,5.78,.29,.41,.85,.51,1.25,.2,.41-.31,.5-.9,.2-1.32-1.45-2.04-2.99-3.98-4.59-5.79-.33-.37-.89-.4-1.27-.09-.19,.16-.29,.37-.31,.59-.02,.22,.05,.45,.21,.63Zm-.92,6.66c1.4,1.95,2.71,4.02,3.94,6.18,.25,.44,.8,.59,1.23,.32,.43-.27,.58-.85,.32-1.29-1.25-2.17-2.6-4.24-4.03-6.2-.29-.4-.85-.49-1.25-.21-.2,.14-.33,.34-.36,.56-.04,.22,0,.45,.15,.65Zm-1.54,6.54c1.21,2.08,2.32,4.25,3.34,6.53,.21,.46,.74,.66,1.19,.43,.45-.23,.66-.79,.44-1.26-1.04-2.28-2.19-4.47-3.42-6.55-.25-.42-.8-.56-1.23-.33-.21,.12-.36,.31-.41,.52-.06,.21-.03,.45,.09,.66Zm-2.15,6.37c1,2.18,1.91,4.46,2.7,6.81,.16,.48,.67,.73,1.15,.55,.48-.18,.73-.73,.56-1.21-.83-2.37-1.76-4.65-2.79-6.85-.21-.44-.74-.64-1.19-.44-.22,.1-.38,.27-.46,.48-.08,.2-.08,.44,.03,.66Zm-2.74,6.14c.79,2.27,1.48,4.61,2.05,7.04,.12,.49,.6,.79,1.09,.65,.49-.14,.79-.66,.67-1.15-.6-2.44-1.31-4.8-2.13-7.08-.17-.46-.68-.7-1.14-.55-.23,.07-.41,.23-.5,.43-.1,.2-.12,.43-.04,.66Zm-3.31,5.85c.58,2.33,1.04,4.73,1.39,7.2,.07,.5,.52,.84,1.02,.75,.5-.09,.85-.58,.78-1.08-.37-2.48-.86-4.9-1.46-7.25-.12-.48-.61-.77-1.09-.66-.24,.05-.43,.2-.54,.38-.12,.19-.16,.42-.1,.66Zm-3.84,5.52c.36,2.37,.6,4.81,.71,7.29,.02,.5,.44,.88,.95,.84,.51-.04,.9-.5,.87-1-.14-2.5-.4-4.96-.78-7.35-.08-.48-.54-.82-1.02-.76-.24,.03-.44,.16-.57,.33-.13,.17-.2,.4-.16,.65Zm-4.34,5.14c.13,2.4,.15,4.85,.03,7.33-.02,.5,.36,.92,.87,.93,.51,0,.94-.41,.96-.92,.1-2.51,.06-4.97-.09-7.39-.03-.49-.46-.86-.95-.85-.24,0-.45,.11-.6,.28-.15,.16-.23,.38-.22,.63Zm-4.8,4.72c-.09,2.4-.3,4.84-.65,7.3-.07,.5,.27,.95,.78,1,.51,.05,.98-.32,1.05-.83,.33-2.49,.52-4.95,.59-7.37,.01-.49-.38-.9-.86-.93-.24-.01-.47,.07-.63,.22-.16,.15-.27,.36-.28,.6Zm-5.21,4.25c-.31,2.38-.75,4.79-1.33,7.21-.12,.49,.18,.97,.68,1.07,.5,.1,1-.23,1.12-.73,.56-2.44,.98-4.88,1.28-7.28,.06-.49-.29-.94-.77-1.01-.24-.04-.47,.03-.65,.16-.18,.13-.3,.33-.33,.58Zm-5.59,3.74c-.53,2.34-1.2,4.7-1.99,7.05-.16,.47,.09,.98,.58,1.13,.49,.14,1.02-.13,1.18-.62,.79-2.38,1.43-4.76,1.95-7.13,.1-.48-.2-.96-.67-1.07-.24-.06-.47-.02-.66,.1-.19,.12-.33,.31-.38,.54Zm-5.91,3.21c-.75,2.28-1.63,4.56-2.65,6.83-.21,.46,0,.99,.47,1.18,.47,.19,1.03-.04,1.23-.5,1-2.3,1.88-4.61,2.61-6.92,.15-.47-.11-.97-.57-1.13-.23-.08-.46-.06-.66,.04-.2,.1-.36,.27-.43,.51Zm-6.18,2.63c-.96,2.2-2.05,4.39-3.28,6.55-.25,.44-.09,.98,.36,1.22,.45,.24,1.03,.06,1.28-.39,1.22-2.19,2.3-4.41,3.25-6.64,.19-.45-.02-.98-.46-1.18-.22-.1-.46-.1-.66-.02-.21,.08-.38,.24-.48,.46Zm-6.4,2.04c-1.16,2.1-2.46,4.18-3.88,6.22-.29,.41-.19,.97,.24,1.25,.43,.27,1.02,.16,1.31-.26,1.42-2.07,2.71-4.17,3.86-6.3,.23-.43,.07-.98-.35-1.22-.21-.12-.45-.15-.66-.09-.21,.06-.4,.2-.52,.41Zm-6.57,1.43c-1.36,1.98-2.84,3.93-4.45,5.82-.33,.38-.28,.95,.12,1.26,.4,.32,1,.25,1.32-.14,1.61-1.93,3.09-3.9,4.44-5.91,.27-.41,.16-.96-.23-1.25-.2-.14-.43-.19-.65-.15-.22,.04-.42,.16-.56,.36Zm-6.67,.8c-1.54,1.85-3.2,3.64-4.98,5.38-.36,.35-.36,.92,0,1.27,.37,.35,.97,.34,1.33-.02,1.78-1.76,3.44-3.6,4.97-5.47,.31-.38,.25-.95-.11-1.26-.18-.16-.41-.23-.63-.21-.22,.02-.43,.12-.59,.31Z"/><path class="cls-32" d="M80.08,153.4c.22,0,.44,.1,.6,.28,.33,.36,.33,.93-.02,1.27-1.73,1.7-3.57,3.34-5.53,4.91-.4,.32-1,.26-1.33-.13-.33-.39-.26-.95,.13-1.26,1.96-1.54,3.8-3.14,5.52-4.82,.17-.17,.4-.25,.62-.24Zm-7.32-.3c-1.87,1.5-3.86,2.94-5.95,4.28-.42,.27-.54,.83-.25,1.24,.29,.42,.88,.53,1.31,.25,2.1-1.38,4.09-2.83,5.96-4.37,.38-.31,.44-.88,.14-1.26-.15-.19-.36-.3-.58-.33-.22-.03-.45,.03-.64,.19Zm-6.62-1.17c-2.01,1.32-4.12,2.56-6.33,3.7-.45,.23-.62,.77-.37,1.22,.25,.44,.83,.61,1.28,.37,2.22-1.17,4.34-2.44,6.35-3.79,.41-.27,.52-.83,.26-1.24-.13-.21-.33-.34-.54-.38-.22-.04-.45,0-.65,.12Zm-6.48-1.79c-2.12,1.12-4.34,2.16-6.65,3.08-.47,.19-.69,.71-.48,1.18,.21,.46,.77,.69,1.24,.49,2.32-.96,4.55-2.02,6.68-3.17,.43-.23,.59-.78,.37-1.21-.11-.22-.29-.36-.5-.43-.21-.07-.45-.05-.66,.06Zm-6.28-2.39c-2.22,.92-4.53,1.74-6.91,2.45-.48,.14-.75,.64-.59,1.13,.16,.48,.7,.75,1.19,.61,2.4-.74,4.72-1.58,6.95-2.53,.45-.19,.66-.72,.49-1.17-.09-.23-.26-.39-.46-.48-.2-.09-.44-.1-.66,0Zm-6.03-2.97c-2.3,.71-4.67,1.31-7.11,1.79-.49,.1-.81,.57-.69,1.06,.12,.49,.63,.82,1.12,.71,2.46-.51,4.85-1.13,7.15-1.86,.47-.15,.73-.65,.6-1.12-.07-.23-.22-.42-.41-.52-.19-.1-.43-.13-.66-.06Zm-5.72-3.53c-2.35,.49-4.77,.86-7.24,1.12-.5,.05-.86,.49-.79,1,.07,.5,.55,.87,1.05,.81,2.49-.27,4.93-.67,7.3-1.19,.48-.1,.79-.58,.7-1.06-.05-.24-.18-.43-.36-.56-.18-.12-.42-.17-.65-.12Zm-5.37-4.05c-2.39,.27-4.83,.42-7.32,.44-.5,0-.9,.41-.88,.92,.02,.51,.46,.92,.97,.91,2.51-.04,4.97-.21,7.37-.5,.49-.06,.84-.51,.79-.99-.02-.24-.14-.45-.31-.59-.17-.14-.4-.21-.64-.18Zm-4.97-4.53c-2.4,.05-4.85-.03-7.33-.24-.5-.04-.93,.33-.96,.83-.02,.51,.38,.96,.88,1,2.5,.19,4.97,.25,7.39,.18,.49-.01,.88-.43,.88-.91,0-.24-.1-.46-.25-.61-.16-.16-.37-.25-.62-.24Zm-4.53-4.97c-2.4-.18-4.82-.48-7.27-.92-.5-.09-.96,.24-1.03,.74-.07,.51,.29,.99,.79,1.08,2.47,.42,4.92,.71,7.34,.87,.49,.03,.92-.34,.96-.83,.02-.24-.05-.47-.2-.63-.14-.17-.35-.28-.59-.3Zm-4.05-5.37c-2.37-.4-4.76-.93-7.15-1.6-.48-.14-.98,.15-1.1,.64-.12,.49,.19,1.01,.68,1.14,2.42,.65,4.84,1.16,7.23,1.55,.49,.08,.95-.26,1.04-.73,.05-.24,0-.47-.13-.65-.13-.18-.32-.31-.56-.35Zm-3.53-5.72c-2.32-.62-4.65-1.37-6.97-2.26-.47-.18-.99,.05-1.15,.54-.16,.48,.1,1.03,.57,1.2,2.35,.88,4.71,1.61,7.05,2.22,.48,.12,.97-.17,1.1-.63,.07-.23,.03-.47-.07-.66-.11-.19-.29-.34-.53-.4Zm-2.98-6.03c-2.25-.83-4.5-1.8-6.73-2.9-.45-.22-.99-.04-1.2,.43-.21,.46,0,1.03,.46,1.25,2.26,1.09,4.53,2.05,6.81,2.87,.46,.17,.98-.08,1.15-.53,.09-.23,.08-.46-.01-.66-.09-.2-.26-.37-.49-.45Zm-2.4-6.28c-2.17-1.04-4.31-2.22-6.43-3.53-.43-.27-.98-.13-1.23,.31-.25,.44-.1,1.03,.34,1.29,2.15,1.3,4.32,2.47,6.51,3.5,.44,.21,.98,.02,1.2-.42,.11-.22,.12-.45,.05-.66-.07-.21-.22-.39-.44-.5Zm-1.8-6.48c-2.06-1.24-4.08-2.61-6.06-4.12-.4-.3-.96-.22-1.25,.19-.29,.42-.2,1.01,.21,1.31,2.01,1.5,4.07,2.86,6.15,4.1,.42,.25,.97,.11,1.23-.3,.13-.21,.16-.44,.11-.65-.05-.21-.19-.41-.39-.53Zm-1.18-6.62c-1.93-1.43-3.82-2.99-5.65-4.67-.37-.34-.94-.31-1.27,.07-.33,.39-.29,.99,.09,1.33,1.87,1.68,3.78,3.23,5.74,4.66,.4,.29,.96,.2,1.26-.18,.15-.19,.2-.42,.17-.64-.03-.22-.14-.42-.34-.57Zm-.55-6.7c-1.79-1.6-3.52-3.33-5.19-5.18-.34-.37-.91-.4-1.27-.04-.36,.36-.38,.96-.03,1.33,1.7,1.84,3.46,3.57,5.28,5.17,.37,.32,.94,.29,1.27-.07,.16-.18,.24-.4,.23-.62,0-.22-.11-.44-.29-.6Zm.08-6.73c-1.63-1.76-3.2-3.64-4.69-5.63-.3-.4-.86-.48-1.26-.16-.39,.32-.47,.92-.16,1.32,1.52,2,3.12,3.88,4.78,5.64,.34,.36,.91,.38,1.27,.05,.18-.16,.28-.38,.29-.6,0-.22-.06-.44-.23-.62Zm.7-6.69c-1.46-1.91-2.84-3.93-4.14-6.05-.26-.43-.82-.56-1.24-.28-.43,.28-.55,.87-.28,1.3,1.33,2.13,2.74,4.15,4.23,6.06,.3,.39,.87,.46,1.26,.17,.2-.14,.31-.35,.34-.57,.03-.22-.02-.45-.17-.64Zm1.33-6.59c-1.27-2.04-2.46-4.18-3.55-6.41-.22-.45-.76-.63-1.21-.39-.45,.24-.63,.81-.4,1.27,1.12,2.24,2.34,4.39,3.63,6.44,.27,.42,.82,.54,1.24,.29,.21-.12,.35-.32,.4-.53,.05-.21,.02-.45-.11-.65Zm1.94-6.43c-1.07-2.15-2.06-4.39-2.93-6.72-.18-.47-.7-.7-1.16-.51-.47,.2-.7,.75-.52,1.23,.9,2.34,1.91,4.59,3.01,6.75,.22,.44,.76,.61,1.2,.4,.22-.1,.37-.29,.44-.49,.07-.21,.06-.44-.05-.66Zm2.54-6.22c-.87-2.24-1.63-4.56-2.28-6.96-.13-.49-.63-.77-1.11-.61-.49,.15-.77,.68-.64,1.17,.68,2.42,1.47,4.75,2.36,7,.18,.46,.7,.68,1.16,.51,.23-.08,.4-.25,.49-.45,.09-.2,.1-.44,.02-.66Zm3.12-5.96c-.65-2.31-1.2-4.7-1.62-7.15-.08-.5-.55-.82-1.05-.72-.5,.11-.83,.61-.74,1.11,.45,2.47,1.02,4.87,1.69,7.2,.14,.47,.64,.74,1.11,.62,.24-.06,.42-.21,.53-.4,.11-.19,.14-.43,.08-.66Zm3.66-5.64c-.43-2.36-.75-4.79-.95-7.27-.04-.5-.47-.87-.98-.81-.5,.06-.89,.53-.84,1.03,.22,2.5,.56,4.94,1.02,7.32,.09,.48,.56,.8,1.04,.72,.24-.04,.44-.17,.57-.35,.13-.18,.18-.41,.14-.65Zm4.17-5.28c-.21-2.39-.3-4.84-.27-7.32,0-.5-.39-.91-.9-.9-.51,.01-.93,.44-.93,.95-.02,2.51,.1,4.97,.33,7.38,.05,.49,.49,.85,.97,.82,.24-.02,.45-.13,.59-.3,.14-.17,.22-.39,.2-.63Zm4.64-4.87c.01-2.4,.15-4.85,.41-7.32,.05-.5-.3-.94-.81-.98-.51-.04-.97,.35-1.02,.86-.25,2.5-.36,4.96-.35,7.38,0,.49,.41,.89,.89,.9,.24,0,.46-.09,.62-.24,.16-.15,.26-.37,.26-.61Zm5.07-4.41c.23-2.39,.6-4.81,1.09-7.25,.1-.49-.21-.97-.72-1.05-.5-.08-.99,.26-1.09,.76-.48,2.46-.82,4.91-1.04,7.32-.04,.49,.32,.92,.8,.98,.24,.03,.47-.04,.64-.18,.17-.14,.29-.34,.31-.59Zm5.46-3.92c.45-2.36,1.04-4.73,1.76-7.11,.15-.48-.12-.98-.62-1.11-.49-.13-1.02,.17-1.16,.66-.71,2.41-1.28,4.81-1.72,7.19-.09,.48,.24,.95,.71,1.05,.24,.05,.47,0,.65-.12,.18-.12,.32-.32,.37-.55Zm5.8-3.4c.67-2.31,1.48-4.62,2.42-6.92,.19-.46-.03-.99-.51-1.16-.48-.17-1.03,.07-1.21,.55-.93,2.33-1.72,4.67-2.38,7-.13,.47,.14,.97,.61,1.11,.23,.07,.47,.04,.66-.06,.19-.1,.35-.29,.42-.52Zm6.09-2.84c.89-2.23,1.91-4.46,3.06-6.66,.23-.45,.06-.99-.4-1.21-.46-.22-1.03-.02-1.26,.43-1.15,2.23-2.16,4.48-3.03,6.74-.18,.46,.05,.98,.5,1.17,.22,.1,.46,.09,.66,0,.2-.08,.37-.25,.46-.48Zm6.33-2.25c1.09-2.14,2.32-4.26,3.68-6.34,.28-.42,.16-.98-.28-1.24-.44-.26-1.02-.12-1.3,.31-1.35,2.11-2.57,4.26-3.65,6.43-.22,.44-.04,.98,.39,1.21,.21,.12,.45,.13,.66,.07,.21-.07,.4-.21,.51-.43Zm6.52-1.64c1.29-2.02,2.71-4.02,4.26-5.96,.31-.39,.25-.96-.16-1.26-.41-.3-1.01-.22-1.32,.18-1.54,1.98-2.96,4-4.24,6.05-.26,.42-.13,.97,.27,1.24,.2,.13,.44,.17,.65,.13,.22-.04,.41-.18,.54-.38Zm6.64-1.02c1.47-1.9,3.08-3.74,4.8-5.54,.35-.36,.34-.93-.05-1.27-.38-.34-.98-.31-1.33,.06-1.72,1.82-3.32,3.7-4.79,5.63-.3,.39-.22,.95,.15,1.26,.19,.15,.42,.22,.64,.19,.22-.02,.43-.13,.58-.33Zm6.71-.39c1.65-1.75,3.41-3.45,5.29-5.07,.38-.33,.42-.9,.07-1.27-.35-.37-.95-.4-1.33-.07-1.88,1.66-3.65,3.38-5.3,5.16-.33,.36-.31,.93,.04,1.27,.17,.17,.4,.25,.62,.25,.22,0,.44-.09,.61-.27Zm6.72,.23c1.8-1.59,3.72-3.11,5.74-4.56,.41-.29,.5-.85,.19-1.25-.31-.4-.91-.49-1.32-.19-2.03,1.47-3.95,3.03-5.75,4.64-.37,.33-.4,.9-.08,1.27,.16,.19,.37,.29,.59,.3,.22,.02,.45-.06,.63-.22Zm6.67,.86c1.94-1.41,3.99-2.75,6.14-3.99,.44-.25,.58-.8,.31-1.23-.27-.43-.86-.57-1.3-.31-2.16,1.28-4.22,2.64-6.16,4.08-.39,.29-.48,.85-.2,1.25,.14,.2,.34,.32,.56,.36,.22,.04,.45-.01,.65-.15Zm6.56,1.48c2.07-1.23,4.23-2.36,6.49-3.4,.46-.21,.65-.74,.42-1.2-.23-.45-.8-.65-1.26-.43-2.27,1.06-4.45,2.23-6.52,3.48-.42,.25-.56,.81-.32,1.23,.12,.21,.31,.35,.52,.41,.21,.06,.45,.03,.66-.09Zm6.39,2.09c2.17-1.02,4.44-1.95,6.79-2.77,.47-.17,.72-.68,.53-1.15-.18-.48-.74-.72-1.21-.55-2.36,.85-4.64,1.8-6.82,2.85-.44,.21-.63,.75-.43,1.19,.1,.22,.28,.38,.48,.46,.21,.08,.44,.07,.66-.03Zm6.16,2.69c2.26-.82,4.6-1.52,7.02-2.12,.49-.12,.78-.61,.64-1.1-.14-.49-.66-.79-1.16-.66-2.43,.62-4.79,1.36-7.06,2.2-.46,.17-.7,.69-.54,1.15,.08,.23,.24,.4,.44,.5,.2,.09,.43,.12,.66,.03Zm5.88,3.25c2.33-.6,4.72-1.09,7.18-1.45,.5-.07,.83-.53,.74-1.03-.1-.5-.59-.85-1.09-.77-2.48,.39-4.89,.9-7.23,1.53-.48,.13-.76,.62-.65,1.09,.06,.24,.2,.43,.39,.54,.19,.11,.42,.15,.66,.09Zm5.55,3.79c2.37-.38,4.8-.64,7.29-.78,.5-.03,.88-.45,.83-.96-.05-.51-.5-.9-1.01-.86-2.5,.16-4.96,.44-7.34,.85-.48,.08-.81,.55-.75,1.03,.03,.24,.16,.44,.34,.57,.18,.13,.41,.19,.65,.15Zm5.18,4.29c2.4-.16,4.84-.19,7.33-.1,.5,.02,.92-.37,.92-.88,0-.51-.42-.94-.93-.95-2.51-.07-4.97-.02-7.39,.16-.49,.04-.86,.47-.84,.95,.01,.24,.12,.45,.28,.6,.16,.15,.39,.23,.63,.21Zm4.76,4.75c2.4,.07,4.84,.26,7.31,.58,.5,.07,.95-.28,1-.79,.05-.51-.33-.97-.84-1.04-2.49-.3-4.95-.48-7.37-.53-.49-.01-.9,.38-.92,.87-.01,.24,.07,.46,.23,.62,.15,.16,.36,.27,.61,.27Zm4.3,5.18c2.39,.29,4.79,.71,7.22,1.26,.49,.11,.97-.19,1.06-.69,.1-.5-.24-1-.73-1.11-2.45-.54-4.89-.94-7.29-1.21-.49-.05-.93,.3-1,.78-.03,.24,.03,.47,.17,.64,.14,.17,.34,.3,.58,.33Zm3.79,5.55c2.35,.51,4.71,1.15,7.07,1.93,.48,.16,.98-.1,1.12-.59,.14-.49-.14-1.02-.63-1.17-2.39-.76-4.78-1.39-7.15-1.88-.48-.1-.96,.21-1.07,.68-.06,.24-.01,.47,.1,.66,.12,.19,.31,.33,.55,.38Zm3.26,5.88c2.29,.73,4.58,1.59,6.86,2.58,.46,.2,.99,0,1.17-.48,.18-.47-.05-1.03-.52-1.23-2.31-.98-4.62-1.83-6.94-2.55-.47-.14-.97,.12-1.13,.58-.08,.23-.05,.47,.04,.66,.1,.2,.28,.35,.51,.43Zm2.69,6.16c2.21,.94,4.41,2.01,6.59,3.22,.44,.24,.99,.09,1.21-.37,.23-.45,.05-1.03-.4-1.27-2.21-1.2-4.43-2.26-6.67-3.19-.45-.19-.98,.03-1.18,.47-.1,.22-.1,.46-.02,.66,.08,.21,.24,.38,.46,.47Zm2.1,6.38c2.11,1.14,4.2,2.42,6.25,3.83,.41,.28,.97,.18,1.24-.25,.27-.43,.15-1.02-.28-1.3-2.08-1.4-4.2-2.67-6.34-3.8-.43-.23-.98-.06-1.22,.36-.12,.21-.14,.45-.08,.66,.06,.21,.2,.4,.42,.52Zm1.49,6.55c1.99,1.34,3.95,2.8,5.86,4.4,.39,.32,.95,.27,1.26-.13,.31-.4,.24-1-.15-1.32-1.94-1.59-3.93-3.05-5.95-4.39-.41-.27-.97-.15-1.25,.24-.14,.2-.18,.43-.14,.65,.04,.22,.17,.42,.37,.55Zm.86,6.67c1.86,1.52,3.67,3.16,5.43,4.93,.35,.36,.92,.36,1.27-.02,.34-.37,.34-.97-.03-1.33-1.78-1.76-3.63-3.41-5.51-4.92-.38-.31-.95-.24-1.26,.12-.16,.19-.23,.41-.21,.63,.02,.22,.13,.43,.31,.59Zm.24,6.72c1.71,1.69,3.36,3.49,4.95,5.41,.32,.39,.88,.44,1.26,.1,.38-.34,.42-.94,.1-1.33-1.61-1.92-3.29-3.73-5.03-5.41-.35-.34-.92-.33-1.27,0-.17,.17-.26,.39-.26,.61,0,.22,.08,.44,.26,.61Zm-.39,6.71c1.55,1.84,3.03,3.79,4.42,5.85,.28,.42,.84,.52,1.25,.22,.41-.3,.51-.9,.22-1.31-1.42-2.06-2.93-4.02-4.51-5.86-.32-.37-.89-.42-1.26-.11-.19,.15-.3,.36-.32,.58-.02,.22,.05,.45,.2,.63Zm-1.01,6.65c1.37,1.97,2.65,4.05,3.85,6.24,.24,.44,.79,.6,1.22,.34,.44-.26,.59-.84,.34-1.29-1.22-2.19-2.54-4.28-3.94-6.26-.28-.4-.84-.5-1.25-.23-.2,.13-.33,.33-.37,.55-.04,.22,0,.45,.14,.65Zm-1.63,6.52c1.18,2.09,2.26,4.29,3.24,6.57,.2,.46,.73,.67,1.19,.45,.46-.22,.67-.78,.46-1.25-1.01-2.3-2.13-4.5-3.33-6.6-.24-.43-.79-.57-1.22-.35-.21,.12-.36,.3-.42,.51-.06,.21-.04,.45,.08,.66Zm-2.24,6.34c.97,2.19,1.85,4.48,2.61,6.85,.16,.48,.66,.74,1.14,.56,.48-.17,.74-.72,.58-1.2-.79-2.38-1.69-4.68-2.69-6.89-.2-.45-.73-.65-1.18-.46-.23,.09-.39,.27-.47,.47-.08,.2-.08,.44,.02,.66Zm-2.83,6.1c.76,2.28,1.41,4.63,1.95,7.06,.11,.49,.59,.8,1.08,.67,.49-.13,.8-.65,.69-1.14-.56-2.44-1.24-4.82-2.03-7.11-.16-.46-.67-.71-1.13-.57-.23,.07-.41,.23-.51,.43-.1,.2-.13,.43-.05,.66Zm-3.39,5.8c.55,2.34,.97,4.75,1.28,7.22,.06,.5,.51,.85,1.01,.76,.5-.08,.86-.57,.79-1.07-.33-2.49-.79-4.91-1.36-7.27-.12-.48-.6-.77-1.08-.67-.24,.05-.43,.19-.55,.37-.12,.19-.16,.42-.11,.66Zm-3.92,5.46c.32,2.38,.53,4.82,.61,7.3,.02,.5,.43,.89,.94,.85,.51-.04,.91-.48,.89-.99-.1-2.51-.33-4.96-.67-7.36-.07-.49-.53-.83-1.01-.77-.24,.03-.44,.15-.58,.32-.14,.17-.2,.4-.17,.64Zm-4.41,5.08c.1,2.4,.08,4.85-.07,7.33-.03,.5,.35,.93,.86,.94,.51,.01,.95-.4,.98-.9,.13-2.5,.13-4.97,.01-7.39-.02-.49-.45-.87-.93-.86-.24,0-.46,.11-.61,.27-.15,.16-.24,.38-.23,.62Zm-4.86,4.65c-.12,2.4-.37,4.83-.75,7.29-.08,.5,.26,.95,.77,1.01,.51,.06,.98-.31,1.06-.81,.36-2.48,.59-4.94,.7-7.36,.02-.49-.36-.91-.85-.94-.24-.02-.47,.06-.63,.21-.16,.15-.27,.36-.29,.6Zm-5.27,4.17c-.34,2.38-.82,4.78-1.43,7.19-.12,.49,.17,.97,.67,1.08,.5,.11,1.01-.22,1.13-.71,.59-2.44,1.05-4.86,1.38-7.26,.07-.49-.28-.94-.76-1.02-.24-.04-.47,.02-.65,.15-.18,.13-.31,.33-.34,.57Zm-5.64,3.66c-.56,2.34-1.26,4.68-2.09,7.03-.17,.47,.08,.98,.56,1.14,.48,.15,1.02-.12,1.19-.6,.82-2.37,1.5-4.74,2.05-7.1,.11-.48-.19-.96-.66-1.08-.23-.06-.47-.02-.66,.09-.19,.11-.33,.3-.39,.54Zm-5.96,3.12c-.78,2.27-1.69,4.54-2.75,6.8-.21,.46-.02,.99,.45,1.19,.47,.2,1.03-.02,1.24-.49,1.04-2.28,1.94-4.58,2.71-6.88,.15-.46-.1-.97-.55-1.14-.23-.08-.46-.07-.66,.03-.2,.09-.36,.27-.44,.5Zm-6.22,2.55c-.99,2.19-2.11,4.36-3.37,6.51-.25,.43-.11,.98,.34,1.22,.45,.24,1.03,.07,1.28-.37,1.25-2.18,2.36-4.38,3.34-6.59,.2-.45,0-.98-.45-1.19-.22-.11-.46-.11-.66-.03-.21,.07-.39,.23-.49,.45Zm-6.43,1.95c-1.19,2.09-2.52,4.14-3.97,6.16-.29,.41-.2,.97,.22,1.25,.42,.28,1.02,.17,1.31-.25,1.45-2.05,2.77-4.14,3.95-6.25,.24-.43,.09-.98-.33-1.23-.21-.12-.44-.16-.66-.1-.21,.06-.4,.2-.53,.41Zm-6.59,1.33c-1.38,1.96-2.9,3.89-4.53,5.76-.33,.38-.29,.95,.1,1.26,.4,.32,1,.26,1.33-.12,1.64-1.9,3.14-3.85,4.52-5.85,.28-.4,.18-.96-.21-1.25-.2-.14-.43-.19-.64-.16-.22,.03-.42,.16-.56,.36Zm-6.69,.7c-1.56,1.83-3.25,3.6-5.05,5.31-.37,.35-.38,.92-.01,1.27,.36,.35,.97,.36,1.33,0,1.8-1.74,3.49-3.55,5.05-5.4,.32-.38,.27-.94-.1-1.27-.18-.16-.41-.24-.63-.22-.22,.02-.43,.12-.59,.3Z"/><circle class="cls-36" cx="81.96" cy="81.96" r="69.42" transform="translate(-.1 163.83) rotate(-89.93)"/><circle class="cls-34" cx="81.96" cy="81.96" r="68.52" transform="translate(-8.83 9.91) rotate(-6.57)"/><g><path class="cls-29" d="M124.98,37.9c-.79-.76-1.82-1.18-2.92-1.18s-2.21,.45-3.01,1.27c-1.61,1.66-1.57,4.31,.09,5.92,10.4,10.09,16.13,23.6,16.13,38.05s-5.73,27.95-16.13,38.05c-.8,.78-1.25,1.82-1.27,2.94-.02,1.12,.4,2.18,1.18,2.98,.8,.82,1.86,1.27,3.01,1.27s2.13-.42,2.92-1.18c12.04-11.68,18.68-27.33,18.68-44.06s-6.63-32.37-18.68-44.06Z"/><path class="cls-37" d="M28.59,81.96c0-14.44,5.73-27.95,16.13-38.05,1.66-1.61,1.7-4.27,.09-5.92-.8-.82-1.86-1.27-3.01-1.27s-2.13,.42-2.92,1.18c-12.04,11.68-18.68,27.33-18.68,44.06s6.63,32.38,18.68,44.06c.79,.76,1.82,1.18,2.92,1.18s2.21-.45,3.01-1.27c.78-.8,1.2-1.86,1.18-2.98-.02-1.12-.47-2.16-1.27-2.94-10.4-10.09-16.13-23.61-16.13-38.05Z"/></g><polygon class="cls-28" points="89.33 26.52 83.66 26.29 81.7 20.97 79.73 26.29 74.06 26.52 78.52 30.03 76.98 35.49 81.7 32.34 86.41 35.49 84.88 30.03 89.33 26.52"/><polygon class="cls-28" points="63.98 30.4 60.83 30.28 59.74 27.32 58.65 30.28 55.5 30.4 57.98 32.36 57.12 35.39 59.74 33.64 62.36 35.39 61.51 32.36 63.98 30.4"/><polygon class="cls-28" points="101.88 32.36 101.03 35.39 103.65 33.64 106.27 35.39 105.42 32.36 107.89 30.4 104.74 30.28 103.65 27.32 102.56 30.28 99.41 30.4 101.88 32.36"/><polygon class="cls-28" points="74.59 137.41 80.26 137.63 82.23 142.95 84.19 137.63 89.86 137.41 85.41 133.89 86.94 128.43 82.23 131.58 77.51 128.43 79.04 133.89 74.59 137.41"/><path class="cls-7" d="M122.06,126.31c-.86,0-1.72-.33-2.36-1-1.27-1.3-1.23-3.39,.07-4.65,10.58-10.26,16.41-24,16.41-38.69s-5.83-28.43-16.41-38.69c-1.3-1.27-1.34-3.35-.07-4.65,1.26-1.31,3.35-1.34,4.65-.07,11.87,11.51,18.4,26.93,18.4,43.41s-6.54,31.9-18.41,43.41c-.64,.62-1.47,.93-2.29,.93Z"/><path class="cls-7" d="M41.81,126.31c-.83,0-1.65-.31-2.29-.93-11.87-11.51-18.41-26.93-18.41-43.41s6.54-31.9,18.4-43.41c1.3-1.27,3.39-1.23,4.65,.07,1.27,1.3,1.23,3.39-.07,4.65-10.58,10.26-16.41,24-16.41,38.69s5.83,28.43,16.41,38.69c1.3,1.26,1.34,3.35,.07,4.65-.65,.67-1.5,1-2.36,1Z"/><g><path class="cls-12" d="M128.15,42.75s-11.99-4.19-46.19-4.19-46.19,4.19-46.19,4.19c-9.28,10.91-14.33,24.57-14.33,39.06s5.05,28.14,14.33,39.06c0,0,11.99,4.19,46.19,4.19s46.19-4.19,46.19-4.19c9.28-10.91,14.33-24.57,14.33-39.06s-5.05-28.14-14.33-39.06Z"/><path class="cls-3" d="M35.78,42.75c-9.28,10.91-14.33,24.57-14.33,39.06s5.05,28.16,14.34,39.08c0,0,13.6,3.99,46.17,3.99s46.17-3.99,46.17-3.99c9.29-10.92,14.34-24.58,14.34-39.08s-5.05-28.14-14.33-39.06c0,0-13.62-3.99-46.19-3.99s-46.19,3.99-46.19,3.99Z"/><path class="cls-2" d="M35.78,42.75c-9.28,10.91-14.33,24.57-14.33,39.06s5.06,28.17,14.36,39.09c0,0,15.22,3.79,46.15,3.79s46.15-3.79,46.15-3.79c9.3-10.92,14.36-24.59,14.36-39.09s-5.05-28.14-14.33-39.06c0,0-15.25-3.79-46.19-3.79s-46.19,3.79-46.19,3.79Z"/><path class="cls-5" d="M35.78,42.75c-9.28,10.91-14.33,24.57-14.33,39.06s5.07,28.19,14.37,39.11c0,0,16.83,3.59,46.14,3.59s46.14-3.59,46.14-3.59c9.31-10.92,14.37-24.6,14.37-39.11s-5.05-28.14-14.33-39.06c0,0-16.88-3.59-46.19-3.59s-46.19,3.59-46.19,3.59Z"/><path class="cls-6" d="M35.78,42.75c-9.28,10.91-14.33,24.57-14.33,39.06s5.07,28.2,14.39,39.13c0,0,18.44,3.39,46.12,3.39s46.12-3.39,46.12-3.39c9.32-10.92,14.39-24.61,14.39-39.13s-5.05-28.14-14.33-39.06c0,0-18.5-3.39-46.19-3.39s-46.19,3.39-46.19,3.39Z"/><path class="cls-4" d="M35.78,42.75c-9.28,10.91-14.33,24.57-14.33,39.06s5.08,28.22,14.4,39.15c0,0,20.06,3.19,46.11,3.19s46.11-3.19,46.11-3.19c9.33-10.93,14.4-24.62,14.4-39.15s-5.05-28.14-14.33-39.06c0,0-20.13-3.19-46.19-3.19s-46.19,3.19-46.19,3.19Z"/><path class="cls-8" d="M35.78,42.75c-9.28,10.91-14.33,24.57-14.33,39.06s5.08,28.23,14.42,39.16c0,0,21.67,2.99,46.09,2.99s46.09-2.99,46.09-2.99c9.34-10.93,14.42-24.63,14.42-39.16s-5.05-28.14-14.33-39.06c0,0-21.76-2.99-46.19-2.99s-46.19,2.99-46.19,2.99Z"/><path class="cls-11" d="M35.78,42.75c-9.28,10.91-14.33,24.57-14.33,39.06s5.09,28.25,14.43,39.18c0,0,23.28,2.79,46.08,2.79s46.08-2.79,46.08-2.79c9.35-10.93,14.43-24.64,14.43-39.18s-5.05-28.14-14.33-39.06c0,0-23.39-2.79-46.19-2.79s-46.19,2.79-46.19,2.79Z"/><path class="cls-10" d="M35.78,42.75c-9.28,10.91-14.33,24.57-14.33,39.06s5.09,28.26,14.45,39.2c0,0,24.89,2.59,46.06,2.59s46.06-2.59,46.06-2.59c9.36-10.94,14.45-24.65,14.45-39.2s-5.05-28.14-14.33-39.06c0,0-25.02-2.59-46.19-2.59s-46.19,2.59-46.19,2.59Z"/><path class="cls-9" d="M35.78,42.75c-9.28,10.91-14.33,24.57-14.33,39.06s5.1,28.28,14.47,39.22c0,0,26.51,2.39,46.05,2.39s46.05-2.39,46.05-2.39c9.37-10.94,14.47-24.66,14.47-39.22s-5.05-28.14-14.33-39.06c0,0-26.65-2.39-46.19-2.39s-46.19,2.39-46.19,2.39Z"/><path class="cls-19" d="M35.78,42.75c-9.28,10.91-14.33,24.57-14.33,39.06s5.11,28.29,14.48,39.24c0,0,28.12,2.19,46.03,2.19s46.03-2.19,46.03-2.19c9.38-10.94,14.48-24.67,14.48-39.24s-5.05-28.14-14.33-39.06c0,0-28.27-2.19-46.19-2.19s-46.19,2.19-46.19,2.19Z"/><path class="cls-18" d="M35.78,42.75c-9.28,10.91-14.33,24.57-14.33,39.06s5.11,28.31,14.5,39.25c0,0,29.73,1.99,46.02,1.99s46.01-1.99,46.01-1.99c9.39-10.95,14.5-24.68,14.5-39.25s-5.05-28.14-14.33-39.06c0,0-29.9-1.99-46.19-1.99s-46.19,1.99-46.19,1.99Z"/><path class="cls-16" d="M35.78,42.75c-9.28,10.91-14.33,24.57-14.33,39.06s5.12,28.32,14.51,39.27c0,0,31.34,1.8,46,1.8s46-1.8,46-1.8c9.4-10.95,14.51-24.69,14.51-39.27s-5.05-28.14-14.33-39.06c0,0-31.53-1.8-46.19-1.8s-46.19,1.8-46.19,1.8Z"/><path class="cls-17" d="M35.78,42.75c-9.28,10.91-14.33,24.57-14.33,39.06s5.12,28.34,14.53,39.29c0,0,32.96,1.6,45.98,1.6s45.98-1.6,45.98-1.6c9.41-10.95,14.53-24.7,14.53-39.29s-5.05-28.14-14.33-39.06c0,0-33.16-1.6-46.19-1.6s-46.19,1.6-46.19,1.6Z"/><path class="cls-15" d="M35.78,42.75c-9.28,10.91-14.33,24.57-14.33,39.06s5.13,28.35,14.54,39.31c0,0,34.57,1.4,45.97,1.4s45.97-1.4,45.97-1.4c9.42-10.95,14.54-24.71,14.54-39.31s-5.05-28.14-14.33-39.06c0,0-34.79-1.4-46.19-1.4s-46.19,1.4-46.19,1.4Z"/><path class="cls-24" d="M35.78,42.75c-9.28,10.91-14.33,24.57-14.33,39.06s5.13,28.37,14.56,39.33c0,0,36.18,1.2,45.95,1.2s45.95-1.2,45.95-1.2c9.43-10.96,14.56-24.72,14.56-39.33s-5.05-28.14-14.33-39.06c0,0-36.42-1.2-46.19-1.2s-46.19,1.2-46.19,1.2Z"/><path class="cls-22" d="M35.78,42.75c-9.28,10.91-14.33,24.57-14.33,39.06s5.14,28.38,14.57,39.34c0,0,37.8,1,45.94,1s45.94-1,45.94-1c9.43-10.96,14.57-24.73,14.57-39.34s-5.05-28.14-14.33-39.06c0,0-38.04-1-46.19-1s-46.19,1-46.19,1Z"/><path class="cls-23" d="M35.78,42.75c-9.28,10.91-14.33,24.57-14.33,39.06s5.15,28.4,14.59,39.36c0,0,39.41,.8,45.92,.8s45.92-.8,45.92-.8c9.44-10.96,14.59-24.74,14.59-39.36s-5.05-28.14-14.33-39.06c0,0-39.67-.8-46.19-.8s-46.19,.8-46.19,.8Z"/><path class="cls-21" d="M35.78,42.75c-9.28,10.91-14.33,24.57-14.33,39.06s5.15,28.41,14.61,39.38c0,0,41.02,.6,45.91,.6s45.91-.6,45.91-.6c9.45-10.97,14.61-24.75,14.61-39.38s-5.05-28.14-14.33-39.06c0,0-41.3-.6-46.19-.6s-46.19,.6-46.19,.6Z"/><path class="cls-20" d="M35.78,42.75c-9.28,10.91-14.33,24.57-14.33,39.06s5.16,28.43,14.62,39.4c0,0,42.63,.4,45.89,.4s45.89-.4,45.89-.4c9.46-10.97,14.62-24.76,14.62-39.4s-5.05-28.14-14.33-39.06c0,0-42.93-.4-46.19-.4s-46.19,.4-46.19,.4Z"/><path class="cls-13" d="M35.78,42.75c-9.28,10.91-14.33,24.57-14.33,39.06s5.16,28.44,14.64,39.42c0,0,44.25,.2,45.88,.2s45.87-.2,45.87-.2c9.47-10.97,14.64-24.77,14.64-39.42s-5.05-28.14-14.33-39.06c0,0-44.56-.2-46.19-.2s-46.19,.2-46.19,.2Z"/><path class="cls-14" d="M128.15,42.75H35.78c-9.28,10.91-14.33,24.57-14.33,39.06s5.17,28.46,14.65,39.43H127.82c9.48-10.98,14.65-24.78,14.65-39.43s-5.05-28.14-14.33-39.06Z"/></g><path class="cls-28" d="M128.15,42.75H35.78c-9.28,10.91-14.33,24.57-14.33,39.06s5.17,28.46,14.65,39.43H127.82c9.48-10.97,14.65-24.78,14.65-39.43s-5.05-28.14-14.33-39.06Z"/><path class="cls-35" d="M34.78,43.97c-.32,.4-.64,.79-.95,1.2h96.26c-.31-.4-.63-.8-.95-1.2H34.78Z"/><path class="cls-30" d="M35.14,120.08h93.64c.33-.4,.65-.79,.97-1.2H34.17c.32,.4,.64,.8,.97,1.2Z"/><polygon class="cls-28" points="99.94 133.52 103.09 133.64 104.18 136.6 105.27 133.64 108.42 133.52 105.95 131.57 106.8 128.53 104.18 130.28 101.56 128.53 102.41 131.57 99.94 133.52"/><polygon class="cls-28" points="56.03 133.52 59.18 133.64 60.27 136.6 61.36 133.64 64.51 133.52 62.04 131.57 62.89 128.53 60.27 130.28 57.65 128.53 58.5 131.57 56.03 133.52"/></g><g id="Group_9122"><rect id="Rectangle_515" class="cls-1" x="51.26" y="61.93" width="26" height="31.08"/><g id="Group_10488"><g class="cls-26"><g id="Group_10487"><path id="Path_15852" class="cls-27" d="M50.19,81.41c3.76-1.08,6.76-3.9,8.07-7.58,.41-1.02,.68-2.1,1.01-3.15l-.23-.12c-1.53,5.03-4.42,8.56-9.78,9.67,0-.74,.03-1.35,0-1.96-.03-.48,.2-.61,.59-.76,1.09-.39,2.14-.88,3.14-1.46,2.88-1.83,4.45-4.66,5.36-7.92,.16-.56,.21-1.14,.31-1.71-.61,.01-1.21,.08-1.8,.21-4.48,1.36-7.8,4-9.14,8.82-.05,.19-.24,.46-.37,.47-.72,.05-1.45,.02-2.25,.02,.34-1.9,1.1-3.7,2.23-5.27,1.67-2.14,3.95-3.73,6.55-4.54,.23-.13,.45-.28,.63-.47h-.28c-.28,.11-.56,.25-.85,.33-4.66,1.35-8.02,4.14-9.42,9.08-.13,.47-.31,.67-.81,.5-.49-.17-1.01-.24-1.57-.38,1.09-3.26,3.27-6.06,6.16-7.92,.72-.44,1.49-.79,2.23-1.19,.23-.13,.44-.28,.66-.43-.2,.07-.4,.17-.6,.22-1.91,.5-3.66,1.46-5.11,2.8-1.7,1.53-3.09,3.37-4.1,5.43-.32,.66-.65,.75-1.29,.52-3.47-1.16-6.73-2.87-9.67-5.07-.51-.41-.98-.39-1.27,.17-.59,1.1-1.11,2.24-1.64,3.36-.03,.07,.01,.17,0,.07,1.03,.26,1.97,.43,2.86,.74,2.13,.76,4.24,1.61,6.37,2.38,1.03,.37,2.1,.64,3.2,.96-.27,.76-.49,1.54-.67,2.32-.13,.77-.5,.8-1.11,.69-2.8-.51-5.53-1.31-8.16-2.39-.53-.21-1.1-.34-1.67-.37-.76-.05-.95,.22-.75,1,.17,.64,.4,1.27,.62,1.9,.18,.51,.42,.87,1.06,.62,.28-.06,.58-.04,.85,.05,2,.39,4,.81,6.01,1.18,.82,.15,1.65,.19,2.51,.29-.1,.82-.23,1.55-.25,2.29-.01,.62-.2,.85-.81,.74-2.01-.35-4.02-.67-6.04-1-.23-.04-.47-.07-.73-.1,1.66,3.11,4.37,3.67,7.46,3.42-.2,3.26,.29,6.06,3.36,7.75-.05-.29-.09-.49-.12-.7-.34-2.1-.69-4.2-.99-6.3-.04-.25,.14-.73,.28-.76,.86-.17,1.75-.23,2.64-.33,.05,.18,.08,.3,.1,.41,.25,1.81,.49,3.63,.73,5.44,.19,1.43,.87,2.79,.61,4.3-.02,.14,.2,.4,.36,.47,.73,.3,1.48,.59,2.23,.82,.6,.18,.92-.11,.9-.76,0-.25-.03-.49-.09-.73-.41-1.26-.92-2.5-1.25-3.79-.52-2-.95-4.03-1.38-6.06,0-.26,.11-.5,.33-.64,.83-.3,1.69-.52,2.6-.78,.07,.22,.14,.42,.19,.63,.32,1.12,.66,2.23,.95,3.35,.78,3,2.51,5.68,2.74,9.08,1.16-.65,2.26-1.19,3.29-1.85,.75-.48,.74-.78,.2-1.51-2.17-3.12-3.84-6.56-4.93-10.2-.16-.31-.03-.7,.28-.85,.02-.01,.05-.02,.07-.03,.92-.5,1.8-1.06,2.65-1.67,2.86-2.16,5.05-4.82,5.7-8.57-1.48,4.33-4.86,7.75-9.17,9.3-.08-.5-.19-.99-.33-1.48-.2-.58-.03-.84,.54-1.01m8.05-14.76c.47,3.3-4.94,8.93-8.6,8.95-.36-3.36,4.61-8.53,8.6-8.95m-15.43,18.44c-.06,.23-.24,.41-.46,.48-.78,.05-1.57,.02-2.42,.02,0-.86-.02-1.74,.02-2.62,0-.13,.27-.35,.42-.35,.78-.04,1.57-.02,2.47-.02,0,.92,.03,1.71-.02,2.49m.25-5.62c-.22,1.34-.22,1.34-1.58,1.26-.4-.02-.8-.11-1.34-.18,.18-.92,.34-1.74,.5-2.56,0-.26,.23-.46,.49-.45,.07,0,.14,.02,.2,.05,.14,.04,.28,.07,.42,.09q1.57,.21,1.31,1.79m1.51,.71q.11-2.46,2.72-2.13c0,.73,.03,1.42-.02,2.1-.05,.21-.2,.38-.41,.46-.64,.09-1.29,.13-1.94,.12-.12,0-.25-.26-.37-.41-.02-.03,0-.1,0-.15m2.63,4.68c-.77,.16-1.55,.31-2.47,.49-.06-.91-.12-1.73-.14-2.56,0-.11,.23-.3,.37-.33,.64-.11,1.28-.17,1.92-.27,.39-.06,.52,.11,.56,.47,.07,.64,.16,1.27,.25,2-.16,.08-.32,.14-.49,.19"/><path id="Path_15853" class="cls-27" d="M63.22,73.3h.29l2.82,3.7h1.56l-3.03-3.99-.43-.36,.31-.25,2.81-3.73h-1.46l-2.62,3.59-.24,.08v-3.66h-1.23v8.33h1.23v-3.7Z"/><path id="Path_15854" class="cls-27" d="M73.81,75.83h-3.35v-2.52h3.02v-1.17h-3.02v-2.3h3.3v-1.17h-4.53v8.33h4.58v-1.17Z"/><path id="Path_15855" class="cls-27" d="M76.99,71.46v-.03l2.19,3.72h.46l2.06-3.7,.09-.24-.02,.26v5.54h1.23v-8.32h-.97l-2.36,4.15-.22,.59-.23-.55-2.48-4.19h-.93v8.33h1.18v-5.55Z"/><path id="Path_15856" class="cls-27" d="M89.64,75.83h-3.35v-2.52h3.02v-1.17h-3.02v-2.3h3.3v-1.17h-4.53v8.33h4.58v-1.17Z"/><path id="Path_15857" class="cls-27" d="M92.66,71.61l-.04-.46,.28,.53,3.74,5.45h.73v-8.46h-1.18v5.38l.04,.41-.26-.49-3.76-5.42h-.73v8.46h1.18v-5.4Z"/><path id="Path_15858" class="cls-27" d="M101.09,77.01h1.23v-7.16h2.41v-1.17h-6.05v1.17h2.41v7.16Z"/><path id="Path_15859" class="cls-27" d="M110.64,75.83h-3.35v-2.52h3.02v-1.17h-3.02v-2.3h3.3v-1.17h-4.53v8.33h4.58v-1.17Z"/><path id="Path_15860" class="cls-27" d="M113.71,73.41l.83,.13,2.14,3.47h1.45l-2.09-3.44-.31-.25c.4-.15,.76-.4,1.04-.73,.37-.46,.56-1.04,.54-1.63,0-.38-.07-.76-.23-1.1-.14-.29-.35-.55-.61-.74-.26-.19-.55-.33-.86-.4-.33-.08-.66-.12-1-.12-.3,0-.64,.01-1.01,.05-.33,.03-.66,.07-.98,.13l-.13,.02v8.22h1.23v-3.61Zm.33-3.66c.09,0,.19-.01,.29-.01h.3c.38-.02,.75,.1,1.03,.36,.24,.24,.37,.56,.36,.9,.04,.41-.12,.81-.43,1.08-.34,.25-.75,.37-1.17,.36h-.7v-2.65h.06s.27-.03,.27-.03"/><rect id="Rectangle_2383" class="cls-27" x="119.77" y="68.68" width="1.23" height="8.33"/><path id="Path_15861" class="cls-27" d="M124.87,74.79h2.62l.79,2.22h1.31l-3.06-8.46h-.64l-3.05,8.46h1.26l.77-2.22Zm.41-1.15l.77-2.19,.13-.59,.12,.55,.79,2.24h-1.82Z"/><path id="Path_15862" class="cls-27" d="M131.71,71.59l-.04-.44,.28,.53,3.74,5.45h.73v-8.46h-1.18v5.38l.04,.41-.26-.49-3.76-5.42h-.73v8.46h1.18v-5.42Z"/><path id="Path_15863" class="cls-27" d="M66.88,80.32c-.18-.33-.44-.61-.76-.81-.31-.2-.65-.33-1.01-.4-.67-.11-1.36-.14-2.04-.07-.31,.02-.63,.07-.93,.14l-.12,.03v8.22h1.23v-3.02h.02c.09,0,.18,.01,.28,.02s.18,0,.27,0h.18c.39,0,.78-.05,1.15-.14,.37-.09,.71-.25,1.02-.48,.31-.23,.55-.53,.72-.87,.19-.41,.29-.86,.27-1.31,.02-.45-.08-.9-.29-1.31m-1,1.31c.01,.28-.05,.57-.16,.83-.1,.2-.24,.36-.43,.49-.19,.12-.4,.2-.62,.25-.24,.05-.48,.07-.72,.07h-.18c-.08,0-.16,0-.25,0h-.25s-.03-.01-.03-.01v-3.05c.09-.01,.18-.02,.27-.03,.41-.03,.82-.01,1.22,.06,.21,.05,.41,.13,.58,.25,.17,.11,.3,.27,.4,.45,.11,.22,.16,.46,.15,.7"/><path id="Path_15864" class="cls-27" d="M73.06,86.25h-3.35v-2.52h3.02v-1.17h-3.02v-2.29h3.3v-1.17h-4.53v8.33h4.58v-1.17Z"/><path id="Path_15865" class="cls-27" d="M78.89,87.43h1.45l-2.09-3.44-.31-.25c.4-.15,.76-.4,1.04-.73,.37-.46,.56-1.04,.54-1.63,0-.38-.07-.76-.23-1.1-.14-.29-.35-.55-.61-.74-.26-.19-.55-.33-.86-.4-.33-.08-.66-.12-1-.12-.3,0-.65,.01-1.01,.05-.33,.03-.66,.07-.98,.13l-.13,.03v8.22h1.23v-3.6l.83,.13,2.14,3.46Zm-2.64-7.26c.09,0,.19-.01,.29-.01h.3c.38-.02,.75,.1,1.03,.36,.24,.24,.37,.56,.36,.9,.04,.41-.12,.81-.43,1.08-.34,.25-.75,.37-1.16,.36h-.7v-2.65h.06s.27-.03,.27-.03"/><path id="Path_15866" class="cls-27" d="M86.61,80.19c-.32-.38-.72-.68-1.18-.87-.53-.22-1.1-.32-1.67-.31-.16,0-.32,0-.51,0h-.55c-.19,.01-.38,.02-.55,.03s-.34,.03-.48,.05l-.13,.02v8.29l.13,.03c.13,.02,.26,.03,.39,.04,.17,0,.35,.02,.55,.03,.2,.01,.39,.02,.59,.02,.19,0,.34,0,.46,0,.61,.02,1.22-.11,1.78-.36,.47-.23,.88-.56,1.21-.97,.31-.41,.54-.88,.68-1.38,.14-.52,.21-1.06,.21-1.61,0-.57-.07-1.13-.22-1.68-.14-.49-.37-.94-.69-1.33m-2.94,6.17s-.1,0-.2,0l-.64-.02h-.06v-6.11h.07s.3-.03,.3-.03c.11,0,.22-.01,.33-.01h.32c.41-.02,.82,.08,1.19,.27,.3,.17,.56,.41,.75,.7,.19,.3,.33,.62,.4,.97,.08,.36,.12,.72,.12,1.09,0,.4-.04,.81-.13,1.2-.08,.36-.22,.7-.42,1.01-.2,.29-.47,.53-.78,.69-.38,.18-.8,.27-1.23,.26"/><path id="Path_15867" class="cls-27" d="M90.9,78.97l-3.05,8.46h1.26l.77-2.22h2.62l.79,2.22h1.31l-3.06-8.46h-.64Zm1.21,5.09h-1.82l.77-2.19,.13-.59,.12,.55,.79,2.23Z"/><path id="Path_15868" class="cls-27" d="M99.08,87.52h0c.21-.03,.41-.07,.61-.12,.19-.05,.37-.12,.55-.2,.16-.07,.32-.16,.46-.27l.06-.05v-3.77h-2.91v.85l1.8,.23v1.99c-.33,.15-.68,.23-1.04,.22-.33,0-.67-.06-.98-.19-.29-.12-.55-.32-.75-.56-.23-.29-.39-.61-.49-.97-.13-.46-.19-.94-.18-1.41-.01-.51,.06-1.02,.22-1.5,.12-.35,.31-.68,.56-.96,.21-.23,.47-.41,.76-.51,.28-.1,.57-.16,.87-.16,.49-.03,.99,.06,1.45,.26l.17,.09,.32-1.18-.13-.06c-.25-.1-.5-.17-.76-.21-.37-.06-.75-.08-1.12-.08-.44,0-.88,.08-1.29,.24-.44,.17-.84,.43-1.17,.76-.37,.38-.66,.84-.84,1.34-.23,.63-.34,1.29-.32,1.96-.01,.64,.08,1.28,.26,1.9,.15,.5,.4,.96,.74,1.35,.31,.35,.7,.63,1.13,.8,.45,.17,.93,.26,1.42,.26,.2,0,.41-.01,.61-.04"/><path id="Path_15869" class="cls-27" d="M106.8,87.43h1.31l-3.06-8.46h-.64l-3.05,8.46h1.26l.77-2.22h2.62l.79,2.22Zm-1.18-3.36h-1.82l.77-2.19,.13-.59,.12,.55,.79,2.23Z"/><path id="Path_15870" class="cls-27" d="M113.72,84.47l.05,.41-.26-.49-3.76-5.42h-.73v8.46h1.18v-5.42l-.04-.44,.28,.53,3.74,5.45h.73v-8.46h-1.18v5.38Z"/><path id="Path_15871" class="cls-27" d="M121.75,87.19c.16-.07,.32-.16,.46-.27l.06-.05v-3.76h-2.92v.85l1.8,.23v1.99c-.33,.15-.68,.23-1.04,.22-.33,0-.67-.06-.98-.19-.29-.12-.55-.32-.75-.56-.23-.29-.39-.61-.49-.97-.13-.46-.19-.94-.18-1.42-.01-.51,.06-1.02,.22-1.5,.12-.35,.31-.68,.56-.96,.21-.23,.47-.41,.76-.51,.28-.1,.57-.16,.87-.16,.49-.03,.99,.06,1.44,.26l.17,.09,.32-1.18-.13-.06c-.25-.1-.5-.17-.76-.21-.37-.06-.75-.08-1.12-.08-.44,0-.88,.08-1.29,.24-.44,.17-.84,.43-1.17,.76-.37,.38-.66,.84-.84,1.34-.23,.63-.34,1.29-.32,1.96-.01,.64,.08,1.28,.26,1.9,.15,.5,.4,.96,.74,1.35,.31,.35,.7,.63,1.13,.8,.45,.17,.93,.26,1.42,.26,.2,0,.41-.01,.61-.04,.21-.03,.41-.07,.61-.12,.19-.05,.37-.12,.55-.2"/><path id="Path_15872" class="cls-27" d="M125.92,78.97l-3.05,8.46h1.26l.77-2.22h2.62l.79,2.22h1.31l-3.06-8.46h-.64Zm1.2,5.09h-1.82l.77-2.19,.13-.59,.12,.55,.79,2.23Z"/><path id="Path_15873" class="cls-27" d="M131.71,82.01l-.04-.44,.28,.53,3.74,5.45h.73v-8.46h-1.18v5.38l.04,.41-.26-.49-3.76-5.42h-.73v8.46h1.18v-5.42Z"/><path id="Path_15874" class="cls-27" d="M64.48,93.21c.27-.11,.51-.29,.7-.52,.28-.34,.42-.77,.4-1.21,0-.28-.05-.56-.17-.82-.11-.22-.26-.41-.45-.56-.19-.14-.41-.24-.64-.3-.49-.1-.99-.12-1.48-.05-.24,.02-.48,.05-.72,.09l-.13,.02v6.06h.98v-2.61l.54,.08,1.56,2.52h1.15l-1.57-2.58-.17-.14Zm-1.51-2.55h0l.2-.02c.07,0,.13,0,.2,0h.22c.26-.02,.52,.07,.72,.25,.17,.16,.26,.39,.25,.62,.03,.28-.09,.56-.3,.75-.24,.17-.53,.26-.82,.25h-.46v-1.84Z"/><path id="Path_15875" class="cls-27" d="M67.95,93.24h2.19v-.94h-2.19v-1.58h2.4v-.94h-3.38v6.14h3.42v-.94h-2.43v-1.74Z"/><path id="Path_15876" class="cls-27" d="M74.52,90.09c-.23-.15-.48-.25-.75-.3-.49-.08-.99-.1-1.49-.05-.23,.01-.46,.05-.68,.1l-.12,.03v6.05h.98v-2.18c.06,0,.11,0,.17,.01h.33c.29,0,.57-.03,.85-.1,.27-.07,.53-.19,.75-.36,.23-.17,.41-.4,.54-.65,.14-.3,.21-.64,.2-.97,.01-.34-.06-.67-.22-.97-.14-.25-.33-.45-.56-.61m-.24,1.58c0,.2-.03,.4-.11,.58h0c-.07,.14-.17,.25-.29,.34-.13,.08-.28,.14-.43,.17-.17,.03-.34,.05-.51,.05h-.46v-2.14s.1-.01,.15-.01c.29-.02,.59,0,.88,.05,.15,.03,.29,.09,.41,.17,.12,.08,.21,.18,.28,.31,.07,.15,.11,.32,.1,.49"/><path id="Path_15877" class="cls-27" d="M79.4,93.63c.03,.39-.05,.78-.25,1.12-.21,.23-.51,.34-.81,.31-.18,0-.37-.02-.54-.08-.14-.04-.26-.12-.35-.23-.1-.12-.18-.27-.22-.42-.06-.23-.08-.46-.08-.7v-3.85h-.98v4.18c-.04,.57,.16,1.13,.56,1.54,.45,.37,1.03,.55,1.61,.51,.28,0,.55-.04,.81-.12,.25-.08,.47-.22,.65-.4,.19-.2,.33-.43,.42-.69,.1-.31,.15-.64,.14-.96v-4.04h-.96v3.85Z"/><path id="Path_15878" class="cls-27" d="M82.59,89.78h-.98v6.14h3.64v-.94h-2.66v-5.2Z"/><rect id="Rectangle_2384" class="cls-27" x="86.12" y="89.78" width=".98" height="6.14"/><path id="Path_15879" class="cls-27" d="M90.39,92.72l.18-.15,2.11-2.79h-1.18l-1.9,2.62-.11,.04v-2.65h-.98v6.14h.98v-2.69h.14l2.05,2.69h1.25l-2.26-2.97-.28-.23Z"/><rect id="Rectangle_2385" class="cls-27" x="95.87" y="89.78" width=".98" height="6.14"/><path id="Path_15880" class="cls-27" d="M101.67,93.74v.07s-.07-.15-.07-.15l-2.75-3.97h-.59v6.24h.94v-4.09s.09,.19,.09,.19l2.73,3.98h.59v-6.23h-.94v3.95Z"/><path id="Path_15881" class="cls-27" d="M107.63,90.59c-.24-.28-.54-.5-.87-.65-.39-.16-.81-.24-1.23-.23h-.77c-.14,0-.27,.02-.4,.03s-.25,.02-.36,.04l-.13,.02v6.1l.13,.03c.1,.02,.19,.03,.29,.03l.4,.02c.15,0,.29,.01,.43,.02s.25,0,.34,0c.45,.01,.9-.08,1.31-.27,.35-.17,.65-.41,.89-.72,.23-.3,.4-.65,.5-1.02,.21-.79,.21-1.62,0-2.41-.1-.36-.27-.7-.51-.99m-.35,2.23c0,.29-.03,.58-.09,.86-.05,.26-.16,.5-.3,.72-.14,.2-.33,.37-.55,.48-.27,.13-.57,.19-.87,.18h-.15l-.47-.02h0v-4.36h.01l.22-.02c.08,0,.15,0,.23,0h.23c.29-.01,.58,.05,.84,.19,.21,.12,.39,.29,.53,.49,.14,.21,.23,.44,.28,.69,.06,.26,.08,.52,.08,.78"/><path id="Path_15882" class="cls-27" d="M113.41,90.58h0c-.2-.28-.47-.51-.78-.66-.34-.16-.72-.24-1.1-.23-.71-.03-1.39,.28-1.82,.84-.46,.69-.68,1.51-.63,2.33,0,.43,.04,.86,.14,1.27,.08,.36,.24,.7,.45,1,.2,.28,.47,.51,.77,.66,.34,.16,.71,.24,1.09,.23,.71,.03,1.39-.28,1.83-.84,.46-.69,.68-1.51,.63-2.33,0-.43-.04-.86-.14-1.27-.08-.36-.24-.7-.45-1m-.43,2.28c.04,.6-.09,1.19-.39,1.71-.24,.34-.63,.54-1.05,.52-.22,0-.44-.05-.63-.17-.18-.12-.33-.28-.44-.47-.13-.22-.22-.46-.27-.71-.06-.29-.09-.58-.09-.88-.04-.6,.09-1.19,.39-1.71,.23-.34,.62-.54,1.04-.52,.22,0,.44,.05,.64,.17,.18,.12,.34,.28,.45,.47,.13,.22,.22,.46,.27,.71,.06,.29,.09,.58,.09,.88"/><path id="Path_15883" class="cls-27" d="M118.43,93.74v.07s-.07-.15-.07-.15l-2.75-3.97h-.59v6.24h.94v-4.09s.09,.19,.09,.19l2.73,3.98h.59v-6.23h-.94v3.95Z"/><path id="Path_15884" class="cls-27" d="M121.61,93.24h2.19v-.94h-2.19v-1.58h2.39v-.94h-3.38v6.14h3.42v-.94h-2.43v-1.74Z"/><path id="Path_15885" class="cls-27" d="M127.89,92.8h0c-.21-.15-.44-.29-.68-.4-.23-.11-.45-.22-.64-.33-.17-.09-.33-.21-.46-.36-.23-.26-.2-.65,.05-.88,0,0,0,0,0,0,.2-.15,.44-.22,.69-.2,.26,0,.52,.02,.77,.08,.17,.04,.35,.09,.51,.17l.16,.08,.3-.93-.12-.06c-.21-.1-.44-.17-.67-.21-.3-.05-.61-.08-.92-.08-.5-.03-1,.13-1.4,.44-.34,.3-.53,.75-.51,1.21-.01,.31,.07,.62,.23,.88,.14,.22,.33,.42,.55,.57,.21,.15,.44,.28,.68,.38,.22,.09,.43,.2,.64,.31,.17,.09,.33,.22,.46,.36,.11,.13,.17,.29,.16,.46,0,.12-.02,.24-.08,.35-.05,.1-.13,.18-.22,.25-.1,.07-.22,.12-.35,.15-.15,.03-.31,.05-.46,.05-.26,0-.52-.03-.77-.1-.18-.04-.35-.11-.51-.19l-.16-.09-.34,.93,.12,.07c.21,.1,.42,.18,.65,.23,.34,.07,.69,.11,1.03,.1,.29,0,.58-.04,.85-.12,.24-.08,.46-.2,.66-.36,.18-.16,.33-.35,.42-.57,.1-.23,.15-.49,.14-.74,0-.3-.07-.6-.23-.86-.14-.22-.33-.41-.54-.57"/><rect id="Rectangle_2386" class="cls-27" x="129.76" y="89.78" width=".98" height="6.14"/><path id="Path_15886" class="cls-27" d="M134.23,89.69h-.52l-2.25,6.24h1.01l.56-1.61h1.84l.58,1.61h1.05l-2.26-6.24Zm.32,3.7h-1.2l.54-1.53,.06-.25,.05,.21,.55,1.57Z"/></g></g></g></g></g></g></svg>