<svg xmlns="http://www.w3.org/2000/svg" xmlns:xlink="http://www.w3.org/1999/xlink" width="261" height="261" viewBox="0 0 261 261">
  <defs>
    <clipPath id="clip-path">
      <rect id="Rectangle_2387" data-name="Rectangle 2387" width="214.702" height="74.033" fill="#353535"/>
    </clipPath>
  </defs>
  <g id="Group_10537" data-name="Group 10537" transform="translate(-403 -698)">
    <g id="Group_10504" data-name="Group 10504">
      <g id="Group_10496" data-name="Group 10496" transform="translate(-569)">
        <rect id="Rectangle_2346" data-name="Rectangle 2346" width="261" height="261" rx="4" transform="translate(972 698)" fill="#f7ba27"/>
        <text id="BAPPEBTI_SPA_Izin_base_on_KBBI_pialang_01_BAPPEBTI_SP-PN_05_2016_dh_824_BAPPEBT_SI_11_2005_SPA_:_1218_BAPPEBTI_SP_5_2007" data-name="BAPPEBTI SPA &amp; Izin base on KBBI pialang
01/BAPPEBTI/SP-PN/05/2016 dh
824/ BAPPEBT/ SI /11/2005
SPA : 1218/BAPPEBTI/SP/5/2007" transform="translate(1103 867.364)" fill="#353535" font-size="16" font-family="PTSans-Bold, PT Sans" font-weight="700"><tspan x="-102.36" y="0">BAPPEBTI SPA &amp; Izin base on </tspan><tspan x="-44.128" y="16">KBBI pialang</tspan><tspan x="-115.696" y="32">01/BAPPEBTI/SP-PN/05/2016 dh</tspan><tspan x="-98.4" y="48">824/ BAPPEBT/ SI /11/2005</tspan><tspan x="-115.792" y="64">SPA : 1218/BAPPEBTI/SP/5/2007</tspan></text>
      </g>
    </g>
    <g id="Group_10536" data-name="Group 10536">
      <g id="Group_10501" data-name="Group 10501" transform="translate(-485.851 -3181.364)">
        <rect id="Rectangle_515" data-name="Rectangle 515" width="49.279" height="58.898" transform="translate(961.17 3919)" fill="none"/>
        <g id="Group_10488" data-name="Group 10488" transform="translate(912 3920.895)">
          <g id="Group_10487" data-name="Group 10487" transform="translate(0 0)" clip-path="url(#clip-path)">
            <path id="Path_15852" data-name="Path 15852" d="M44.094,29.856c7.393-2.179,12.4-7.118,15.3-14.37.773-1.933,1.284-3.977,1.914-5.97L60.88,9.3c-2.9,9.524-8.385,16.226-18.546,18.338,0-1.4.055-2.561-.017-3.715-.057-.9.387-1.15,1.114-1.448a37.288,37.288,0,0,0,5.956-2.754c5.451-3.473,8.437-8.826,10.168-15.018.295-1.055.4-2.165.595-3.249a18.658,18.658,0,0,0-3.41.392C48.258,4.412,41.952,9.416,39.414,18.561c-.1.353-.448.877-.708.894-1.367.09-2.743.042-4.256.042a24.6,24.6,0,0,1,4.225-9.992c3.181-4.329,7.545-6.849,12.406-8.62A5.306,5.306,0,0,0,52.282,0h-.548c-.535.213-1.057.473-1.607.632C41.291,3.2,34.928,8.487,32.272,17.848c-.251.883-.578,1.273-1.535.945-.925-.318-1.905-.463-2.979-.712,2.429-6.413,6.06-11.545,11.676-15.014C40.8,2.226,42.264,1.572,43.672.811c.434-.235.834-.539,1.25-.811-.38.14-.751.313-1.14.416a22.736,22.736,0,0,0-9.69,5.3A34.366,34.366,0,0,0,26.316,16c-.611,1.25-1.241,1.429-2.453.981-6.5-2.4-12.793-5.222-18.311-9.6-.972-.772-1.847-.739-2.414.314-1.12,2.08-2.1,4.242-3.116,6.378-.061.128.024.33,0,.129,1.943.494,3.734.808,5.428,1.409,4.044,1.434,8.027,3.05,12.066,4.5,1.958.7,3.985,1.2,6.064,1.82a38.9,38.9,0,0,0-1.27,4.4c-.246,1.452-.949,1.515-2.1,1.3A76.522,76.522,0,0,1,4.739,23.107a10.119,10.119,0,0,0-3.173-.7c-1.444-.1-1.807.421-1.425,1.892.317,1.219.767,2.4,1.178,3.594.336.974.8,1.641,2.013,1.179a3.207,3.207,0,0,1,1.617.088c3.8.739,7.583,1.541,11.387,2.241,1.548.285,3.131.367,4.764.549-.179,1.554-.441,2.946-.471,4.342-.025,1.181-.372,1.6-1.538,1.4-3.809-.663-7.626-1.271-11.44-1.9-.443-.073-.888-.124-1.388-.192,3.142,5.9,8.282,6.964,14.146,6.484-.385,6.183.558,11.481,6.37,14.689-.1-.551-.168-.937-.23-1.325-.637-3.978-1.3-7.952-1.876-11.939-.067-.464.264-1.387.529-1.438,1.64-.314,3.314-.438,5.014-.63.085.342.161.56.191.784q.7,5.155,1.384,10.31c.359,2.715,1.647,5.286,1.166,8.145-.043.259.379.768.688.9,1.388.577,2.8,1.12,4.232,1.556,1.13.343,1.749-.211,1.712-1.438a4.976,4.976,0,0,0-.179-1.383c-.782-2.4-1.74-4.746-2.377-7.183-.993-3.8-1.8-7.647-2.612-11.491a1.433,1.433,0,0,1,.615-1.22c1.577-.569,3.205-.986,4.922-1.488.129.416.256.806.369,1.2.606,2.114,1.254,4.218,1.8,6.347,1.471,5.679,4.752,10.761,5.2,17.217,2.2-1.223,4.275-2.262,6.23-3.5,1.42-.9,1.393-1.48.384-2.855-4.286-5.842-7.089-12.446-9.351-19.33a1.2,1.2,0,0,1,.679-1.673,44.355,44.355,0,0,0,5.009-3.158c5.418-4.1,9.569-9.145,10.794-16.247A28.568,28.568,0,0,1,43.7,34.56a26.428,26.428,0,0,0-.627-2.8c-.374-1.1-.065-1.587,1.018-1.906M59.369,1.877C60.25,8.14,50.006,18.8,43.063,18.847,42.386,12.479,51.8,2.681,59.369,1.877M30.126,36.822a1.293,1.293,0,0,1-.876.9c-1.487.1-2.983.042-4.585.042,0-1.64-.034-3.3.037-4.963.01-.246.508-.66.794-.673,1.489-.068,2.981-.032,4.671-.032,0,1.739.054,3.238-.041,4.726m.484-10.651c-.417,2.53-.418,2.545-3,2.393-.761-.045-1.515-.2-2.532-.346.342-1.75.641-3.3.949-4.847a.89.89,0,0,1,1.3-.764,4.9,4.9,0,0,0,.8.167c2.975.4,2.975.4,2.48,3.4m2.866,1.35c.2-4.667.2-4.668,5.16-4.041,0,1.378.051,2.688-.036,3.988a1.211,1.211,0,0,1-.768.865,25.8,25.8,0,0,1-3.674.235c-.236,0-.478-.491-.7-.772-.041-.053.011-.181.016-.275m4.987,8.867c-1.463.308-2.931.589-4.687.937-.105-1.719-.229-3.282-.262-4.847,0-.212.429-.577.7-.626,1.208-.218,2.436-.318,3.648-.518.732-.121.988.2,1.062.891.129,1.208.3,2.413.474,3.794a6.229,6.229,0,0,1-.937.369" transform="translate(3.048 5.17)" fill="#353535"/>
            <path id="Path_15853" data-name="Path 15853" d="M140.652,32.8h.54l5.345,7.022H149.5l-5.746-7.565-.82-.676.58-.472,5.332-7.076h-2.774l-4.957,6.805-.463.149V24.032h-2.339v15.79h2.339Z" transform="translate(-68.823 -13.142)" fill="#353535"/>
            <path id="Path_15854" data-name="Path 15854" d="M173.683,37.6h-6.351V32.822h5.722V30.6h-5.722V26.255h6.246V24.032h-8.584v15.79h8.689Z" transform="translate(-81.776 -13.142)" fill="#353535"/>
            <path id="Path_15855" data-name="Path 15855" d="M191.477,29.305l-.006-.064,4.149,7.048h.865l3.9-7,.179-.457-.046.5v10.5h2.339V24.033h-1.833L196.557,31.9l-.423,1.12-.426-1.041-4.7-7.947h-1.766v15.79h2.234Z" transform="translate(-93.548 -13.142)" fill="#353535"/>
            <path id="Path_15856" data-name="Path 15856" d="M231.986,37.6h-6.351V32.822h5.722V30.6h-5.722V26.255h6.246V24.032H223.3v15.79h8.689Z" transform="translate(-110.08 -13.142)" fill="#353535"/>
            <path id="Path_15857" data-name="Path 15857" d="M249.2,29.377l-.082-.868.524,1.014,7.089,10.328H258.1V23.823h-2.234V34.015l.084.78-.486-.927-7.131-10.283h-1.375V39.612H249.2Z" transform="translate(-121.569 -12.932)" fill="#353535"/>
            <path id="Path_15858" data-name="Path 15858" d="M278.05,39.822h2.339V26.255h4.569V24.033H273.481v2.223h4.569Z" transform="translate(-134.443 -13.142)" fill="#353535"/>
            <path id="Path_15859" data-name="Path 15859" d="M309.34,37.6h-6.351V32.822h5.722V30.6h-5.722V26.255h6.246V24.032h-8.584v15.79h8.689Z" transform="translate(-147.633 -13.142)" fill="#353535"/>
            <path id="Path_15860" data-name="Path 15860" d="M326.656,32.85l1.575.25,4.06,6.569h2.738l-3.963-6.524-.589-.47a4.792,4.792,0,0,0,1.972-1.39,4.607,4.607,0,0,0,1.018-3.087,4.678,4.678,0,0,0-.431-2.092,3.938,3.938,0,0,0-1.148-1.409,4.509,4.509,0,0,0-1.637-.767,7.917,7.917,0,0,0-1.9-.225c-.576,0-1.223.029-1.921.087a18.346,18.346,0,0,0-1.864.243l-.245.047V39.669h2.339Zm.624-6.943c.177-.014.36-.021.543-.021h.566a2.688,2.688,0,0,1,1.953.674,2.261,2.261,0,0,1,.682,1.7,2.421,2.421,0,0,1-.824,2.05,3.5,3.5,0,0,1-2.209.674h-1.335V25.963l.114-.013.51-.043" transform="translate(-159.122 -12.99)" fill="#353535"/>
            <rect id="Rectangle_2383" data-name="Rectangle 2383" width="2.339" height="15.79" transform="translate(179.007 10.89)" fill="#353535"/>
            <path id="Path_15861" data-name="Path 15861" d="M366.33,35.408h4.962l1.5,4.2h2.484l-5.8-16.028h-1.212l-5.778,16.028h2.381Zm.78-2.18,1.46-4.157.253-1.126.238,1.047,1.491,4.236Z" transform="translate(-177.654 -12.932)" fill="#353535"/>
            <path id="Path_15862" data-name="Path 15862" d="M393.064,29.346l-.08-.837.524,1.014L400.6,39.851h1.376V23.822h-2.233V34.014l.084.78-.486-.927-7.131-10.283h-1.375V39.612h2.234Z" transform="translate(-191.413 -12.932)" fill="#353535"/>
            <path id="Path_15863" data-name="Path 15863" d="M147.645,63.324a4.288,4.288,0,0,0-1.432-1.538,5.517,5.517,0,0,0-1.914-.755,14.435,14.435,0,0,0-3.859-.135,10.561,10.561,0,0,0-1.767.268l-.231.056V76.793h2.338V71.068l.032,0q.258.022.526.034t.516.011h.346a8.915,8.915,0,0,0,2.188-.269,5.42,5.42,0,0,0,1.927-.906,4.667,4.667,0,0,0,1.368-1.657A5.476,5.476,0,0,0,148.2,65.8a5.009,5.009,0,0,0-.555-2.475M145.757,65.8a3.437,3.437,0,0,1-.311,1.567,2.371,2.371,0,0,1-.807.924,3.318,3.318,0,0,1-1.165.468,6.943,6.943,0,0,1-1.358.135h-.335q-.225,0-.469-.011l-.482-.022-.049,0V63.08a4.341,4.341,0,0,1,.509-.048,8.814,8.814,0,0,1,2.313.123,3.275,3.275,0,0,1,1.106.467,2.359,2.359,0,0,1,.762.845,2.788,2.788,0,0,1,.286,1.333" transform="translate(-68.885 -30.362)" fill="#353535"/>
            <path id="Path_15864" data-name="Path 15864" d="M170.919,74.723h-6.351V69.946h5.722V67.723h-5.722V63.38h6.246V61.156H162.23v15.79h8.689Z" transform="translate(-80.434 -30.515)" fill="#353535"/>
            <path id="Path_15865" data-name="Path 15865" d="M193.056,76.793h2.738l-3.963-6.524-.589-.47a4.789,4.789,0,0,0,1.972-1.39,4.607,4.607,0,0,0,1.018-3.087,4.677,4.677,0,0,0-.431-2.092,3.931,3.931,0,0,0-1.148-1.409,4.5,4.5,0,0,0-1.637-.766,7.884,7.884,0,0,0-1.9-.225c-.577,0-1.223.029-1.921.087a18.4,18.4,0,0,0-1.864.243l-.245.047V76.793h2.339V69.975l1.575.249Zm-5.011-13.762c.174-.014.358-.021.543-.021h.566a2.69,2.69,0,0,1,1.953.674,2.263,2.263,0,0,1,.682,1.7,2.421,2.421,0,0,1-.824,2.05,3.5,3.5,0,0,1-2.209.674h-1.335V63.087l.114-.013.51-.043" transform="translate(-91.528 -30.363)" fill="#353535"/>
            <path id="Path_15866" data-name="Path 15866" d="M219.96,63.073a6.008,6.008,0,0,0-2.238-1.655,7.893,7.893,0,0,0-3.166-.587q-.443,0-.96.011l-1.048.022c-.366.007-.716.022-1.04.044s-.643.055-.918.1l-.253.041V76.76l.241.049a5.137,5.137,0,0,0,.737.071q.481.022,1.044.054t1.111.044q.538.01.875.011a7.61,7.61,0,0,0,3.378-.691,6.4,6.4,0,0,0,2.286-1.842,7.567,7.567,0,0,0,1.28-2.622,11.568,11.568,0,0,0,.4-3.042,11.451,11.451,0,0,0-.421-3.188,6.937,6.937,0,0,0-1.307-2.53m-5.571,11.693c-.068,0-.2,0-.388-.011l-1.215-.043-.11,0V63.129l.133-.012c.174-.014.365-.029.573-.043s.415-.021.619-.021h.6a4.468,4.468,0,0,1,2.254.513,4.159,4.159,0,0,1,1.418,1.323,5.432,5.432,0,0,1,.752,1.833,9.841,9.841,0,0,1,.224,2.068A10.623,10.623,0,0,1,219,71.073a5.468,5.468,0,0,1-.8,1.906,4.01,4.01,0,0,1-1.483,1.3,5.017,5.017,0,0,1-2.328.487" transform="translate(-103.788 -30.363)" fill="#353535"/>
            <path id="Path_15867" data-name="Path 15867" d="M239.363,60.708l-5.778,16.028h2.381l1.46-4.2h4.961l1.5,4.2h2.484l-5.8-16.028Zm2.284,9.644h-3.441l1.46-4.157.253-1.126.238,1.048Z" transform="translate(-115.075 -30.305)" fill="#353535"/>
            <path id="Path_15868" data-name="Path 15868" d="M267.518,76.9h0a8.208,8.208,0,0,0,1.152-.236,7.207,7.207,0,0,0,1.048-.384,4.394,4.394,0,0,0,.865-.512l.119-.093V68.534h-5.524v1.6l3.417.434v3.765a4.358,4.358,0,0,1-1.979.42,4.726,4.726,0,0,1-1.851-.356,3.7,3.7,0,0,1-1.422-1.064,5.215,5.215,0,0,1-.934-1.831,9.309,9.309,0,0,1-.342-2.681,8.3,8.3,0,0,1,.42-2.837,5.339,5.339,0,0,1,1.067-1.824A3.708,3.708,0,0,1,265,63.187a4.848,4.848,0,0,1,1.651-.3,6.143,6.143,0,0,1,2.738.488l.323.167.612-2.23-.248-.1a6.733,6.733,0,0,0-1.447-.4,12.936,12.936,0,0,0-2.124-.145,7.06,7.06,0,0,0-2.449.452,6.161,6.161,0,0,0-2.224,1.445,7.35,7.35,0,0,0-1.6,2.544,10.225,10.225,0,0,0-.609,3.714,11.729,11.729,0,0,0,.5,3.6,7.09,7.09,0,0,0,1.4,2.56,5.646,5.646,0,0,0,2.146,1.509,7.248,7.248,0,0,0,2.685.487,9.027,9.027,0,0,0,1.159-.078" transform="translate(-127.716 -30.286)" fill="#353535"/>
            <path id="Path_15869" data-name="Path 15869" d="M293.666,76.736h2.484l-5.8-16.028H289.14l-5.778,16.028h2.381l1.46-4.2h4.961Zm-2.242-6.384h-3.441l1.46-4.157.253-1.126.238,1.048Z" transform="translate(-139.24 -30.305)" fill="#353535"/>
            <path id="Path_15870" data-name="Path 15870" d="M320.511,71.138l.084.78-.486-.927-7.131-10.283H311.6V76.736h2.234l0-10.265-.08-.837.524,1.014,7.089,10.328h1.376V60.946h-2.234Z" transform="translate(-152.95 -30.305)" fill="#353535"/>
            <path id="Path_15871" data-name="Path 15871" d="M348.948,76.278a4.368,4.368,0,0,0,.865-.512l.12-.093V68.534h-5.525v1.6l3.417.434v3.765a4.358,4.358,0,0,1-1.979.42A4.726,4.726,0,0,1,344,74.4a3.705,3.705,0,0,1-1.422-1.063,5.225,5.225,0,0,1-.934-1.831,9.314,9.314,0,0,1-.342-2.681,8.3,8.3,0,0,1,.42-2.837,5.339,5.339,0,0,1,1.067-1.824,3.707,3.707,0,0,1,1.445-.974,4.85,4.85,0,0,1,1.651-.3,6.142,6.142,0,0,1,2.738.488l.323.167.612-2.23-.248-.1a6.735,6.735,0,0,0-1.447-.4,12.938,12.938,0,0,0-2.124-.145,7.06,7.06,0,0,0-2.449.452,6.161,6.161,0,0,0-2.224,1.445,7.341,7.341,0,0,0-1.6,2.544,10.213,10.213,0,0,0-.609,3.714,11.73,11.73,0,0,0,.5,3.6,7.087,7.087,0,0,0,1.4,2.56A5.643,5.643,0,0,0,342.9,76.49a7.248,7.248,0,0,0,2.685.487,9.035,9.035,0,0,0,1.159-.078,8.208,8.208,0,0,0,1.152-.236,7.206,7.206,0,0,0,1.048-.384" transform="translate(-166.18 -30.286)" fill="#353535"/>
            <path id="Path_15872" data-name="Path 15872" d="M368.369,60.708l-5.778,16.028h2.381l1.46-4.2h4.961l1.5,4.2h2.484l-5.8-16.028Zm2.284,9.644h-3.441l1.46-4.157.253-1.126.238,1.048Z" transform="translate(-177.703 -30.305)" fill="#353535"/>
            <path id="Path_15873" data-name="Path 15873" d="M393.064,66.471l-.08-.837.524,1.014L400.6,76.975h1.376V60.947h-2.233V71.139l.084.78-.486-.927-7.131-10.282h-1.375V76.737h2.234Z" transform="translate(-191.413 -30.305)" fill="#353535"/>
          </g>
        </g>
      </g>
      <path id="Path_15935" data-name="Path 15935" d="M.912,4.466q.35-.061.752-.114t.806-.084q.4-.03.783-.046t.7-.015a7.862,7.862,0,0,1,1.467.137,4,4,0,0,1,1.292.471,2.52,2.52,0,0,1,.912.92A2.87,2.87,0,0,1,7.965,7.2,3.485,3.485,0,0,1,7.357,9.33,3.132,3.132,0,0,1,5.73,10.47l.745.471L8.907,15h-2.4L4.089,10.835l-1.094-.2V15H.912ZM4.1,6.062q-.319,0-.631.015a2.365,2.365,0,0,0-.479.061V9.224h.882a2.22,2.22,0,0,0,1.383-.4,1.543,1.543,0,0,0,.517-1.307A1.376,1.376,0,0,0,5.35,6.45,1.792,1.792,0,0,0,4.1,6.062Zm5.958-1.7H16.37V6.214H12.145V8.692H15.99v1.854H12.145v2.6h4.3V15H10.062ZM18,4.466q.638-.122,1.406-.19t1.528-.068a9.924,9.924,0,0,1,1.588.129,3.956,3.956,0,0,1,1.436.517A3,3,0,0,1,25,5.933a3.552,3.552,0,0,1,.4,1.8,3.728,3.728,0,0,1-.35,1.695,3.235,3.235,0,0,1-.927,1.132,3.738,3.738,0,0,1-1.315.638,5.875,5.875,0,0,1-1.528.2h-.243q-.167,0-.35-.008t-.357-.023q-.175-.015-.251-.03V15H18ZM21.1,6q-.3,0-.578.023t-.441.053v3.45a1.667,1.667,0,0,0,.182.03q.122.015.258.023t.266.008h.19a4.376,4.376,0,0,0,.813-.076,2.01,2.01,0,0,0,.722-.281,1.466,1.466,0,0,0,.509-.57,2.076,2.076,0,0,0,.19-.958,1.685,1.685,0,0,0-.182-.828,1.493,1.493,0,0,0-.479-.524,1.865,1.865,0,0,0-.676-.274A3.943,3.943,0,0,0,21.1,6ZM32.467,4.36h1.976v6.87a5.166,5.166,0,0,1-.274,1.778,3.339,3.339,0,0,1-.76,1.231,2.933,2.933,0,0,1-1.186.714,4.929,4.929,0,0,1-1.535.228q-4.043,0-4.043-3.694V4.36h2.082v6.718a4.209,4.209,0,0,0,.114,1.056,1.631,1.631,0,0,0,.357.7,1.353,1.353,0,0,0,.608.38,2.861,2.861,0,0,0,.851.114,1.668,1.668,0,0,0,1.383-.532,2.758,2.758,0,0,0,.426-1.718ZM43.381,6.838a3.267,3.267,0,0,1-.1.79,2.176,2.176,0,0,1-.325.722,2.3,2.3,0,0,1-.589.578,2.564,2.564,0,0,1-.876.372v.091a3.538,3.538,0,0,1,.862.258,2.211,2.211,0,0,1,.711.5,2.307,2.307,0,0,1,.476.775,3.025,3.025,0,0,1,.174,1.079,2.775,2.775,0,0,1-.35,1.421,2.884,2.884,0,0,1-.935.98,4.3,4.3,0,0,1-1.33.562,6.431,6.431,0,0,1-1.535.182H38.9q-.4,0-.866-.023t-.942-.068a6.744,6.744,0,0,1-.874-.137V4.436q.289-.046.661-.091t.8-.076q.426-.03.874-.046t.889-.015a9.1,9.1,0,0,1,1.452.114,4.144,4.144,0,0,1,1.262.4,2.311,2.311,0,0,1,.889.806A2.362,2.362,0,0,1,43.381,6.838ZM39.587,13.4a2.892,2.892,0,0,0,.724-.09,1.89,1.89,0,0,0,.619-.278,1.457,1.457,0,0,0,.433-.474,1.337,1.337,0,0,0,.164-.677,1.377,1.377,0,0,0-.194-.782,1.322,1.322,0,0,0-.507-.444,2.078,2.078,0,0,0-.7-.2,6.709,6.709,0,0,0-.776-.045H38.258v2.9a.91.91,0,0,0,.239.045q.164.015.351.023l.388.015Q39.437,13.4,39.587,13.4Zm-.659-4.575q.213,0,.494-.015a4.415,4.415,0,0,0,.464-.045,2.763,2.763,0,0,0,1-.542A1.192,1.192,0,0,0,41.3,7.28a1.249,1.249,0,0,0-.152-.647,1.151,1.151,0,0,0-.4-.406,1.718,1.718,0,0,0-.57-.211,3.6,3.6,0,0,0-.669-.06q-.4,0-.73.015a4.713,4.713,0,0,0-.517.045V8.829ZM51.938,15H45.2V4.36h2.082v8.786h4.651ZM53.23,4.36h2.082V15H53.23Zm6.749,6.1h-.547V15H57.35V4.36h2.082V9.072l.486-.213,2.934-4.5h2.371l-3.1,4.469-.821.578.851.593,3.542,5H63.126Zm10.4-6.1h2.082V15H70.376ZM77.14,9.452,76.3,7.78h-.076l.243,1.672V15H74.5V4.284h1.52l4.028,5.67.806,1.626h.076l-.243-1.626V4.36h1.976V15.076h-1.52ZM84.482,4.36q.319-.046.722-.076t.828-.046q.426-.015.828-.023t.722-.008A6.6,6.6,0,0,1,90,4.6a4.111,4.111,0,0,1,1.626,1.11,4.45,4.45,0,0,1,.912,1.7,7.727,7.727,0,0,1,.289,2.174,7.879,7.879,0,0,1-.274,2.082,4.712,4.712,0,0,1-.912,1.778,4.573,4.573,0,0,1-1.68,1.246,6.243,6.243,0,0,1-2.576.471q-.243,0-.646-.015t-.836-.038l-.828-.046q-.4-.023-.593-.053Zm3.268,1.7q-.334,0-.676.015a4.135,4.135,0,0,0-.509.046v7.129a1.222,1.222,0,0,0,.205.023l.312.015.319.015q.152.008.228.008A3.1,3.1,0,0,0,89.095,13a2.492,2.492,0,0,0,.927-.828A3.336,3.336,0,0,0,90.5,10.98a7,7,0,0,0,.137-1.391,6.612,6.612,0,0,0-.122-1.254A3.141,3.141,0,0,0,90.068,7.2a2.528,2.528,0,0,0-.889-.821A2.867,2.867,0,0,0,87.75,6.062ZM93.982,9.68a6.333,6.333,0,0,1,1.17-4.1A4.066,4.066,0,0,1,98.5,4.147a4.686,4.686,0,0,1,1.991.4A3.751,3.751,0,0,1,101.9,5.667a4.916,4.916,0,0,1,.836,1.748,8.726,8.726,0,0,1,.274,2.265,6.3,6.3,0,0,1-1.178,4.1A4.071,4.071,0,0,1,98.5,15.213a4.725,4.725,0,0,1-2.006-.4,3.688,3.688,0,0,1-1.406-1.125,4.993,4.993,0,0,1-.828-1.748A8.726,8.726,0,0,1,93.982,9.68Zm2.189,0a7.486,7.486,0,0,0,.137,1.482,3.829,3.829,0,0,0,.418,1.163,2.127,2.127,0,0,0,.722.76,1.949,1.949,0,0,0,1.049.274,1.976,1.976,0,0,0,1.718-.866,5.01,5.01,0,0,0,.608-2.812,7.615,7.615,0,0,0-.129-1.444,4.027,4.027,0,0,0-.4-1.17,2.1,2.1,0,0,0-.714-.783,2.14,2.14,0,0,0-2.8.608A5.027,5.027,0,0,0,96.17,9.68Zm10.974-.228-.836-1.672h-.076l.243,1.672V15H104.5V4.284h1.52l4.028,5.67.806,1.626h.076l-.243-1.626V4.36h1.976V15.076h-1.52Zm7.342-5.092h6.308V6.214h-4.226V8.692h3.846v1.854h-3.846v2.6h4.3V15h-6.384Zm12.525,7.782a.989.989,0,0,0-.357-.79,3.941,3.941,0,0,0-.9-.555q-.54-.251-1.17-.517a5.983,5.983,0,0,1-1.17-.654,3.333,3.333,0,0,1-.9-.965,2.763,2.763,0,0,1-.357-1.474,3.235,3.235,0,0,1,.258-1.345,2.524,2.524,0,0,1,.737-.95,3.167,3.167,0,0,1,1.132-.562,5.425,5.425,0,0,1,1.459-.182,9.151,9.151,0,0,1,1.748.16,4.443,4.443,0,0,1,1.353.464L128.2,6.518a3.657,3.657,0,0,0-1-.388,5.7,5.7,0,0,0-1.444-.175,1.847,1.847,0,0,0-1.117.289.918.918,0,0,0-.388.775.957.957,0,0,0,.357.76,4.135,4.135,0,0,0,.9.562q.54.258,1.17.532a6.287,6.287,0,0,1,1.17.661,3.37,3.37,0,0,1,.9.958,2.629,2.629,0,0,1,.357,1.421,3.508,3.508,0,0,1-.281,1.467,2.78,2.78,0,0,1-.79,1.026,3.339,3.339,0,0,1-1.231.608,6.007,6.007,0,0,1-1.588.2A8.462,8.462,0,0,1,123.2,15a6.137,6.137,0,0,1-1.277-.426l.669-1.778a4.132,4.132,0,0,0,.433.2,5.568,5.568,0,0,0,.6.2,6.932,6.932,0,0,0,.707.152,4.757,4.757,0,0,0,.768.061,2.676,2.676,0,0,0,1.421-.312A1.046,1.046,0,0,0,127.011,12.142ZM130.69,4.36h2.082V15H130.69Zm9.363,8.284h-3.268L135.979,15H133.9l3.83-10.716h1.535L143.093,15H140.9Zm-2.736-1.672h2.28l-.79-2.371-.319-1.672h-.076l-.319,1.687Z" transform="translate(495 786)" fill="#353535"/>
    </g>
  </g>
</svg>
