<svg xmlns="http://www.w3.org/2000/svg" xmlns:xlink="http://www.w3.org/1999/xlink" width="261" height="261" viewBox="0 0 261 261">
  <defs>
    <clipPath id="clip-path">
      <rect id="Rectangle_510" data-name="Rectangle 510" width="155.69" height="55.505" fill="#353535"/>
    </clipPath>
  </defs>
  <g id="Group_10497" data-name="Group 10497" transform="translate(-687 -983)">
    <rect id="Rectangle_2348" data-name="Rectangle 2348" width="261" height="261" rx="4" transform="translate(687 983)" fill="#f7ba27"/>
    <path id="Path_15937" data-name="Path 15937" d="M-103.16,18.24h2.224V11.92l.24-1.088-.768.944-1.424.976-.88-1.2,3.648-2.944h1.168V18.24h2.176V20h-6.384Zm15.776-1.712a3.947,3.947,0,0,1-.264,1.456,3.5,3.5,0,0,1-.744,1.168,3.482,3.482,0,0,1-1.16.784,3.8,3.8,0,0,1-1.5.288,4.276,4.276,0,0,1-1.528-.264,3.284,3.284,0,0,1-1.208-.792,3.654,3.654,0,0,1-.8-1.328,5.47,5.47,0,0,1-.288-1.856,8.491,8.491,0,0,1,.456-2.864,7.459,7.459,0,0,1,1.232-2.232,6.362,6.362,0,0,1,1.808-1.536,6.609,6.609,0,0,1,2.184-.776l.464,1.648a4.529,4.529,0,0,0-1.472.5,5.35,5.35,0,0,0-1.192.88,5.233,5.233,0,0,0-.88,1.144,4.552,4.552,0,0,0-.5,1.3,2.716,2.716,0,0,1,.832-.68,2.643,2.643,0,0,1,1.28-.28,3.814,3.814,0,0,1,1.328.224,2.785,2.785,0,0,1,1.04.664,3.042,3.042,0,0,1,.672,1.08A4.177,4.177,0,0,1-87.384,16.528Zm-2.016.112a1.57,1.57,0,0,0-1.76-1.792,1.93,1.93,0,0,0-1.08.288,1.628,1.628,0,0,0-.616.672,1.735,1.735,0,0,0-.032.3v.256a2.649,2.649,0,0,0,.112.76,2.19,2.19,0,0,0,.328.672,1.659,1.659,0,0,0,.552.48,1.642,1.642,0,0,0,.8.184,1.588,1.588,0,0,0,1.224-.512A1.86,1.86,0,0,0-89.4,16.64Zm11.616.24h-1.76V20H-81.48V16.88h-4.848V15.7l5.072-6.976h1.712v6.5h1.76Zm-3.7-4.112.144-1.344H-81.4l-.544,1.152-1.664,2.16-.8.608,1.024-.128h1.9Zm9.248-4.16,1.568.7L-76.376,22.24l-1.568-.736Zm6.992,8.384a1.041,1.041,0,0,0-.376-.832,4.149,4.149,0,0,0-.944-.584q-.568-.264-1.232-.544a6.3,6.3,0,0,1-1.232-.688,3.509,3.509,0,0,1-.944-1.016,2.908,2.908,0,0,1-.376-1.552,3.4,3.4,0,0,1,.272-1.416,2.657,2.657,0,0,1,.776-1A3.334,3.334,0,0,1-68.1,8.768a5.711,5.711,0,0,1,1.536-.192,9.633,9.633,0,0,1,1.84.168,4.676,4.676,0,0,1,1.424.488l-.688,1.84a3.849,3.849,0,0,0-1.056-.408,6,6,0,0,0-1.52-.184,1.944,1.944,0,0,0-1.176.3.966.966,0,0,0-.408.816,1.008,1.008,0,0,0,.376.8,4.353,4.353,0,0,0,.944.592q.568.272,1.232.56a6.618,6.618,0,0,1,1.232.7,3.548,3.548,0,0,1,.944,1.008,2.768,2.768,0,0,1,.376,1.5,3.692,3.692,0,0,1-.3,1.544,2.927,2.927,0,0,1-.832,1.08,3.515,3.515,0,0,1-1.3.64,6.323,6.323,0,0,1-1.672.208A8.908,8.908,0,0,1-69.256,20a6.461,6.461,0,0,1-1.344-.448l.7-1.872a4.35,4.35,0,0,0,.456.208,5.862,5.862,0,0,0,.632.208,7.3,7.3,0,0,0,.744.16,5.008,5.008,0,0,0,.808.064,2.817,2.817,0,0,0,1.5-.328A1.1,1.1,0,0,0-65.24,16.992Zm3.648-8.08q.672-.128,1.48-.2T-58.5,8.64a10.446,10.446,0,0,1,1.672.136,4.165,4.165,0,0,1,1.512.544,3.159,3.159,0,0,1,1.1,1.136,3.739,3.739,0,0,1,.424,1.9,3.924,3.924,0,0,1-.368,1.784,3.405,3.405,0,0,1-.976,1.192A3.935,3.935,0,0,1-56.528,16a6.184,6.184,0,0,1-1.608.208h-.256q-.176,0-.368-.008t-.376-.024q-.184-.016-.264-.032V20h-2.192Zm3.264,1.616q-.32,0-.608.024t-.464.056V14.24a1.754,1.754,0,0,0,.192.032q.128.016.272.024t.28.008h.2a4.607,4.607,0,0,0,.856-.08,2.115,2.115,0,0,0,.76-.3,1.543,1.543,0,0,0,.536-.6,2.185,2.185,0,0,0,.2-1.008,1.774,1.774,0,0,0-.192-.872,1.572,1.572,0,0,0-.5-.552,1.963,1.963,0,0,0-.712-.288A4.151,4.151,0,0,0-58.328,10.528Zm8.656,4.688h-.576V20H-52.44V8.8h2.192v4.96l.512-.224L-46.648,8.8h2.5l-3.264,4.7-.864.608.9.624L-43.656,20h-2.7Zm14.688-3.808a3.438,3.438,0,0,1-.1.832,2.291,2.291,0,0,1-.342.76,2.416,2.416,0,0,1-.62.608,2.7,2.7,0,0,1-.923.392v.1a3.724,3.724,0,0,1,.907.272,2.327,2.327,0,0,1,.748.528,2.428,2.428,0,0,1,.5.816,3.184,3.184,0,0,1,.183,1.136,2.921,2.921,0,0,1-.368,1.5,3.036,3.036,0,0,1-.984,1.032,4.524,4.524,0,0,1-1.4.592A6.769,6.769,0,0,1-39,20.16h-.7q-.424,0-.912-.024t-.992-.072a7.1,7.1,0,0,1-.92-.144V8.88q.3-.048.7-.1t.84-.08q.448-.032.92-.048t.936-.016a9.582,9.582,0,0,1,1.528.12,4.362,4.362,0,0,1,1.328.424,2.432,2.432,0,0,1,.936.848A2.487,2.487,0,0,1-34.984,11.408Zm-3.994,6.912a3.044,3.044,0,0,0,.762-.095,1.989,1.989,0,0,0,.652-.293,1.533,1.533,0,0,0,.456-.5,1.408,1.408,0,0,0,.173-.713,1.449,1.449,0,0,0-.2-.824,1.392,1.392,0,0,0-.534-.467,2.187,2.187,0,0,0-.738-.214,7.062,7.062,0,0,0-.817-.048h-1.147v3.057a.958.958,0,0,0,.251.047q.173.016.369.024l.408.016Q-39.135,18.32-38.978,18.32Zm-.694-4.816q.224,0,.52-.016a4.647,4.647,0,0,0,.488-.047,2.908,2.908,0,0,0,1.048-.57,1.254,1.254,0,0,0,.44-1,1.315,1.315,0,0,0-.16-.681,1.212,1.212,0,0,0-.424-.427,1.808,1.808,0,0,0-.6-.222,3.793,3.793,0,0,0-.7-.063q-.416,0-.768.016a4.961,4.961,0,0,0-.544.047V13.5Zm10.976-4.9,1.568.7L-32.84,22.24l-1.568-.736Zm2.384.192h2.192V20h-2.192Zm11.92,10.742a3.362,3.362,0,0,1-1.3.524,8.243,8.243,0,0,1-1.624.159,5.819,5.819,0,0,1-1.912-.312A4.09,4.09,0,0,1-20.824,18.9a4.956,4.956,0,0,1-1.1-1.808,7.859,7.859,0,0,1-.408-2.7,7.3,7.3,0,0,1,.456-2.76,5.006,5.006,0,0,1,1.184-1.792,4.369,4.369,0,0,1,1.624-.976,5.683,5.683,0,0,1,1.792-.3,8.747,8.747,0,0,1,1.624.128,5.937,5.937,0,0,1,1.1.3l-.432,1.856a3.173,3.173,0,0,0-.872-.256,7.963,7.963,0,0,0-1.224-.08,2.671,2.671,0,0,0-2.136.946,4.449,4.449,0,0,0-.808,2.934,6.072,6.072,0,0,0,.192,1.579,3.4,3.4,0,0,0,.584,1.219,2.7,2.7,0,0,0,.976.786,3.087,3.087,0,0,0,1.352.281,4.417,4.417,0,0,0,1.216-.144,3.571,3.571,0,0,0,.864-.368ZM-13.032,8.8q.336-.048.76-.08t.872-.048q.448-.016.872-.024t.76-.008a6.945,6.945,0,0,1,2.544.416,4.328,4.328,0,0,1,1.712,1.168,4.684,4.684,0,0,1,.96,1.792,8.133,8.133,0,0,1,.3,2.288A8.294,8.294,0,0,1-4.536,16.5a4.961,4.961,0,0,1-.96,1.872A4.814,4.814,0,0,1-7.264,19.68a6.571,6.571,0,0,1-2.712.5q-.256,0-.68-.016t-.88-.04l-.872-.048q-.416-.024-.624-.056Zm3.44,1.792q-.352,0-.712.016a4.353,4.353,0,0,0-.536.048v7.5a1.286,1.286,0,0,0,.216.024l.328.016.336.016q.16.008.24.008A3.261,3.261,0,0,0-8.176,17.9a2.623,2.623,0,0,0,.976-.872,3.512,3.512,0,0,0,.5-1.256A7.367,7.367,0,0,0-6.552,14.3a6.96,6.96,0,0,0-.128-1.32,3.306,3.306,0,0,0-.472-1.192,2.661,2.661,0,0,0-.936-.864A3.018,3.018,0,0,0-9.592,10.592ZM-.92,14.3-4.04,8.8H-1.4L.328,12.032l.384,1.136.368-1.136L2.888,8.8H5.272L2.04,14.192,5.432,20H2.824L.856,16.544.424,15.36.008,16.544-1.976,20H-4.36Zm11.856-5.7,1.568.7L6.792,22.24,5.224,21.5ZM13.1,8.8q.336-.048.76-.08t.872-.048q.448-.016.872-.024t.76-.008a6.945,6.945,0,0,1,2.544.416,4.328,4.328,0,0,1,1.712,1.168,4.684,4.684,0,0,1,.96,1.792,8.133,8.133,0,0,1,.3,2.288,8.294,8.294,0,0,1-.288,2.192,4.961,4.961,0,0,1-.96,1.872,4.814,4.814,0,0,1-1.768,1.312,6.571,6.571,0,0,1-2.712.5q-.256,0-.68-.016t-.88-.04l-.872-.048q-.416-.024-.624-.056Zm3.44,1.792q-.352,0-.712.016a4.353,4.353,0,0,0-.536.048v7.5a1.286,1.286,0,0,0,.216.024l.328.016.336.016q.16.008.24.008a3.261,3.261,0,0,0,1.544-.328,2.623,2.623,0,0,0,.976-.872,3.512,3.512,0,0,0,.5-1.256,7.367,7.367,0,0,0,.144-1.464,6.96,6.96,0,0,0-.128-1.32,3.306,3.306,0,0,0-.472-1.192,2.661,2.661,0,0,0-.936-.864A3.018,3.018,0,0,0,16.536,10.592ZM23.672,8.8h2.192V20H23.672Zm4.336.112q.368-.064.792-.12t.848-.088q.424-.032.824-.048t.736-.016a8.276,8.276,0,0,1,1.544.144,4.216,4.216,0,0,1,1.36.5,2.653,2.653,0,0,1,.96.968,3.021,3.021,0,0,1,.36,1.544,3.668,3.668,0,0,1-.64,2.24,3.3,3.3,0,0,1-1.712,1.2l.784.5L36.424,20H33.9l-2.544-4.384L30.2,15.408V20H28.008Zm3.36,1.68q-.336,0-.664.016a2.49,2.49,0,0,0-.5.064V13.92h.928a2.337,2.337,0,0,0,1.456-.416,1.624,1.624,0,0,0,.544-1.376A1.449,1.449,0,0,0,32.68,11,1.886,1.886,0,0,0,31.368,10.592Zm10.64-1.984,1.568.7L37.864,22.24,36.3,21.5Zm5.84,6.768.288,1.9h.08l.32-1.92L50.68,8.8h2.3l-4.16,11.28H47.256L43.064,8.8h2.544ZM54.024,8.8h2.192V20H54.024Zm4.56,0h2.192V20H58.584Zm8.7-.192,1.568.7L63.144,22.24,61.576,21.5Zm8.8,2.928a4.893,4.893,0,0,1-.3,1.648,10.192,10.192,0,0,1-.752,1.632,15.329,15.329,0,0,1-1.008,1.544q-.552.744-1.08,1.368l-.848.656v.08l1.152-.224h3.072V20H69.592V18.928q.384-.4.864-.936t.968-1.136q.488-.6.952-1.24a13.842,13.842,0,0,0,.832-1.288,7.936,7.936,0,0,0,.584-1.256,3.445,3.445,0,0,0,.216-1.152,1.567,1.567,0,0,0-.376-1.08,1.516,1.516,0,0,0-1.192-.424,2.793,2.793,0,0,0-1.048.216,2.972,2.972,0,0,0-.9.552l-.832-1.472a5.246,5.246,0,0,1,1.416-.824,5.072,5.072,0,0,1,1.864-.312,3.977,3.977,0,0,1,1.264.192,2.825,2.825,0,0,1,.992.56,2.582,2.582,0,0,1,.656.92A3.208,3.208,0,0,1,76.088,11.536ZM78.2,14.384a7.653,7.653,0,0,1,1.008-4.376,3.722,3.722,0,0,1,5.856-.016,8.055,8.055,0,0,1,.944,4.392,7.681,7.681,0,0,1-1.016,4.4,3.34,3.34,0,0,1-2.9,1.44,3.222,3.222,0,0,1-2.944-1.512A8.209,8.209,0,0,1,78.2,14.384Zm2.08,0A8.449,8.449,0,0,0,80.7,17.4a1.461,1.461,0,0,0,2.784.088,8.063,8.063,0,0,0,.44-3.1,8.471,8.471,0,0,0-.416-2.992,1.457,1.457,0,0,0-1.424-1.056,1.434,1.434,0,0,0-1.384.992A8.243,8.243,0,0,0,80.28,14.384Zm7.968,3.856h2.224V11.92l.24-1.088-.768.944-1.424.976-.88-1.2,3.648-2.944h1.168V18.24h2.176V20H88.248Zm15.776-1.712a3.947,3.947,0,0,1-.264,1.456,3.426,3.426,0,0,1-1.9,1.952,3.8,3.8,0,0,1-1.5.288,4.276,4.276,0,0,1-1.528-.264,3.284,3.284,0,0,1-1.208-.792,3.654,3.654,0,0,1-.8-1.328,5.47,5.47,0,0,1-.288-1.856,8.491,8.491,0,0,1,.456-2.864,7.459,7.459,0,0,1,1.232-2.232,6.362,6.362,0,0,1,1.808-1.536,6.609,6.609,0,0,1,2.184-.776l.464,1.648a4.529,4.529,0,0,0-1.472.5,5.35,5.35,0,0,0-1.192.88,5.233,5.233,0,0,0-.88,1.144,4.552,4.552,0,0,0-.5,1.3,2.716,2.716,0,0,1,.832-.68,2.643,2.643,0,0,1,1.28-.28,3.814,3.814,0,0,1,1.328.224,2.785,2.785,0,0,1,1.04.664,3.042,3.042,0,0,1,.672,1.08A4.177,4.177,0,0,1,104.024,16.528Zm-2.016.112a1.57,1.57,0,0,0-1.76-1.792,1.93,1.93,0,0,0-1.08.288,1.628,1.628,0,0,0-.616.672,1.735,1.735,0,0,0-.032.3v.256a2.649,2.649,0,0,0,.112.76,2.19,2.19,0,0,0,.328.672,1.659,1.659,0,0,0,.552.48,1.642,1.642,0,0,0,.8.184,1.588,1.588,0,0,0,1.224-.512A1.86,1.86,0,0,0,102.008,16.64Z" transform="translate(818 1175)" fill="#353535"/>
    <g id="Group_8493" data-name="Group 8493" transform="translate(740 1038)">
      <path id="Path_13768" data-name="Path 13768" d="M61.9,19.044h.607L60.673,14.13h-.258l-1.836,4.914h.573l.483-1.341H61.41Zm-2.083-1.839.528-1.46L60.521,15h.009l.171.735.538,1.472Z" transform="translate(80.227 19.352)" fill="#353535"/>
      <g id="Group_8492" data-name="Group 8492" transform="translate(0 0)">
        <g id="Group_8491" data-name="Group 8491" clip-path="url(#clip-path)">
          <path id="Path_13769" data-name="Path 13769" d="M41.142,16.861a1.5,1.5,0,0,0,.787-.469,1.335,1.335,0,0,0,.313-.919,1.353,1.353,0,0,0-.133-.623,1.17,1.17,0,0,0-.348-.415,1.364,1.364,0,0,0-.5-.227,2.513,2.513,0,0,0-.6-.069c-.19,0-.4.007-.626.026s-.431.045-.607.076v4.791h.573V16.839l.678.1L42,19.031h.671l-1.2-1.915Zm-.609-.4h-.54V14.676a.714.714,0,0,1,.128-.021c.054,0,.109-.009.171-.012s.121-.007.187-.007h.185a1,1,0,0,1,.713.242.806.806,0,0,1,.256.614.868.868,0,0,1-.31.735,1.279,1.279,0,0,1-.789.235" transform="translate(53.987 19.363)" fill="#353535"/>
          <path id="Path_13770" data-name="Path 13770" d="M6.44,17.523a3.62,3.62,0,0,0-.007-1.934,2.076,2.076,0,0,0-.412-.77,1.844,1.844,0,0,0-.7-.5,2.59,2.59,0,0,0-1-.178c-.1,0-.2,0-.315,0l-.346.007c-.116,0-.23.007-.339.014s-.206.017-.294.031v4.846a1.678,1.678,0,0,0,.227.021c.107,0,.223.009.346.017s.246.012.365.014.211,0,.284,0a2.457,2.457,0,0,0,1.073-.211,2,2,0,0,0,.718-.559,2.263,2.263,0,0,0,.405-.8m-.564-.194a1.789,1.789,0,0,1-.28.642,1.383,1.383,0,0,1-.526.445,1.78,1.78,0,0,1-.813.166c-.021,0-.066,0-.13,0l-.2-.007-.2-.007a1.031,1.031,0,0,1-.133-.009V14.684q.05-.007.135-.014l.19-.014c.071,0,.14-.007.211-.007h.2a1.6,1.6,0,0,1,.791.178,1.421,1.421,0,0,1,.5.453,1.757,1.757,0,0,1,.263.618,3.187,3.187,0,0,1,.076.682,3.4,3.4,0,0,1-.083.749" transform="translate(4.137 19.364)" fill="#353535"/>
          <path id="Path_13771" data-name="Path 13771" d="M19.866,14.306a2.012,2.012,0,0,0-.886-.18,1.758,1.758,0,0,0-1.46.647,2.947,2.947,0,0,0-.509,1.855,4.175,4.175,0,0,0,.116,1.028,2.209,2.209,0,0,0,.363.787,1.669,1.669,0,0,0,.616.509,2,2,0,0,0,.874.178,1.766,1.766,0,0,0,1.469-.645,2.92,2.92,0,0,0,.514-1.858,4.155,4.155,0,0,0-.116-1.026,2.24,2.24,0,0,0-.363-.789,1.693,1.693,0,0,0-.618-.507m.123,3.827a1.194,1.194,0,0,1-1.009.488,1.123,1.123,0,0,1-.611-.164,1.318,1.318,0,0,1-.427-.436,2.072,2.072,0,0,1-.244-.633,3.565,3.565,0,0,1-.081-.761,2.517,2.517,0,0,1,.365-1.5,1.175,1.175,0,0,1,1-.488,1.136,1.136,0,0,1,.618.164,1.34,1.34,0,0,1,.429.434,1.989,1.989,0,0,1,.249.637,3.57,3.57,0,0,1,.081.756,2.507,2.507,0,0,1-.367,1.5" transform="translate(23.298 19.346)" fill="#353535"/>
          <path id="Path_13772" data-name="Path 13772" d="M4.876,16.629a4.151,4.151,0,0,0,.118,1.026,2.24,2.24,0,0,0,.363.789,1.678,1.678,0,0,0,.614.507,1.966,1.966,0,0,0,.874.18,1.767,1.767,0,0,0,1.469-.647,2.917,2.917,0,0,0,.517-1.855A4.17,4.17,0,0,0,8.712,15.6a2.209,2.209,0,0,0-.363-.787,1.658,1.658,0,0,0-.618-.509,2.046,2.046,0,0,0-.886-.178,1.748,1.748,0,0,0-1.457.645,2.935,2.935,0,0,0-.512,1.858m.972-1.5a1.175,1.175,0,0,1,1-.488,1.139,1.139,0,0,1,.621.164,1.371,1.371,0,0,1,.429.436,2.029,2.029,0,0,1,.246.635,3.443,3.443,0,0,1,.081.758,2.5,2.5,0,0,1-.367,1.5,1.194,1.194,0,0,1-1.009.488,1.123,1.123,0,0,1-.611-.164,1.3,1.3,0,0,1-.424-.434,2.1,2.1,0,0,1-.246-.633,3.6,3.6,0,0,1-.078-.761,2.527,2.527,0,0,1,.363-1.5" transform="translate(6.678 19.348)" fill="#353535"/>
          <path id="Path_13773" data-name="Path 13773" d="M8.906,23.847a3.125,3.125,0,0,0,1.621-1.135,3.482,3.482,0,0,0,.607-2.121,2.859,2.859,0,0,0-.341-1.462,2.52,2.52,0,0,0-.91-.917A4.078,4.078,0,0,0,8.6,17.743a7.916,7.916,0,0,0-1.462-.135c-.211,0-.445,0-.7.014s-.512.026-.78.045-.536.047-.8.083-.517.073-.751.114v10.5H6.179V24.013l1.092.2,2.407,4.149h2.393L9.648,24.316ZM7.058,22.605H6.179V19.53a2.475,2.475,0,0,1,.479-.059c.206-.009.417-.017.628-.017a1.792,1.792,0,0,1,1.242.386,1.376,1.376,0,0,1,.424,1.069,1.538,1.538,0,0,1-.514,1.3,2.212,2.212,0,0,1-1.379.393" transform="translate(5.619 24.115)" fill="#353535"/>
          <path id="Path_13774" data-name="Path 13774" d="M12.818,19.046h.573l.481-1.341H15.65l.5,1.341h.607l-1.839-4.917H14.65ZM14.768,15l.171.732.538,1.474H14.06l.528-1.46L14.761,15Z" transform="translate(17.555 19.35)" fill="#353535"/>
          <path id="Path_13775" data-name="Path 13775" d="M19.02,19.107A4.12,4.12,0,0,0,17.4,18a6.611,6.611,0,0,0-2.407-.393c-.213,0-.453,0-.72.009s-.543.012-.825.021-.559.026-.827.045-.507.045-.718.076V28.377c.13.021.327.038.59.055l.825.045c.289.014.566.026.834.038s.481.014.645.014a6.223,6.223,0,0,0,2.566-.469,4.558,4.558,0,0,0,1.673-1.242,4.725,4.725,0,0,0,.91-1.772,7.917,7.917,0,0,0,.273-2.076,7.7,7.7,0,0,0-.289-2.166,4.388,4.388,0,0,0-.908-1.7M17.9,24.356a3.345,3.345,0,0,1-.476,1.19,2.476,2.476,0,0,1-.924.825,3.077,3.077,0,0,1-1.462.31c-.05,0-.128,0-.227-.007l-.318-.014c-.111-.007-.216-.009-.31-.017a1.3,1.3,0,0,1-.206-.021v-7.1a3.811,3.811,0,0,1,.509-.045c.225-.012.45-.017.673-.017a2.873,2.873,0,0,1,1.424.318,2.549,2.549,0,0,1,.886.82,3.135,3.135,0,0,1,.445,1.128,6.614,6.614,0,0,1,.121,1.249,7.016,7.016,0,0,1-.135,1.386" transform="translate(16.301 24.114)" fill="#353535"/>
          <path id="Path_13776" data-name="Path 13776" d="M35.586,18.725a2.444,2.444,0,0,0,.273-.237,3.436,3.436,0,0,0,.839.642l.344-.386-.19-.114c-.062-.04-.126-.083-.194-.133a2.753,2.753,0,0,1-.216-.173c-.081-.066-.168-.145-.263-.237.055-.069.114-.156.18-.261s.128-.211.19-.325.118-.223.168-.332.09-.2.118-.28l-.429-.2q-.05.139-.107.291a3.005,3.005,0,0,1-.133.294c-.047.095-.1.185-.147.27a1.354,1.354,0,0,1-.154.211c-.114-.116-.23-.242-.344-.377s-.23-.275-.339-.412-.216-.277-.315-.417-.185-.28-.261-.412a2.329,2.329,0,0,0,.708-.59,1.012,1.012,0,0,0,.225-.6.9.9,0,0,0-.05-.3.719.719,0,0,0-.171-.263.852.852,0,0,0-.31-.19,1.346,1.346,0,0,0-.479-.073,1.261,1.261,0,0,0-.46.076.881.881,0,0,0-.31.2.752.752,0,0,0-.175.282.966.966,0,0,0-.057.325,1.22,1.22,0,0,0,.121.54,4.464,4.464,0,0,0,.287.5,3.485,3.485,0,0,0-.438.318,2.809,2.809,0,0,0-.377.393,1.935,1.935,0,0,0-.263.467,1.485,1.485,0,0,0-.1.531,1.3,1.3,0,0,0,.128.588,1.331,1.331,0,0,0,.344.431,1.426,1.426,0,0,0,.5.265,1.993,1.993,0,0,0,.614.09,2.136,2.136,0,0,0,.493-.055,2.279,2.279,0,0,0,.412-.145,1.938,1.938,0,0,0,.334-.206m-1.4-4.04a.488.488,0,0,1,.367-.123.439.439,0,0,1,.37.137.576.576,0,0,1,.107.36.618.618,0,0,1-.14.339,1.958,1.958,0,0,1-.509.429,2.474,2.474,0,0,1-.225-.405,1.054,1.054,0,0,1-.085-.412.454.454,0,0,1,.116-.325m.578,3.917a1.226,1.226,0,0,1-.336.045,1.436,1.436,0,0,1-.419-.062,1.233,1.233,0,0,1-.358-.178.845.845,0,0,1-.244-.282.791.791,0,0,1-.09-.384,1.155,1.155,0,0,1,.066-.4,1.277,1.277,0,0,1,.185-.351,2.415,2.415,0,0,1,.28-.308c.107-.095.223-.19.346-.282.069.109.154.237.254.384s.206.3.325.453.242.313.37.469.261.3.393.436a1.071,1.071,0,0,1-.2.187,1.543,1.543,0,0,1-.265.159,2.063,2.063,0,0,1-.308.114" transform="translate(44.868 19.346)" fill="#353535"/>
          <path id="Path_13777" data-name="Path 13777" d="M54.629,19.1a3.71,3.71,0,0,0-1.408-1.121,4.665,4.665,0,0,0-1.983-.393A4.051,4.051,0,0,0,47.9,19.013,6.315,6.315,0,0,0,46.738,23.1a8.656,8.656,0,0,0,.273,2.256,4.969,4.969,0,0,0,.827,1.742,3.651,3.651,0,0,0,1.4,1.121,4.7,4.7,0,0,0,2,.393,4.057,4.057,0,0,0,3.324-1.431,6.281,6.281,0,0,0,1.173-4.08,8.674,8.674,0,0,0-.273-2.258,4.917,4.917,0,0,0-.834-1.742m-1.68,6.8a1.968,1.968,0,0,1-1.711.863,1.929,1.929,0,0,1-1.045-.273,2.106,2.106,0,0,1-.72-.756,3.852,3.852,0,0,1-.417-1.159A7.525,7.525,0,0,1,48.92,23.1a5.017,5.017,0,0,1,.6-2.78,2.133,2.133,0,0,1,2.787-.607,2.1,2.1,0,0,1,.713.78,4,4,0,0,1,.4,1.166,7.643,7.643,0,0,1,.13,1.441,5,5,0,0,1-.607,2.8" transform="translate(64.011 24.08)" fill="#353535"/>
          <path id="Path_13778" data-name="Path 13778" d="M11.309,17.639,7.492,28.319H9.568l.8-2.348h3.258l.848,2.348h2.18l-3.817-10.68ZM10.9,24.3l.772-2.348.318-1.68h.076l.32,1.666.787,2.362Z" transform="translate(10.261 24.158)" fill="#353535"/>
          <path id="Path_13779" data-name="Path 13779" d="M38.883,14.819a1.844,1.844,0,0,0-.7-.5,2.59,2.59,0,0,0-1-.178c-.1,0-.2,0-.315,0l-.346.007c-.116,0-.23.007-.339.014s-.206.017-.294.031v4.846a1.678,1.678,0,0,0,.227.021c.107,0,.223.009.346.017s.246.012.365.014.211,0,.284,0a2.457,2.457,0,0,0,1.073-.211,2,2,0,0,0,.718-.559,2.263,2.263,0,0,0,.405-.8,3.62,3.62,0,0,0-.007-1.934,2.076,2.076,0,0,0-.412-.77m-.145,2.509a1.79,1.79,0,0,1-.28.642,1.383,1.383,0,0,1-.526.445,1.78,1.78,0,0,1-.813.166c-.021,0-.066,0-.13,0l-.2-.007-.2-.007a1.031,1.031,0,0,1-.133-.009V14.684q.05-.007.135-.014l.19-.014c.071,0,.14-.007.211-.007h.2a1.6,1.6,0,0,1,.791.178,1.421,1.421,0,0,1,.5.453,1.757,1.757,0,0,1,.263.618,3.186,3.186,0,0,1,.076.682,3.4,3.4,0,0,1-.083.749" transform="translate(49.144 19.364)" fill="#353535"/>
          <path id="Path_13780" data-name="Path 13780" d="M26.573,14.306a2.012,2.012,0,0,0-.886-.18,1.758,1.758,0,0,0-1.46.647,2.947,2.947,0,0,0-.509,1.855,4.175,4.175,0,0,0,.116,1.028,2.209,2.209,0,0,0,.363.787,1.669,1.669,0,0,0,.616.509,2,2,0,0,0,.874.178,1.766,1.766,0,0,0,1.469-.645,2.92,2.92,0,0,0,.514-1.858,4.155,4.155,0,0,0-.116-1.026,2.24,2.24,0,0,0-.363-.789,1.693,1.693,0,0,0-.618-.507m.123,3.827a1.194,1.194,0,0,1-1.009.488,1.123,1.123,0,0,1-.611-.164,1.317,1.317,0,0,1-.427-.436,2.072,2.072,0,0,1-.244-.633,3.565,3.565,0,0,1-.081-.761,2.517,2.517,0,0,1,.365-1.5,1.175,1.175,0,0,1,1-.488,1.136,1.136,0,0,1,.618.164,1.34,1.34,0,0,1,.429.434,1.99,1.99,0,0,1,.249.637,3.57,3.57,0,0,1,.081.756,2.507,2.507,0,0,1-.367,1.5" transform="translate(32.483 19.346)" fill="#353535"/>
          <path id="Path_13781" data-name="Path 13781" d="M60.292,23.847a3.125,3.125,0,0,0,1.621-1.135,3.482,3.482,0,0,0,.6-2.121,2.859,2.859,0,0,0-.339-1.462,2.52,2.52,0,0,0-.91-.917,4.078,4.078,0,0,0-1.287-.469,7.916,7.916,0,0,0-1.462-.135c-.211,0-.445,0-.7.014s-.514.026-.78.045-.536.047-.8.083-.517.073-.751.114v10.5h2.076V24.013l1.092.2,2.407,4.149h2.393l-2.424-4.045Zm-1.848-1.242h-.879V19.53a2.475,2.475,0,0,1,.479-.059c.206-.009.415-.017.628-.017a1.792,1.792,0,0,1,1.242.386,1.376,1.376,0,0,1,.424,1.069,1.538,1.538,0,0,1-.514,1.3,2.212,2.212,0,0,1-1.379.393" transform="translate(75.996 24.115)" fill="#353535"/>
          <path id="Path_13782" data-name="Path 13782" d="M26.4,19.079q.188.011.363.014c.118,0,.213,0,.287,0a2.464,2.464,0,0,0,1.073-.211,2,2,0,0,0,.718-.559,2.263,2.263,0,0,0,.405-.8,3.475,3.475,0,0,0,.128-.945,3.435,3.435,0,0,0-.135-.988,2.076,2.076,0,0,0-.412-.77,1.862,1.862,0,0,0-.7-.5,2.6,2.6,0,0,0-1.007-.18c-.095,0-.2,0-.313,0l-.346.007c-.118,0-.23.007-.339.014s-.206.017-.294.031v4.846a1.6,1.6,0,0,0,.227.021c.107,0,.223.009.346.017m0-4.393q.05-.007.135-.014l.19-.014c.069,0,.14-.007.211-.007h.2a1.584,1.584,0,0,1,.791.178,1.409,1.409,0,0,1,.5.453,1.849,1.849,0,0,1,.263.618,3.182,3.182,0,0,1,.076.68,3.41,3.41,0,0,1-.083.751,1.808,1.808,0,0,1-.28.642,1.4,1.4,0,0,1-.526.445,1.78,1.78,0,0,1-.813.166c-.024,0-.066,0-.13,0l-.2-.007-.2-.007a1.031,1.031,0,0,1-.133-.009Z" transform="translate(35.376 19.363)" fill="#353535"/>
          <path id="Path_13783" data-name="Path 13783" d="M66.99,14.673v-.512H64.355V19h2.671v-.514h-2.1v-1.72h1.889v-.512H64.928V14.673Z" transform="translate(88.138 19.394)" fill="#353535"/>
          <path id="Path_13784" data-name="Path 13784" d="M65.824,7.77a2.553,2.553,0,0,0-1.938-.754c-2.1.038-4.206.021-6.308.009-.945-.007-1.753.142-1.877,1.3a26.942,26.942,0,0,0,.047,5.6,62.509,62.509,0,0,0,7.279,6.865,111.42,111.42,0,0,0,13.014,0c2.156-.763,1.519-1.983.391-3.064-3.5-3.351-7.083-6.621-10.609-9.947" transform="translate(76.118 9.608)" fill="#353535"/>
          <path id="Path_13785" data-name="Path 13785" d="M61.414,15.878l2.3,3.242h.3V14.205h-.54v3.152l.076.663h-.033l-.36-.663L60.847,14.13h-.306v4.914h.54V15.878l-.069-.7h.026Z" transform="translate(82.916 19.351)" fill="#353535"/>
          <path id="Path_13786" data-name="Path 13786" d="M60.282,19V14.162h-.573v2.109H57.384V14.162H56.81V19h.573V16.78h2.325V19Z" transform="translate(77.806 19.395)" fill="#353535"/>
          <path id="Path_13787" data-name="Path 13787" d="M56.519,14.024c2.393.635,4.834.133,7.246.3a2.377,2.377,0,0,0,2.317-1.246q5.25-4.845,10.5-9.689c.557-.512,1.021-1.071.787-1.872A1.832,1.832,0,0,0,75.492.309c-1.732-.095-3.5.107-5.2-.137-4.971-.716-8.848.806-12.222,4.614-1.649,1.862-2.865,3.474-2.434,5.969.192,1.114-.637,2.512.884,3.27" transform="translate(76.075 -0.001)" fill="#353535"/>
          <path id="Path_13788" data-name="Path 13788" d="M58.14,13.884a25.64,25.64,0,0,0,8.284.055,1,1,0,0,0,1.014-1.114c-.05-1.953.332-3.922-.209-5.855Q63.952,3.838,60.678.709A1.862,1.862,0,0,0,59.344.086C55.512.122,51.683.122,47.853.2a1.868,1.868,0,0,0-1.967,1.083,1.892,1.892,0,0,0,.794,2.08Q52.4,8.633,58.14,13.884" transform="translate(62.718 0.117)" fill="#353535"/>
          <path id="Path_13789" data-name="Path 13789" d="M46.451,20.414c1.8,1.163,3.806.277,5.689.583a13.721,13.721,0,0,0,13.841-5.322c1.535-1.912,2.3-5.82.993-8.237-2.822-.839-5.706-.225-8.559-.3-.351-.009-.758.4-1.069.685-3.547,3.294-7.1,6.583-10.606,9.917-.78.742-1.595,1.637-.289,2.678" transform="translate(62.675 9.575)" fill="#353535"/>
          <path id="Path_13790" data-name="Path 13790" d="M56.014,14.673v-.512H53.379V19H56.05v-.514H53.955v-1.72h1.886v-.512H53.955V14.673Z" transform="translate(73.106 19.394)" fill="#353535"/>
          <path id="Path_13791" data-name="Path 13791" d="M52.026,14.673v-.512H49.391V19h2.671v-.514h-2.1v-1.72h1.889v-.512H49.965V14.673Z" transform="translate(67.645 19.394)" fill="#353535"/>
          <path id="Path_13792" data-name="Path 13792" d="M49.481,18.22h-.007l-.166-.732-1.23-3.327h-.63l1.867,4.917h.256L51.4,14.161h-.573l-1.168,3.313Z" transform="translate(64.983 19.394)" fill="#353535"/>
          <rect id="Rectangle_505" data-name="Rectangle 505" width="0.573" height="4.839" transform="translate(111.078 33.558)" fill="#353535"/>
          <path id="Path_13793" data-name="Path 13793" d="M27.142,7.879h0c.562,1.145,1.626.732,2.5.735,8.822.028,17.646.066,26.466-.026,1.753-.019,2.211.514,2.142,2.187-.128,3.1-.083,6.2-.014,9.3.028,1.235-.213,1.8-1.64,1.78q-7.805-.121-15.618,0c-1.417.021-1.7-.514-1.649-1.772.085-2.014,0-4.038.024-6.057a1.824,1.824,0,0,0-1.941-2.1c-3.166.009-6.341-.3-9.5.178-1.261.206-1.28,1.137-1.277,2.114q.014,6.9,0,13.791c0,1.045.078,2.024,1.317,2.37q17.974.046,35.944.1a3.553,3.553,0,0,0,2.315-.99c.024,0,.045-.017.069-.045,1.957-1.225,3.5-2.763,3.888-5.17v0l.019-.154a1.919,1.919,0,0,0,.4-1.415q-.025-8.061-.076-16.127C69.5,2.708,66.989.63,62.731.135Q45.705.1,28.678.052c-.867,0-1.867.251-1.9,1.069C26.709,3.372,26.123,5.68,27.142,7.879Z" transform="translate(36.36 0.071)" fill="#353535"/>
          <path id="Path_13794" data-name="Path 13794" d="M32.213,19V17.072l1.583-2.91h-.609l-1.088,2.1-.126.434h-.007l-.121-.422-1.133-2.114h-.671l1.6,2.917V19Z" transform="translate(41.146 19.395)" fill="#353535"/>
          <path id="Path_13795" data-name="Path 13795" d="M8.563,27.037v0l.818,1.2.007,0-.007,0a6.5,6.5,0,0,0,5.457,2.327c9.7-.024,19.4,0,29.1-.017,1.945,0,3.893-.1,5.839-.159.948-.258.855-1.031.858-1.746.007-1.3,0-2.6,0-3.893-.007-3.054-.318-3.377-3.315-3.377-8.677,0-17.355-.047-26.032.038-1.642.017-2.076-.427-2.019-2.038.123-3.531.031-7.068.026-10.6.789-.05,1.578-.137,2.37-.137,8.455-.012,16.912,0,25.369-.019a4.316,4.316,0,0,0,2.334-.223c1.135-.142,1.322-.962,1.334-1.886.014-1.227-.062-2.46.019-3.682.14-2.078-.8-2.777-2.836-2.768C36.654.1,25.43.06,14.207.029A6.73,6.73,0,0,0,11.065.6C7.791,2.024,7.018,4.955,6.911,8.036c-.166,4.739-.133,9.49.007,14.232.047,1.673-.028,3.573,1.644,4.77" transform="translate(9.313 0.039)" fill="#353535"/>
          <rect id="Rectangle_506" data-name="Rectangle 506" width="0.573" height="4.839" transform="translate(28.949 33.555)" fill="#353535"/>
          <path id="Path_13796" data-name="Path 13796" d="M11.619,14.673v-.512H8.984V19h2.671v-.514H9.56v-1.72h1.886v-.512H9.56V14.673Z" transform="translate(12.304 19.394)" fill="#353535"/>
          <path id="Path_13797" data-name="Path 13797" d="M7.86,15.878l2.3,3.242h.3V14.205h-.54v3.152L10,18.02H9.969l-.36-.663L7.294,14.13H6.988v4.914h.54V15.878l-.069-.7h.026Z" transform="translate(9.571 19.351)" fill="#353535"/>
          <path id="Path_13798" data-name="Path 13798" d="M2.053,30.52c3.251-.073,6.5-.085,9.756-.123a1.716,1.716,0,0,0,1.329-1.938q.021-13.183,0-26.366c0-1.386-.69-2.09-2.163-2.066C8.086.076,5.2.05,2.307.041,1.347.036.586.259.435,1.368c-.443,9.149-.114,18.3-.159,27.459A1.539,1.539,0,0,0,2.053,30.52" transform="translate(0.274 0.035)" fill="#353535"/>
          <path id="Path_13799" data-name="Path 13799" d="M1.9,15.878,4.2,19.12h.3V14.205h-.54v3.152l.076.663H4.006l-.36-.663L1.331,14.13H1.025v4.914h.54V15.878l-.069-.7h.026Z" transform="translate(1.404 19.351)" fill="#353535"/>
          <rect id="Rectangle_507" data-name="Rectangle 507" width="0.573" height="4.839" transform="translate(0.474 33.555)" fill="#353535"/>
          <path id="Path_13800" data-name="Path 13800" d="M0,19.519H3.1v8.756H5.18V19.519H8.27V17.671H0Z" transform="translate(0 24.202)" fill="#353535"/>
          <path id="Path_13801" data-name="Path 13801" d="M12.89,16.695a3.354,3.354,0,0,0-.564-.322c-.2-.09-.391-.185-.564-.28a1.813,1.813,0,0,1-.431-.322.613.613,0,0,1-.173-.448.62.62,0,0,1,.23-.481,1,1,0,0,1,.682-.2,3.119,3.119,0,0,1,.7.071,2.229,2.229,0,0,1,.464.149l.173-.512a2.1,2.1,0,0,0-.538-.159,4.48,4.48,0,0,0-.768-.062,1.7,1.7,0,0,0-1.121.332,1.122,1.122,0,0,0-.393.9,1.162,1.162,0,0,0,.173.661,1.607,1.607,0,0,0,.431.436,2.978,2.978,0,0,0,.564.3,5.433,5.433,0,0,1,.564.265,1.772,1.772,0,0,1,.431.325.66.66,0,0,1,.173.474.729.729,0,0,1-.085.36.76.76,0,0,1-.232.251,1.018,1.018,0,0,1-.346.147,2.056,2.056,0,0,1-.429.043,2.625,2.625,0,0,1-.7-.083,2.216,2.216,0,0,1-.472-.173l-.194.514a2.371,2.371,0,0,0,.526.175,3.9,3.9,0,0,0,.858.078,2.229,2.229,0,0,0,.692-.1,1.515,1.515,0,0,0,.517-.275,1.172,1.172,0,0,0,.327-.429,1.373,1.373,0,0,0,.109-.562,1.106,1.106,0,0,0-.173-.635,1.684,1.684,0,0,0-.431-.438" transform="translate(14.334 19.346)" fill="#353535"/>
          <path id="Path_13802" data-name="Path 13802" d="M18.16,19.07a1.268,1.268,0,0,0,.526-.223l-.14-.448a1.461,1.461,0,0,1-.391.159,2.048,2.048,0,0,1-.543.062,1.609,1.609,0,0,1-.637-.123,1.39,1.39,0,0,1-.512-.374,1.76,1.76,0,0,1-.344-.621A2.766,2.766,0,0,1,16,16.629a2.889,2.889,0,0,1,.13-.934,1.749,1.749,0,0,1,.348-.616,1.324,1.324,0,0,1,.5-.339,1.6,1.6,0,0,1,.559-.1,2.158,2.158,0,0,1,.948.166l.14-.512a2.316,2.316,0,0,0-.45-.121,4.059,4.059,0,0,0-.678-.045,2.167,2.167,0,0,0-.761.137,1.843,1.843,0,0,0-.673.441,2.188,2.188,0,0,0-.486.772,3.226,3.226,0,0,0-.182,1.152,3.38,3.38,0,0,0,.166,1.123,2.175,2.175,0,0,0,.45.777,1.737,1.737,0,0,0,.663.453,2.2,2.2,0,0,0,.815.149,3.639,3.639,0,0,0,.678-.062" transform="translate(21.075 19.348)" fill="#353535"/>
          <path id="Path_13803" data-name="Path 13803" d="M18.273,23.836H22.1V21.988H18.273V19.519h4.211V17.671H16.2v10.6h6.362V26.426H18.273Z" transform="translate(22.183 24.201)" fill="#353535"/>
          <path id="Path_13804" data-name="Path 13804" d="M21.521,16.623l-.213.552h-.014l-.23-.538-1.512-2.476h-.429V19h.538V15.744l-.1-.718H19.6l.249.656,1.334,2.192h.173l1.258-2.185.263-.663h.033l-.069.725V19h.573V14.161h-.448Z" transform="translate(26.19 19.394)" fill="#353535"/>
          <path id="Path_13805" data-name="Path 13805" d="M22,15.744l-.1-.718h.036l.249.656,1.334,2.192H23.7l1.258-2.185.263-.663h.033l-.069.725V19h.573V14.162h-.448l-1.445,2.462-.216.552h-.012l-.23-.54-1.514-2.474h-.429V19H22Z" transform="translate(29.394 19.395)" fill="#353535"/>
          <rect id="Rectangle_508" data-name="Rectangle 508" width="0.573" height="4.839" transform="translate(65.936 33.558)" fill="#353535"/>
          <path id="Path_13806" data-name="Path 13806" d="M32.043,14.161H28.456v.512h1.507V19h.573V14.673h1.507Z" transform="translate(38.972 19.395)" fill="#353535"/>
          <path id="Path_13807" data-name="Path 13807" d="M29.633,19.519h3.1v8.756h2.076V19.519H37.9V17.671h-8.27Z" transform="translate(40.585 24.202)" fill="#353535"/>
          <path id="Path_13808" data-name="Path 13808" d="M39.689,21.988H35.813V17.671H33.737v10.6h2.076V23.837h3.877v4.438h2.076v-10.6H39.689Z" transform="translate(46.205 24.201)" fill="#353535"/>
          <path id="Path_13809" data-name="Path 13809" d="M40.492,18.488H38.4v-1.72h1.886v-.512H38.4V14.673h2.059v-.512H37.824V19h2.668Z" transform="translate(51.803 19.395)" fill="#353535"/>
          <path id="Path_13810" data-name="Path 13810" d="M40.134,23.836h3.832V21.988H40.134V19.519h4.211V17.671H38.058v10.6H44.42V26.426H40.134Z" transform="translate(52.123 24.201)" fill="#353535"/>
          <rect id="Rectangle_509" data-name="Rectangle 509" width="0.573" height="4.839" transform="translate(97.728 33.558)" fill="#353535"/>
          <path id="Path_13811" data-name="Path 13811" d="M45.2,14.161l-1.168,3.313-.18.746H43.84l-.166-.735-1.23-3.325h-.63l1.867,4.914h.256l1.832-4.914Z" transform="translate(57.268 19.395)" fill="#353535"/>
          <path id="Path_13812" data-name="Path 13812" d="M49.02,22.951a6.223,6.223,0,0,0-1.166-.659c-.419-.182-.808-.358-1.166-.531a4.125,4.125,0,0,1-.9-.559.955.955,0,0,1-.355-.758.92.92,0,0,1,.386-.772,1.846,1.846,0,0,1,1.114-.287,5.671,5.671,0,0,1,1.438.173,3.689,3.689,0,0,1,1,.386l.652-1.742a4.459,4.459,0,0,0-1.348-.462,9.066,9.066,0,0,0-1.742-.159,5.432,5.432,0,0,0-1.455.182,3.187,3.187,0,0,0-1.128.559,2.543,2.543,0,0,0-.735.948,3.24,3.24,0,0,0-.256,1.341,2.744,2.744,0,0,0,.355,1.467,3.3,3.3,0,0,0,.893.962,5.822,5.822,0,0,0,1.166.652c.419.178.808.348,1.166.517a3.924,3.924,0,0,1,.893.552.987.987,0,0,1,.358.787,1.049,1.049,0,0,1-.493.948,2.681,2.681,0,0,1-1.417.31,4.766,4.766,0,0,1-.765-.062,6.69,6.69,0,0,1-.7-.152,5.045,5.045,0,0,1-.6-.2,3.989,3.989,0,0,1-.434-.2l-.666,1.772a6.11,6.11,0,0,0,1.272.424,8.4,8.4,0,0,0,2,.211,5.922,5.922,0,0,0,1.583-.2,3.328,3.328,0,0,0,1.227-.6,2.787,2.787,0,0,0,.787-1.024,3.484,3.484,0,0,0,.28-1.462,2.616,2.616,0,0,0-.355-1.415,3.369,3.369,0,0,0-.893-.955" transform="translate(59.056 24.08)" fill="#353535"/>
          <path id="Path_13813" data-name="Path 13813" d="M44.974,14.673h1.507V19h.573V14.673h1.507v-.512H44.974Z" transform="translate(61.595 19.394)" fill="#353535"/>
          <path id="Path_13814" data-name="Path 13814" d="M52.947,19.034a1.512,1.512,0,0,0,.519-.277,1.164,1.164,0,0,0,.325-.427,1.381,1.381,0,0,0,.109-.562,1.118,1.118,0,0,0-.171-.635A1.694,1.694,0,0,0,53.3,16.7a3.427,3.427,0,0,0-.562-.322c-.2-.092-.391-.185-.564-.28a1.844,1.844,0,0,1-.434-.322.632.632,0,0,1-.173-.45.619.619,0,0,1,.23-.479.99.99,0,0,1,.685-.206,2.973,2.973,0,0,1,.694.073,2.309,2.309,0,0,1,.467.149l.173-.512a2.062,2.062,0,0,0-.54-.159,4.236,4.236,0,0,0-.768-.062,1.68,1.68,0,0,0-1.118.332,1.11,1.11,0,0,0-.4.9,1.149,1.149,0,0,0,.173.659,1.574,1.574,0,0,0,.431.436,3.13,3.13,0,0,0,.564.3,5.433,5.433,0,0,1,.564.268,1.621,1.621,0,0,1,.431.325.654.654,0,0,1,.173.472.723.723,0,0,1-.085.36.792.792,0,0,1-.232.254,1,1,0,0,1-.346.145,1.906,1.906,0,0,1-.429.045,2.621,2.621,0,0,1-.7-.085,2.107,2.107,0,0,1-.472-.171l-.192.512a2.3,2.3,0,0,0,.524.175,3.763,3.763,0,0,0,.858.081,2.3,2.3,0,0,0,.692-.1" transform="translate(69.675 19.348)" fill="#353535"/>
          <path id="Path_13815" data-name="Path 13815" d="M57.1,24.366a2.747,2.747,0,0,1-.424,1.711,1.655,1.655,0,0,1-1.379.531,2.85,2.85,0,0,1-.848-.114,1.358,1.358,0,0,1-.607-.379,1.615,1.615,0,0,1-.355-.7,4.175,4.175,0,0,1-.114-1.052V17.672H51.3v7.1q0,3.679,4.028,3.68a4.916,4.916,0,0,0,1.531-.227,2.922,2.922,0,0,0,1.18-.711A3.361,3.361,0,0,0,58.8,26.29a5.19,5.19,0,0,0,.273-1.772V17.672H57.1Z" transform="translate(70.263 24.203)" fill="#353535"/>
          <path id="Path_13816" data-name="Path 13816" d="M56.746,16.851l.187.415L58.026,19H58.7l-1.59-2.509,1.521-2.329H57.99L56.955,15.8l-.166.393-.173-.393-.983-1.64h-.69l1.471,2.379L54.8,19h.645l1.118-1.735Z" transform="translate(75.057 19.394)" fill="#353535"/>
          <path id="Path_13817" data-name="Path 13817" d="M65.416,26.624a4.21,4.21,0,0,1-1.152.137,2.954,2.954,0,0,1-1.28-.265,2.575,2.575,0,0,1-.924-.744,3.245,3.245,0,0,1-.552-1.154,5.756,5.756,0,0,1-.182-1.5,4.211,4.211,0,0,1,.765-2.777,2.528,2.528,0,0,1,2.021-.9,7.326,7.326,0,0,1,1.159.076,2.986,2.986,0,0,1,.827.242l.408-1.756a5.564,5.564,0,0,0-1.038-.289,8.3,8.3,0,0,0-1.535-.121,5.359,5.359,0,0,0-1.7.28,4.142,4.142,0,0,0-1.538.924,4.724,4.724,0,0,0-1.121,1.7,6.891,6.891,0,0,0-.431,2.614,7.417,7.417,0,0,0,.386,2.552,4.668,4.668,0,0,0,1.035,1.711,3.88,3.88,0,0,0,1.507.955,5.524,5.524,0,0,0,1.81.294,7.853,7.853,0,0,0,1.538-.149,3.174,3.174,0,0,0,1.235-.5l-.424-1.687a3.317,3.317,0,0,1-.817.348" transform="translate(81.005 24.08)" fill="#353535"/>
          <path id="Path_13818" data-name="Path 13818" d="M64.946,19.107a2.651,2.651,0,0,0,.367-.073,2.378,2.378,0,0,0,.332-.116,1.535,1.535,0,0,0,.265-.152v-2.13H64.285v.325l1.128.14v1.346a1.511,1.511,0,0,1-.751.173,1.711,1.711,0,0,1-.649-.121,1.305,1.305,0,0,1-.5-.365,1.709,1.709,0,0,1-.329-.618,2.988,2.988,0,0,1-.116-.886,2.643,2.643,0,0,1,.145-.941,1.786,1.786,0,0,1,.374-.614,1.31,1.31,0,0,1,.514-.336,1.756,1.756,0,0,1,.578-.1,2.147,2.147,0,0,1,.945.166l.147-.512a2.305,2.305,0,0,0-.457-.121,4.192,4.192,0,0,0-.685-.045,2.285,2.285,0,0,0-.775.137,1.91,1.91,0,0,0-.7.441,2.188,2.188,0,0,0-.5.777,3.016,3.016,0,0,0-.194,1.147,3.56,3.56,0,0,0,.159,1.116,2.119,2.119,0,0,0,.443.782,1.755,1.755,0,0,0,.671.457,2.4,2.4,0,0,0,.851.147,2.843,2.843,0,0,0,.37-.024" transform="translate(85.534 19.346)" fill="#353535"/>
          <path id="Path_13819" data-name="Path 13819" d="M65.094,26.426v-2.59h3.832V21.988H65.094V19.519H69.3V17.671H63.018v10.6h6.362V26.426Z" transform="translate(86.308 24.201)" fill="#353535"/>
          <path id="Path_13820" data-name="Path 13820" d="M45.234,14.13,43.4,19.044h.573l.483-1.341h1.775l.5,1.341h.607L45.5,14.13Zm.827,3.076H44.644l.531-1.46L45.345,15h.007l.171.735Z" transform="translate(59.442 19.352)" fill="#353535"/>
          <path id="Path_13821" data-name="Path 13821" d="M33.5,19.147A6.182,6.182,0,0,0,31.428,18a8.084,8.084,0,0,0-2.59-.4,7.68,7.68,0,0,0-2.787.507,7.1,7.1,0,0,0-2.317,1.445,6.948,6.948,0,0,0-1.59,2.272,7.3,7.3,0,0,0-.59,2.986,7.371,7.371,0,0,0,.514,2.855A5.72,5.72,0,0,0,23.5,29.727a6.138,6.138,0,0,0,2.166,1.258,8.437,8.437,0,0,0,2.72.424,7.846,7.846,0,0,0,1.476-.123,5,5,0,0,0,1.265-.422l-.469-1.455a4.367,4.367,0,0,1-1.017.318,5.392,5.392,0,0,1-1,.107,6.876,6.876,0,0,1-2.31-.358,4.57,4.57,0,0,1-1.687-1.014,4.3,4.3,0,0,1-1.038-1.6,5.95,5.95,0,0,1-.355-2.121,5.7,5.7,0,0,1,.424-2.218,5.3,5.3,0,0,1,1.173-1.765,5.458,5.458,0,0,1,1.765-1.166,5.644,5.644,0,0,1,2.2-.424,7.335,7.335,0,0,1,1.922.242,4.264,4.264,0,0,1,1.554.765A3.635,3.635,0,0,1,33.321,21.5a4.5,4.5,0,0,1,.379,1.938,4.335,4.335,0,0,1-.19,1.365,3,3,0,0,1-.491.953,1.986,1.986,0,0,1-.682.562,1.775,1.775,0,0,1-.772.182.479.479,0,0,1-.507-.32,2.227,2.227,0,0,1,.007-1.028l.727-4.106H30.731l-.469.486a2.736,2.736,0,0,0-.666-.417,2.216,2.216,0,0,0-.893-.159,2.789,2.789,0,0,0-1.462.417,4.347,4.347,0,0,0-1.211,1.1A5.525,5.525,0,0,0,25.2,24.04a5.614,5.614,0,0,0-.3,1.825,2.755,2.755,0,0,0,.145.91,2.241,2.241,0,0,0,.386.7,1.671,1.671,0,0,0,.576.445,1.593,1.593,0,0,0,.7.159,2.473,2.473,0,0,0,.834-.135,2.812,2.812,0,0,0,.7-.372,3.668,3.668,0,0,0,.583-.538c.175-.2.341-.408.493-.621h.059a1.916,1.916,0,0,0,.062.789,1.149,1.149,0,0,0,.325.514,1.283,1.283,0,0,0,.545.28,2.788,2.788,0,0,0,.706.083,4.065,4.065,0,0,0,1.7-.363,4.495,4.495,0,0,0,2.332-2.453,4.836,4.836,0,0,0,.341-1.82,5.825,5.825,0,0,0-.5-2.46A5.308,5.308,0,0,0,33.5,19.147m-4.1,5.824a4.389,4.389,0,0,1-.379.576,4.2,4.2,0,0,1-.438.486,2.252,2.252,0,0,1-.469.339.97.97,0,0,1-.455.13.767.767,0,0,1-.7-.32,1.473,1.473,0,0,1-.206-.817,3.523,3.523,0,0,1,.152-.993,3.288,3.288,0,0,1,.434-.915A2.407,2.407,0,0,1,28,22.791a1.471,1.471,0,0,1,.839-.258,1.378,1.378,0,0,1,.531.09,1.667,1.667,0,0,1,.41.258Z" transform="translate(29.52 24.097)" fill="#353535"/>
        </g>
      </g>
    </g>
  </g>
</svg>
