<svg xmlns="http://www.w3.org/2000/svg" xmlns:xlink="http://www.w3.org/1999/xlink" width="261" height="261" viewBox="0 0 261 261">
  <defs>
    <clipPath id="clip-path">
      <rect id="Rectangle_504" data-name="Rectangle 504" width="145.01" height="84.5" fill="#353535"/>
    </clipPath>
  </defs>
  <g id="Group_10498" data-name="Group 10498" transform="translate(-402 -983)">
    <rect id="Rectangle_2347" data-name="Rectangle 2347" width="261" height="261" rx="4" transform="translate(402 983)" fill="#f7ba27"/>
    <path id="Path_15938" data-name="Path 15938" d="M-10.776-11.2h2.192V0h-2.192ZM1.144-.459A3.362,3.362,0,0,1-.16.065,8.243,8.243,0,0,1-1.784.224,5.819,5.819,0,0,1-3.7-.088,4.09,4.09,0,0,1-5.288-1.1,4.956,4.956,0,0,1-6.384-2.9a7.859,7.859,0,0,1-.408-2.7,7.3,7.3,0,0,1,.456-2.76,5.006,5.006,0,0,1,1.184-1.792,4.369,4.369,0,0,1,1.624-.976,5.683,5.683,0,0,1,1.792-.3A8.747,8.747,0,0,1-.112-11.3a5.937,5.937,0,0,1,1.1.3L.552-9.136A3.173,3.173,0,0,0-.32-9.392a7.963,7.963,0,0,0-1.224-.08,2.671,2.671,0,0,0-2.136.946,4.449,4.449,0,0,0-.808,2.934A6.072,6.072,0,0,0-4.3-4.013a3.4,3.4,0,0,0,.584,1.218,2.7,2.7,0,0,0,.976.786,3.087,3.087,0,0,0,1.352.281A4.417,4.417,0,0,0-.168-1.872,3.571,3.571,0,0,0,.7-2.24Zm7.648-4.23H4.7V0H2.5V-11.2H4.7v4.56h4.1V-11.2h2.192V0H8.792ZM-102.984,18.24h2.224V11.92l.24-1.088-.768.944-1.424.976-.88-1.2,3.648-2.944h1.168V18.24H-96.6V20h-6.384Zm16.3-1.36h-1.76V20h-1.936V16.88h-4.848V15.7l5.072-6.976h1.712v6.5h1.76Zm-3.7-4.112.144-1.344H-90.3l-.544,1.152-1.664,2.16-.8.608,1.024-.128h1.9Zm11.52-1.232a4.893,4.893,0,0,1-.3,1.648,10.192,10.192,0,0,1-.752,1.632,15.329,15.329,0,0,1-1.008,1.544q-.552.744-1.08,1.368l-.848.656v.08l1.152-.224h3.072V20h-6.736V18.928q.384-.4.864-.936t.968-1.136q.488-.6.952-1.24a13.842,13.842,0,0,0,.832-1.288,7.936,7.936,0,0,0,.584-1.256,3.445,3.445,0,0,0,.216-1.152,1.567,1.567,0,0,0-.376-1.08,1.516,1.516,0,0,0-1.192-.424,2.793,2.793,0,0,0-1.048.216,2.972,2.972,0,0,0-.9.552l-.832-1.472a5.246,5.246,0,0,1,1.416-.824,5.072,5.072,0,0,1,1.864-.312,3.977,3.977,0,0,1,1.264.192,2.825,2.825,0,0,1,.992.56,2.582,2.582,0,0,1,.656.92A3.208,3.208,0,0,1-78.856,11.536Zm6.8-2.928,1.568.7L-76.2,22.24l-1.568-.736Zm6.992,8.384a1.041,1.041,0,0,0-.376-.832,4.149,4.149,0,0,0-.944-.584q-.568-.264-1.232-.544a6.3,6.3,0,0,1-1.232-.688,3.509,3.509,0,0,1-.944-1.016,2.908,2.908,0,0,1-.376-1.552A3.4,3.4,0,0,1-69.9,10.36a2.657,2.657,0,0,1,.776-1,3.334,3.334,0,0,1,1.192-.592,5.711,5.711,0,0,1,1.536-.192,9.633,9.633,0,0,1,1.84.168,4.676,4.676,0,0,1,1.424.488l-.688,1.84a3.85,3.85,0,0,0-1.056-.408,6,6,0,0,0-1.52-.184,1.944,1.944,0,0,0-1.176.3.966.966,0,0,0-.408.816,1.008,1.008,0,0,0,.376.8,4.353,4.353,0,0,0,.944.592q.568.272,1.232.56a6.618,6.618,0,0,1,1.232.7,3.548,3.548,0,0,1,.944,1.008,2.768,2.768,0,0,1,.376,1.5,3.692,3.692,0,0,1-.3,1.544A2.927,2.927,0,0,1-64,19.376a3.515,3.515,0,0,1-1.3.64,6.323,6.323,0,0,1-1.672.208A8.908,8.908,0,0,1-69.08,20a6.461,6.461,0,0,1-1.344-.448l.7-1.872a4.35,4.35,0,0,0,.456.208,5.862,5.862,0,0,0,.632.208,7.3,7.3,0,0,0,.744.16,5.008,5.008,0,0,0,.808.064,2.817,2.817,0,0,0,1.5-.328A1.1,1.1,0,0,0-65.064,16.992Zm3.648-8.08q.672-.128,1.48-.2t1.608-.072a10.446,10.446,0,0,1,1.672.136,4.165,4.165,0,0,1,1.512.544,3.159,3.159,0,0,1,1.1,1.136,3.739,3.739,0,0,1,.424,1.9,3.924,3.924,0,0,1-.368,1.784,3.405,3.405,0,0,1-.976,1.192A3.935,3.935,0,0,1-56.352,16a6.184,6.184,0,0,1-1.608.208h-.256q-.176,0-.368-.008t-.376-.024q-.184-.016-.264-.032V20h-2.192Zm3.264,1.616q-.32,0-.608.024t-.464.056V14.24a1.754,1.754,0,0,0,.192.032q.128.016.272.024t.28.008h.2a4.607,4.607,0,0,0,.856-.08,2.115,2.115,0,0,0,.76-.3,1.543,1.543,0,0,0,.536-.6,2.185,2.185,0,0,0,.2-1.008,1.774,1.774,0,0,0-.192-.872,1.572,1.572,0,0,0-.5-.552,1.963,1.963,0,0,0-.712-.288A4.151,4.151,0,0,0-58.152,10.528Zm8.656,4.688h-.576V20h-2.192V8.8h2.192v4.96l.512-.224L-46.472,8.8h2.5l-3.264,4.7-.864.608.9.624L-43.48,20h-2.7Zm9.92,0h-.576V20h-2.192V8.8h2.192v4.96l.512-.224L-36.552,8.8h2.5l-3.264,4.7-.864.608.9.624L-33.56,20h-2.7Zm11.52-6.608,1.568.7L-32.2,22.24l-1.568-.736Zm2.384.192h2.192V20h-2.192Zm11.92,10.742a3.362,3.362,0,0,1-1.3.524,8.243,8.243,0,0,1-1.624.159,5.819,5.819,0,0,1-1.912-.312A4.09,4.09,0,0,1-20.184,18.9a4.956,4.956,0,0,1-1.1-1.808,7.859,7.859,0,0,1-.408-2.7,7.3,7.3,0,0,1,.456-2.76,5.006,5.006,0,0,1,1.184-1.792,4.369,4.369,0,0,1,1.624-.976,5.683,5.683,0,0,1,1.792-.3,8.747,8.747,0,0,1,1.624.128,5.937,5.937,0,0,1,1.1.3l-.432,1.856a3.173,3.173,0,0,0-.872-.256,7.963,7.963,0,0,0-1.224-.08,2.671,2.671,0,0,0-2.136.946,4.449,4.449,0,0,0-.808,2.934,6.072,6.072,0,0,0,.192,1.579,3.4,3.4,0,0,0,.584,1.219,2.7,2.7,0,0,0,.976.786,3.087,3.087,0,0,0,1.352.281,4.417,4.417,0,0,0,1.216-.144,3.571,3.571,0,0,0,.864-.368ZM-6.1,15.312h-4.1V20h-2.192V8.8H-10.2v4.56h4.1V8.8h2.192V20H-6.1Zm4.032-.832H1.944v1.84H-2.072Zm9.808-.32h4.176v4.992a4.208,4.208,0,0,1-1.608.816,6.983,6.983,0,0,1-1.848.256,5.764,5.764,0,0,1-1.992-.336A4.089,4.089,0,0,1,4.872,18.84a4.993,4.993,0,0,1-1.056-1.816A8.008,8.008,0,0,1,3.432,14.4a7.106,7.106,0,0,1,.456-2.7A5.059,5.059,0,0,1,5.088,9.9,4.549,4.549,0,0,1,6.76,8.888a5.888,5.888,0,0,1,1.888-.312,8.777,8.777,0,0,1,1.688.144,7.845,7.845,0,0,1,1.16.3l-.448,1.84a4.554,4.554,0,0,0-.9-.248,7.456,7.456,0,0,0-1.264-.088,3.7,3.7,0,0,0-1.264.208,2.445,2.445,0,0,0-1,.68,3.235,3.235,0,0,0-.656,1.208,6.017,6.017,0,0,0-.232,1.792,5.94,5.94,0,0,0,.224,1.736,3.36,3.36,0,0,0,.624,1.2,2.462,2.462,0,0,0,.936.7,2.937,2.937,0,0,0,1.144.224,3.23,3.23,0,0,0,.816-.1,1.866,1.866,0,0,0,.672-.312V15.744l-2.416-.256Zm8.56,1.056H15.72V20H13.528V8.8H15.72v4.96l.512-.224L19.32,8.8h2.5l-3.264,4.7-.864.608.9.624L22.312,20h-2.7ZM23.672,8.8h2.192V20H23.672Zm11.872,2.608a3.438,3.438,0,0,1-.1.832A2.291,2.291,0,0,1,35.1,13a2.416,2.416,0,0,1-.62.608,2.7,2.7,0,0,1-.923.392v.1a3.724,3.724,0,0,1,.907.272,2.327,2.327,0,0,1,.748.528,2.428,2.428,0,0,1,.5.816,3.184,3.184,0,0,1,.183,1.136,2.921,2.921,0,0,1-.368,1.5,3.036,3.036,0,0,1-.984,1.032,4.524,4.524,0,0,1-1.4.592,6.769,6.769,0,0,1-1.616.192h-.7q-.424,0-.912-.024t-.992-.072a7.1,7.1,0,0,1-.92-.144V8.88q.3-.048.7-.1t.84-.08q.448-.032.92-.048T31.4,8.64a9.582,9.582,0,0,1,1.528.12,4.362,4.362,0,0,1,1.328.424,2.432,2.432,0,0,1,.936.848A2.487,2.487,0,0,1,35.544,11.408ZM31.55,18.32a3.044,3.044,0,0,0,.762-.095,1.989,1.989,0,0,0,.652-.293,1.533,1.533,0,0,0,.456-.5,1.408,1.408,0,0,0,.173-.713,1.449,1.449,0,0,0-.2-.824,1.392,1.392,0,0,0-.534-.467,2.187,2.187,0,0,0-.738-.214,7.062,7.062,0,0,0-.817-.048H30.152v3.057a.958.958,0,0,0,.251.047q.173.016.369.024l.409.016Q31.393,18.32,31.55,18.32ZM30.856,13.5q.224,0,.52-.016a4.647,4.647,0,0,0,.488-.047,2.908,2.908,0,0,0,1.048-.57,1.254,1.254,0,0,0,.44-1,1.315,1.315,0,0,0-.16-.681,1.212,1.212,0,0,0-.424-.427,1.808,1.808,0,0,0-.6-.222,3.793,3.793,0,0,0-.7-.063q-.416,0-.768.016a4.961,4.961,0,0,0-.544.047V13.5Zm10.976-4.9,1.568.7L37.688,22.24,36.12,21.5Zm5.84,6.768.288,1.9h.08l.32-1.92L50.5,8.8h2.3l-4.16,11.28H47.08L42.888,8.8h2.544ZM53.848,8.8H56.04V20H53.848Zm4.56,0H60.6V20H58.408Zm8.7-.192,1.568.7L62.968,22.24,61.4,21.5Zm8.8,2.928a4.893,4.893,0,0,1-.3,1.648,10.191,10.191,0,0,1-.752,1.632,15.329,15.329,0,0,1-1.008,1.544q-.552.744-1.08,1.368l-.848.656v.08l1.152-.224h3.072V20H69.416V18.928q.384-.4.864-.936t.968-1.136q.488-.6.952-1.24a13.842,13.842,0,0,0,.832-1.288,7.936,7.936,0,0,0,.584-1.256,3.444,3.444,0,0,0,.216-1.152,1.567,1.567,0,0,0-.376-1.08,1.516,1.516,0,0,0-1.192-.424,2.793,2.793,0,0,0-1.048.216,2.973,2.973,0,0,0-.9.552L69.48,9.712A5.246,5.246,0,0,1,70.9,8.888a5.072,5.072,0,0,1,1.864-.312,3.977,3.977,0,0,1,1.264.192,2.825,2.825,0,0,1,.992.56,2.582,2.582,0,0,1,.656.92A3.208,3.208,0,0,1,75.912,11.536Zm2.112,2.848a7.653,7.653,0,0,1,1.008-4.376,3.722,3.722,0,0,1,5.856-.016,8.055,8.055,0,0,1,.944,4.392,7.681,7.681,0,0,1-1.016,4.4,3.34,3.34,0,0,1-2.9,1.44,3.222,3.222,0,0,1-2.944-1.512A8.209,8.209,0,0,1,78.024,14.384Zm2.08,0a8.449,8.449,0,0,0,.424,3.016,1.461,1.461,0,0,0,2.784.088,8.063,8.063,0,0,0,.44-3.1,8.47,8.47,0,0,0-.416-2.992,1.457,1.457,0,0,0-1.424-1.056,1.434,1.434,0,0,0-1.384.992A8.243,8.243,0,0,0,80.1,14.384Zm7.968,3.856H90.3V11.92l.24-1.088-.768.944-1.424.976-.88-1.2,3.648-2.944H92.28V18.24h2.176V20H88.072Zm15.776-1.712a3.947,3.947,0,0,1-.264,1.456,3.426,3.426,0,0,1-1.9,1.952,3.8,3.8,0,0,1-1.5.288,4.276,4.276,0,0,1-1.528-.264,3.284,3.284,0,0,1-1.208-.792,3.654,3.654,0,0,1-.8-1.328,5.47,5.47,0,0,1-.288-1.856,8.491,8.491,0,0,1,.456-2.864,7.459,7.459,0,0,1,1.232-2.232,6.362,6.362,0,0,1,1.808-1.536,6.609,6.609,0,0,1,2.184-.776l.464,1.648a4.529,4.529,0,0,0-1.472.5,5.35,5.35,0,0,0-1.192.88,5.233,5.233,0,0,0-.88,1.144,4.552,4.552,0,0,0-.5,1.3,2.716,2.716,0,0,1,.832-.68,2.643,2.643,0,0,1,1.28-.28,3.814,3.814,0,0,1,1.328.224,2.785,2.785,0,0,1,1.04.664,3.042,3.042,0,0,1,.672,1.08A4.177,4.177,0,0,1,103.848,16.528Zm-2.016.112a1.57,1.57,0,0,0-1.76-1.792,1.93,1.93,0,0,0-1.08.288,1.628,1.628,0,0,0-.616.672,1.735,1.735,0,0,0-.032.3v.256a2.649,2.649,0,0,0,.112.76,2.19,2.19,0,0,0,.328.672,1.659,1.659,0,0,0,.552.48,1.642,1.642,0,0,0,.8.184,1.588,1.588,0,0,0,1.224-.512A1.86,1.86,0,0,0,101.832,16.64Z" transform="translate(533 1175)" fill="#353535"/>
    <g id="Group_9120" data-name="Group 9120" transform="translate(-368 -2610)">
      <g id="Group_8490" data-name="Group 8490" transform="translate(828 3634)">
        <g id="Group_8489" data-name="Group 8489" transform="translate(0 0)" clip-path="url(#clip-path)">
          <path id="Path_13749" data-name="Path 13749" d="M39.865,17.207a4.068,4.068,0,0,0,1.542,1.234,5.2,5.2,0,0,0,2.2.432A4.47,4.47,0,0,0,47.266,17.3a6.919,6.919,0,0,0,1.292-4.49,9.6,9.6,0,0,0-.3-2.485,5.445,5.445,0,0,0-.917-1.916,4.128,4.128,0,0,0-1.549-1.234,5.165,5.165,0,0,0-2.185-.432,4.454,4.454,0,0,0-3.664,1.575,6.935,6.935,0,0,0-1.282,4.493,9.5,9.5,0,0,0,.3,2.483,5.45,5.45,0,0,0,.905,1.916m1.861-7.458a2.139,2.139,0,0,1,1.88-.975,2.165,2.165,0,0,1,1.184.307,2.3,2.3,0,0,1,.783.86,4.334,4.334,0,0,1,.442,1.282,8.438,8.438,0,0,1,.142,1.585,5.52,5.52,0,0,1-.665,3.083,2.174,2.174,0,0,1-1.885.948,2.122,2.122,0,0,1-1.15-.3,2.3,2.3,0,0,1-.79-.833,4.068,4.068,0,0,1-.456-1.275,7.932,7.932,0,0,1-.154-1.623,5.491,5.491,0,0,1,.67-3.059" transform="translate(54.17 9.444)" fill="#353535"/>
          <path id="Path_13750" data-name="Path 13750" d="M36.018,18.726c.317.017.622.029.917.041s.531.017.708.017a6.86,6.86,0,0,0,2.824-.516A5,5,0,0,0,42.309,16.9a5.177,5.177,0,0,0,1-1.95,8.657,8.657,0,0,0,.3-2.284,8.47,8.47,0,0,0-.315-2.382,4.859,4.859,0,0,0-1-1.866A4.478,4.478,0,0,0,40.511,7.2a7.265,7.265,0,0,0-2.651-.432q-.349,0-.792.007c-.293,0-.6.014-.908.024s-.615.029-.908.05-.559.05-.792.084V18.615c.144.024.36.043.651.06l.908.05m.725-9.859a4.82,4.82,0,0,1,.557-.05c.252-.01.5-.017.742-.017a3.151,3.151,0,0,1,1.568.351,2.777,2.777,0,0,1,.975.9,3.469,3.469,0,0,1,.492,1.241,7.248,7.248,0,0,1,.132,1.373,7.805,7.805,0,0,1-.149,1.527,3.692,3.692,0,0,1-.526,1.309,2.738,2.738,0,0,1-1.016.908,3.4,3.4,0,0,1-1.609.341c-.055,0-.139,0-.25-.01l-.351-.014c-.122-.007-.235-.012-.341-.017a1.374,1.374,0,0,1-.226-.026Z" transform="translate(48.285 9.483)" fill="#353535"/>
          <path id="Path_13751" data-name="Path 13751" d="M46.586,18.379a3.143,3.143,0,0,0-.375-1.606,2.775,2.775,0,0,0-1-1.008,4.35,4.35,0,0,0-1.417-.516,8.554,8.554,0,0,0-1.609-.151c-.233,0-.487,0-.766.017s-.564.029-.86.05-.588.053-.881.091-.571.082-.826.125V26.93h2.284V22.147l1.2.216,2.649,4.567h2.634l-2.668-4.449-.816-.516a3.433,3.433,0,0,0,1.784-1.251,3.824,3.824,0,0,0,.665-2.334M43.62,20.164a2.437,2.437,0,0,1-1.515.435h-.968V17.215a2.64,2.64,0,0,1,.526-.067c.226-.012.456-.017.689-.017a1.972,1.972,0,0,1,1.369.425,1.512,1.512,0,0,1,.466,1.174,1.692,1.692,0,0,1-.567,1.434" transform="translate(65.442 21.154)" fill="#353535"/>
          <path id="Path_13752" data-name="Path 13752" d="M41.109,25.065a4.082,4.082,0,0,0-1.549-1.234,5.146,5.146,0,0,0-2.183-.432,4.457,4.457,0,0,0-3.667,1.573,6.94,6.94,0,0,0-1.285,4.493,9.6,9.6,0,0,0,.3,2.483,5.453,5.453,0,0,0,.908,1.916A4.045,4.045,0,0,0,35.175,35.1a5.2,5.2,0,0,0,2.2.432,4.463,4.463,0,0,0,3.657-1.573,6.913,6.913,0,0,0,1.292-4.493,9.6,9.6,0,0,0-.3-2.483,5.384,5.384,0,0,0-.917-1.916M39.26,32.548a2.167,2.167,0,0,1-1.883.951,2.137,2.137,0,0,1-1.15-.3,2.32,2.32,0,0,1-.792-.833,4.192,4.192,0,0,1-.459-1.275,8.159,8.159,0,0,1-.149-1.626,5.522,5.522,0,0,1,.665-3.059,2.343,2.343,0,0,1,3.066-.665,2.282,2.282,0,0,1,.785.857,4.428,4.428,0,0,1,.439,1.282,8.244,8.244,0,0,1,.142,1.585,5.5,5.5,0,0,1-.665,3.083" transform="translate(45.435 32.787)" fill="#353535"/>
          <path id="Path_13753" data-name="Path 13753" d="M54.745,16.47H50.029V13.62h4.216V11.586H50.029V8.871h4.632V6.837H47.745V18.5h7Z" transform="translate(66.9 9.58)" fill="#353535"/>
          <rect id="Rectangle_501" data-name="Rectangle 501" width="2.284" height="11.667" transform="translate(114.227 36.416)" fill="#353535"/>
          <path id="Path_13754" data-name="Path 13754" d="M42.285,17.2V15.166H35.37V26.833h7V24.8H37.651v-2.85h4.216V19.916H37.651V17.2Z" transform="translate(49.56 21.251)" fill="#353535"/>
          <path id="Path_13755" data-name="Path 13755" d="M32.2,12.469l-.267-1.832h.084l.915,1.832,4.385,6.166h1.666V6.886H36.822v6.133l.267,1.784H37l-.884-1.784L31.706,6.8H30.039V18.551H32.2Z" transform="translate(42.09 9.532)" fill="#353535"/>
          <rect id="Rectangle_502" data-name="Rectangle 502" width="2.284" height="11.667" transform="translate(67.946 16.417)" fill="#353535"/>
          <path id="Path_13756" data-name="Path 13756" d="M39.4,32.8c0,.593.158.732.74.73q8.457-.032,16.914,0c.562,0,.689-.154.687-.7q-.032-8.846,0-17.69a1.417,1.417,0,0,0-.627-1.265c-4.476-3.489-8.932-7-13.408-10.491C42.263,2.257,40.88,1.047,39.343.038c-.11-.01-.221-.026-.331-.026Q28.92.008,18.828,0a1.364,1.364,0,0,0-.888.355Q9.288,7.116.627,13.86A1.415,1.415,0,0,0,0,15.125q.025,27.211,0,54.42a1.513,1.513,0,0,0,.692,1.364q8.817,6.7,17.605,13.447c0,.048,0,.1,0,.144H39.478c0-.043,0-.089,0-.132q8.842-6.721,17.694-13.437a1.27,1.27,0,0,0,.569-1.145q-.029-9.149,0-18.295c0-.547-.127-.694-.687-.692q-8.457.032-16.919,0c-.576,0-.74.127-.735.725.026,4.766.014,9.533.012,14.3a1.433,1.433,0,0,1-.065.718l-20.929-.007c0-.178-.019-.355-.019-.533q0-23.743,0-47.491c0-.221.014-.442.022-.665l20.919,0a1.9,1.9,0,0,1,.07.788c0,4.721.014,9.444-.012,14.165" transform="translate(0 0)" fill="#353535"/>
          <path id="Path_13757" data-name="Path 13757" d="M29.614,25.826a4.254,4.254,0,0,0,1.659,1.049,6,6,0,0,0,1.991.327,8.592,8.592,0,0,0,1.693-.166,3.517,3.517,0,0,0,1.357-.545l-.466-1.856a3.779,3.779,0,0,1-.9.384,4.654,4.654,0,0,1-1.265.149,3.228,3.228,0,0,1-1.409-.293,2.794,2.794,0,0,1-1.016-.819,3.541,3.541,0,0,1-.61-1.268,6.38,6.38,0,0,1-.2-1.645,4.633,4.633,0,0,1,.843-3.057,2.773,2.773,0,0,1,2.223-.984,8.371,8.371,0,0,1,1.275.082,3.434,3.434,0,0,1,.908.267l.451-1.933A6.182,6.182,0,0,0,35,15.2a9.106,9.106,0,0,0-1.69-.132,5.981,5.981,0,0,0-1.868.307,4.563,4.563,0,0,0-1.69,1.018,5.179,5.179,0,0,0-1.234,1.866,7.6,7.6,0,0,0-.475,2.874,8.136,8.136,0,0,0,.427,2.809,5.143,5.143,0,0,0,1.141,1.883" transform="translate(39.298 21.115)" fill="#353535"/>
          <path id="Path_13758" data-name="Path 13758" d="M34.75,28.245H30.483V23.5H28.2V35.163h2.284V30.279H34.75v4.884h2.284V23.5H34.75Z" transform="translate(39.513 32.921)" fill="#353535"/>
          <path id="Path_13759" data-name="Path 13759" d="M39.324,24.8h-5.1V15.166H31.941V26.833h7.384Z" transform="translate(44.755 21.25)" fill="#353535"/>
          <path id="Path_13760" data-name="Path 13760" d="M43.452,30.862a3.03,3.03,0,0,1-.466,1.883,1.834,1.834,0,0,1-1.518.583,3.12,3.12,0,0,1-.934-.125,1.462,1.462,0,0,1-.665-.415,1.805,1.805,0,0,1-.394-.768,4.7,4.7,0,0,1-.122-1.157V23.5H37.07v7.816q0,4.052,4.433,4.051a5.44,5.44,0,0,0,1.683-.25,3.226,3.226,0,0,0,1.3-.783,3.656,3.656,0,0,0,.833-1.352,5.612,5.612,0,0,0,.3-1.95V23.5H43.452Z" transform="translate(51.942 32.921)" fill="#353535"/>
          <path id="Path_13761" data-name="Path 13761" d="M47.567,29.307a6.846,6.846,0,0,0-1.285-.725Q45.591,28.283,45,28a4.486,4.486,0,0,1-.982-.617,1.045,1.045,0,0,1-.391-.833,1.011,1.011,0,0,1,.423-.85,2.031,2.031,0,0,1,1.227-.317,6.28,6.28,0,0,1,1.582.192,3.969,3.969,0,0,1,1.1.425l.718-1.916a4.936,4.936,0,0,0-1.484-.509,10.15,10.15,0,0,0-1.916-.175,5.9,5.9,0,0,0-1.6.2,3.444,3.444,0,0,0-1.241.617,2.733,2.733,0,0,0-.807,1.04,3.546,3.546,0,0,0-.283,1.477,3.023,3.023,0,0,0,.391,1.616,3.633,3.633,0,0,0,.982,1.059A6.68,6.68,0,0,0,44,30.124c.459.194.888.384,1.282.567a4.463,4.463,0,0,1,.984.607,1.092,1.092,0,0,1,.391.867,1.144,1.144,0,0,1-.543,1.042,2.931,2.931,0,0,1-1.558.341,5.343,5.343,0,0,1-.84-.065,7.712,7.712,0,0,1-.776-.168,6.42,6.42,0,0,1-.658-.216,4.772,4.772,0,0,1-.475-.216l-.735,1.95a6.759,6.759,0,0,0,1.4.466,9.239,9.239,0,0,0,2.2.233,6.609,6.609,0,0,0,1.741-.216,3.645,3.645,0,0,0,1.349-.665,3.028,3.028,0,0,0,.867-1.126,3.831,3.831,0,0,0,.31-1.609,2.882,2.882,0,0,0-.394-1.558,3.689,3.689,0,0,0-.982-1.049" transform="translate(57.552 32.785)" fill="#353535"/>
          <path id="Path_13762" data-name="Path 13762" d="M52.273,18.635V6.886H50.107v6.133l.267,1.784H50.29l-.884-1.784L44.99,6.8H43.324V18.551H45.49V12.469l-.267-1.832h.084l.915,1.832,4.385,6.166Z" transform="translate(60.705 9.532)" fill="#353535"/>
          <path id="Path_13763" data-name="Path 13763" d="M47.127,30.278h4.216V28.245H47.127V25.529h4.634V23.5H44.844V35.162h7V33.129H47.127Z" transform="translate(62.834 32.921)" fill="#353535"/>
          <path id="Path_13764" data-name="Path 13764" d="M51.516,21.348l.267,1.784H51.7l-.884-1.784L46.4,15.131H44.732V26.88H46.9V20.8l-.267-1.835h.084l.917,1.835,4.382,6.166h1.666V15.215H51.516Z" transform="translate(73.678 21.202)" fill="#353535"/>
          <path id="Path_13765" data-name="Path 13765" d="M53.484,22.268,56,22.534v2.2a1.959,1.959,0,0,1-.7.324,3.277,3.277,0,0,1-.85.11,3.058,3.058,0,0,1-1.193-.235,2.558,2.558,0,0,1-.975-.723,3.5,3.5,0,0,1-.648-1.251,6.164,6.164,0,0,1-.235-1.808,6.261,6.261,0,0,1,.243-1.866,3.372,3.372,0,0,1,.684-1.261,2.542,2.542,0,0,1,1.04-.706,3.816,3.816,0,0,1,1.318-.219A7.87,7.87,0,0,1,56,17.192a4.929,4.929,0,0,1,.934.259l.466-1.916a8.1,8.1,0,0,0-1.208-.317,9.094,9.094,0,0,0-1.758-.149,6.139,6.139,0,0,0-1.967.324,4.729,4.729,0,0,0-1.743,1.049,5.279,5.279,0,0,0-1.249,1.883A7.406,7.406,0,0,0,49,21.134a8.269,8.269,0,0,0,.4,2.733,5.166,5.166,0,0,0,1.1,1.892,4.244,4.244,0,0,0,1.657,1.093,6.01,6.01,0,0,0,2.075.348,7.284,7.284,0,0,0,1.926-.267,4.392,4.392,0,0,0,1.676-.85v-5.2H53.484Z" transform="translate(79.66 21.115)" fill="#353535"/>
          <path id="Path_13766" data-name="Path 13766" d="M57.493,12.647a6.847,6.847,0,0,0-1.285-.725q-.692-.3-1.282-.583a4.486,4.486,0,0,1-.982-.617,1.045,1.045,0,0,1-.391-.833,1.011,1.011,0,0,1,.423-.85A2.031,2.031,0,0,1,55.2,8.721a6.28,6.28,0,0,1,1.582.192,3.968,3.968,0,0,1,1.1.425L58.6,7.422a4.936,4.936,0,0,0-1.484-.509A10.155,10.155,0,0,0,55.2,6.74a5.908,5.908,0,0,0-1.6.2,3.444,3.444,0,0,0-1.241.617,2.733,2.733,0,0,0-.807,1.04,3.546,3.546,0,0,0-.283,1.477,3.023,3.023,0,0,0,.391,1.616,3.633,3.633,0,0,0,.982,1.059,6.552,6.552,0,0,0,1.285.716c.459.194.888.384,1.282.567a4.463,4.463,0,0,1,.984.608,1.092,1.092,0,0,1,.391.867,1.144,1.144,0,0,1-.543,1.042,2.931,2.931,0,0,1-1.558.341,5.343,5.343,0,0,1-.84-.065,7.712,7.712,0,0,1-.776-.168,6.42,6.42,0,0,1-.658-.216,4.275,4.275,0,0,1-.475-.216L51,18.172a6.759,6.759,0,0,0,1.4.466,9.239,9.239,0,0,0,2.2.233,6.609,6.609,0,0,0,1.741-.216,3.645,3.645,0,0,0,1.349-.665,3.028,3.028,0,0,0,.867-1.126,3.831,3.831,0,0,0,.31-1.609,2.882,2.882,0,0,0-.394-1.558,3.689,3.689,0,0,0-.982-1.049" transform="translate(71.46 9.444)" fill="#353535"/>
          <rect id="Rectangle_503" data-name="Rectangle 503" width="2.284" height="11.667" transform="translate(131.743 16.417)" fill="#353535"/>
          <path id="Path_13767" data-name="Path 13767" d="M62.074,6.8H60.391l-4.2,11.749h2.284l.884-2.584h3.583l.934,2.584h2.4Zm-2.132,7.333.85-2.584L61.142,9.7h.082l.351,1.832.867,2.6Z" transform="translate(78.734 9.531)" fill="#353535"/>
          <path id="Path_15935" data-name="Path 15935" d="M62.074,6.8H60.391l-4.2,11.749h2.284l.884-2.584h3.583l.934,2.584h2.4Zm-2.132,7.333.85-2.584L61.142,9.7h.082l.351,1.832.867,2.6Z" transform="translate(36.821 29.382)" fill="#353535"/>
        </g>
      </g>
    </g>
  </g>
</svg>
