<svg xmlns="http://www.w3.org/2000/svg" xmlns:xlink="http://www.w3.org/1999/xlink" width="261" height="261" viewBox="0 0 261 261">
  <defs>
    <clipPath id="clip-path">
      <rect id="Rectangle_500" data-name="Rectangle 500" width="180.24" height="55.867" fill="#353535"/>
    </clipPath>
    <clipPath id="clip-path-2">
      <rect id="Rectangle_2042" data-name="Rectangle 2042" width="86.439" height="43.982" fill="#353535"/>
    </clipPath>
    <clipPath id="clip-path-3">
      <rect id="Rectangle_2277" data-name="Rectangle 2277" width="76.888" height="34.792" fill="#353535"/>
    </clipPath>
  </defs>
  <g id="Group_10499" data-name="Group 10499" transform="translate(-687 -698)">
    <rect id="Rectangle_2345" data-name="Rectangle 2345" width="261" height="261" rx="4" transform="translate(687 698)" fill="#f7ba27"/>
    <path id="Path_15939" data-name="Path 15939" d="M-9.7-11.2h2.192v8.192a5,5,0,0,1-.144,1.216A2.826,2.826,0,0,1-8.128-.776a2.4,2.4,0,0,1-.84.7,2.7,2.7,0,0,1-1.248.264A5.826,5.826,0,0,1-11.224.1a4.134,4.134,0,0,1-.944-.272l.48-1.792a2.082,2.082,0,0,0,.944.208.806.806,0,0,0,.856-.5A3.854,3.854,0,0,0-9.7-3.568Zm4.208,0h6.64v1.952H-3.3V-6.48h4.1v1.952H-3.3V0H-5.5ZM5.272-5.7l-3.12-5.5h2.64L6.52-7.968,6.9-6.832l.368-1.136L9.08-11.2h2.384L8.232-5.808,11.624,0H9.016L7.048-3.456,6.616-4.64,6.2-3.456,4.216,0H1.832Zm-73.8,22.688a1.041,1.041,0,0,0-.376-.832,4.149,4.149,0,0,0-.944-.584q-.568-.264-1.232-.544a6.3,6.3,0,0,1-1.232-.688,3.509,3.509,0,0,1-.944-1.016,2.908,2.908,0,0,1-.376-1.552,3.4,3.4,0,0,1,.272-1.416,2.657,2.657,0,0,1,.776-1,3.334,3.334,0,0,1,1.192-.592,5.711,5.711,0,0,1,1.536-.192,9.633,9.633,0,0,1,1.84.168,4.676,4.676,0,0,1,1.424.488l-.688,1.84a3.849,3.849,0,0,0-1.056-.408,6,6,0,0,0-1.52-.184,1.944,1.944,0,0,0-1.176.3.966.966,0,0,0-.408.816,1.008,1.008,0,0,0,.376.8,4.353,4.353,0,0,0,.944.592q.568.272,1.232.56a6.618,6.618,0,0,1,1.232.7,3.548,3.548,0,0,1,.944,1.008,2.768,2.768,0,0,1,.376,1.5,3.692,3.692,0,0,1-.3,1.544,2.927,2.927,0,0,1-.832,1.08,3.515,3.515,0,0,1-1.3.64,6.323,6.323,0,0,1-1.672.208A8.908,8.908,0,0,1-72.544,20a6.461,6.461,0,0,1-1.344-.448l.7-1.872a4.35,4.35,0,0,0,.456.208,5.862,5.862,0,0,0,.632.208,7.3,7.3,0,0,0,.744.16,5.008,5.008,0,0,0,.808.064,2.817,2.817,0,0,0,1.5-.328A1.1,1.1,0,0,0-68.528,16.992Zm3.648-8.08q.672-.128,1.48-.2t1.608-.072a10.446,10.446,0,0,1,1.672.136,4.165,4.165,0,0,1,1.512.544,3.159,3.159,0,0,1,1.1,1.136,3.739,3.739,0,0,1,.424,1.9,3.924,3.924,0,0,1-.368,1.784,3.406,3.406,0,0,1-.976,1.192A3.935,3.935,0,0,1-59.816,16a6.184,6.184,0,0,1-1.608.208h-.256q-.176,0-.368-.008t-.376-.024q-.184-.016-.264-.032V20H-64.88Zm3.264,1.616q-.32,0-.608.024t-.464.056V14.24a1.754,1.754,0,0,0,.192.032q.128.016.272.024t.28.008h.2a4.607,4.607,0,0,0,.856-.08,2.115,2.115,0,0,0,.76-.3,1.543,1.543,0,0,0,.536-.6,2.185,2.185,0,0,0,.2-1.008,1.774,1.774,0,0,0-.192-.872,1.572,1.572,0,0,0-.5-.552,1.963,1.963,0,0,0-.712-.288A4.151,4.151,0,0,0-61.616,10.528ZM-51.44,17.52h-3.44L-55.728,20H-57.92l4.032-11.28h1.616L-48.24,20h-2.3Zm-2.88-1.76h2.4l-.832-2.5-.336-1.76h-.08L-53.5,13.28Zm14.576-4.352a3.438,3.438,0,0,1-.1.832,2.291,2.291,0,0,1-.342.76,2.416,2.416,0,0,1-.62.608,2.7,2.7,0,0,1-.923.392v.1a3.724,3.724,0,0,1,.907.272,2.327,2.327,0,0,1,.748.528,2.428,2.428,0,0,1,.5.816,3.184,3.184,0,0,1,.183,1.136,2.921,2.921,0,0,1-.368,1.5,3.036,3.036,0,0,1-.984,1.032,4.524,4.524,0,0,1-1.4.592,6.769,6.769,0,0,1-1.616.192h-.7q-.424,0-.912-.024t-.992-.072a7.1,7.1,0,0,1-.92-.144V8.88q.3-.048.7-.1t.84-.08q.448-.032.92-.048t.936-.016a9.582,9.582,0,0,1,1.528.12,4.362,4.362,0,0,1,1.328.424,2.432,2.432,0,0,1,.936.848A2.487,2.487,0,0,1-39.744,11.408Zm-3.994,6.912a3.044,3.044,0,0,0,.762-.095,1.989,1.989,0,0,0,.652-.293,1.533,1.533,0,0,0,.456-.5,1.408,1.408,0,0,0,.173-.713,1.449,1.449,0,0,0-.2-.824,1.392,1.392,0,0,0-.534-.467,2.187,2.187,0,0,0-.738-.214,7.062,7.062,0,0,0-.817-.048h-1.147v3.057a.958.958,0,0,0,.251.047q.173.016.369.024l.408.016Q-43.9,18.32-43.738,18.32Zm-.694-4.816q.224,0,.52-.016a4.647,4.647,0,0,0,.488-.047,2.908,2.908,0,0,0,1.048-.57,1.254,1.254,0,0,0,.44-1,1.315,1.315,0,0,0-.16-.681,1.212,1.212,0,0,0-.424-.427,1.808,1.808,0,0,0-.6-.222,3.793,3.793,0,0,0-.7-.063q-.416,0-.768.016a4.961,4.961,0,0,0-.544.047V13.5Zm6.512.976H-33.9v1.84H-37.92Zm6.512,3.76h2.224V11.92l.24-1.088-.768.944-1.424.976-.88-1.2,3.648-2.944H-27.2V18.24h2.176V20h-6.384Zm8.1-3.856A7.653,7.653,0,0,1-22.3,10.008a3.326,3.326,0,0,1,2.9-1.432,3.3,3.3,0,0,1,2.96,1.416,8.055,8.055,0,0,1,.944,4.392,7.681,7.681,0,0,1-1.016,4.4,3.34,3.34,0,0,1-2.9,1.44,3.222,3.222,0,0,1-2.944-1.512A8.209,8.209,0,0,1-23.312,14.384Zm2.08,0a8.449,8.449,0,0,0,.424,3.016,1.453,1.453,0,0,0,1.4,1.064,1.452,1.452,0,0,0,1.384-.976,8.063,8.063,0,0,0,.44-3.1A8.47,8.47,0,0,0-18,11.392a1.457,1.457,0,0,0-1.424-1.056,1.434,1.434,0,0,0-1.384.992A8.242,8.242,0,0,0-21.232,14.384Zm10.208,4.08a2.029,2.029,0,0,0,1.512-.528,1.757,1.757,0,0,0,.52-1.28,1.612,1.612,0,0,0-.544-1.344,2.747,2.747,0,0,0-1.712-.432H-12.4v-1.1l1.936-2.64.912-.72-1.264.144H-13.5V8.8h6.112V9.936L-9.648,12.96l-.7.432v.08l.672-.1a3.571,3.571,0,0,1,1.064.256,2.559,2.559,0,0,1,.88.6,2.893,2.893,0,0,1,.6.968,3.647,3.647,0,0,1,.224,1.328,3.925,3.925,0,0,1-.312,1.632,3.217,3.217,0,0,1-.864,1.152A3.609,3.609,0,0,1-9.376,20a5.415,5.415,0,0,1-1.584.224,8.675,8.675,0,0,1-1.456-.128,4.219,4.219,0,0,1-1.216-.368l.56-1.728a4.563,4.563,0,0,0,.92.336A4.587,4.587,0,0,0-11.024,18.464ZM-.48,8.608l1.568.7L-4.624,22.24-6.192,21.5Zm9.7,2.8a3.439,3.439,0,0,1-.1.832,2.291,2.291,0,0,1-.342.76,2.416,2.416,0,0,1-.62.608A2.7,2.7,0,0,1,7.228,14v.1a3.724,3.724,0,0,1,.907.272,2.327,2.327,0,0,1,.748.528,2.428,2.428,0,0,1,.5.816,3.184,3.184,0,0,1,.183,1.136,2.921,2.921,0,0,1-.368,1.5,3.036,3.036,0,0,1-.984,1.032,4.524,4.524,0,0,1-1.4.592A6.769,6.769,0,0,1,5.2,20.16H4.5q-.424,0-.912-.024T2.6,20.064a7.1,7.1,0,0,1-.92-.144V8.88q.3-.048.7-.1t.84-.08q.448-.032.92-.048t.936-.016A9.582,9.582,0,0,1,6.6,8.76a4.362,4.362,0,0,1,1.328.424,2.432,2.432,0,0,1,.936.848A2.487,2.487,0,0,1,9.216,11.408ZM5.222,18.32a3.044,3.044,0,0,0,.762-.095,1.989,1.989,0,0,0,.652-.293,1.534,1.534,0,0,0,.455-.5,1.408,1.408,0,0,0,.173-.713,1.449,1.449,0,0,0-.2-.824,1.392,1.392,0,0,0-.534-.467,2.187,2.187,0,0,0-.738-.214,7.062,7.062,0,0,0-.817-.048H3.824v3.057a.958.958,0,0,0,.251.047q.173.016.369.024l.408.016Q5.065,18.32,5.222,18.32ZM4.528,13.5q.224,0,.52-.016a4.647,4.647,0,0,0,.488-.047,2.908,2.908,0,0,0,1.048-.57,1.254,1.254,0,0,0,.44-1,1.315,1.315,0,0,0-.16-.681,1.212,1.212,0,0,0-.424-.427,1.808,1.808,0,0,0-.6-.222,3.793,3.793,0,0,0-.7-.063q-.416,0-.768.016a4.961,4.961,0,0,0-.544.047V13.5Zm14.144-2.1a3.439,3.439,0,0,1-.1.832,2.291,2.291,0,0,1-.342.76,2.416,2.416,0,0,1-.62.608,2.7,2.7,0,0,1-.922.392v.1a3.724,3.724,0,0,1,.907.272,2.327,2.327,0,0,1,.748.528,2.428,2.428,0,0,1,.5.816,3.184,3.184,0,0,1,.183,1.136,2.921,2.921,0,0,1-.368,1.5,3.036,3.036,0,0,1-.984,1.032,4.524,4.524,0,0,1-1.4.592,6.769,6.769,0,0,1-1.616.192h-.7q-.424,0-.912-.024t-.992-.072a7.1,7.1,0,0,1-.92-.144V8.88q.3-.048.7-.1t.84-.08q.448-.032.92-.048t.936-.016a9.582,9.582,0,0,1,1.528.12,4.362,4.362,0,0,1,1.328.424,2.432,2.432,0,0,1,.936.848A2.487,2.487,0,0,1,18.672,11.408ZM14.678,18.32a3.044,3.044,0,0,0,.762-.095,1.989,1.989,0,0,0,.652-.293,1.534,1.534,0,0,0,.455-.5,1.408,1.408,0,0,0,.173-.713,1.449,1.449,0,0,0-.2-.824,1.392,1.392,0,0,0-.534-.467,2.187,2.187,0,0,0-.738-.214,7.062,7.062,0,0,0-.817-.048H13.28v3.057a.958.958,0,0,0,.251.047q.173.016.369.024l.409.016Q14.521,18.32,14.678,18.32ZM13.984,13.5q.224,0,.52-.016a4.647,4.647,0,0,0,.488-.047,2.908,2.908,0,0,0,1.048-.57,1.254,1.254,0,0,0,.44-1,1.315,1.315,0,0,0-.16-.681,1.212,1.212,0,0,0-.424-.427,1.808,1.808,0,0,0-.6-.222,3.793,3.793,0,0,0-.7-.063q-.416,0-.768.016a4.961,4.961,0,0,0-.544.047V13.5Zm7.744-4.7H23.92v8.192a5,5,0,0,1-.144,1.216,2.826,2.826,0,0,1-.472,1.016,2.4,2.4,0,0,1-.84.7,2.7,2.7,0,0,1-1.248.264,5.826,5.826,0,0,1-1.008-.1,4.134,4.134,0,0,1-.944-.272l.48-1.792a2.082,2.082,0,0,0,.944.208.806.806,0,0,0,.856-.5,3.854,3.854,0,0,0,.184-1.312ZM30.3,8.608l1.568.7L26.16,22.24,24.592,21.5ZM33.12,18.24h2.224V11.92l.24-1.088-.768.944-1.424.976-.88-1.2L36.16,8.608h1.168V18.24H39.5V20H33.12Zm15.056-6.7a4.893,4.893,0,0,1-.3,1.648,10.192,10.192,0,0,1-.752,1.632A15.329,15.329,0,0,1,46.12,16.36q-.552.744-1.08,1.368l-.848.656v.08l1.152-.224h3.072V20H41.68V18.928q.384-.4.864-.936t.968-1.136q.488-.6.952-1.24a13.841,13.841,0,0,0,.832-1.288,7.935,7.935,0,0,0,.584-1.256A3.444,3.444,0,0,0,46.1,11.92a1.567,1.567,0,0,0-.376-1.08,1.516,1.516,0,0,0-1.192-.424,2.793,2.793,0,0,0-1.048.216,2.972,2.972,0,0,0-.9.552l-.832-1.472a5.246,5.246,0,0,1,1.416-.824,5.073,5.073,0,0,1,1.864-.312,3.977,3.977,0,0,1,1.264.192,2.825,2.825,0,0,1,.992.56,2.582,2.582,0,0,1,.656.92A3.208,3.208,0,0,1,48.176,11.536Zm6.8-2.928,1.568.7L50.832,22.24,49.264,21.5Zm1.84,5.776a7.653,7.653,0,0,1,1.008-4.376,3.722,3.722,0,0,1,5.856-.016,8.055,8.055,0,0,1,.944,4.392,7.681,7.681,0,0,1-1.016,4.4,3.34,3.34,0,0,1-2.9,1.44,3.222,3.222,0,0,1-2.944-1.512A8.209,8.209,0,0,1,56.816,14.384Zm2.08,0A8.449,8.449,0,0,0,59.32,17.4a1.461,1.461,0,0,0,2.784.088,8.063,8.063,0,0,0,.44-3.1,8.47,8.47,0,0,0-.416-2.992A1.457,1.457,0,0,0,60.7,10.336a1.434,1.434,0,0,0-1.384.992A8.243,8.243,0,0,0,58.9,14.384Zm15.2,2.5h-1.76V20H70.4V16.88H65.552V15.7L70.624,8.72h1.712v6.5H74.1Zm-3.7-4.112.144-1.344H70.48l-.544,1.152-1.664,2.16-.8.608,1.024-.128h1.9Z" transform="translate(818 889.729)" fill="#353535"/>
    <g id="Group_9125" data-name="Group 9125" transform="translate(727 766.001)">
      <g id="Group_8487" data-name="Group 8487" transform="translate(0 0)" clip-path="url(#clip-path)">
        <path id="Path_13728" data-name="Path 13728" d="M87.742,22.154a1.021,1.021,0,0,0-.344-.829c-.492-.447-.987-.887-1.475-1.337C84.245,18.437,82.6,16.86,80.9,15.332c-.823-.741-1.623-1.512-2.441-2.258-1.7-1.554-3.351-3.155-5.069-4.691-1.249-1.117-2.47-2.269-3.682-3.428C68.6,3.9,67.44,2.909,66.373,1.813c-.077-.077-.148-.18-.289-.135L66.029,1.6a.244.244,0,0,0-.066-.209c-.431-.426-.855-.86-1.3-1.276a.412.412,0,0,0-.593.016c-.649.582-1.289,1.17-1.938,1.75-.368.328-.728.662-1.1.977-.752.635-1.493,1.279-2.213,1.946s-1.482,1.321-2.226,1.977c-.839.736-1.655,1.5-2.5,2.224-.36.31-.7.646-1.067.934-.619.484-1.167,1.043-1.752,1.564a2.326,2.326,0,0,0-.63.574l-.336.291a1.765,1.765,0,0,0-.577.506.373.373,0,0,0-.167.159,2,2,0,0,0-.686.582.393.393,0,0,0-.169.159.817.817,0,0,0-.341.294,2.16,2.16,0,0,0-.572.514l-.056.048a1.066,1.066,0,0,0-.4.352c-.188.172-.376.341-.564.511-.238.079-.357.294-.522.455L46.2,16a1.058,1.058,0,0,0-.4.352c-.233.082-.355.291-.516.455l-.056.048a.723.723,0,0,0-.341.294,2.838,2.838,0,0,0-.683.625c-.161.037-.244.175-.344.286-.206.191-.413.381-.622.572-.193.042-.283.209-.408.339-.238.124-.323.461-.649.463-.093-.1-.177-.2-.275-.289-.837-.754-1.662-1.522-2.525-2.247-.625-.521-1.21-1.091-1.816-1.633-1.337-1.191-2.695-2.359-4.013-3.571-.94-.868-1.911-1.7-2.864-2.552-.979-.876-1.932-1.782-2.944-2.626-.733-.614-1.424-1.276-2.126-1.927C24.516,3.565,23.341,2.62,22.26,1.569a.41.41,0,0,0-.582.05c-.834.831-1.673,1.655-2.547,2.443-.09-.011-.135.061-.188.111-.929.892-1.837,1.8-2.811,2.65-1.014.884-1.927,1.88-2.944,2.764-1.035.9-1.97,1.914-3,2.827-.953.839-1.824,1.766-2.772,2.613C6.367,15.97,5.4,17,4.334,17.932,3.584,18.586,2.9,19.311,2.184,20a2.864,2.864,0,0,1-.233.209c-.654.492-1.189,1.112-1.79,1.66A.661.661,0,0,0,0,22.421Q0,28.509,0,34.6c0,.146-.008.32.087.408.527.5,1.064.977,1.6,1.461a2.928,2.928,0,0,0,.3.27c.45.508.95.966,1.435,1.44.024.024.069.024.106.034.037.04.077.077.116.114a2.976,2.976,0,0,0,.852.794,2.17,2.17,0,0,1,.572.516,2.985,2.985,0,0,0,.794.741l.056.058a1.5,1.5,0,0,0,.63.622c.037.04.077.077.114.114h0a17.581,17.581,0,0,0,1.474,1.472c.122.109.212.273.4.3.373.379.747.76,1.122,1.136.071.071.127.169.246.169.04.037.079.074.119.114.336.413.747.757,1.117,1.141.069.071.124.169.246.169.058.056.116.111.177.167a2.863,2.863,0,0,0,.789.747c.116.135.209.3.4.339l.119.111a.591.591,0,0,0,.077.116c.974.953,1.94,1.917,2.933,2.854.341.323.725.6,1.054.945a.183.183,0,0,0,.148.071l.061.058a.66.66,0,0,0,.077.114c.919.9,1.813,1.824,2.772,2.682.45.4.887.818,1.326,1.234.061.056.109.132.209.124.116.114.23.228.347.344a.373.373,0,0,0,.593.146,4.12,4.12,0,0,0,.707-.717.139.139,0,0,0,.011-.045c.249-.04.371-.23.5-.41l.127-.159c.13.005.2-.09.286-.161.577-.471,1.107-1,1.673-1.477a9.02,9.02,0,0,0,1.165-1.107c.138-.146.275-.294.41-.439a.356.356,0,0,0,.228-.1c.519-.41.977-.889,1.474-1.326s1.014-.876,1.5-1.339c.394-.376.8-.744,1.212-1.112,1.038-.934,2.1-1.848,3.134-2.79.439-.4.889-.789,1.326-1.194.413-.384.86-.733,1.249-1.144.278-.3.625-.516.921-.786,1.059-.956,2.1-1.927,3.174-2.872q1.064-.937,2.115-1.885c.185-.169.312-.156.5.021a7.074,7.074,0,0,0,.974.847l.138.135c.066.159.246.193.352.315.424.5,1,.831,1.437,1.316.029.032.082.037.124.056.082.064.167.13.251.193a2.661,2.661,0,0,0,.715.662l.537.474a1.2,1.2,0,0,0,.122.154c.68.614,1.361,1.228,2.049,1.835a3.991,3.991,0,0,0,.768.614l.31.3a7.052,7.052,0,0,0,1.114,1.006l.026.019c.056.064.106.13.164.188.524.543,1.154.961,1.684,1.5a.937.937,0,0,0,.466.341l.024.019a3.264,3.264,0,0,0,.937.839c.026.029.056.056.082.082,0,.019,0,.042.011.053.41.458.919.813,1.369,1.231l.026,0,.026.019c.259.251.519.506.781.754a.809.809,0,0,0,.389.251l.024.019a5.274,5.274,0,0,0,1.17,1.067l.2.191A9.332,9.332,0,0,0,61.7,52.292a4.108,4.108,0,0,0,.792.659c.1.085.206.167.307.251a3.968,3.968,0,0,0,1.059.945l.082.077c.034.042.066.09.1.13.434.463.937.855,1.4,1.289.315.3.484.3.792-.011q1.271-1.283,2.531-2.57a.42.42,0,0,0,.058-.093l.021-.021c.079.016.122-.045.167-.09l5.358-5.175c.408-.4.8-.807,1.228-1.183a1.3,1.3,0,0,0,.471-.588c.911-.874,1.827-1.742,2.732-2.618,1.077-1.043,2.147-2.094,3.224-3.137.866-.837,1.763-1.641,2.6-2.512.821-.855,1.681-1.668,2.552-2.472a1.376,1.376,0,0,0,.582-1.324.907.907,0,0,1,0-.169q0-5.766,0-11.526M30.872,33.2h0l0,0,.005,0h-.008M32.9,27.676c-.752.588-1.477,1.218-2.168,1.872-1.358,1.281-2.838,2.425-4.169,3.73-.2.191-.4.376-.612.553-1.085.916-2.142,1.866-3.206,2.8-.519.458-1.011.94-1.559,1.369a5.3,5.3,0,0,0-.956.884,5.2,5.2,0,0,0-.453-.418c-.956-.762-1.864-1.58-2.8-2.367-1.173-.987-2.335-1.988-3.508-2.975-.688-.58-1.371-1.165-2.06-1.744-.993-.837-1.964-1.7-2.965-2.523a.55.55,0,0,1-.262-.5l.008-.005a.5.5,0,0,0,.064-.048c.037-.037.077-.074.114-.109a2.97,2.97,0,0,0,.551-.479c.042-.034.082-.066.122-.1a.5.5,0,0,0,.064-.048l.04-.037a.49.49,0,0,0,.2-.172.29.29,0,0,1,.056-.037.517.517,0,0,0,.061-.045c.074-.066.151-.132.228-.2a10.659,10.659,0,0,0,1.075-.879l.286-.241.064-.05.048-.042a3.8,3.8,0,0,0,.672-.564c.9-.72,1.784-1.464,2.674-2.2.662-.548,1.326-1.093,1.983-1.649a10.045,10.045,0,0,0,.937-.8c.066-.05.132-.1.2-.156a1.646,1.646,0,0,0,.331-.222c1.252-1.027,2.494-2.073,3.738-3.11a.353.353,0,0,1,.508-.019c.132.111.27.212.394.328.762.728,1.57,1.4,2.356,2.1.847.757,1.686,1.525,2.552,2.261,1.263,1.072,2.454,2.224,3.709,3.306.752.649,1.5,1.3,2.205,2l.008.005a6.43,6.43,0,0,1-.521.519m9.617,6.8,0,0a.144.144,0,0,1,.119,0l-.122,0m2.247.961-.011-.008.019-.008-.008.016m3.883-18.065,0,0,0,0v.005m2.854-2.838v0ZM65.725,40.573,65.7,40.56l.056-.008-.026.021m6.118,7.852v0M79.5,28.476c-.905.765-1.776,1.567-2.69,2.324-1.173.977-2.3,2.009-3.455,3-1.194,1.022-2.367,2.07-3.566,3.089-.469.4-.9.842-1.382,1.228-.368.3-.725.606-1.085.913-.447.381-.9.76-1.334,1.154a.236.236,0,0,1-.373-.013c-.376-.4-.831-.72-1.226-1.1-.643-.619-1.324-1.191-1.988-1.787-.622-.556-1.271-1.08-1.866-1.662-.413-.405-.874-.76-1.3-1.154-.569-.527-1.181-1.009-1.747-1.543-.641-.6-1.308-1.181-1.964-1.768-.821-.731-1.625-1.482-2.48-2.173a1.431,1.431,0,0,1-.307-.336l-.048-.053a.4.4,0,0,1,.143-.267q1.449-1.271,2.888-2.555c.471-.424.945-.844,1.411-1.276,1.019-.945,2.067-1.861,3.108-2.782q.572-.508,1.13-1.03c.895-.829,1.824-1.617,2.732-2.433.521-.466,1.059-.919,1.549-1.422a1.051,1.051,0,0,1,.241-.148.192.192,0,0,1,.236.021c.516.426,1.059.826,1.549,1.281.678.63,1.437,1.167,2.126,1.787.619.556,1.273,1.072,1.911,1.607l2.062,1.731c.079.064.159.13.238.191.037.032.071.061.109.087l.254.2v.008a.145.145,0,0,0,.069.1,1.2,1.2,0,0,1,.122.079,1.982,1.982,0,0,0,.262.254c.034.037.066.077.1.114a1.275,1.275,0,0,0,.307.238.614.614,0,0,1,.1.056.983.983,0,0,0,.2.188c.026.034.056.069.085.1.424.349.834.717,1.249,1.075.863.741,1.758,1.445,2.613,2.195.236.206.246.286.011.487" transform="translate(0 0.002)" fill="#353535"/>
        <g id="Group_10318" data-name="Group 10318" transform="translate(90.301 5.942)">
          <g id="Group_9942" data-name="Group 9942" transform="translate(0 0)" clip-path="url(#clip-path-2)">
            <path id="Path_15270" data-name="Path 15270" d="M26.069,24.647a1.314,1.314,0,0,0,.686-.479,1.473,1.473,0,0,0,.257-.894,1.2,1.2,0,0,0-.147-.618,1.022,1.022,0,0,0-.384-.386,1.649,1.649,0,0,0-.536-.2,3.417,3.417,0,0,0-.618-.057h-.295l-.331.02a2.763,2.763,0,0,0-.341.036l-.316.048v4.441h.872V24.717l.459.084,1.019,1.757h1.024l-1.028-1.712Zm-.781-.524h-.372v-1.3a.946.946,0,0,1,.2-.027h.268a.758.758,0,0,1,.524.163.588.588,0,0,1,.179.452.659.659,0,0,1-.216.552.937.937,0,0,1-.584.168" transform="translate(18.928 17.329)" fill="#353535"/>
            <path id="Path_15271" data-name="Path 15271" d="M13.626,22.029l-1.609,4.518h.876l.341-.992h1.38l.357.992H15.9l-1.609-4.518Zm-.179,2.82.332-1,.136-.715h.03l.136.706.336,1Z" transform="translate(9.46 17.341)" fill="#353535"/>
            <path id="Path_15272" data-name="Path 15272" d="M7.447,22.029,5.838,26.547h.876l.341-.992h1.38l.357.992h.924L8.108,22.029Zm-.179,2.82.332-1,.136-.715h.03l.136.706.336,1Z" transform="translate(4.596 17.341)" fill="#353535"/>
            <path id="Path_15273" data-name="Path 15273" d="M10.337,24.647a1.314,1.314,0,0,0,.686-.479,1.473,1.473,0,0,0,.257-.894,1.2,1.2,0,0,0-.147-.618,1.022,1.022,0,0,0-.384-.386,1.649,1.649,0,0,0-.536-.2,3.417,3.417,0,0,0-.618-.057H9.3l-.331.02a2.763,2.763,0,0,0-.341.036l-.316.048v4.441h.87V24.717l.459.084,1.019,1.757h1.024l-1.028-1.712Zm-.781-.524H9.182v-1.3a.946.946,0,0,1,.2-.027h.268a.758.758,0,0,1,.524.163.581.581,0,0,1,.179.452.659.659,0,0,1-.216.552.937.937,0,0,1-.584.168" transform="translate(6.543 17.329)" fill="#353535"/>
            <path id="Path_15274" data-name="Path 15274" d="M2.982,22.029,1.373,26.547h.876l.341-.992H3.97l.357.992h.924L3.643,22.029ZM2.8,24.849l.332-1,.136-.715h.021l.143.715.336,1Z" transform="translate(1.081 17.341)" fill="#353535"/>
            <path id="Path_15275" data-name="Path 15275" d="M41.277,22.029l-1.609,4.518h.876l.341-.992h1.38l.357.992h.924l-1.609-4.518Zm-.179,2.82.332-1,.136-.715h.03l.136.706.336,1Z" transform="translate(31.228 17.341)" fill="#353535"/>
            <path id="Path_15278" data-name="Path 15278" d="M.987,25.1a1.58,1.58,0,0,1-.073.524.323.323,0,0,1-.343.2.821.821,0,0,1-.379-.084L0,26.453a1.735,1.735,0,0,0,.379.109,2.531,2.531,0,0,0,.4.038,1.074,1.074,0,0,0,.5-.105.968.968,0,0,0,.338-.281,1.14,1.14,0,0,0,.179-.407,1.857,1.857,0,0,0,.059-.486V22.046H.978Z" transform="translate(0 17.355)" fill="#353535"/>
            <path id="Path_15279" data-name="Path 15279" d="M5.511,24.175l.347-.243,1.308-1.884h-1l-1.239,1.9-.206.089V22.046H3.845v4.482h.876V24.618h.232l1.324,1.911H7.362L5.87,24.419Z" transform="translate(3.027 17.355)" fill="#353535"/>
            <path id="Path_15280" data-name="Path 15280" d="M13.7,22.046h-3.5v.781h1.315v3.7H12.4v-3.7h1.308Z" transform="translate(8.034 17.355)" fill="#353535"/>
            <path id="Path_15281" data-name="Path 15281" d="M15.327,26.528h.879v-1.81h1.641v-.781H16.2V22.828h1.787v-.781H15.327Z" transform="translate(12.066 17.356)" fill="#353535"/>
            <path id="Path_15282" data-name="Path 15282" d="M19.687,24.879a1.162,1.162,0,0,1-.179.724.712.712,0,0,1-.584.225,1.207,1.207,0,0,1-.357-.048.613.613,0,0,1-.257-.159.709.709,0,0,1-.148-.295,1.713,1.713,0,0,1-.048-.447V22.046h-.89v3.006q0,1.558,1.707,1.557a2.087,2.087,0,0,0,.647-.1,1.2,1.2,0,0,0,.5-.3,1.437,1.437,0,0,0,.322-.518,2.223,2.223,0,0,0,.114-.749v-2.9h-.833Z" transform="translate(13.558 17.355)" fill="#353535"/>
            <path id="Path_15283" data-name="Path 15283" d="M19.4,22.828h1.314v3.7h.879v-3.7H22.9v-.781H19.4Z" transform="translate(15.272 17.356)" fill="#353535"/>
            <path id="Path_15284" data-name="Path 15284" d="M24.146,24.879a1.162,1.162,0,0,1-.179.724.712.712,0,0,1-.584.225,1.207,1.207,0,0,1-.357-.048.613.613,0,0,1-.257-.159.709.709,0,0,1-.148-.295,1.713,1.713,0,0,1-.048-.447V22.046h-.879v3.006q0,1.558,1.707,1.557a2.087,2.087,0,0,0,.647-.1,1.2,1.2,0,0,0,.5-.3,1.437,1.437,0,0,0,.322-.518,2.223,2.223,0,0,0,.114-.749v-2.9h-.836Z" transform="translate(17.076 17.355)" fill="#353535"/>
            <path id="Path_15285" data-name="Path 15285" d="M27.167,24.655h1.623v-.781H27.167V22.828h1.787v-.781H26.289v4.481h2.69v-.785H27.167Z" transform="translate(20.695 17.356)" fill="#353535"/>
            <path id="Path_15286" data-name="Path 15286" d="M30.625,24.267a2.659,2.659,0,0,0-.5-.279c-.179-.079-.341-.152-.491-.225a1.646,1.646,0,0,1-.375-.238.41.41,0,0,1,.013-.647.778.778,0,0,1,.47-.122,2.393,2.393,0,0,1,.606.073,1.586,1.586,0,0,1,.427.163l.273-.735a1.835,1.835,0,0,0-.57-.191A3.746,3.746,0,0,0,29.746,22a2.251,2.251,0,0,0-.617.075,1.353,1.353,0,0,0-.479.238,1.04,1.04,0,0,0-.307.4,1.323,1.323,0,0,0-.111.568,1.2,1.2,0,0,0,.148.622,1.414,1.414,0,0,0,.379.406,2.4,2.4,0,0,0,.5.275c.179.075.343.148.5.22a1.624,1.624,0,0,1,.375.232.424.424,0,0,1,.152.332.449.449,0,0,1-.206.4,1.157,1.157,0,0,1-.6.13,2.167,2.167,0,0,1-.322-.025,2.44,2.44,0,0,1-.3-.064,1.835,1.835,0,0,1-.254-.084,1.257,1.257,0,0,1-.179-.084l-.281.752a2.589,2.589,0,0,0,.536.179,3.634,3.634,0,0,0,.845.089,2.632,2.632,0,0,0,.668-.08,1.47,1.47,0,0,0,.522-.257,1.232,1.232,0,0,0,.332-.433,1.443,1.443,0,0,0,.122-.618,1.139,1.139,0,0,0-.152-.6,1.477,1.477,0,0,0-.379-.4" transform="translate(22.15 17.318)" fill="#353535"/>
            <path id="Path_15287" data-name="Path 15287" d="M32.115,24.655h1.623v-.781H32.115V22.828H33.9v-.781H31.237v4.481H33.93v-.785H32.115Z" transform="translate(24.591 17.356)" fill="#353535"/>
            <path id="Path_15288" data-name="Path 15288" d="M36.872,22.046h-.954l-.724,1.3-.148.454-.139-.454-.692-1.3h-1.06l1.251,2.2-1.387,2.279h.954l.8-1.385.168-.474.179.474.786,1.385h1.046L35.587,24.2Z" transform="translate(25.993 17.355)" fill="#353535"/>
            <path id="Path_15289" data-name="Path 15289" d="M37.925,25.823a1.783,1.783,0,0,1-.486.057,1.234,1.234,0,0,1-.536-.111,1.087,1.087,0,0,1-.391-.316,1.379,1.379,0,0,1-.238-.488,2.522,2.522,0,0,1-.075-.633,1.79,1.79,0,0,1,.325-1.176,1.075,1.075,0,0,1,.854-.379,3.206,3.206,0,0,1,.49.032,1.241,1.241,0,0,1,.357.1l.179-.743a2.213,2.213,0,0,0-.441-.122A3.43,3.43,0,0,0,37.313,22a2.215,2.215,0,0,0-.715.12,1.709,1.709,0,0,0-.649.39,2.029,2.029,0,0,0-.475.715,2.917,2.917,0,0,0-.179,1.106,3.163,3.163,0,0,0,.163,1.072,1.977,1.977,0,0,0,.441.724,1.616,1.616,0,0,0,.634.4,2.3,2.3,0,0,0,.769.127,3.286,3.286,0,0,0,.649-.064,1.346,1.346,0,0,0,.522-.211l-.179-.715a1.293,1.293,0,0,1-.347.148" transform="translate(27.784 17.314)" fill="#353535"/>
            <path id="Path_15291" data-name="Path 15291" d="M39.974,23.874H38.333V22.046h-.879v4.482h.879V24.655h1.641v1.873h.879V22.046h-.879Z" transform="translate(29.485 17.355)" fill="#353535"/>
            <path id="Path_15292" data-name="Path 15292" d="M44.748,24.419l.1.686h-.032l-.341-.686-1.7-2.39h-.642v4.518h.833V24.208l-.1-.706H42.9l.357.706,1.684,2.372h.64V22.063h-.833Z" transform="translate(33.171 17.341)" fill="#353535"/>
            <path id="Path_15293" data-name="Path 15293" d="M46.227,24.765l.969.1v.845a.76.76,0,0,1-.27.125,1.33,1.33,0,0,1-.325.041,1.156,1.156,0,0,1-.459-.089.967.967,0,0,1-.375-.279,1.356,1.356,0,0,1-.248-.481,2.779,2.779,0,0,1,0-1.412,1.293,1.293,0,0,1,.263-.484,1,1,0,0,1,.4-.273,1.483,1.483,0,0,1,.508-.084,3.2,3.2,0,0,1,.506.036,1.934,1.934,0,0,1,.357.1l.179-.738a3.777,3.777,0,0,0-.465-.122A3.567,3.567,0,0,0,46.59,22a2.38,2.38,0,0,0-.758.125,1.823,1.823,0,0,0-.668.406,2,2,0,0,0-.481.715,2.859,2.859,0,0,0-.179,1.081,3.227,3.227,0,0,0,.154,1.051,1.992,1.992,0,0,0,.425.727,1.64,1.64,0,0,0,.638.418,2.328,2.328,0,0,0,.8.136,2.861,2.861,0,0,0,.738-.1,1.732,1.732,0,0,0,.647-.327V24.233H46.227Z" transform="translate(35.034 17.315)" fill="#353535"/>
            <path id="Path_15294" data-name="Path 15294" d="M47.735,25.75v-1.1h1.623V23.87H47.735V22.828h1.787v-.781H46.856v4.481h2.7v-.781Z" transform="translate(36.886 17.356)" fill="#353535"/>
            <g id="Group_10313" data-name="Group 10313" transform="translate(4.513 0)">
              <path id="Path_15740" data-name="Path 15740" d="M13.806.019V34.337h6.575l.136-13.324H33.531V14.807h-13V6.575h16.6V.019Z" transform="translate(6.031 0.008)" fill="#353535"/>
              <g id="Group_10314" data-name="Group 10314">
                <g id="Group_10313-2" data-name="Group 10313" clip-path="url(#clip-path-3)">
                  <path id="Path_15741" data-name="Path 15741" d="M5.888,34.658a8.123,8.123,0,0,0,3.766-.8,7.257,7.257,0,0,0,2.526-2.124,8.483,8.483,0,0,0,1.437-3.063A15.113,15.113,0,0,0,14.048,25V.3H7.439v23.02a11.592,11.592,0,0,1-.555,3.959,2.432,2.432,0,0,1-2.586,1.5,6.255,6.255,0,0,1-2.846-.628L0,33.544a12.419,12.419,0,0,0,2.846.822,17.824,17.824,0,0,0,3.039.287" transform="translate(0 0.132)" fill="#353535"/>
                  <path id="Path_15742" data-name="Path 15742" d="M43.913,23.18l7.275,11.126H59.6L47.622,16.618,58.891,0H50.974L43.7,10.722l-4.137,6.11Z" transform="translate(17.284 0)" fill="#353535"/>
                  <path id="Path_15743" data-name="Path 15743" d="M39.46,34.306H31.472L43.1,16.833,32.185,0H40.1L51.157,16.619l-4.125,6.237Z" transform="translate(13.749 0)" fill="#353535"/>
                </g>
              </g>
            </g>
          </g>
        </g>
      </g>
    </g>
  </g>
</svg>
