<svg xmlns="http://www.w3.org/2000/svg" xmlns:xlink="http://www.w3.org/1999/xlink" width="261" height="261" viewBox="0 0 261 261">
  <defs>
    <clipPath id="clip-path">
      <rect id="Rectangle_2392" data-name="Rectangle 2392" width="170.45" height="84" fill="#353535"/>
    </clipPath>
  </defs>
  <g id="Group_10535" data-name="Group 10535" transform="translate(-687 -980)">
    <g id="Group_10435" data-name="Group 10435" transform="translate(-285 -3)">
      <rect id="Rectangle_2349" data-name="Rectangle 2349" width="261" height="261" rx="4" transform="translate(972 983)" fill="#f7ba27"/>
      <path id="Path_15940" data-name="Path 15940" d="M-8.24-4.784h-.576V0h-2.192V-11.2h2.192v4.96l.512-.224L-5.216-11.2h2.5L-5.984-6.5l-.864.608.9.624L-2.224,0h-2.7ZM6.448-8.592a3.439,3.439,0,0,1-.1.832A2.291,2.291,0,0,1,6-7a2.416,2.416,0,0,1-.62.608A2.7,2.7,0,0,1,4.46-6v.1a3.724,3.724,0,0,1,.907.272,2.327,2.327,0,0,1,.748.528,2.428,2.428,0,0,1,.5.816A3.184,3.184,0,0,1,6.8-3.152a2.921,2.921,0,0,1-.368,1.5A3.036,3.036,0,0,1,5.448-.624a4.524,4.524,0,0,1-1.4.592A6.769,6.769,0,0,1,2.432.16h-.7Q1.312.16.824.136T-.168.064a7.1,7.1,0,0,1-.92-.144V-11.12q.3-.048.7-.1t.84-.08q.448-.032.92-.048T2.3-11.36a9.582,9.582,0,0,1,1.528.12,4.362,4.362,0,0,1,1.328.424,2.432,2.432,0,0,1,.936.848A2.487,2.487,0,0,1,6.448-8.592ZM2.454-1.68a3.044,3.044,0,0,0,.762-.1,1.989,1.989,0,0,0,.652-.293,1.534,1.534,0,0,0,.455-.5A1.408,1.408,0,0,0,4.5-3.28a1.449,1.449,0,0,0-.2-.824,1.392,1.392,0,0,0-.534-.467,2.187,2.187,0,0,0-.738-.214A7.062,7.062,0,0,0,2.2-4.832H1.056v3.057a.958.958,0,0,0,.251.048q.173.016.369.024l.408.016Q2.3-1.68,2.454-1.68ZM1.76-6.5q.224,0,.52-.016a4.647,4.647,0,0,0,.488-.047,2.908,2.908,0,0,0,1.048-.57,1.254,1.254,0,0,0,.44-1,1.315,1.315,0,0,0-.16-.681,1.212,1.212,0,0,0-.424-.427,1.808,1.808,0,0,0-.6-.222,3.793,3.793,0,0,0-.7-.063q-.416,0-.768.016a4.961,4.961,0,0,0-.544.047V-6.5Zm6.832-4.7h2.192V0H8.592Zm-84.48,22.736a4.893,4.893,0,0,1-.3,1.648,10.191,10.191,0,0,1-.752,1.632,15.329,15.329,0,0,1-1.008,1.544q-.552.744-1.08,1.368l-.848.656v.08l1.152-.224h3.072V20h-6.736V18.928q.384-.4.864-.936t.968-1.136q.488-.6.952-1.24a13.842,13.842,0,0,0,.832-1.288,7.936,7.936,0,0,0,.584-1.256,3.444,3.444,0,0,0,.216-1.152,1.567,1.567,0,0,0-.376-1.08,1.516,1.516,0,0,0-1.192-.424,2.793,2.793,0,0,0-1.048.216,2.973,2.973,0,0,0-.9.552l-.832-1.472A5.246,5.246,0,0,1-80.9,8.888a5.072,5.072,0,0,1,1.864-.312,3.977,3.977,0,0,1,1.264.192,2.825,2.825,0,0,1,.992.56,2.582,2.582,0,0,1,.656.92A3.208,3.208,0,0,1-75.888,11.536ZM-72.752,20l3.664-8.624.7-.784-.96.16h-4.112V8.8h7.216v.608L-70.72,20ZM-60.016,8.608l1.568.7L-64.16,22.24l-1.568-.736Zm7.68,8.912h-3.44L-56.624,20h-2.192l4.032-11.28h1.616L-49.136,20h-2.3Zm-2.88-1.76h2.4l-.832-2.5-.336-1.76h-.08L-54.4,13.28Zm9.808-.544h-.576V20h-2.192V8.8h2.192v4.96l.512-.224L-42.384,8.8h2.5l-3.264,4.7-.864.608.9.624L-39.392,20h-2.7Zm5.776-.736h4.016v1.84h-4.016Zm8.624.736h-.576V20h-2.192V8.8h2.192v4.96l.512-.224L-27.984,8.8h2.5l-3.264,4.7-.864.608.9.624L-24.992,20h-2.7Zm14.688-3.808a3.439,3.439,0,0,1-.1.832,2.291,2.291,0,0,1-.342.76,2.416,2.416,0,0,1-.62.608,2.7,2.7,0,0,1-.922.392v.1a3.724,3.724,0,0,1,.907.272,2.327,2.327,0,0,1,.748.528,2.428,2.428,0,0,1,.5.816,3.184,3.184,0,0,1,.183,1.136,2.921,2.921,0,0,1-.368,1.5,3.036,3.036,0,0,1-.984,1.032,4.524,4.524,0,0,1-1.4.592,6.769,6.769,0,0,1-1.616.192h-.7q-.424,0-.912-.024t-.992-.072a7.1,7.1,0,0,1-.92-.144V8.88q.3-.048.7-.1t.84-.08q.448-.032.92-.048t.936-.016a9.582,9.582,0,0,1,1.528.12,4.362,4.362,0,0,1,1.328.424,2.432,2.432,0,0,1,.936.848A2.487,2.487,0,0,1-16.32,11.408Zm-3.994,6.912a3.044,3.044,0,0,0,.762-.095,1.989,1.989,0,0,0,.652-.293,1.534,1.534,0,0,0,.455-.5,1.408,1.408,0,0,0,.173-.713,1.449,1.449,0,0,0-.2-.824,1.392,1.392,0,0,0-.534-.467,2.187,2.187,0,0,0-.738-.214,7.062,7.062,0,0,0-.817-.048h-1.147v3.057a.958.958,0,0,0,.251.047q.173.016.369.024l.409.016Q-20.471,18.32-20.314,18.32Zm-.694-4.816q.224,0,.52-.016A4.647,4.647,0,0,0-20,13.441a2.908,2.908,0,0,0,1.048-.57,1.254,1.254,0,0,0,.44-1,1.315,1.315,0,0,0-.16-.681,1.212,1.212,0,0,0-.424-.427,1.808,1.808,0,0,0-.6-.222,3.793,3.793,0,0,0-.7-.063q-.416,0-.768.016a4.961,4.961,0,0,0-.544.047V13.5Zm6.832-4.7h2.192V20h-2.192Zm8.7-.192,1.568.7L-9.616,22.24l-1.568-.736Zm2.16.3q.672-.128,1.48-.2T-.224,8.64a10.446,10.446,0,0,1,1.672.136A4.165,4.165,0,0,1,2.96,9.32a3.159,3.159,0,0,1,1.1,1.136,3.739,3.739,0,0,1,.424,1.9,3.924,3.924,0,0,1-.368,1.784,3.406,3.406,0,0,1-.976,1.192A3.935,3.935,0,0,1,1.752,16a6.184,6.184,0,0,1-1.608.208H-.112q-.176,0-.368-.008t-.376-.024q-.184-.016-.264-.032V20H-3.312Zm3.264,1.616q-.32,0-.608.024t-.464.056V14.24a1.754,1.754,0,0,0,.192.032q.128.016.272.024t.28.008h.2a4.607,4.607,0,0,0,.856-.08,2.115,2.115,0,0,0,.76-.3,1.543,1.543,0,0,0,.536-.6,2.185,2.185,0,0,0,.2-1.008,1.774,1.774,0,0,0-.192-.872,1.572,1.572,0,0,0-.5-.552,1.963,1.963,0,0,0-.712-.288A4.151,4.151,0,0,0-.048,10.528ZM8.624,14.16l-.88-1.76h-.08l.256,1.76V20H5.84V8.72h1.6l4.24,5.968.848,1.712h.08l-.256-1.712V8.8h2.08V20.08h-1.6Zm12.1-5.552,1.568.7L16.576,22.24,15.008,21.5Zm5.84,6.768.288,1.9h.08l.32-1.92L29.392,8.8h2.3l-4.16,11.28H25.968L21.776,8.8H24.32ZM32.736,8.8h2.192V20H32.736Zm4.56,0h2.192V20H37.3ZM46,8.608l1.568.7L41.856,22.24,40.288,21.5Zm8.8,2.928a4.893,4.893,0,0,1-.3,1.648,10.192,10.192,0,0,1-.752,1.632,15.329,15.329,0,0,1-1.008,1.544q-.552.744-1.08,1.368l-.848.656v.08l1.152-.224H55.04V20H48.3V18.928q.384-.4.864-.936t.968-1.136q.488-.6.952-1.24a13.841,13.841,0,0,0,.832-1.288,7.935,7.935,0,0,0,.584-1.256,3.444,3.444,0,0,0,.216-1.152,1.567,1.567,0,0,0-.376-1.08,1.516,1.516,0,0,0-1.192-.424,2.793,2.793,0,0,0-1.048.216,2.972,2.972,0,0,0-.9.552l-.832-1.472a5.246,5.246,0,0,1,1.416-.824,5.073,5.073,0,0,1,1.864-.312,3.977,3.977,0,0,1,1.264.192,2.825,2.825,0,0,1,.992.56,2.582,2.582,0,0,1,.656.92A3.208,3.208,0,0,1,54.8,11.536Zm2.112,2.848a7.653,7.653,0,0,1,1.008-4.376,3.722,3.722,0,0,1,5.856-.016,8.055,8.055,0,0,1,.944,4.392,7.681,7.681,0,0,1-1.016,4.4,3.34,3.34,0,0,1-2.9,1.44,3.222,3.222,0,0,1-2.944-1.512A8.209,8.209,0,0,1,56.912,14.384Zm2.08,0a8.449,8.449,0,0,0,.424,3.016,1.461,1.461,0,0,0,2.784.088,8.063,8.063,0,0,0,.44-3.1,8.47,8.47,0,0,0-.416-2.992A1.457,1.457,0,0,0,60.8,10.336a1.434,1.434,0,0,0-1.384.992A8.243,8.243,0,0,0,58.992,14.384ZM66.96,18.24h2.224V11.92l.24-1.088-.768.944-1.424.976-.88-1.2L70,8.608h1.168V18.24h2.176V20H66.96Zm15.776-1.712a3.947,3.947,0,0,1-.264,1.456,3.426,3.426,0,0,1-1.9,1.952,3.8,3.8,0,0,1-1.5.288,4.276,4.276,0,0,1-1.528-.264,3.284,3.284,0,0,1-1.208-.792,3.654,3.654,0,0,1-.8-1.328,5.47,5.47,0,0,1-.288-1.856A8.491,8.491,0,0,1,75.7,13.12a7.459,7.459,0,0,1,1.232-2.232,6.362,6.362,0,0,1,1.808-1.536,6.609,6.609,0,0,1,2.184-.776l.464,1.648a4.529,4.529,0,0,0-1.472.5,5.35,5.35,0,0,0-1.192.88,5.233,5.233,0,0,0-.88,1.144,4.552,4.552,0,0,0-.5,1.3,2.716,2.716,0,0,1,.832-.68,2.643,2.643,0,0,1,1.28-.28,3.814,3.814,0,0,1,1.328.224,2.785,2.785,0,0,1,1.04.664,3.042,3.042,0,0,1,.672,1.08A4.177,4.177,0,0,1,82.736,16.528Zm-2.016.112a1.57,1.57,0,0,0-1.76-1.792,1.93,1.93,0,0,0-1.08.288,1.628,1.628,0,0,0-.616.672,1.735,1.735,0,0,0-.032.3v.256a2.649,2.649,0,0,0,.112.76,2.19,2.19,0,0,0,.328.672,1.659,1.659,0,0,0,.552.48,1.642,1.642,0,0,0,.8.184,1.588,1.588,0,0,0,1.224-.512A1.86,1.86,0,0,0,80.72,16.64Z" transform="translate(1103 1175)" fill="#353535"/>
    </g>
    <g id="Group_10503" data-name="Group 10503" transform="translate(732.274 1028)">
      <g id="Group_10502" data-name="Group 10502" clip-path="url(#clip-path)">
        <path id="Path_15887" data-name="Path 15887" d="M234.38,39.4a4.258,4.258,0,0,0-.072-.652,12.862,12.862,0,0,0-1.382-3.418c-1.087-1.786-2.206-3.553-3.317-5.325-.981-1.564-1.973-3.122-2.955-4.685q-1.913-3.046-3.82-6.1-1.626-2.59-3.26-5.176-1.51-2.4-3.018-4.8c-.865-1.379-1.721-2.763-2.591-4.139-.706-1.117-1.337-2.285-2.128-3.345a3.69,3.69,0,0,0-3.3-1.73,7.957,7.957,0,0,1-.868,0,1.749,1.749,0,0,0-.764.158,4.934,4.934,0,0,0-2.4,2.156c-.515.9-1.084,1.757-1.627,2.635-1.092,1.764-2.206,3.514-3.31,5.271q-1.474,2.345-2.946,4.692-1.5,2.39-3,4.781a.624.624,0,0,0,.006.733q1.944,3.088,3.879,6.182c.282.45.332.453.621,0,.794-1.258,1.58-2.521,2.371-3.781q1.655-2.635,3.312-5.269c1.192-1.9,2.376-3.8,3.576-5.691.619-.976,1.4-.954,2.014.033q1.762,2.815,3.528,5.627,1.62,2.58,3.243,5.157,2.549,4.057,5.1,8.116c1.662,2.645,3.326,5.29,4.944,7.962a5.85,5.85,0,0,1,.111,6.208c-.856,1.556-1.828,3.046-2.778,4.547q-1.355,2.14-2.7,4.285-1.446,2.3-2.888,4.6-1.487,2.368-2.976,4.735-1.152,1.834-2.3,3.668-1.011,1.613-2.019,3.228c-.461.734-.907,1.477-1.394,2.193a1,1,0,0,1-1.8-.025c-.01-.014-.018-.03-.027-.045q-.716-1.131-1.431-2.263c-.261-.415-.321-.411-.589.014-1.255,1.992-2.506,3.986-3.776,5.969a.96.96,0,0,0,0,1.163c.888,1.385,1.758,2.781,2.632,4.175a7.144,7.144,0,0,0,1.192,1.592,3.124,3.124,0,0,0,1.655.952c.121.016.246.062.221.233h2.052a2.848,2.848,0,0,1,.557-.231,3.782,3.782,0,0,0,1.924-1.482c.581-.845,1.1-1.73,1.652-2.593,1-1.563,1.982-3.143,2.971-4.716,1.063-1.692,2.132-3.38,3.19-5.076,1.178-1.889,2.376-3.764,3.551-5.655.758-1.221,1.533-2.432,2.289-3.654.858-1.386,1.736-2.759,2.6-4.141,1.222-1.954,2.443-3.909,3.693-5.846a28.968,28.968,0,0,0,1.6-2.747,11.5,11.5,0,0,0,1.065-3.152,2.5,2.5,0,0,1,.221-.753V40.076a.836.836,0,0,1-.316-.68" transform="translate(-150.478 -0.016)" fill="#353535"/>
        <path id="Path_15888" data-name="Path 15888" d="M40.832,64.566a.982.982,0,0,0,0-1.382c-.46-.713-.907-1.433-1.359-2.151q-1.013-1.611-2.025-3.222c-.2-.313-.407-.619-.626-.951-.05.075-.08.117-.107.16L33.766,61.7q-1.531,2.432-3.06,4.864c-.87,1.386-1.729,2.778-2.61,4.157a12.709,12.709,0,0,1-1.132,1.7.883.883,0,0,1-1.443-.017,9.045,9.045,0,0,1-.817-1.219c-.88-1.39-1.747-2.787-2.622-4.179q-1.474-2.344-2.952-4.685-1.647-2.623-3.289-5.249c-.851-1.356-1.708-2.708-2.56-4.063-1.2-1.912-2.4-3.822-3.592-5.74a23.939,23.939,0,0,1-1.513-2.548,6.281,6.281,0,0,1,.3-6.082c1.048-1.8,2.191-3.54,3.3-5.3q1.679-2.68,3.365-5.354.964-1.533,1.93-3.064,1.319-2.1,2.635-4.2,1.282-2.045,2.565-4.09c.8-1.281,1.607-2.565,2.419-3.842a8.584,8.584,0,0,1,.867-1.279.867.867,0,0,1,1.356-.055,2.549,2.549,0,0,1,.344.43c.477.744.942,1.494,1.418,2.238.186.29.3.286.506.008.031-.042.056-.089.084-.133,1.184-1.89,2.36-3.785,3.554-5.668.554-.874.559-.857,0-1.715C32,5.382,31.219,4.137,30.476,2.868A6.67,6.67,0,0,0,28.436.537a2.559,2.559,0,0,0-1.665-.53,11.219,11.219,0,0,1-1.289,0,1.408,1.408,0,0,0-.611.122,5.156,5.156,0,0,0-2.317,1.951c-.546.845-1.071,1.7-1.606,2.556q-1.32,2.1-2.641,4.2-1.6,2.557-3.2,5.118-1.647,2.623-3.3,5.241Q10.5,21.276,9.194,23.355,7.735,25.676,6.275,28C5.191,29.724,4.1,31.448,3.027,33.18a26.37,26.37,0,0,0-1.852,3.167A11.472,11.472,0,0,0,.021,41.239a15.106,15.106,0,0,1-.006,1.525,8.95,8.95,0,0,0,.479,3.009,14.5,14.5,0,0,0,1.883,3.965c.857,1.372,1.723,2.738,2.583,4.108q1.319,2.1,2.635,4.2,1.474,2.344,2.952,4.685,1.773,2.823,3.541,5.649,1.444,2.3,2.894,4.6,1.649,2.621,3.294,5.243c.678,1.082,1.368,2.156,2.026,3.25a4.652,4.652,0,0,0,2.733,2.345c.086.024.171.061.141.181h2.052a.536.536,0,0,1,.342-.221,3.755,3.755,0,0,0,2.143-1.559c.7-1.049,1.355-2.122,2.025-3.188q1.446-2.3,2.884-4.6,1.647-2.623,3.3-5.243c.969-1.54,1.934-3.083,2.911-4.618" transform="translate(0 0)" fill="#353535"/>
        <path id="Path_15889" data-name="Path 15889" d="M178.68,126.339q1.613-2.569,3.233-5.134,1.532-2.434,3.063-4.869,1.872-2.98,3.739-5.962c1.108-1.774,2.22-3.547,3.31-5.332a4.627,4.627,0,0,0,.677-2.58,5.309,5.309,0,0,0-.7-2.449c-.586-1.047-1.219-2.066-1.864-3.077-.852-1.336-1.713-2.667-2.558-4.008-.995-1.578-1.974-3.165-2.965-4.745-.87-1.387-1.747-2.77-2.619-4.156q-1.181-1.878-2.358-3.759c-.442-.7-.89-1.4-1.331-2.109-.063-.1-.075-.247-.231-.254s-.2.119-.263.224q-1.965,3.14-3.935,6.277a.632.632,0,0,0,0,.753q1.63,2.574,3.247,5.156c1.084,1.729,2.159,3.463,3.242,5.192,1.172,1.869,2.353,3.733,3.52,5.6a2.5,2.5,0,0,1,.093,2.732c-.235.41-.493.807-.744,1.207q-1.173,1.869-2.348,3.737c-.66,1.053-1.314,2.11-1.975,3.163q-1.613,2.568-3.232,5.133-1.462,2.324-2.92,4.65-1.663,2.645-3.33,5.288-1.85,2.932-3.707,5.861a.914.914,0,0,1-1.528.165,5.852,5.852,0,0,1-.687-.991c-.358-.56-.7-1.131-1.06-1.689-.171-.264-.268-.262-.435,0-.326.508-.642,1.023-.963,1.535q-1.474,2.346-2.948,4.693a.676.676,0,0,0-.11.715c.151.276.323.54.49.807q1.052,1.681,2.106,3.361a8.285,8.285,0,0,0,1.453,1.984,2.939,2.939,0,0,0,1.581.871.35.35,0,0,1,.307.252h1.947c.029-.2.2-.2.337-.24a3.846,3.846,0,0,0,2.227-1.694c1.158-1.836,2.305-3.68,3.46-5.519q1.648-2.625,3.3-5.246,1.738-2.77,3.472-5.544" transform="translate(-122.817 -60.582)" fill="#353535"/>
        <path id="Path_15890" data-name="Path 15890" d="M76.409,21.119q-1.592,2.535-3.19,5.067-1.071,1.7-2.14,3.4-1.256,1.987-2.517,3.971c-.7,1.11-1.416,2.212-2.1,3.335a30.037,30.037,0,0,0-1.757,2.955,4.961,4.961,0,0,0,.265,4.845c.757,1.281,1.558,2.536,2.347,3.8q1.886,3.018,3.783,6.03c.96,1.527,1.928,3.049,2.89,4.574q1.653,2.622,3.3,5.247c.424.675.854,1.346,1.258,2.032.224.38.306.4.561.021.015-.022.03-.043.044-.066l1.2-1.913c.892-1.425,1.781-2.852,2.679-4.273a.584.584,0,0,0,0-.684c-.6-.959-1.187-1.922-1.787-2.879q-2.315-3.693-4.637-7.383-1.763-2.8-3.534-5.6a2.7,2.7,0,0,1-.112-2.975c.254-.439.536-.863.807-1.291.861-1.361,1.727-2.72,2.584-4.083.578-.919,1.142-1.846,1.718-2.766.776-1.239,1.559-2.473,2.337-3.711q1.013-1.612,2.023-3.226,1.308-2.079,2.619-4.156t2.594-4.14c.674-1.076,1.343-2.154,2.018-3.229.494-.786.975-1.58,1.5-2.346a.927.927,0,0,1,1.67.021c.23.33.446.671.662,1.011.3.473.59.953.893,1.424.169.263.344.26.529,0,.026-.035.047-.074.07-.111q1.181-1.879,2.363-3.757c.462-.734.922-1.468,1.389-2.2A.962.962,0,0,0,98.718,6.9c-.241-.344-.454-.708-.685-1.058-.868-1.314-1.615-2.706-2.537-3.986A5,5,0,0,0,93.753.333,3.576,3.576,0,0,0,91.96.061h-.894A.622.622,0,0,0,90.809.1a5.4,5.4,0,0,0-2.537,2.044c-.719,1.14-1.413,2.3-2.124,3.441q-1.462,2.353-2.935,4.7-1.64,2.614-3.287,5.224-1.76,2.8-3.517,5.608" transform="translate(-49.925 -0.045)" fill="#353535"/>
        <path id="Path_15891" data-name="Path 15891" d="M177.227,101.425c-.13-.207-.251-.42-.38-.628q-1.307-2.093-2.616-4.184t-2.624-4.177q-1.311-2.089-2.62-4.179c-.978-1.555-1.961-3.106-2.937-4.662q-1.757-2.8-3.507-5.6c-.195-.311-.284-.308-.476-.007-.066.1-.135.2-.2.307-1.222,1.939-2.437,3.882-3.671,5.813a.915.915,0,0,0,0,1.11c.993,1.545,1.971,3.1,2.948,4.654,1.275,2.029,2.542,4.063,3.817,6.092q1.773,2.821,3.557,5.634a1.469,1.469,0,0,1-.012,1.718c-.838,1.3-1.659,2.614-2.491,3.92a.64.64,0,0,0,0,.757q.829,1.292,1.643,2.594c.761,1.216,1.515,2.438,2.278,3.653.2.322.32.323.523,0,.915-1.449,1.822-2.9,2.734-4.354q1.933-3.077,3.869-6.151a2.053,2.053,0,0,0,.4-1.286,1.6,1.6,0,0,0-.24-1.022" transform="translate(-122.873 -60.468)" fill="#353535"/>
        <path id="Path_15892" data-name="Path 15892" d="M142.916,144.046c.444-.7.89-1.4,1.331-2.11a.957.957,0,0,0,.192-.509,1.146,1.146,0,0,0-.244-.6c-.375-.591-.757-1.177-1.129-1.77-.889-1.415-1.772-2.834-2.663-4.248-.221-.35-.338-.346-.556,0q-1.095,1.745-2.187,3.493-2.221,3.55-4.443,7.1a2.086,2.086,0,0,0-.016,2.371c.736,1.181,1.483,2.353,2.222,3.532q1.505,2.4,3.005,4.808c.943,1.5,1.893,3.006,2.837,4.511q1.346,2.145,2.686,4.295,1.3,2.081,2.607,4.16c.409.653.818,1.306,1.233,1.955.189.3.3.293.491,0,.134-.205.258-.416.389-.624q1.77-2.809,3.542-5.617a.7.7,0,0,0,.008-.813q-1.092-1.731-2.18-3.465-1.656-2.632-3.312-5.263-1.621-2.578-3.24-5.156-.886-1.412-1.768-2.827a1.163,1.163,0,0,1,0-1.333c.4-.627.795-1.258,1.192-1.887" transform="translate(-103.301 -104.631)" fill="#353535"/>
        <path id="Path_15893" data-name="Path 15893" d="M414.834,103.838h.56l3.222,4.654h2.63l-3.627-5.121-.872-.607.841-.591,3.175-4.576h-2.428l-3,4.607-.5.218V97.6H412.7v10.9h2.132Z" transform="translate(-320.933 -75.895)" fill="#353535"/>
        <path id="Path_15894" data-name="Path 15894" d="M463,106.593h-4.763v-9H456.1v10.9H463Z" transform="translate(-354.682 -75.895)" fill="#353535"/>
        <rect id="Rectangle_2388" data-name="Rectangle 2388" width="2.132" height="10.896" transform="translate(109.637 21.702)" fill="#353535"/>
        <path id="Path_15895" data-name="Path 15895" d="M514.161,103.48l1.121.2,2.475,4.265h2.459l-2.49-4.156-.763-.483a3.206,3.206,0,0,0,1.666-1.167,3.569,3.569,0,0,0,.623-2.179,2.937,2.937,0,0,0-.35-1.5,2.584,2.584,0,0,0-.934-.942,4.11,4.11,0,0,0-1.323-.483,8.051,8.051,0,0,0-1.5-.14c-.218,0-.457.006-.716.016s-.527.026-.8.047-.55.049-.825.085-.532.075-.771.117v10.787h2.132Zm0-4.608a2.429,2.429,0,0,1,.49-.062q.319-.015.646-.016a1.834,1.834,0,0,1,1.276.4,1.409,1.409,0,0,1,.436,1.1,1.581,1.581,0,0,1-.529,1.339,2.274,2.274,0,0,1-1.416.4h-.9Z" transform="translate(-398.174 -75.35)" fill="#353535"/>
        <rect id="Rectangle_2389" data-name="Rectangle 2389" width="2.132" height="10.896" transform="translate(123.444 21.702)" fill="#353535"/>
        <path id="Path_15896" data-name="Path 15896" d="M576.142,102.538l-.249-1.712h.078l.856,1.712,4.094,5.759h1.557V97.323h-2.023v5.728l.249,1.665h-.078l-.825-1.665-4.125-5.806h-1.557v10.974h2.023Z" transform="translate(-446.457 -75.622)" fill="#353535"/>
        <path id="Path_15897" data-name="Path 15897" d="M619.968,106.6a3.978,3.978,0,0,0,1.549,1.02,5.607,5.607,0,0,0,1.938.327,6.8,6.8,0,0,0,1.8-.249,4.09,4.09,0,0,0,1.564-.794v-4.856h-4.063v1.292l2.35.249v2.055a1.814,1.814,0,0,1-.654.3,3.136,3.136,0,0,1-.794.1,2.853,2.853,0,0,1-1.113-.218,2.391,2.391,0,0,1-.911-.677,3.262,3.262,0,0,1-.607-1.167,5.773,5.773,0,0,1-.218-1.689,5.848,5.848,0,0,1,.226-1.743,3.144,3.144,0,0,1,.638-1.175,2.38,2.38,0,0,1,.973-.662,3.6,3.6,0,0,1,1.23-.2,7.269,7.269,0,0,1,1.23.086,4.47,4.47,0,0,1,.872.241l.436-1.79a7.656,7.656,0,0,0-1.128-.3,8.539,8.539,0,0,0-1.642-.14,5.727,5.727,0,0,0-1.837.3,4.424,4.424,0,0,0-1.627.981,4.921,4.921,0,0,0-1.167,1.759,6.913,6.913,0,0,0-.444,2.623,7.787,7.787,0,0,0,.374,2.553,4.855,4.855,0,0,0,1.027,1.767" transform="translate(-481.022 -75.132)" fill="#353535"/>
        <path id="Path_15898" data-name="Path 15898" d="M419.06,181.34a2.953,2.953,0,0,0,.957-1,2.843,2.843,0,0,0,.358-1.455,3.088,3.088,0,0,0-.179-1.105,2.361,2.361,0,0,0-.49-.794,2.283,2.283,0,0,0-.732-.514,3.66,3.66,0,0,0-.887-.264v-.093a2.655,2.655,0,0,0,.9-.381,2.365,2.365,0,0,0,.607-.591,2.219,2.219,0,0,0,.334-.74,3.325,3.325,0,0,0,.1-.809,2.419,2.419,0,0,0-.342-1.339,2.369,2.369,0,0,0-.91-.825,4.25,4.25,0,0,0-1.292-.412A9.294,9.294,0,0,0,416,170.9q-.452,0-.911.016t-.9.047q-.436.031-.817.078t-.677.093v10.74a6.9,6.9,0,0,0,.895.14q.491.047.965.07t.887.024h.677a6.574,6.574,0,0,0,1.572-.187,4.4,4.4,0,0,0,1.362-.576m-4.3-8.592a4.693,4.693,0,0,1,.529-.046q.342-.015.747-.016a3.667,3.667,0,0,1,.685.062,1.749,1.749,0,0,1,.584.215,1.18,1.18,0,0,1,.413.416,1.282,1.282,0,0,1,.156.662,1.22,1.22,0,0,1-.428.97,2.819,2.819,0,0,1-1.02.554,4.474,4.474,0,0,1-.475.046q-.288.015-.506.016h-.685Zm2.14,7.473a3.073,3.073,0,0,1-.755.092q-.155,0-.366-.007l-.4-.016q-.195-.008-.366-.023a.955.955,0,0,1-.249-.046v-2.974h1.136a7.163,7.163,0,0,1,.81.046,2.2,2.2,0,0,1,.732.208,1.375,1.375,0,0,1,.529.454,1.393,1.393,0,0,1,.2.8,1.353,1.353,0,0,1-.171.694,1.5,1.5,0,0,1-.452.485,1.99,1.99,0,0,1-.646.285" transform="translate(-320.933 -132.895)" fill="#353535"/>
        <path id="Path_15899" data-name="Path 15899" d="M460.608,180.593h-4.4v-2.662h3.938v-1.9H456.2V173.5h4.327v-1.9h-6.459v10.9h6.537Z" transform="translate(-353.103 -133.44)" fill="#353535"/>
        <path id="Path_15900" data-name="Path 15900" d="M492.741,177.48l1.121.2,2.475,4.265H498.8l-.1-.168a4.014,4.014,0,0,0,.91.261,5.644,5.644,0,0,0,.981.093,2.622,2.622,0,0,0,1.214-.257,2.337,2.337,0,0,0,.817-.685,2.75,2.75,0,0,0,.459-.988,4.864,4.864,0,0,0,.14-1.183v-7.969h-2.132v7.424a3.752,3.752,0,0,1-.179,1.276.784.784,0,0,1-.833.483,2.021,2.021,0,0,1-.918-.2l-.465,1.736-2.383-3.977-.763-.483a3.206,3.206,0,0,0,1.665-1.167,3.568,3.568,0,0,0,.623-2.179,2.937,2.937,0,0,0-.35-1.5,2.584,2.584,0,0,0-.934-.942,4.111,4.111,0,0,0-1.323-.483,8.054,8.054,0,0,0-1.5-.14q-.327,0-.716.016t-.8.047q-.413.031-.825.085t-.77.117v10.787h2.132Zm0-4.608a2.428,2.428,0,0,1,.49-.062q.319-.015.646-.016a1.834,1.834,0,0,1,1.276.4,1.409,1.409,0,0,1,.436,1.1,1.581,1.581,0,0,1-.529,1.339,2.274,2.274,0,0,1-1.416.4h-.9Z" transform="translate(-381.517 -132.895)" fill="#353535"/>
        <path id="Path_15901" data-name="Path 15901" d="M559.1,182.219h2.241l-3.922-10.974h-1.572l-3.922,10.974h2.132l.825-2.413h3.346Zm-3.673-4.125.794-2.413.327-1.728h.078l.327,1.712.809,2.428Z" transform="translate(-429.202 -133.167)" fill="#353535"/>
        <path id="Path_15902" data-name="Path 15902" d="M606.837,182.3V171.324h-2.023v5.728l.249,1.665h-.078l-.825-1.665-4.125-5.806h-1.557v10.974H600.5v-5.681l-.249-1.712h.078l.856,1.712,4.094,5.759Z" transform="translate(-465.4 -133.167)" fill="#353535"/>
        <path id="Path_15903" data-name="Path 15903" d="M647.817,181.948a6.8,6.8,0,0,0,1.8-.249,4.092,4.092,0,0,0,1.565-.794v-4.856h-4.062v1.292l2.35.249v2.055a1.816,1.816,0,0,1-.654.3,3.126,3.126,0,0,1-.794.1,2.852,2.852,0,0,1-1.113-.218,2.394,2.394,0,0,1-.91-.677,3.264,3.264,0,0,1-.607-1.167,5.781,5.781,0,0,1-.218-1.689,5.852,5.852,0,0,1,.225-1.743,3.148,3.148,0,0,1,.638-1.175,2.384,2.384,0,0,1,.973-.662,3.606,3.606,0,0,1,1.23-.2,7.265,7.265,0,0,1,1.229.086,4.471,4.471,0,0,1,.872.241l.436-1.79a7.648,7.648,0,0,0-1.128-.3,8.538,8.538,0,0,0-1.642-.14,5.728,5.728,0,0,0-1.837.3,4.424,4.424,0,0,0-1.626.981,4.923,4.923,0,0,0-1.167,1.759,6.914,6.914,0,0,0-.443,2.623,7.789,7.789,0,0,0,.373,2.552,4.854,4.854,0,0,0,1.027,1.767,3.978,3.978,0,0,0,1.549,1.02,5.6,5.6,0,0,0,1.938.327" transform="translate(-499.967 -132.678)" fill="#353535"/>
        <path id="Path_15904" data-name="Path 15904" d="M700.842,171.245H699.27l-3.823,10.7-3.43-4.843-.872-.607.84-.591,3.175-4.576h-2.428l-3,4.607-.5.218v-4.825H687.1v10.9h2.132v-4.654h.56l3.222,4.654h4.467l.825-2.413h3.347l.872,2.413h2.241Zm-1.992,6.849.794-2.413.327-1.728h.078l.327,1.712.809,2.428Z" transform="translate(-534.314 -133.167)" fill="#353535"/>
        <rect id="Rectangle_2390" data-name="Rectangle 2390" width="2.132" height="10.896" transform="translate(91.987 54.611)" fill="#353535"/>
        <path id="Path_15905" data-name="Path 15905" d="M438.986,251.052l.249,1.665h-.078l-.825-1.665-4.125-5.806h-1.556V256.22h2.023v-5.681l-.249-1.712h.078l.856,1.712,4.094,5.759h1.557V245.324h-2.023Z" transform="translate(-336.446 -190.713)" fill="#353535"/>
        <path id="Path_15906" data-name="Path 15906" d="M485.957,246.437a4.214,4.214,0,0,0-1.665-1.136,6.757,6.757,0,0,0-2.475-.4q-.327,0-.74.008t-.848.023q-.436.016-.848.047c-.275.021-.521.047-.739.078v10.911q.2.031.607.054l.848.047q.444.023.856.039t.662.015a6.392,6.392,0,0,0,2.638-.483,4.678,4.678,0,0,0,1.72-1.276,4.824,4.824,0,0,0,.934-1.821,8.069,8.069,0,0,0,.28-2.132,7.918,7.918,0,0,0-.3-2.226,4.562,4.562,0,0,0-.934-1.743M484.8,251.83a3.414,3.414,0,0,1-.49,1.222,2.553,2.553,0,0,1-.949.848,3.171,3.171,0,0,1-1.5.319c-.052,0-.13,0-.234-.008l-.327-.015-.319-.016a1.209,1.209,0,0,1-.21-.023v-7.3a4.22,4.22,0,0,1,.521-.047q.35-.015.693-.016a2.938,2.938,0,0,1,1.463.327,2.593,2.593,0,0,1,.911.841,3.223,3.223,0,0,1,.459,1.16,6.779,6.779,0,0,1,.125,1.284,7.161,7.161,0,0,1-.14,1.424" transform="translate(-372.21 -190.441)" fill="#353535"/>
        <path id="Path_15907" data-name="Path 15907" d="M530.5,246.172a3.842,3.842,0,0,0-1.448-1.152,4.8,4.8,0,0,0-2.039-.4,4.164,4.164,0,0,0-3.425,1.471,6.486,6.486,0,0,0-1.2,4.195,8.931,8.931,0,0,0,.28,2.319,5.1,5.1,0,0,0,.848,1.79,3.769,3.769,0,0,0,1.44,1.152,4.839,4.839,0,0,0,2.055.4,4.17,4.17,0,0,0,3.417-1.471,6.458,6.458,0,0,0,1.206-4.195,8.94,8.94,0,0,0-.28-2.319,5.048,5.048,0,0,0-.856-1.79m-1.728,6.989a2.024,2.024,0,0,1-1.759.887,2,2,0,0,1-1.074-.28,2.169,2.169,0,0,1-.739-.778,3.91,3.91,0,0,1-.428-1.191,7.665,7.665,0,0,1-.14-1.518,5.149,5.149,0,0,1,.623-2.856,2.191,2.191,0,0,1,2.864-.623,2.152,2.152,0,0,1,.732.8,4.136,4.136,0,0,1,.412,1.2,7.814,7.814,0,0,1,.132,1.479,5.134,5.134,0,0,1-.623,2.88" transform="translate(-406.231 -190.222)" fill="#353535"/>
        <path id="Path_15908" data-name="Path 15908" d="M577.165,251.052l.249,1.665h-.078l-.825-1.665-4.125-5.806H570.83V256.22h2.023v-5.681l-.249-1.712h.078l.856,1.712,4.094,5.759h1.556V245.324h-2.023Z" transform="translate(-443.899 -190.713)" fill="#353535"/>
        <path id="Path_15909" data-name="Path 15909" d="M618.952,251.931h3.938v-1.9h-3.938V247.5h4.327v-1.9h-6.46v10.9h6.537v-1.9h-4.4Z" transform="translate(-479.663 -190.985)" fill="#353535"/>
        <path id="Path_15910" data-name="Path 15910" d="M657.111,250.134a6.439,6.439,0,0,0-1.2-.677q-.646-.28-1.2-.545a4.215,4.215,0,0,1-.918-.576.981.981,0,0,1-.366-.778.94.94,0,0,1,.4-.794,1.893,1.893,0,0,1,1.144-.3,5.848,5.848,0,0,1,1.478.179,3.757,3.757,0,0,1,1.028.4l.669-1.79a4.55,4.55,0,0,0-1.385-.475,9.375,9.375,0,0,0-1.79-.163,5.566,5.566,0,0,0-1.495.187,3.252,3.252,0,0,0-1.16.576,2.587,2.587,0,0,0-.755.973,3.31,3.31,0,0,0-.265,1.378,2.826,2.826,0,0,0,.366,1.51,3.41,3.41,0,0,0,.918.988,6.123,6.123,0,0,0,1.2.669q.646.273,1.2.529a4.055,4.055,0,0,1,.918.568,1.014,1.014,0,0,1,.366.809,1.072,1.072,0,0,1-.506.973,2.741,2.741,0,0,1-1.456.319,4.859,4.859,0,0,1-.786-.062,7.049,7.049,0,0,1-.724-.156,5.667,5.667,0,0,1-.615-.2,4.207,4.207,0,0,1-.444-.2l-.685,1.821a6.293,6.293,0,0,0,1.307.436,8.682,8.682,0,0,0,2.055.218,6.149,6.149,0,0,0,1.627-.2,3.422,3.422,0,0,0,1.261-.622,2.851,2.851,0,0,0,.809-1.051,3.59,3.59,0,0,0,.288-1.5,2.694,2.694,0,0,0-.366-1.455,3.459,3.459,0,0,0-.918-.981" transform="translate(-506.28 -190.223)" fill="#353535"/>
        <rect id="Rectangle_2391" data-name="Rectangle 2391" width="2.132" height="10.896" transform="translate(153.749 54.611)" fill="#353535"/>
        <path id="Path_15911" data-name="Path 15911" d="M710.129,245.245l-3.922,10.974h2.132l.825-2.413h3.347l.872,2.413h2.241L711.7,245.245Zm-.42,6.849.794-2.413.327-1.728h.078l.327,1.712.809,2.428Z" transform="translate(-549.174 -190.712)" fill="#353535"/>
      </g>
    </g>
  </g>
</svg>
