<svg xmlns="http://www.w3.org/2000/svg" xmlns:xlink="http://www.w3.org/1999/xlink" width="261" height="261" viewBox="0 0 261 261">
  <defs>
    <clipPath id="clip-path">
      <rect id="Rectangle_2394" data-name="Rectangle 2394" width="97.034" height="105.897" fill="#353535"/>
    </clipPath>
  </defs>
  <g id="Group_10506" data-name="Group 10506" transform="translate(-971 -980)">
    <rect id="Rectangle_2344" data-name="Rectangle 2344" width="261" height="261" rx="4" transform="translate(971 980)" fill="#f7ba27"/>
    <path id="Path_15941" data-name="Path 15941" d="M-65.7-5.616A7.653,7.653,0,0,1-64.7-9.992a3.326,3.326,0,0,1,2.9-1.432,3.3,3.3,0,0,1,2.96,1.416A8.055,8.055,0,0,1-57.9-5.616a7.681,7.681,0,0,1-1.016,4.4,3.34,3.34,0,0,1-2.9,1.44A3.222,3.222,0,0,1-64.76-1.288,8.209,8.209,0,0,1-65.7-5.616Zm2.08,0A8.449,8.449,0,0,0-63.2-2.6a1.453,1.453,0,0,0,1.4,1.064,1.452,1.452,0,0,0,1.384-.976,8.063,8.063,0,0,0,.44-3.1,8.47,8.47,0,0,0-.416-2.992,1.457,1.457,0,0,0-1.424-1.056,1.434,1.434,0,0,0-1.384.992A8.243,8.243,0,0,0-63.624-5.616Zm14.672,2.144a3.947,3.947,0,0,1-.264,1.456A3.5,3.5,0,0,1-49.96-.848a3.482,3.482,0,0,1-1.16.784,3.8,3.8,0,0,1-1.5.288A4.276,4.276,0,0,1-54.144-.04a3.284,3.284,0,0,1-1.208-.792,3.654,3.654,0,0,1-.8-1.328,5.47,5.47,0,0,1-.288-1.856,8.491,8.491,0,0,1,.456-2.864,7.458,7.458,0,0,1,1.232-2.232,6.362,6.362,0,0,1,1.808-1.536,6.61,6.61,0,0,1,2.184-.776l.464,1.648a4.529,4.529,0,0,0-1.472.5,5.35,5.35,0,0,0-1.192.88,5.233,5.233,0,0,0-.88,1.144,4.552,4.552,0,0,0-.5,1.3,2.716,2.716,0,0,1,.832-.68,2.643,2.643,0,0,1,1.28-.28,3.814,3.814,0,0,1,1.328.224,2.785,2.785,0,0,1,1.04.664,3.042,3.042,0,0,1,.672,1.08A4.177,4.177,0,0,1-48.952-3.472Zm-2.016.112a1.57,1.57,0,0,0-1.76-1.792,1.93,1.93,0,0,0-1.08.288,1.628,1.628,0,0,0-.616.672,1.735,1.735,0,0,0-.032.3v.256a2.649,2.649,0,0,0,.112.76,2.19,2.19,0,0,0,.328.672,1.659,1.659,0,0,0,.552.48,1.642,1.642,0,0,0,.8.184,1.588,1.588,0,0,0,1.224-.512A1.86,1.86,0,0,0-50.968-3.36ZM-46.536,0l3.664-8.624.7-.784-.96.16H-47.24V-11.2h7.216v.608L-44.5,0Zm11.264-1.536a2.029,2.029,0,0,0,1.512-.528,1.757,1.757,0,0,0,.52-1.28,1.612,1.612,0,0,0-.544-1.344A2.747,2.747,0,0,0-35.5-5.12h-1.152v-1.1l1.936-2.64.912-.72-1.264.144h-2.688V-11.2h6.112v1.136L-33.9-7.04l-.7.432v.08l.672-.1a3.571,3.571,0,0,1,1.064.256,2.559,2.559,0,0,1,.88.6,2.893,2.893,0,0,1,.6.968,3.647,3.647,0,0,1,.224,1.328,3.925,3.925,0,0,1-.312,1.632,3.217,3.217,0,0,1-.864,1.152A3.609,3.609,0,0,1-33.624,0a5.415,5.415,0,0,1-1.584.224A8.675,8.675,0,0,1-36.664.1,4.219,4.219,0,0,1-37.88-.272L-37.32-2a4.563,4.563,0,0,0,.92.336A4.587,4.587,0,0,0-35.272-1.536Zm10.544-9.856,1.568.7L-28.872,2.24-30.44,1.5Zm7.68,8.912h-3.44L-21.336,0h-2.192L-19.5-11.28h1.616L-13.848,0h-2.3Zm-2.88-1.76h2.4l-.832-2.5L-18.7-8.5h-.08l-.336,1.776ZM-8.056-3.008a1.041,1.041,0,0,0-.376-.832,4.149,4.149,0,0,0-.944-.584q-.568-.264-1.232-.544a6.3,6.3,0,0,1-1.232-.688,3.509,3.509,0,0,1-.944-1.016,2.908,2.908,0,0,1-.376-1.552,3.4,3.4,0,0,1,.272-1.416,2.657,2.657,0,0,1,.776-1,3.334,3.334,0,0,1,1.192-.592,5.711,5.711,0,0,1,1.536-.192,9.633,9.633,0,0,1,1.84.168,4.676,4.676,0,0,1,1.424.488l-.688,1.84a3.85,3.85,0,0,0-1.056-.408,6,6,0,0,0-1.52-.184,1.944,1.944,0,0,0-1.176.3.966.966,0,0,0-.408.816,1.008,1.008,0,0,0,.376.8,4.353,4.353,0,0,0,.944.592q.568.272,1.232.56a6.618,6.618,0,0,1,1.232.7A3.548,3.548,0,0,1-6.24-4.744a2.768,2.768,0,0,1,.376,1.5A3.692,3.692,0,0,1-6.16-1.7a2.927,2.927,0,0,1-.832,1.08,3.515,3.515,0,0,1-1.3.64A6.323,6.323,0,0,1-9.96.224,8.908,8.908,0,0,1-12.072,0a6.46,6.46,0,0,1-1.344-.448l.7-1.872a4.35,4.35,0,0,0,.456.208,5.862,5.862,0,0,0,.632.208,7.3,7.3,0,0,0,.744.16,5.008,5.008,0,0,0,.808.064,2.817,2.817,0,0,0,1.5-.328A1.1,1.1,0,0,0-8.056-3.008Zm3.648-8.08q.672-.128,1.48-.2t1.608-.072a10.446,10.446,0,0,1,1.672.136,4.165,4.165,0,0,1,1.512.544,3.159,3.159,0,0,1,1.1,1.136,3.739,3.739,0,0,1,.424,1.9,3.924,3.924,0,0,1-.368,1.784A3.406,3.406,0,0,1,2.04-4.672,3.935,3.935,0,0,1,.656-4a6.184,6.184,0,0,1-1.608.208h-.256q-.176,0-.368-.008t-.376-.024q-.184-.016-.264-.032V0H-4.408Zm3.264,1.616q-.32,0-.608.024t-.464.056V-5.76a1.754,1.754,0,0,0,.192.032q.128.016.272.024t.28.008h.2a4.607,4.607,0,0,0,.856-.08,2.115,2.115,0,0,0,.76-.3,1.543,1.543,0,0,0,.536-.6,2.185,2.185,0,0,0,.2-1.008,1.774,1.774,0,0,0-.192-.872,1.572,1.572,0,0,0-.5-.552,1.963,1.963,0,0,0-.712-.288A4.151,4.151,0,0,0-1.144-9.472ZM4.744-11.2h6.64v1.952H6.936V-6.64h4.048v1.952H6.936v2.736h4.528V0H4.744ZM20.632-8.592a3.439,3.439,0,0,1-.1.832,2.291,2.291,0,0,1-.342.76,2.416,2.416,0,0,1-.62.608A2.7,2.7,0,0,1,18.644-6v.1a3.724,3.724,0,0,1,.907.272A2.327,2.327,0,0,1,20.3-5.1a2.428,2.428,0,0,1,.5.816,3.184,3.184,0,0,1,.183,1.136,2.921,2.921,0,0,1-.368,1.5,3.036,3.036,0,0,1-.984,1.032,4.524,4.524,0,0,1-1.4.592A6.769,6.769,0,0,1,16.616.16h-.7q-.424,0-.912-.024T14.016.064A7.1,7.1,0,0,1,13.1-.08V-11.12q.3-.048.7-.1t.84-.08q.448-.032.92-.048t.936-.016a9.582,9.582,0,0,1,1.528.12,4.362,4.362,0,0,1,1.328.424,2.432,2.432,0,0,1,.936.848A2.487,2.487,0,0,1,20.632-8.592ZM16.638-1.68a3.044,3.044,0,0,0,.762-.1,1.989,1.989,0,0,0,.652-.293,1.534,1.534,0,0,0,.455-.5,1.408,1.408,0,0,0,.173-.713,1.449,1.449,0,0,0-.2-.824,1.392,1.392,0,0,0-.534-.467,2.187,2.187,0,0,0-.738-.214,7.062,7.062,0,0,0-.817-.048H15.24v3.057a.958.958,0,0,0,.251.048q.173.016.369.024l.409.016Q16.481-1.68,16.638-1.68ZM15.944-6.5q.224,0,.52-.016a4.647,4.647,0,0,0,.488-.047A2.908,2.908,0,0,0,18-7.129a1.254,1.254,0,0,0,.44-1,1.315,1.315,0,0,0-.16-.681,1.212,1.212,0,0,0-.424-.427,1.808,1.808,0,0,0-.6-.222,3.793,3.793,0,0,0-.7-.063q-.416,0-.768.016a4.961,4.961,0,0,0-.544.047V-6.5Zm14.08-2.752H26.76V0H24.568V-9.248h-3.28V-11.2h8.736Zm1.36-1.952h2.192V0H31.384ZM38.5-5.84l-.88-1.76h-.08L37.8-5.84V0H35.72V-11.28h1.6l4.24,5.968L42.408-3.6h.08l-.256-1.712V-11.2h2.08V.08h-1.6Zm7.728-5.36q.336-.048.76-.08t.872-.048q.448-.016.872-.024t.76-.008a6.945,6.945,0,0,1,2.544.416,4.328,4.328,0,0,1,1.712,1.168,4.684,4.684,0,0,1,.96,1.792,8.133,8.133,0,0,1,.3,2.288A8.294,8.294,0,0,1,54.728-3.5a4.961,4.961,0,0,1-.96,1.872A4.814,4.814,0,0,1,52-.32a6.571,6.571,0,0,1-2.712.5q-.256,0-.68-.016t-.88-.04L46.856.072Q46.44.048,46.232.016Zm3.44,1.792q-.352,0-.712.016a4.353,4.353,0,0,0-.536.048v7.5a1.286,1.286,0,0,0,.216.024l.328.016.336.016q.16.008.24.008A3.261,3.261,0,0,0,51.088-2.1a2.623,2.623,0,0,0,.976-.872,3.512,3.512,0,0,0,.5-1.256A7.368,7.368,0,0,0,52.712-5.7a6.96,6.96,0,0,0-.128-1.32,3.306,3.306,0,0,0-.472-1.192,2.661,2.661,0,0,0-.936-.864A3.018,3.018,0,0,0,49.672-9.408ZM56.232-5.6a6.667,6.667,0,0,1,1.232-4.312,4.28,4.28,0,0,1,3.52-1.512,4.933,4.933,0,0,1,2.1.416,3.948,3.948,0,0,1,1.488,1.184,5.175,5.175,0,0,1,.88,1.84A9.185,9.185,0,0,1,65.736-5.6,6.636,6.636,0,0,1,64.5-1.288,4.285,4.285,0,0,1,60.984.224a4.974,4.974,0,0,1-2.112-.416,3.882,3.882,0,0,1-1.48-1.184,5.256,5.256,0,0,1-.872-1.84A9.185,9.185,0,0,1,56.232-5.6Zm2.3,0a7.879,7.879,0,0,0,.144,1.56,4.03,4.03,0,0,0,.44,1.224,2.239,2.239,0,0,0,.76.8,2.051,2.051,0,0,0,1.1.288,2.08,2.08,0,0,0,1.808-.912,5.274,5.274,0,0,0,.64-2.96A8.016,8.016,0,0,0,63.3-7.12a4.24,4.24,0,0,0-.424-1.232,2.207,2.207,0,0,0-.752-.824,2.07,2.07,0,0,0-1.136-.3,2.064,2.064,0,0,0-1.808.936A5.291,5.291,0,0,0,58.536-5.6ZM-49.72,8.608l1.568.7L-53.864,22.24l-1.568-.736Zm7.68,8.912h-3.44L-46.328,20H-48.52l4.032-11.28h1.616L-38.84,20h-2.3Zm-2.88-1.76h2.4l-.832-2.5-.336-1.76h-.08L-44.1,13.28Zm9.824-1.6-.88-1.76h-.08l.256,1.76V20h-2.08V8.72h1.6l4.24,5.968.848,1.712h.08l-.256-1.712V8.8h2.08V20.08h-1.6Zm11.68,0h4.176v4.992a4.208,4.208,0,0,1-1.608.816,6.983,6.983,0,0,1-1.848.256,5.764,5.764,0,0,1-1.992-.336A4.089,4.089,0,0,1-26.28,18.84a4.992,4.992,0,0,1-1.056-1.816A8.008,8.008,0,0,1-27.72,14.4a7.106,7.106,0,0,1,.456-2.7,5.059,5.059,0,0,1,1.2-1.808,4.549,4.549,0,0,1,1.672-1.008A5.888,5.888,0,0,1-22.5,8.576a8.777,8.777,0,0,1,1.688.144,7.845,7.845,0,0,1,1.16.3l-.448,1.84a4.554,4.554,0,0,0-.9-.248,7.456,7.456,0,0,0-1.264-.088,3.7,3.7,0,0,0-1.264.208,2.445,2.445,0,0,0-1,.68,3.234,3.234,0,0,0-.656,1.208,6.017,6.017,0,0,0-.232,1.792,5.941,5.941,0,0,0,.224,1.736,3.36,3.36,0,0,0,.624,1.2,2.462,2.462,0,0,0,.936.7,2.937,2.937,0,0,0,1.144.224,3.23,3.23,0,0,0,.816-.1A1.866,1.866,0,0,0-21,17.856V15.744l-2.416-.256Zm5.7.32H-13.7v1.84H-17.72Zm13.392-3.072a3.439,3.439,0,0,1-.1.832,2.291,2.291,0,0,1-.342.76,2.416,2.416,0,0,1-.62.608A2.7,2.7,0,0,1-6.316,14v.1a3.724,3.724,0,0,1,.907.272,2.327,2.327,0,0,1,.748.528,2.428,2.428,0,0,1,.5.816,3.184,3.184,0,0,1,.183,1.136,2.921,2.921,0,0,1-.368,1.5,3.036,3.036,0,0,1-.984,1.032,4.524,4.524,0,0,1-1.4.592,6.769,6.769,0,0,1-1.616.192h-.7q-.424,0-.912-.024t-.992-.072a7.1,7.1,0,0,1-.92-.144V8.88q.3-.048.7-.1t.84-.08q.448-.032.92-.048t.936-.016a9.582,9.582,0,0,1,1.528.12,4.362,4.362,0,0,1,1.328.424,2.432,2.432,0,0,1,.936.848A2.487,2.487,0,0,1-4.328,11.408ZM-8.322,18.32a3.044,3.044,0,0,0,.762-.095,1.989,1.989,0,0,0,.652-.293,1.534,1.534,0,0,0,.455-.5,1.408,1.408,0,0,0,.173-.713,1.449,1.449,0,0,0-.2-.824,1.392,1.392,0,0,0-.534-.467,2.187,2.187,0,0,0-.738-.214,7.062,7.062,0,0,0-.817-.048H-9.72v3.057a.958.958,0,0,0,.251.047q.173.016.369.024l.409.016Q-8.479,18.32-8.322,18.32ZM-9.016,13.5q.224,0,.52-.016a4.647,4.647,0,0,0,.488-.047,2.908,2.908,0,0,0,1.048-.57,1.254,1.254,0,0,0,.44-1,1.315,1.315,0,0,0-.16-.681,1.212,1.212,0,0,0-.424-.427,1.808,1.808,0,0,0-.6-.222,3.793,3.793,0,0,0-.7-.063q-.416,0-.768.016a4.961,4.961,0,0,0-.544.047V13.5ZM1.96,8.608l1.568.7L-2.184,22.24-3.752,21.5ZM12.008,16.88h-1.76V20H8.312V16.88H3.464V15.7L8.536,8.72h1.712v6.5h1.76Zm-3.7-4.112.144-1.344H8.392l-.544,1.152-1.664,2.16-.8.608,1.024-.128h1.9Zm9.248-4.16,1.568.7L13.416,22.24,11.848,21.5Zm8.8,2.928a4.893,4.893,0,0,1-.3,1.648,10.192,10.192,0,0,1-.752,1.632A15.329,15.329,0,0,1,24.3,16.36q-.552.744-1.08,1.368l-.848.656v.08l1.152-.224H26.6V20H19.864V18.928q.384-.4.864-.936t.968-1.136q.488-.6.952-1.24a13.842,13.842,0,0,0,.832-1.288,7.935,7.935,0,0,0,.584-1.256,3.444,3.444,0,0,0,.216-1.152,1.567,1.567,0,0,0-.376-1.08,1.516,1.516,0,0,0-1.192-.424,2.793,2.793,0,0,0-1.048.216,2.972,2.972,0,0,0-.9.552l-.832-1.472a5.246,5.246,0,0,1,1.416-.824,5.073,5.073,0,0,1,1.864-.312,3.977,3.977,0,0,1,1.264.192,2.825,2.825,0,0,1,.992.56,2.582,2.582,0,0,1,.656.92A3.208,3.208,0,0,1,26.36,11.536Zm2.112,2.848a7.653,7.653,0,0,1,1.008-4.376,3.326,3.326,0,0,1,2.9-1.432,3.3,3.3,0,0,1,2.96,1.416,8.055,8.055,0,0,1,.944,4.392,7.681,7.681,0,0,1-1.016,4.4,3.34,3.34,0,0,1-2.9,1.44,3.222,3.222,0,0,1-2.944-1.512A8.209,8.209,0,0,1,28.472,14.384Zm2.08,0a8.449,8.449,0,0,0,.424,3.016,1.461,1.461,0,0,0,2.784.088,8.063,8.063,0,0,0,.44-3.1,8.47,8.47,0,0,0-.416-2.992,1.457,1.457,0,0,0-1.424-1.056,1.434,1.434,0,0,0-1.384.992A8.242,8.242,0,0,0,30.552,14.384ZM38.52,18.24h2.224V11.92l.24-1.088-.768.944-1.424.976-.88-1.2L41.56,8.608h1.168V18.24H44.9V20H38.52ZM54.3,16.528a3.947,3.947,0,0,1-.264,1.456,3.426,3.426,0,0,1-1.9,1.952,3.8,3.8,0,0,1-1.5.288A4.276,4.276,0,0,1,49.1,19.96a3.284,3.284,0,0,1-1.208-.792,3.654,3.654,0,0,1-.8-1.328,5.47,5.47,0,0,1-.288-1.856,8.491,8.491,0,0,1,.456-2.864A7.458,7.458,0,0,1,48.5,10.888,6.362,6.362,0,0,1,50.3,9.352a6.61,6.61,0,0,1,2.184-.776l.464,1.648a4.529,4.529,0,0,0-1.472.5,5.35,5.35,0,0,0-1.192.88,5.233,5.233,0,0,0-.88,1.144,4.552,4.552,0,0,0-.5,1.3,2.716,2.716,0,0,1,.832-.68,2.643,2.643,0,0,1,1.28-.28,3.814,3.814,0,0,1,1.328.224,2.785,2.785,0,0,1,1.04.664,3.042,3.042,0,0,1,.672,1.08A4.177,4.177,0,0,1,54.3,16.528Zm-2.016.112a1.57,1.57,0,0,0-1.76-1.792,1.93,1.93,0,0,0-1.08.288,1.628,1.628,0,0,0-.616.672,1.735,1.735,0,0,0-.032.3v.256a2.649,2.649,0,0,0,.112.76,2.19,2.19,0,0,0,.328.672,1.659,1.659,0,0,0,.552.48,1.642,1.642,0,0,0,.8.184,1.588,1.588,0,0,0,1.224-.512A1.86,1.86,0,0,0,52.28,16.64Z" transform="translate(1102 1171.729)" fill="#353535"/>
    <g id="Group_10505" data-name="Group 10505" transform="translate(1053.483 1004.603)">
      <g id="Group_10505-2" data-name="Group 10505" clip-path="url(#clip-path)">
        <path id="Path_15912" data-name="Path 15912" d="M96.659,111.074c.3,0,.376-.073.376-.375q-.012-25.322,0-50.644a.511.511,0,0,0-.3-.51c-1.793-1.027-3.579-2.065-5.369-3.1-1-.574-2-1.141-3-1.711a1.347,1.347,0,0,0-.124-.091c-2.1-1.215-4.205-2.425-6.3-3.65-.235-.137-.314-.091-.427.136a20.186,20.186,0,0,1-3.987,5.6c-.207.2-.175.267.057.4,2.367,1.356,4.727,2.724,7.091,4.086,1.2.693,2.412,1.379,3.618,2.068.337.2.665.423,1.014.6a.42.42,0,0,1,.249.44q-.007,19.461,0,38.923c0,.292-.095.334-.352.332-1.3-.009-2.6,0-3.9,0-.852,0-1.7-.005-2.557-.01-.465,0-.417.062-.417-.413q0-14.1,0-28.191c0-.581,0-.557-.594-.553a36.858,36.858,0,0,0-5.517.462,22.282,22.282,0,0,0-2.768.559,16.8,16.8,0,0,0-1.859.459,38.693,38.693,0,0,0-8.7,3.689,26.483,26.483,0,0,0-2.846,1.834,1.843,1.843,0,0,0-.161.092,39.493,39.493,0,0,0-5.786,5,38.859,38.859,0,0,0-4.419,5.583c-.384.589-.75,1.19-1.134,1.8-.156-.259-.293-.5-.445-.736a8.984,8.984,0,0,0-.84-1.259c-.376-.522-.723-1.063-1.094-1.589a33.472,33.472,0,0,0-2.96-3.591,38.738,38.738,0,0,0-8.863-7.058,30.511,30.511,0,0,0-3.544-1.81h0c-.054-.03-.105-.064-.161-.089a39.238,39.238,0,0,0-7.46-2.456,41.8,41.8,0,0,0-8.119-.927c-.259-.006-.3.083-.3.316q.009,6.235,0,12.469,0,8.042.006,16.085c0,.254-.054.336-.32.328-.581-.019-1.163,0-1.744,0q-2.417-.005-4.833-.011c-.451,0-.4.062-.4-.4q0-19.289-.014-38.578a.833.833,0,0,1,.518-.882,2.542,2.542,0,0,0,.235-.139c.081.011.135-.046.2-.082q3.19-1.841,6.379-3.684Q17.3,58.365,19.816,56.9a.571.571,0,0,0,.257-.156l.118-.085c.1.011.173-.06.252-.106q5.942-3.431,11.882-6.864,2.046-1.183,4.085-2.378c.065-.031.133-.056.195-.092q5.8-3.349,11.592-6.7a.552.552,0,0,1,.645,0c1.458.859,2.928,1.7,4.389,2.55.17.1.269.109.41-.056a18.79,18.79,0,0,1,3.519-3.152,27.487,27.487,0,0,1,2.65-1.614c-.081-.055-.137-.1-.2-.133q-5.447-3.147-10.893-6.3a.36.36,0,0,0-.421.016Q44.052,34.29,39.8,36.74c-1.158.67-2.312,1.348-3.467,2.023-.065.031-.133.058-.195.094q-6.066,3.5-12.13,7c-1.257.726-2.508,1.461-3.762,2.192-.048.01-.1.008-.124.065l-.553.324c-.055.026-.113.049-.166.079q-4.065,2.346-8.128,4.693c-1.048.607-2.091,1.221-3.136,1.833a1.38,1.38,0,0,0-.486.261Q3.972,57.425.289,59.549A.485.485,0,0,0,0,60.032q.011,25.357,0,50.714c0,.259.064.328.324.327q6.066-.013,12.132-.007c.083,0,.166-.006.249-.009.1,0,.207.01.311.01q4.413,0,8.825,0c.452,0,.4.061.4-.4q0-12.272,0-24.544c0-.26.033-.342.313-.258a32.366,32.366,0,0,1,4,1.468,33.691,33.691,0,0,1,3.746,2.03.727.727,0,0,0,.09.082,28.645,28.645,0,0,1,12.4,18.23,29.41,29.41,0,0,1,.465,3.169c.016.171.073.224.246.222,1.278-.01,2.556-.01,3.834-.014q3.161.005,6.322.013c.158,0,.218-.047.226-.21.026-.529.1-1.052.179-1.575a28.29,28.29,0,0,1,3.147-9.51A31.2,31.2,0,0,1,60.106,95.4c.042-.044.088-.086.127-.134a28.717,28.717,0,0,1,9.524-7.55,31.683,31.683,0,0,1,3.891-1.6,4.73,4.73,0,0,0,.809-.212c.43-.11.428-.117.428.311q0,12.22,0,24.44c0,.47-.056.407.418.408q2.167,0,4.333,0,2.836,0,5.672-.01c.1,0,.207.01.311.01,3.68,0,7.359,0,11.038.007" transform="translate(0 -23.497)" fill="#353535"/>
        <path id="Path_15913" data-name="Path 15913" d="M98.546,171.42a42.036,42.036,0,0,1,3.737-2.351c1.224-.686,2.494-1.279,3.759-1.883.1.033.181-.036.263-.071a39.4,39.4,0,0,1,5.407-1.838c.911-.237,1.833-.43,2.75-.643a1.766,1.766,0,0,0,.217-.014,38.131,38.131,0,0,1,7.15-.676c.26,0,.332-.069.331-.33q-.014-3.852,0-7.7c0-.26-.069-.33-.328-.327a53.637,53.637,0,0,0-5.438.337,15.959,15.959,0,0,0-1.933.29,2.677,2.677,0,0,0-.279.019c-1.226.207-2.446.441-3.653.739a42.025,42.025,0,0,0-4.613,1.373,40.29,40.29,0,0,0-4.027,1.6,35.9,35.9,0,0,0-3.465,1.748c-.788.392-1.535.856-2.281,1.321a42.81,42.81,0,0,0-4.754,3.377,34.608,34.608,0,0,0-2.8,2.408c-.172.162-.273.146-.427,0-.273-.268-.559-.525-.848-.777a36.451,36.451,0,0,0-2.914-2.373c-.046-.041-.088-.086-.137-.123a48.33,48.33,0,0,0-5.14-3.4,41.04,41.04,0,0,0-3.955-2.027c-.237-.111-.473-.225-.713-.331a47.294,47.294,0,0,0-9.326-3.031c-.394-.044-.771-.174-1.158-.248a50.631,50.631,0,0,0-9.065-.9c-.25,0-.329.047-.327.316q.018,3.85,0,7.7c0,.262.045.347.333.347a38.812,38.812,0,0,1,8.126.863c.674.144,1.345.3,2.018.452a.694.694,0,0,0,.111.051,40.537,40.537,0,0,1,8.26,3.2c.474.245.943.5,1.415.747.059.041.115.086.176.121a43,43,0,0,1,4.446,2.964,45.738,45.738,0,0,1,3.989,3.463l.689.7.25.25a1.776,1.776,0,0,0,.128.171c.679.717,1.323,1.464,1.947,2.229.662.811,1.285,1.652,1.9,2.523.44-.591.863-1.167,1.293-1.738.719-.954,1.517-1.843,2.293-2.749h0c.06-.056.124-.109.181-.168a45.526,45.526,0,0,1,3.343-3.22c.913-.786,1.872-1.513,2.833-2.239.079-.049.16-.094.235-.147" transform="translate(-40.381 -115.117)" fill="#353535"/>
        <path id="Path_15914" data-name="Path 15914" d="M192.74,19.109a19.139,19.139,0,0,0-4,4.863,32.948,32.948,0,0,0-3.8,12.321c-.194,1.42-.327,2.847-.412,4.277-.077,1.3-.152,2.592-.135,3.892,0,.051-.02.114,0,.149s.066-.012.091-.035c.061-.056.12-.115.177-.175a19.39,19.39,0,0,1,3.875-3.146c.81-.5,1.668-.914,2.518-1.339a33.558,33.558,0,0,1,3.687-1.289c.887-.243,1.778-.47,2.668-.7,1.194-.266,2.39-.525,3.582-.8a29.252,29.252,0,0,0,3.09-.837,20.457,20.457,0,0,0,3.75-1.482,15.67,15.67,0,0,0,3.805-2.67c.318-.312.649-.611.952-.937a20.3,20.3,0,0,0,2.8-3.9,35.675,35.675,0,0,0,3.165-7.985c.249-.891.477-1.787.681-2.729a.7.7,0,0,0-.07.078c-.036.062-.072.126-.1.19a21.206,21.206,0,0,1-4.885,6.39,24.308,24.308,0,0,1-2.672,1.971,28.156,28.156,0,0,1-4.971,2.329c-.875.312-1.76.6-2.64.893-.438.123-.877.242-1.313.37-1.749.514-3.514.974-5.235,1.581a23.74,23.74,0,0,0-2.748,1.048,17.01,17.01,0,0,0-3.739,2.179c-.085.058-.174.111-.255.174a15.515,15.515,0,0,0-4.423,5.575c-.291.6-.548,1.224-.821,1.837a2.184,2.184,0,0,1,.059-.271,19.839,19.839,0,0,1,4.6-7.457,25.6,25.6,0,0,1,3.016-2.548c.791-.514,1.579-1.032,2.4-1.5,1.316-.756,2.682-1.417,4.029-2.116.091.032.16-.027.233-.061,1.25-.581,2.5-1.154,3.746-1.746,1.187-.565,2.378-1.124,3.508-1.8a1.593,1.593,0,0,0,.171-.071,26.289,26.289,0,0,0,5.079-3.62,14.227,14.227,0,0,0,1.866-2.035,7.085,7.085,0,0,0,.817-1.057,24.813,24.813,0,0,0,3.973-12.1c.086-.9.128-1.8.179-2.7.02-.352.01-.706.012-1.059s0-.706,0-1.06a1.019,1.019,0,0,0-.178.307,22.069,22.069,0,0,1-2.464,4.457,21.919,21.919,0,0,1-2.552,2.89,1.533,1.533,0,0,0-.151.108,21.9,21.9,0,0,1-4.8,3.238c-.69.352-1.39.684-2.085,1.025a.428.428,0,0,0-.091.018c-1.428.634-2.887,1.191-4.336,1.773-1.006.4-2.024.782-3,1.267a1.024,1.024,0,0,0-.146.041,31.79,31.79,0,0,0-2.879,1.446,19.715,19.715,0,0,0-3.508,2.451,1.385,1.385,0,0,0-.126.088" transform="translate(-136.424)" fill="#353535"/>
        <path id="Path_15915" data-name="Path 15915" d="M4.492,357.872,0,370.438H2.442l.945-2.763H7.219l1,2.763h2.567L6.292,357.872Zm-.481,7.843.909-2.763.374-1.979h.089l.375,1.961.927,2.781Z" transform="translate(0 -264.79)" fill="#353535"/>
        <path id="Path_15916" data-name="Path 15916" d="M49.225,363.573a7.375,7.375,0,0,0-1.373-.775q-.74-.321-1.373-.624a4.836,4.836,0,0,1-1.052-.659,1.123,1.123,0,0,1-.419-.891,1.076,1.076,0,0,1,.455-.909,2.166,2.166,0,0,1,1.31-.339,6.7,6.7,0,0,1,1.693.2,4.294,4.294,0,0,1,1.176.455l.767-2.05a5.221,5.221,0,0,0-1.586-.544,10.726,10.726,0,0,0-2.05-.187,6.353,6.353,0,0,0-1.711.214,3.714,3.714,0,0,0-1.328.66,2.961,2.961,0,0,0-.865,1.114,3.79,3.79,0,0,0-.3,1.577,3.237,3.237,0,0,0,.419,1.729,3.9,3.9,0,0,0,1.052,1.132,7,7,0,0,0,1.372.767q.74.312,1.373.606a4.649,4.649,0,0,1,1.052.65,1.161,1.161,0,0,1,.419.927,1.227,1.227,0,0,1-.579,1.114,3.139,3.139,0,0,1-1.667.365,5.564,5.564,0,0,1-.9-.071,7.982,7.982,0,0,1-.829-.178,6.477,6.477,0,0,1-.7-.232,4.815,4.815,0,0,1-.508-.231l-.784,2.085a7.178,7.178,0,0,0,1.5.5,9.935,9.935,0,0,0,2.353.25A7.052,7.052,0,0,0,47.995,370a3.919,3.919,0,0,0,1.444-.713,3.264,3.264,0,0,0,.927-1.2,4.114,4.114,0,0,0,.33-1.72,3.084,3.084,0,0,0-.419-1.666,3.955,3.955,0,0,0-1.052-1.123" transform="translate(-31.285 -264.333)" fill="#353535"/>
        <path id="Path_15917" data-name="Path 15917" d="M86.824,358.286a4.642,4.642,0,0,0-1.684-.606,11.68,11.68,0,0,0-1.863-.151q-.891,0-1.791.08t-1.648.223v12.352h2.442v-4.3a2.925,2.925,0,0,0,.294.036c.136.012.276.021.419.027s.279.009.41.009h.285a6.893,6.893,0,0,0,1.791-.232,4.381,4.381,0,0,0,1.542-.749,3.793,3.793,0,0,0,1.087-1.328,4.371,4.371,0,0,0,.41-1.987,4.168,4.168,0,0,0-.472-2.112,3.521,3.521,0,0,0-1.221-1.266m-1.1,4.465a1.721,1.721,0,0,1-.6.668,2.36,2.36,0,0,1-.847.33,5.125,5.125,0,0,1-.954.089h-.223q-.151,0-.312-.009t-.3-.027a1.879,1.879,0,0,1-.214-.036v-4.046q.2-.036.517-.062t.677-.027a4.634,4.634,0,0,1,.909.089,2.193,2.193,0,0,1,.793.321,1.754,1.754,0,0,1,.562.615,1.976,1.976,0,0,1,.214.971,2.435,2.435,0,0,1-.223,1.123" transform="translate(-59.072 -264.536)" fill="#353535"/>
        <path id="Path_15918" data-name="Path 15918" d="M120.448,365.469h4.51v-2.175h-4.51v-2.905H125.4v-2.175h-7.4v12.477h7.486v-2.175h-5.044Z" transform="translate(-87.313 -265.043)" fill="#353535"/>
        <path id="Path_15919" data-name="Path 15919" d="M160.771,364.5a2.61,2.61,0,0,0-.838-.588,4.211,4.211,0,0,0-1.016-.3V363.5a3.03,3.03,0,0,0,1.034-.437,2.7,2.7,0,0,0,.7-.677,2.549,2.549,0,0,0,.383-.847,3.821,3.821,0,0,0,.116-.927,2.771,2.771,0,0,0-.392-1.533,2.712,2.712,0,0,0-1.043-.945,4.857,4.857,0,0,0-1.48-.472,10.668,10.668,0,0,0-1.7-.134q-.518,0-1.043.018t-1.025.054q-.5.036-.936.089t-.775.107v12.3a7.88,7.88,0,0,0,1.025.16q.562.054,1.105.08t1.016.027h.775a7.535,7.535,0,0,0,1.8-.214,5.041,5.041,0,0,0,1.56-.659,3.381,3.381,0,0,0,1.1-1.15,3.256,3.256,0,0,0,.41-1.667,3.534,3.534,0,0,0-.2-1.265,2.707,2.707,0,0,0-.561-.909m-5.668-4.849a5.426,5.426,0,0,1,.606-.053q.391-.018.855-.018a4.218,4.218,0,0,1,.784.071,2.005,2.005,0,0,1,.668.247,1.348,1.348,0,0,1,.473.476,1.467,1.467,0,0,1,.178.758,1.4,1.4,0,0,1-.491,1.111,3.238,3.238,0,0,1-1.167.635,5.143,5.143,0,0,1-.544.053q-.33.018-.579.018H155.1Zm3.707,7.675a1.719,1.719,0,0,1-.517.556,2.282,2.282,0,0,1-.74.327,3.511,3.511,0,0,1-.865.106q-.178,0-.419-.009l-.463-.018c-.149-.006-.288-.015-.419-.026a1.1,1.1,0,0,1-.285-.053V364.8h1.3a8.208,8.208,0,0,1,.927.053,2.515,2.515,0,0,1,.838.238,1.571,1.571,0,0,1,.606.52,1.593,1.593,0,0,1,.231.917,1.546,1.546,0,0,1-.2.794" transform="translate(-113.02 -264.536)" fill="#353535"/>
        <path id="Path_15920" data-name="Path 15920" d="M186.808,360.389h3.654v10.3H192.9v-10.3h3.636v-2.175h-9.732Z" transform="translate(-138.219 -265.043)" fill="#353535"/>
        <rect id="Rectangle_2393" data-name="Rectangle 2393" width="2.442" height="12.477" transform="translate(59.568 93.171)" fill="#353535"/>
        <path id="Path_15921" data-name="Path 15921" d="M253.819,364.52l.285,1.907h-.089l-.945-1.907-4.723-6.648h-1.782v12.566h2.317v-6.506l-.285-1.961h.089l.98,1.961,4.688,6.6h1.782V357.961h-2.317Z" transform="translate(-182.433 -264.79)" fill="#353535"/>
        <path id="Path_15922" data-name="Path 15922" d="M298.937,359.294a4.825,4.825,0,0,0-1.907-1.3,7.741,7.741,0,0,0-2.834-.464q-.375,0-.847.009t-.971.027q-.5.018-.971.054t-.847.089V370.2q.231.036.7.062t.971.054q.508.027.98.045t.758.018a7.325,7.325,0,0,0,3.021-.552,5.364,5.364,0,0,0,1.97-1.462,5.525,5.525,0,0,0,1.069-2.085,9.232,9.232,0,0,0,.321-2.442,9.071,9.071,0,0,0-.339-2.549,5.22,5.22,0,0,0-1.07-2m-1.319,6.176a3.91,3.91,0,0,1-.562,1.4,2.924,2.924,0,0,1-1.087.971,3.634,3.634,0,0,1-1.72.365c-.06,0-.149,0-.267-.009l-.374-.018-.365-.018a1.389,1.389,0,0,1-.241-.027v-8.36a4.846,4.846,0,0,1,.6-.053q.4-.018.793-.018a3.363,3.363,0,0,1,1.675.374,2.967,2.967,0,0,1,1.043.962,3.691,3.691,0,0,1,.526,1.328,7.767,7.767,0,0,1,.143,1.471,8.205,8.205,0,0,1-.16,1.631" transform="translate(-214.986 -264.536)" fill="#353535"/>
        <path id="Path_15923" data-name="Path 15923" d="M341.647,359.037a4.4,4.4,0,0,0-1.658-1.319,5.494,5.494,0,0,0-2.335-.464,4.769,4.769,0,0,0-3.922,1.684,7.428,7.428,0,0,0-1.372,4.8,10.234,10.234,0,0,0,.321,2.656,5.848,5.848,0,0,0,.972,2.05,4.321,4.321,0,0,0,1.648,1.319,5.545,5.545,0,0,0,2.353.463,4.774,4.774,0,0,0,3.912-1.684,7.4,7.4,0,0,0,1.381-4.8,10.239,10.239,0,0,0-.321-2.656,5.772,5.772,0,0,0-.981-2.05m-1.978,8a2.318,2.318,0,0,1-2.014,1.016,2.285,2.285,0,0,1-1.23-.321,2.5,2.5,0,0,1-.847-.891,4.483,4.483,0,0,1-.49-1.364,8.775,8.775,0,0,1-.161-1.738,5.892,5.892,0,0,1,.713-3.271,2.509,2.509,0,0,1,3.28-.713,2.458,2.458,0,0,1,.837.918,4.726,4.726,0,0,1,.473,1.373,8.964,8.964,0,0,1,.151,1.693,5.878,5.878,0,0,1-.713,3.3" transform="translate(-245.914 -264.334)" fill="#353535"/>
      </g>
    </g>
  </g>
</svg>
