<svg xmlns="http://www.w3.org/2000/svg" xmlns:xlink="http://www.w3.org/1999/xlink" width="44" height="44" viewBox="0 0 44 44">
  <defs>
    <clipPath id="clip-path">
      <rect id="Rectangle_439" data-name="Rectangle 439" width="25.779" height="27.374" transform="translate(0 0)" fill="#fff"/>
    </clipPath>
  </defs>
  <g id="Group_8584" data-name="Group 8584" transform="translate(-894 -1610)">
    <rect id="Rectangle_1648" data-name="Rectangle 1648" width="44" height="44" rx="4" transform="translate(894 1610)" fill="#004e98"/>
    <g id="Group_8581" data-name="Group 8581" transform="translate(905.174 1617.326)">
      <g id="Group_8421" data-name="Group 8421" clip-path="url(#clip-path)">
        <path id="Path_13402" data-name="Path 13402" d="M3.256,6.889a.229.229,0,0,0-.229.229.234.234,0,0,0,.228.229H10.7a.229.229,0,1,0,0-.458ZM20.7,11.941H.992a.9.9,0,0,0-.385.085l.006,0A1,1,0,0,0,0,12.938v5.12a1.015,1.015,0,0,0,1,.978H20.654a1,1,0,0,0,1-1V12.914a.973.973,0,0,0-.95-.973h0m-.023,6.587H.992A.494.494,0,0,1,.5,18.034V12.941a.5.5,0,0,1,.5-.5H20.653a.5.5,0,0,1,.5.5l.027,5.088a.5.5,0,0,1-.5.5h0ZM17.112,14.4h0a.955.955,0,1,0,.955.955v-.005a.951.951,0,0,0-.951-.951h0Zm-6.414.749H3.256a.229.229,0,1,0,0,.458H10.7a.229.229,0,1,0,0-.458m10,5.129H1a.974.974,0,0,0-.969.974V26.4A.974.974,0,0,0,1,27.374H20.654a1,1,0,0,0,1-1V21.257a.973.973,0,0,0-.95-.973h0Zm-.023,6.588H.992A.494.494,0,0,1,.5,26.377v-5.1a.5.5,0,0,1,.5-.5H20.653a.5.5,0,0,1,.5.5l.027,5.093a.5.5,0,0,1-.5.5h0Zm-3.565-4.124h0a.955.955,0,1,0,.955.955v0a.951.951,0,0,0-.951-.951h0ZM10.7,23.5H3.256a.229.229,0,1,0,0,.458H10.7a.229.229,0,0,0,0-.458M.015,9.792V9.8a.965.965,0,0,0,.965.965H17.515a6.509,6.509,0,0,1-.789-.51l.017.012H1a.5.5,0,0,1-.5-.5V4.673a.5.5,0,0,1,.5-.5h13.44a4.65,4.65,0,0,1,.137-.537l-.009.034H1A.978.978,0,0,0,.03,4.65V9.793ZM20.38,0a5.4,5.4,0,1,0,5.4,5.4A5.4,5.4,0,0,0,20.38,0m0,10.336a4.942,4.942,0,1,1,4.942-4.942V5.4a4.942,4.942,0,0,1-4.942,4.937m3.776-6.2a.235.235,0,0,0-.186-.155h0L22.177,3.74,21.345,2.1a.228.228,0,0,0-.2-.123h0a.238.238,0,0,0-.2.122h0l-.571,1.152L20,2.533a.224.224,0,0,0-.2-.123h-.01a.221.221,0,0,0-.2.122h0L18.775,4.17l-1.829.247a.23.23,0,0,0-.187.158v0a.226.226,0,0,0,.059.233l1.339,1.262-.416,1.755a.254.254,0,0,0,0,.049.239.239,0,0,0,.087.184.229.229,0,0,0,.141.049.226.226,0,0,0,.107-.027h0l1.669-.837,1.655.841a.212.212,0,0,0,.1.027h0a.206.206,0,0,0,.13-.046.224.224,0,0,0,.095-.183.2.2,0,0,0,0-.042h0l-.137-.773,1.152.585a.271.271,0,0,0,.1.023h.005a.214.214,0,0,0,.133-.046.232.232,0,0,0,.094-.187.234.234,0,0,0,0-.038h0l-.315-1.774,1.339-1.262a.228.228,0,0,0,.064-.239v0ZM19.932,6.83a.485.485,0,0,0-.174-.032h0a.583.583,0,0,0-.214.043h0l-1.221.617.306-1.294a.384.384,0,0,0,.022-.129.4.4,0,0,0-.171-.327h0L17.5,4.792l1.335-.183a.389.389,0,0,0,.356-.267v0l.6-1.207.631,1.257a.644.644,0,0,0,.238.2l0,0h.064l1.371.183-.992.978a.507.507,0,0,0-.131.34.494.494,0,0,0,0,.055v0l.238,1.33Z" fill="#fff"/>
      </g>
    </g>
  </g>
</svg>
