<svg xmlns="http://www.w3.org/2000/svg" xmlns:xlink="http://www.w3.org/1999/xlink" width="44" height="44" viewBox="0 0 44 44">
  <defs>
    <clipPath id="clip-path">
      <rect id="Rectangle_432" data-name="Rectangle 432" width="21.651" height="23.699" transform="translate(0 0)" fill="#fff"/>
    </clipPath>
  </defs>
  <g id="Group_8582" data-name="Group 8582" transform="translate(-400 -1611)">
    <rect id="Rectangle_1644" data-name="Rectangle 1644" width="44" height="44" rx="4" transform="translate(400 1611)" fill="#004e98"/>
    <g id="Group_8579" data-name="Group 8579" transform="translate(411.174 1621)">
      <g id="Group_8416" data-name="Group 8416" clip-path="url(#clip-path)">
        <path id="Path_13400" data-name="Path 13400" d="M20.709,0H1A.974.974,0,0,0,.023.975V6.118a.974.974,0,0,0,.969.974H20.649a1,1,0,0,0,1-1V.973A.974.974,0,0,0,20.71,0h0Zm0,6.592H1a.5.5,0,0,1-.5-.5V1A.5.5,0,0,1,1,.5H20.654a.5.5,0,0,1,.5.5l.027,5.093V6.1a.5.5,0,0,1-.489.5ZM17.12,2.465h0a.955.955,0,1,0,.955.955V3.415a.951.951,0,0,0-.951-.951h0Zm-6.409.75H3.269a.229.229,0,1,0,0,.458h7.442a.229.229,0,0,0,0-.458Zm10,5.051H1a1.006,1.006,0,0,0-1,1v5.12a1.007,1.007,0,0,0,1,.974H20.654a1,1,0,0,0,1-1V9.239a.973.973,0,0,0-.941-.973h0ZM1,8.769H20.654a.5.5,0,0,1,.5.5l.027,5.093a.5.5,0,0,1-.5.5H1a.5.5,0,0,1-.5-.5V9.267a.5.5,0,0,1,.5-.5Zm16.128,3.867a.955.955,0,0,0,0-1.906h0a.955.955,0,0,0,0,1.906Zm-13.856-.7h7.442a.229.229,0,0,0,.229-.229.234.234,0,0,0-.228-.229H3.269a.229.229,0,0,0,0,.458Zm17.44,4.672H1a.979.979,0,0,0-.974.978V22.73a.969.969,0,0,0,.969.969H20.649a1,1,0,0,0,1-1V17.581a.974.974,0,0,0-.936-.973h0Zm0,6.592H1a.5.5,0,0,1-.5-.5V17.6a.5.5,0,0,1,.5-.5H20.654a.5.5,0,0,1,.5.5l.027,5.093v0a.5.5,0,0,1-.489.5ZM17.12,19.073h0a.955.955,0,1,0,.955.955.955.955,0,0,0-.955-.955m-6.409.75H3.269a.229.229,0,0,0,0,.458h7.442a.229.229,0,0,0,.229-.229.234.234,0,0,0-.228-.229Z" fill="#fff"/>
      </g>
    </g>
  </g>
</svg>
