<?xml version="1.0" encoding="utf-8"?>
<!-- Generator: Adobe Illustrator 27.1.1, SVG Export Plug-In . SVG Version: 6.00 Build 0)  -->
<svg version="1.1" id="Layer_2_00000008107708084842712050000016856881625305359534_"
	 xmlns="http://www.w3.org/2000/svg" xmlns:xlink="http://www.w3.org/1999/xlink" x="0px" y="0px" viewBox="0 0 163.9 163.9"
	 style="enable-background:new 0 0 163.9 163.9;" xml:space="preserve">
<style type="text/css">
	.st0{fill:url(#SVGID_1_);}
	.st1{fill:url(#SVGID_00000155112387881881315490000013583456511956001171_);}
	.st2{fill:url(#SVGID_00000119835911969688204420000003303330170200679084_);}
	.st3{fill:url(#SVGID_00000060721872377510271240000005634148892022472889_);}
	.st4{fill:url(#SVGID_00000103944282260725810080000009152424655282332092_);}
	.st5{fill:url(#SVGID_00000040547881215386253150000014959054813496268718_);}
	.st6{fill:url(#SVGID_00000077317004370235521160000007122565531048006529_);}
	.st7{fill:url(#SVGID_00000179604967683174531820000013392894593090472851_);}
	.st8{fill:#094E98;}
	.st9{fill:#1D1D1B;}
	.st10{fill:#1D1D1B;fill-opacity:0;}
	.st11{opacity:2.000000e-02;fill:#1D1D1B;enable-background:new    ;}
	.st12{opacity:5.000000e-02;fill:#1D1D1B;enable-background:new    ;}
	.st13{opacity:7.000000e-02;fill:#1D1D1B;enable-background:new    ;}
	.st14{opacity:0.1;fill:#1D1D1B;enable-background:new    ;}
	.st15{opacity:0.12;fill:#1D1D1B;enable-background:new    ;}
	.st16{opacity:0.14;fill:#1D1D1B;enable-background:new    ;}
	.st17{opacity:0.17;fill:#1D1D1B;enable-background:new    ;}
	.st18{opacity:0.33;fill:#1D1D1B;enable-background:new    ;}
	.st19{opacity:0.36;fill:#1D1D1B;enable-background:new    ;}
	.st20{opacity:0.38;fill:#1D1D1B;enable-background:new    ;}
	.st21{opacity:0.4;fill:#1D1D1B;enable-background:new    ;}
	.st22{opacity:0.43;fill:#1D1D1B;enable-background:new    ;}
	.st23{opacity:0.45;fill:#1D1D1B;enable-background:new    ;}
	.st24{opacity:0.48;fill:#1D1D1B;enable-background:new    ;}
	.st25{opacity:0.5;fill:#1D1D1B;enable-background:new    ;}
	.st26{fill:url(#SVGID_00000082363903241093747700000011345852276501371825_);}
	.st27{fill:url(#SVGID_00000029031238856905183180000003040876162068848514_);}
	.st28{fill:#FFFFFF;}
</style>
<linearGradient id="SVGID_1_" gradientUnits="userSpaceOnUse" x1="23.7493" y1="142.2493" x2="139.9793" y2="26.0193" gradientTransform="matrix(1 0 0 -1 9.985635e-04 166.0003)">
	<stop  offset="0" style="stop-color:#FFE964"/>
	<stop  offset="1.000000e-02" style="stop-color:#F6DA5B"/>
	<stop  offset="5.000000e-02" style="stop-color:#DCAD42"/>
	<stop  offset="9.000000e-02" style="stop-color:#C98D30"/>
	<stop  offset="0.12" style="stop-color:#BE7A25"/>
	<stop  offset="0.14" style="stop-color:#BA7322"/>
	<stop  offset="0.19" style="stop-color:#C6852F"/>
	<stop  offset="0.29" style="stop-color:#E5B551"/>
	<stop  offset="0.36" style="stop-color:#FFDC6D"/>
	<stop  offset="0.45" style="stop-color:#FFFFB5"/>
	<stop  offset="0.56" style="stop-color:#FCFDF6"/>
	<stop  offset="0.65" style="stop-color:#FFFF9C"/>
	<stop  offset="0.76" style="stop-color:#D5A13C"/>
	<stop  offset="0.89" style="stop-color:#FDDC53"/>
	<stop  offset="0.91" style="stop-color:#F3CF4C"/>
	<stop  offset="0.93" style="stop-color:#DBAD3B"/>
	<stop  offset="0.97" style="stop-color:#B47720"/>
	<stop  offset="1" style="stop-color:#8B3E04"/>
</linearGradient>
<circle class="st0" cx="82" cy="82" r="82"/>
<linearGradient id="SVGID_00000056422663062871343640000009232314988122955911_" gradientUnits="userSpaceOnUse" x1="81.9644" y1="163.3" x2="81.9644" y2="3.78" gradientTransform="matrix(1 0 0 -1 -7.729366e-03 165.9994)">
	<stop  offset="0" style="stop-color:#BA8B01"/>
	<stop  offset="4.000000e-02" style="stop-color:#CCAA37"/>
	<stop  offset="0.1" style="stop-color:#E7D786"/>
	<stop  offset="0.14" style="stop-color:#F8F4B7"/>
	<stop  offset="0.16" style="stop-color:#FFFFCB"/>
	<stop  offset="0.17" style="stop-color:#FCF9C0"/>
	<stop  offset="0.21" style="stop-color:#F5E6A0"/>
	<stop  offset="0.26" style="stop-color:#F0D888"/>
	<stop  offset="0.3" style="stop-color:#EDD07A"/>
	<stop  offset="0.33" style="stop-color:#ECCE76"/>
	<stop  offset="0.48" style="stop-color:#A26F14"/>
	<stop  offset="0.49" style="stop-color:#A67318"/>
	<stop  offset="0.53" style="stop-color:#C19233"/>
	<stop  offset="0.57" style="stop-color:#D4A847"/>
	<stop  offset="0.61" style="stop-color:#E0B553"/>
	<stop  offset="0.65" style="stop-color:#E4BA58"/>
	<stop  offset="0.67" style="stop-color:#ECD07E"/>
	<stop  offset="0.7" style="stop-color:#F4E4A0"/>
	<stop  offset="0.72" style="stop-color:#FAF3B9"/>
	<stop  offset="0.74" style="stop-color:#FDFBC7"/>
	<stop  offset="0.76" style="stop-color:#FFFFCD"/>
	<stop  offset="0.85" style="stop-color:#E5BD5D"/>
	<stop  offset="1" style="stop-color:#A26F14"/>
</linearGradient>
<circle style="fill:url(#SVGID_00000056422663062871343640000009232314988122955911_);" cx="82" cy="82" r="80.2"/>
<linearGradient id="SVGID_00000170269104784310658630000006853982946215926419_" gradientUnits="userSpaceOnUse" x1="3.5274" y1="84.0208" x2="160.3719" y2="84.0208" gradientTransform="matrix(1 0 0 -1 0 166)">
	<stop  offset="0" style="stop-color:#A26F14"/>
	<stop  offset="2.000000e-02" style="stop-color:#AE822C"/>
	<stop  offset="6.000000e-02" style="stop-color:#C6A85C"/>
	<stop  offset="0.1" style="stop-color:#DBC784"/>
	<stop  offset="0.15" style="stop-color:#EADFA3"/>
	<stop  offset="0.19" style="stop-color:#F5F1B9"/>
	<stop  offset="0.23" style="stop-color:#FCFBC6"/>
	<stop  offset="0.26" style="stop-color:#FFFFCB"/>
	<stop  offset="0.3" style="stop-color:#F5E6A2"/>
	<stop  offset="0.33" style="stop-color:#EDD382"/>
	<stop  offset="0.37" style="stop-color:#E8C56A"/>
	<stop  offset="0.4" style="stop-color:#E5BC5C"/>
	<stop  offset="0.42" style="stop-color:#E4BA58"/>
	<stop  offset="0.45" style="stop-color:#ECD07E"/>
	<stop  offset="0.49" style="stop-color:#F4E4A0"/>
	<stop  offset="0.52" style="stop-color:#FAF3B9"/>
	<stop  offset="0.55" style="stop-color:#FDFBC7"/>
	<stop  offset="0.57" style="stop-color:#FFFFCD"/>
	<stop  offset="0.73" style="stop-color:#E5BD5D"/>
	<stop  offset="0.9" style="stop-color:#FFFFCD"/>
	<stop  offset="1" style="stop-color:#A26F14"/>
</linearGradient>
<path style="fill:url(#SVGID_00000170269104784310658630000006853982946215926419_);" d="M81.1,153.4c0.2,0,0.4,0.1,0.6,0.3
	c0.3,0.4,0.3,0.9,0,1.3c-1.7,1.7-3.5,3.4-5.5,5c-0.4,0.3-1,0.3-1.3-0.1c-0.3-0.4-0.3-0.9,0.1-1.3c1.9-1.6,3.8-3.2,5.4-4.9
	C80.6,153.5,80.9,153.4,81.1,153.4L81.1,153.4z M73.8,153.2c-1.8,1.5-3.8,3-5.9,4.4c-0.4,0.3-0.5,0.8-0.2,1.2
	c0.3,0.4,0.9,0.5,1.3,0.2c2.1-1.4,4.1-2.9,5.9-4.4c0.4-0.3,0.4-0.9,0.1-1.3c-0.2-0.2-0.4-0.3-0.6-0.3S74,153.1,73.8,153.2
	L73.8,153.2z M67.2,152.1c-2,1.4-4.1,2.6-6.3,3.8c-0.4,0.2-0.6,0.8-0.3,1.2c0.3,0.4,0.8,0.6,1.3,0.4c2.2-1.2,4.3-2.5,6.3-3.9
	c0.4-0.3,0.5-0.8,0.2-1.2c-0.1-0.2-0.3-0.3-0.6-0.4C67.6,151.9,67.3,152,67.2,152.1L67.2,152.1z M60.7,150.4
	c-2.1,1.1-4.3,2.2-6.6,3.2c-0.5,0.2-0.7,0.7-0.5,1.2c0.2,0.5,0.8,0.7,1.2,0.5c2.3-1,4.5-2.1,6.6-3.3c0.4-0.2,0.6-0.8,0.4-1.2
	c-0.1-0.2-0.3-0.4-0.5-0.4C61.1,150.3,60.9,150.3,60.7,150.4L60.7,150.4z M54.3,148.1c-2.2,0.9-4.5,1.8-6.9,2.5
	c-0.5,0.1-0.7,0.6-0.6,1.1c0.2,0.5,0.7,0.7,1.2,0.6c2.4-0.8,4.7-1.6,6.9-2.6c0.5-0.2,0.7-0.7,0.5-1.2c-0.1-0.2-0.3-0.4-0.5-0.5
	C54.8,148,54.6,148,54.3,148.1L54.3,148.1z M48.3,145.2c-2.3,0.7-4.7,1.4-7.1,1.9c-0.5,0.1-0.8,0.6-0.7,1.1s0.6,0.8,1.1,0.7
	c2.5-0.5,4.8-1.2,7.1-2c0.5-0.2,0.7-0.7,0.6-1.1c-0.1-0.2-0.2-0.4-0.4-0.5C48.7,145.2,48.5,145.2,48.3,145.2L48.3,145.2z
	 M42.5,141.8c-2.3,0.5-4.8,0.9-7.2,1.2c-0.5,0.1-0.8,0.5-0.8,1c0.1,0.5,0.6,0.9,1.1,0.8c2.5-0.3,4.9-0.7,7.3-1.3
	c0.5-0.1,0.8-0.6,0.7-1.1c0-0.2-0.2-0.4-0.4-0.6C43,141.8,42.7,141.8,42.5,141.8L42.5,141.8z M37.1,137.8c-2.4,0.3-4.8,0.5-7.3,0.5
	c-0.5,0-0.9,0.4-0.9,0.9c0,0.5,0.5,0.9,1,0.9c2.5-0.1,5-0.3,7.4-0.6c0.5-0.1,0.8-0.5,0.8-1c0-0.2-0.2-0.4-0.3-0.6
	S37.3,137.8,37.1,137.8L37.1,137.8z M32,133.4c-2.4,0.1-4.9,0-7.3-0.1c-0.5,0-0.9,0.3-0.9,0.9c0,0.5,0.4,0.9,0.9,1
	c2.5,0.1,5,0.2,7.4,0.1c0.5,0,0.9-0.4,0.9-0.9c0-0.2-0.1-0.5-0.3-0.6S32.3,133.4,32,133.4L32,133.4z M27.4,128.5
	c-2.4-0.1-4.8-0.4-7.3-0.8c-0.5-0.1-1,0.2-1,0.8c-0.1,0.5,0.3,1,0.8,1.1c2.5,0.4,4.9,0.6,7.4,0.8c0.5,0,0.9-0.4,1-0.8
	c0-0.2-0.1-0.5-0.2-0.6C27.9,128.6,27.7,128.5,27.4,128.5z M23.3,123.2c-2.4-0.4-4.8-0.9-7.2-1.5c-0.5-0.1-1,0.2-1.1,0.7
	c-0.1,0.5,0.2,1,0.7,1.1c2.4,0.6,4.8,1.1,7.3,1.4c0.5,0.1,0.9-0.3,1-0.8c0-0.2,0-0.5-0.1-0.7C23.7,123.3,23.5,123.2,23.3,123.2
	L23.3,123.2z M19.7,117.5c-2.3-0.6-4.7-1.3-7-2.2c-0.5-0.2-1,0.1-1.1,0.6c-0.1,0.5,0.1,1,0.6,1.2c2.4,0.8,4.7,1.5,7.1,2.1
	c0.5,0.1,1-0.2,1.1-0.7c0.1-0.2,0-0.5-0.1-0.7S19.9,117.5,19.7,117.5L19.7,117.5z M16.6,111.5c-2.3-0.8-4.5-1.7-6.8-2.8
	c-0.5-0.2-1,0-1.2,0.4c-0.2,0.5,0,1,0.5,1.2c2.3,1.1,4.6,2,6.8,2.8c0.5,0.2,1-0.1,1.1-0.5c0.1-0.2,0.1-0.5,0-0.7
	C17,111.7,16.8,111.6,16.6,111.5z M14.1,105.3c-2.2-1-4.3-2.2-6.5-3.4c-0.4-0.3-1-0.1-1.2,0.3c-0.2,0.4-0.1,1,0.3,1.3
	c2.2,1.3,4.4,2.4,6.6,3.4c0.4,0.2,1,0,1.2-0.4c0.1-0.2,0.1-0.5,0-0.7C14.5,105.6,14.3,105.4,14.1,105.3L14.1,105.3z M12.2,98.8
	c-2.1-1.2-4.1-2.6-6.1-4c-0.4-0.3-1-0.2-1.2,0.2c-0.3,0.4-0.2,1,0.2,1.3c2,1.5,4.1,2.8,6.2,4c0.4,0.2,1,0.1,1.2-0.3
	c0.1-0.2,0.2-0.4,0.1-0.7C12.6,99.1,12.4,98.9,12.2,98.8L12.2,98.8z M11,92.2c-1.9-1.4-3.9-2.9-5.7-4.6c-0.4-0.3-0.9-0.3-1.3,0.1
	c-0.3,0.4-0.3,1,0.1,1.3c1.9,1.7,3.8,3.2,5.8,4.6c0.4,0.3,1,0.2,1.2-0.2c0.1-0.2,0.2-0.4,0.2-0.6C11.3,92.6,11.1,92.4,11,92.2
	L11,92.2z M10.3,85.5c-1.8-1.6-3.6-3.3-5.3-5.1c-0.3-0.4-0.9-0.4-1.3,0s-0.4,1,0,1.3c1.7,1.8,3.5,3.5,5.4,5.1
	c0.4,0.3,0.9,0.3,1.3-0.1c0.2-0.2,0.2-0.4,0.2-0.6S10.5,85.7,10.3,85.5z M10.3,78.8c-1.7-1.7-3.2-3.6-4.8-5.6
	c-0.3-0.4-0.9-0.5-1.3-0.1S3.8,74,4.1,74.4c1.5,2,3.2,3.8,4.9,5.6c0.3,0.3,0.9,0.4,1.3,0c0.2-0.2,0.3-0.4,0.3-0.6S10.5,79,10.3,78.8
	L10.3,78.8z M10.9,72.1c-1.5-1.9-2.9-3.9-4.2-6c-0.3-0.4-0.8-0.6-1.2-0.3s-0.5,0.9-0.3,1.3c1.4,2.1,2.8,4.1,4.3,6
	c0.3,0.4,0.9,0.4,1.3,0.2c0.2-0.2,0.3-0.3,0.3-0.6S11.1,72.3,10.9,72.1L10.9,72.1z M12.1,65.5c-1.3-2-2.5-4.1-3.6-6.4
	c-0.2-0.5-0.8-0.6-1.2-0.4C6.8,59,6.7,59.6,6.9,60c1.1,2.2,2.4,4.4,3.7,6.4c0.3,0.4,0.8,0.5,1.2,0.3c0.2-0.1,0.3-0.3,0.4-0.5
	S12.3,65.7,12.1,65.5L12.1,65.5z M14,59c-1.1-2.1-2.1-4.4-3-6.7c-0.2-0.5-0.7-0.7-1.2-0.5c-0.5,0.2-0.7,0.8-0.5,1.2
	c0.9,2.3,2,4.6,3.1,6.7c0.2,0.4,0.8,0.6,1.2,0.4c0.2-0.1,0.4-0.3,0.4-0.5S14.1,59.2,14,59L14,59z M16.4,52.8
	c-0.9-2.2-1.7-4.5-2.4-6.9c-0.1-0.5-0.6-0.8-1.1-0.6c-0.5,0.2-0.8,0.7-0.6,1.2c0.7,2.4,1.5,4.7,2.5,7c0.2,0.5,0.7,0.7,1.2,0.5
	c0.2-0.1,0.4-0.2,0.5-0.5C16.5,53.2,16.5,53,16.4,52.8L16.4,52.8z M19.5,46.8c-0.7-2.3-1.3-4.7-1.7-7.1c-0.1-0.5-0.6-0.8-1.1-0.7
	c-0.5,0.1-0.8,0.6-0.7,1.1c0.5,2.5,1.1,4.9,1.8,7.2c0.1,0.5,0.6,0.7,1.1,0.6c0.2-0.1,0.4-0.2,0.5-0.4C19.5,47.2,19.6,47,19.5,46.8
	L19.5,46.8z M23.1,41.1c-0.5-2.4-0.8-4.8-1-7.2c0-0.5-0.5-0.9-1-0.8c-0.5,0.1-0.9,0.5-0.8,1c0.2,2.5,0.6,4.9,1.1,7.3
	c0.1,0.5,0.6,0.8,1,0.7c0.2,0,0.4-0.2,0.6-0.4C23.1,41.5,23.1,41.3,23.1,41.1z M27.1,35.7c-0.2-2.4-0.4-4.8-0.4-7.3
	c0-0.5-0.4-0.9-0.9-0.9s-0.9,0.5-0.9,1c0,2.5,0.2,5,0.4,7.4c0,0.5,0.5,0.8,1,0.8c0.2,0,0.5-0.1,0.6-0.3C27.1,36.2,27.2,36,27.1,35.7
	z M31.7,30.8c0-2.4,0.1-4.9,0.3-7.3c0-0.5-0.3-0.9-0.8-1c-0.5,0-1,0.4-1,0.9c-0.2,2.5-0.3,5-0.2,7.4c0,0.5,0.4,0.9,0.9,0.9
	c0.2,0,0.5-0.1,0.6-0.2C31.6,31.3,31.7,31.1,31.7,30.8z M36.7,26.3c0.2-2.4,0.5-4.8,1-7.3c0.1-0.5-0.2-1-0.7-1
	c-0.5-0.1-1,0.3-1.1,0.8c-0.4,2.5-0.8,4.9-0.9,7.3c0,0.5,0.3,0.9,0.8,1c0.2,0,0.5,0,0.6-0.2C36.6,26.8,36.7,26.6,36.7,26.3
	L36.7,26.3z M42.1,22.3c0.4-2.4,1-4.8,1.7-7.1c0.1-0.5-0.1-1-0.6-1.1c-0.5-0.1-1,0.2-1.2,0.7c-0.7,2.4-1.2,4.8-1.6,7.2
	c-0.1,0.5,0.2,1,0.7,1c0.2,0,0.5,0,0.7-0.1C42,22.7,42.1,22.5,42.1,22.3L42.1,22.3z M47.9,18.8c0.6-2.3,1.4-4.6,2.3-6.9
	c0.2-0.5,0-1-0.5-1.2s-1,0.1-1.2,0.6c-0.9,2.3-1.7,4.7-2.3,7c-0.1,0.5,0.2,1,0.6,1.1c0.2,0.1,0.5,0,0.7-0.1S47.8,19.1,47.9,18.8
	L47.9,18.8z M53.9,15.9c0.8-2.2,1.8-4.5,3-6.7c0.2-0.4,0-1-0.4-1.2s-1,0-1.3,0.4c-1.1,2.2-2.1,4.5-2.9,6.8c-0.2,0.5,0.1,1,0.5,1.2
	c0.2,0.1,0.5,0.1,0.7,0C53.7,16.3,53.9,16.2,53.9,15.9L53.9,15.9z M60.2,13.6c1.1-2.2,2.3-4.3,3.6-6.4c0.3-0.4,0.1-1-0.3-1.2
	s-1-0.1-1.3,0.3c-1.3,2.1-2.5,4.3-3.6,6.5c-0.2,0.4,0,1,0.4,1.2c0.2,0.1,0.5,0.1,0.7,0.1S60.1,13.8,60.2,13.6L60.2,13.6z M66.7,11.8
	c1.3-2,2.7-4.1,4.2-6c0.3-0.4,0.2-1-0.2-1.3c-0.4-0.3-1-0.2-1.3,0.2c-1.5,2-2.9,4-4.2,6.1c-0.2,0.4-0.1,1,0.3,1.2
	c0.2,0.1,0.4,0.2,0.7,0.1S66.6,12.1,66.7,11.8L66.7,11.8z M73.3,10.7c1.4-1.9,3-3.8,4.7-5.6c0.3-0.4,0.3-0.9-0.1-1.3
	c-0.4-0.3-1-0.3-1.3,0.1C75,5.8,73.4,7.7,72,9.6c-0.3,0.4-0.2,0.9,0.2,1.3c0.2,0.1,0.4,0.2,0.6,0.2S73.2,10.9,73.3,10.7L73.3,10.7z
	 M80.1,10.2c1.6-1.8,3.4-3.5,5.2-5.1c0.4-0.3,0.4-0.9,0.1-1.3c-0.3-0.4-0.9-0.4-1.3,0c-1.9,1.7-3.6,3.4-5.2,5.2
	c-0.3,0.4-0.3,0.9,0.1,1.3c0.2,0.2,0.4,0.2,0.6,0.2S79.9,10.4,80.1,10.2L80.1,10.2z M86.8,10.4c1.8-1.6,3.7-3.2,5.7-4.6
	c0.4-0.3,0.5-0.9,0.2-1.3c-0.3-0.4-0.9-0.5-1.3-0.2c-2,1.5-3.9,3.1-5.7,4.7c-0.4,0.3-0.4,0.9-0.1,1.3c0.2,0.2,0.4,0.3,0.6,0.3
	C86.4,10.6,86.6,10.5,86.8,10.4z M93.5,11.1c1.9-1.4,3.9-2.8,6.1-4.1c0.4-0.3,0.6-0.8,0.3-1.2S99,5.3,98.5,5.5
	c-2.1,1.3-4.2,2.7-6.1,4.2C92.1,10,92,10.6,92.3,11c0.1,0.2,0.3,0.3,0.6,0.4C93,11.3,93.3,11.3,93.5,11.1L93.5,11.1z M100.1,12.5
	c2.1-1.2,4.2-2.4,6.4-3.5c0.4-0.2,0.6-0.8,0.4-1.2c-0.2-0.4-0.8-0.6-1.3-0.4c-2.3,1.1-4.4,2.3-6.5,3.6c-0.4,0.3-0.5,0.8-0.3,1.2
	c0.1,0.2,0.3,0.4,0.5,0.4C99.6,12.7,99.8,12.7,100.1,12.5L100.1,12.5z M106.5,14.5c2.2-1.1,4.4-2,6.8-2.9c0.5-0.2,0.7-0.7,0.5-1.2
	s-0.8-0.7-1.2-0.5c-2.3,0.9-4.6,1.9-6.8,2.9c-0.4,0.2-0.6,0.8-0.4,1.2c0.1,0.2,0.3,0.4,0.5,0.4C106,14.7,106.3,14.7,106.5,14.5
	L106.5,14.5z M112.7,17.1c2.2-0.9,4.6-1.6,7-2.2c0.5-0.1,0.8-0.6,0.6-1.1c-0.2-0.5-0.7-0.8-1.2-0.6c-2.4,0.7-4.8,1.4-7,2.3
	c-0.5,0.2-0.7,0.7-0.5,1.2c0.1,0.2,0.2,0.4,0.4,0.5C112.2,17.2,112.4,17.2,112.7,17.1L112.7,17.1z M118.6,20.3
	c2.3-0.6,4.7-1.1,7.2-1.6c0.5-0.1,0.8-0.5,0.7-1c-0.1-0.5-0.6-0.8-1.1-0.8c-2.5,0.4-4.9,1-7.2,1.6c-0.5,0.1-0.8,0.6-0.6,1.1
	c0.1,0.2,0.2,0.4,0.4,0.5S118.4,20.4,118.6,20.3L118.6,20.3z M124.2,24c2.4-0.4,4.8-0.7,7.3-0.9c0.5,0,0.9-0.5,0.8-1
	c-0.1-0.5-0.5-0.9-1-0.9c-2.5,0.2-4.9,0.5-7.3,1c-0.5,0.1-0.8,0.6-0.7,1c0,0.2,0.2,0.4,0.3,0.6S124,24.1,124.2,24L124.2,24z
	 M129.4,28.2c2.4-0.2,4.8-0.3,7.3-0.2c0.5,0,0.9-0.4,0.9-0.9s-0.4-0.9-0.9-0.9c-2.5,0-5,0-7.4,0.3c-0.5,0-0.9,0.5-0.8,1
	c0,0.2,0.1,0.5,0.3,0.6C129,28.2,129.2,28.3,129.4,28.2L129.4,28.2z M134.3,32.9c2.4,0,4.9,0.2,7.3,0.5c0.5,0.1,0.9-0.3,1-0.8
	c0-0.5-0.4-1-0.9-1c-2.5-0.3-5-0.4-7.4-0.4c-0.5,0-0.9,0.4-0.9,0.9c0,0.2,0.1,0.5,0.2,0.6S134,32.9,134.3,32.9L134.3,32.9z
	 M138.6,38c2.4,0.2,4.8,0.6,7.2,1.2c0.5,0.1,1-0.2,1.1-0.7c0.1-0.5-0.2-1-0.8-1.1c-2.5-0.5-4.9-0.9-7.3-1.1c-0.5,0-0.9,0.3-1,0.8
	c0,0.2,0,0.5,0.2,0.6C138.2,37.9,138.4,38,138.6,38L138.6,38z M142.5,43.5c2.4,0.5,4.7,1.1,7.1,1.8c0.5,0.2,1-0.1,1.1-0.6
	c0.1-0.5-0.2-1-0.6-1.2c-2.4-0.7-4.8-1.3-7.2-1.8c-0.5-0.1-0.9,0.2-1.1,0.7c-0.1,0.2,0,0.5,0.1,0.7
	C142.1,43.3,142.3,43.5,142.5,43.5L142.5,43.5z M145.8,49.4c2.3,0.7,4.6,1.5,6.9,2.5c0.5,0.2,1,0,1.2-0.5s-0.1-1-0.5-1.2
	c-2.3-1-4.6-1.8-7-2.5c-0.5-0.1-1,0.1-1.1,0.6c-0.1,0.2-0.1,0.5,0.1,0.7C145.4,49.1,145.6,49.3,145.8,49.4L145.8,49.4z M148.6,55.5
	c2.2,0.9,4.4,2,6.6,3.1c0.4,0.2,1,0.1,1.2-0.4c0.2-0.5,0-1-0.4-1.3c-2.2-1.2-4.5-2.2-6.7-3.1c-0.5-0.2-1,0-1.2,0.5
	c-0.1,0.2-0.1,0.5,0,0.7C148.2,55.2,148.4,55.4,148.6,55.5L148.6,55.5z M150.8,61.8c2.1,1.1,4.2,2.4,6.3,3.7c0.4,0.3,1,0.2,1.2-0.3
	c0.3-0.4,0.1-1-0.3-1.3c-2.1-1.4-4.2-2.6-6.4-3.7c-0.4-0.2-1,0-1.2,0.4c-0.1,0.2-0.1,0.5-0.1,0.7C150.5,61.5,150.6,61.7,150.8,61.8
	L150.8,61.8z M152.4,68.4c2,1.3,4,2.8,5.9,4.3c0.4,0.3,1,0.3,1.3-0.2c0.3-0.4,0.2-1-0.2-1.3c-2-1.6-4-3-6-4.3
	c-0.4-0.3-1-0.1-1.2,0.3c-0.1,0.2-0.2,0.4-0.1,0.7C152.1,68,152.2,68.2,152.4,68.4L152.4,68.4z M153.4,75c1.9,1.5,3.7,3.1,5.5,4.8
	c0.4,0.3,0.9,0.3,1.3,0c0.3-0.4,0.3-1-0.1-1.3c-1.8-1.7-3.7-3.3-5.6-4.8c-0.4-0.3-0.9-0.2-1.3,0.1c-0.2,0.2-0.2,0.4-0.2,0.6
	C153.1,74.7,153.2,74.9,153.4,75L153.4,75z M153.7,81.7c1.7,1.7,3.4,3.4,5,5.3c0.3,0.4,0.9,0.4,1.3,0.1c0.4-0.3,0.4-0.9,0.1-1.3
	c-1.6-1.9-3.4-3.7-5.1-5.3c-0.4-0.3-0.9-0.3-1.3,0c-0.2,0.2-0.2,0.4-0.2,0.6S153.5,81.6,153.7,81.7L153.7,81.7z M153.4,88.5
	c1.6,1.8,3.1,3.7,4.5,5.8c0.3,0.4,0.9,0.5,1.2,0.2c0.4-0.3,0.5-0.9,0.2-1.3c-1.4-2-3-4-4.6-5.8c-0.3-0.4-0.9-0.4-1.3-0.1
	c-0.2,0.2-0.3,0.4-0.3,0.6C153.2,88,153.2,88.3,153.4,88.5L153.4,88.5z M152.5,95.1c1.4,1.9,2.7,4,3.9,6.2c0.2,0.4,0.8,0.6,1.2,0.3
	s0.6-0.8,0.3-1.3c-1.2-2.2-2.6-4.2-4-6.2c-0.3-0.4-0.9-0.5-1.2-0.2c-0.2,0.1-0.3,0.3-0.4,0.6C152.3,94.7,152.3,94.9,152.5,95.1
	L152.5,95.1z M150.9,101.7c1.2,2.1,2.3,4.2,3.3,6.5c0.2,0.5,0.7,0.7,1.2,0.4s0.7-0.8,0.4-1.3c-1-2.3-2.2-4.5-3.4-6.6
	c-0.2-0.4-0.8-0.6-1.2-0.3c-0.2,0.1-0.4,0.3-0.4,0.5C150.8,101.2,150.8,101.4,150.9,101.7z M148.8,108c1,2.2,1.9,4.5,2.7,6.8
	c0.2,0.5,0.7,0.7,1.1,0.6s0.7-0.7,0.6-1.2c-0.8-2.4-1.8-4.7-2.8-6.8c-0.2-0.4-0.7-0.6-1.2-0.4c-0.2,0.1-0.4,0.3-0.5,0.5
	C148.7,107.6,148.7,107.8,148.8,108L148.8,108z M146.1,114.2c0.8,2.3,1.5,4.6,2.1,7c0.1,0.5,0.6,0.8,1.1,0.7
	c0.5-0.1,0.8-0.7,0.7-1.2c-0.6-2.4-1.3-4.8-2.1-7.1c-0.2-0.5-0.7-0.7-1.1-0.6c-0.2,0.1-0.4,0.2-0.5,0.4
	C146,113.7,146,113.9,146.1,114.2z M142.7,120c0.6,2.3,1,4.7,1.4,7.2c0.1,0.5,0.5,0.8,1,0.8c0.5-0.1,0.9-0.6,0.8-1.1
	c-0.4-2.5-0.9-4.9-1.5-7.2c-0.1-0.5-0.6-0.8-1.1-0.7c-0.2,0.1-0.4,0.2-0.5,0.4C142.7,119.5,142.7,119.8,142.7,120z M138.9,125.5
	c0.4,2.4,0.6,4.8,0.7,7.3c0,0.5,0.4,0.9,0.9,0.8c0.5,0,0.9-0.5,0.9-1c-0.1-2.5-0.4-5-0.8-7.3c-0.1-0.5-0.5-0.8-1-0.8
	c-0.2,0-0.4,0.2-0.6,0.3S138.9,125.3,138.9,125.5L138.9,125.5z M134.6,130.7c0.1,2.4,0.1,4.9,0,7.3c0,0.5,0.4,0.9,0.9,0.9
	c0.5,0,0.9-0.4,1-0.9c0.1-2.5,0.1-5-0.1-7.4c0-0.5-0.5-0.9-0.9-0.9c-0.2,0-0.4,0.1-0.6,0.3C134.6,130.2,134.6,130.4,134.6,130.7
	L134.6,130.7z M129.8,135.4c-0.1,2.4-0.3,4.8-0.6,7.3c-0.1,0.5,0.3,0.9,0.8,1s1-0.3,1.1-0.8c0.3-2.5,0.5-4.9,0.6-7.4
	c0-0.5-0.4-0.9-0.9-0.9c-0.2,0-0.5,0.1-0.6,0.2S129.8,135.2,129.8,135.4L129.8,135.4z M124.6,139.6c-0.3,2.4-0.8,4.8-1.3,7.2
	c-0.1,0.5,0.2,1,0.7,1.1s1-0.2,1.1-0.7c0.6-2.4,1-4.9,1.3-7.3c0.1-0.5-0.3-0.9-0.8-1c-0.2,0-0.5,0-0.7,0.2S124.6,139.4,124.6,139.6
	L124.6,139.6z M119,143.4c-0.5,2.3-1.2,4.7-2,7.1c-0.2,0.5,0.1,1,0.6,1.1c0.5,0.1,1-0.1,1.2-0.6c0.8-2.4,1.4-4.8,1.9-7.1
	c0.1-0.5-0.2-1-0.7-1.1c-0.2-0.1-0.5,0-0.7,0.1C119.2,143,119,143.2,119,143.4L119,143.4z M113.1,146.6c-0.8,2.3-1.6,4.6-2.7,6.8
	c-0.2,0.5,0,1,0.5,1.2c0.5,0.2,1,0,1.2-0.5c1-2.3,1.9-4.6,2.6-6.9c0.2-0.5-0.1-1-0.6-1.1c-0.2-0.1-0.5-0.1-0.7,0
	C113.3,146.2,113.1,146.4,113.1,146.6L113.1,146.6z M106.9,149.2c-1,2.2-2.1,4.4-3.3,6.6c-0.2,0.4-0.1,1,0.4,1.2s1,0.1,1.3-0.4
	c1.2-2.2,2.3-4.4,3.2-6.6c0.2-0.4,0-1-0.5-1.2c-0.2-0.1-0.5-0.1-0.7,0C107.2,148.9,107,149,106.9,149.2L106.9,149.2z M100.5,151.3
	c-1.2,2.1-2.5,4.2-3.9,6.2c-0.3,0.4-0.2,1,0.2,1.2c0.4,0.3,1,0.2,1.3-0.3c1.4-2.1,2.7-4.2,3.9-6.3c0.2-0.4,0.1-1-0.3-1.2
	c-0.2-0.1-0.4-0.1-0.7-0.1C100.8,150.9,100.6,151.1,100.5,151.3L100.5,151.3z M93.9,152.7c-1.4,2-2.8,3.9-4.4,5.8
	c-0.3,0.4-0.3,0.9,0.1,1.3c0.4,0.3,1,0.2,1.3-0.1c1.6-1.9,3.1-3.9,4.4-5.9c0.3-0.4,0.2-1-0.2-1.2c-0.2-0.1-0.4-0.2-0.7-0.1
	C94.2,152.4,94,152.5,93.9,152.7L93.9,152.7z M87.2,153.5c-1.5,1.9-3.2,3.6-5,5.4c-0.4,0.4-0.4,0.9,0,1.3c0.4,0.4,1,0.3,1.3,0
	c1.8-1.8,3.4-3.6,5-5.5c0.3-0.4,0.2-0.9-0.1-1.3c-0.2-0.2-0.4-0.2-0.6-0.2C87.6,153.2,87.4,153.3,87.2,153.5L87.2,153.5z"/>
<linearGradient id="SVGID_00000004512519284267592390000017550963957919960477_" gradientUnits="userSpaceOnUse" x1="81.9549" y1="164.4" x2="81.9549" y2="7.5864" gradientTransform="matrix(1 0 0 -1 0 166)">
	<stop  offset="0" style="stop-color:#A26F14"/>
	<stop  offset="2.000000e-02" style="stop-color:#AE822C"/>
	<stop  offset="6.000000e-02" style="stop-color:#C6A85C"/>
	<stop  offset="0.1" style="stop-color:#DBC784"/>
	<stop  offset="0.15" style="stop-color:#EADFA3"/>
	<stop  offset="0.19" style="stop-color:#F5F1B9"/>
	<stop  offset="0.23" style="stop-color:#FCFBC6"/>
	<stop  offset="0.26" style="stop-color:#FFFFCB"/>
	<stop  offset="0.3" style="stop-color:#F5E6A2"/>
	<stop  offset="0.33" style="stop-color:#EDD382"/>
	<stop  offset="0.37" style="stop-color:#E8C56A"/>
	<stop  offset="0.4" style="stop-color:#E5BC5C"/>
	<stop  offset="0.42" style="stop-color:#E4BA58"/>
	<stop  offset="0.45" style="stop-color:#ECD07E"/>
	<stop  offset="0.49" style="stop-color:#F4E4A0"/>
	<stop  offset="0.52" style="stop-color:#FAF3B9"/>
	<stop  offset="0.55" style="stop-color:#FDFBC7"/>
	<stop  offset="0.57" style="stop-color:#FFFFCD"/>
	<stop  offset="0.73" style="stop-color:#E5BD5D"/>
	<stop  offset="0.9" style="stop-color:#FFFFCD"/>
	<stop  offset="1" style="stop-color:#A26F14"/>
</linearGradient>
<path style="fill:url(#SVGID_00000004512519284267592390000017550963957919960477_);" d="M80.1,153.4c0.2,0,0.4,0.1,0.6,0.3
	c0.3,0.4,0.3,0.9,0,1.3c-1.7,1.7-3.6,3.3-5.5,4.9c-0.4,0.3-1,0.3-1.3-0.1s-0.3-0.9,0.1-1.3c2-1.5,3.8-3.1,5.5-4.8
	C79.6,153.5,79.8,153.4,80.1,153.4L80.1,153.4z M72.8,153.1c-1.9,1.5-3.9,2.9-5.9,4.3c-0.4,0.3-0.5,0.8-0.2,1.2
	c0.3,0.4,0.9,0.5,1.3,0.2c2.1-1.4,4.1-2.8,6-4.4c0.4-0.3,0.4-0.9,0.1-1.3c-0.2-0.2-0.4-0.3-0.6-0.3S72.9,152.9,72.8,153.1
	L72.8,153.1z M66.1,151.9c-2,1.3-4.1,2.6-6.3,3.7c-0.5,0.2-0.6,0.8-0.4,1.2c0.2,0.4,0.8,0.6,1.3,0.4c2.2-1.2,4.3-2.4,6.4-3.8
	c0.4-0.3,0.5-0.8,0.3-1.2c-0.1-0.2-0.3-0.3-0.5-0.4C66.6,151.8,66.3,151.8,66.1,151.9L66.1,151.9z M59.7,150.1
	c-2.1,1.1-4.3,2.2-6.7,3.1c-0.5,0.2-0.7,0.7-0.5,1.2c0.2,0.5,0.8,0.7,1.2,0.5c2.3-1,4.5-2,6.7-3.2c0.4-0.2,0.6-0.8,0.4-1.2
	c-0.1-0.2-0.3-0.4-0.5-0.4C60.1,150,59.9,150,59.7,150.1z M53.4,147.8c-2.2,0.9-4.5,1.7-6.9,2.4c-0.5,0.1-0.8,0.6-0.6,1.1
	c0.2,0.5,0.7,0.8,1.2,0.6c2.4-0.7,4.7-1.6,7-2.5c0.5-0.2,0.7-0.7,0.5-1.2c-0.1-0.2-0.3-0.4-0.5-0.5S53.6,147.7,53.4,147.8
	L53.4,147.8z M47.4,144.8c-2.3,0.7-4.7,1.3-7.1,1.8c-0.5,0.1-0.8,0.6-0.7,1.1c0.1,0.5,0.6,0.8,1.1,0.7c2.5-0.5,4.8-1.1,7.2-1.9
	c0.5-0.1,0.7-0.6,0.6-1.1c-0.1-0.2-0.2-0.4-0.4-0.5S47.6,144.7,47.4,144.8z M41.6,141.2c-2.3,0.5-4.8,0.9-7.2,1.1
	c-0.5,0.1-0.9,0.5-0.8,1c0.1,0.5,0.5,0.9,1,0.8c2.5-0.3,4.9-0.7,7.3-1.2c0.5-0.1,0.8-0.6,0.7-1.1c0-0.2-0.2-0.4-0.4-0.6
	C42.1,141.2,41.9,141.2,41.6,141.2L41.6,141.2z M36.3,137.2c-2.4,0.3-4.8,0.4-7.3,0.4c-0.5,0-0.9,0.4-0.9,0.9s0.5,0.9,1,0.9
	c2.5,0,5-0.2,7.4-0.5c0.5-0.1,0.8-0.5,0.8-1c0-0.2-0.1-0.4-0.3-0.6C36.7,137.2,36.5,137.2,36.3,137.2L36.3,137.2z M31.3,132.7
	c-2.4,0.1-4.9,0-7.3-0.2c-0.5,0-0.9,0.3-1,0.8c0,0.5,0.4,1,0.9,1c2.5,0.2,5,0.2,7.4,0.2c0.5,0,0.9-0.4,0.9-0.9
	c0-0.2-0.1-0.5-0.2-0.6C31.7,132.8,31.5,132.7,31.3,132.7L31.3,132.7z M26.8,127.7c-2.4-0.2-4.8-0.5-7.3-0.9c-0.5-0.1-1,0.2-1,0.7
	c-0.1,0.5,0.3,1,0.8,1.1c2.5,0.4,4.9,0.7,7.3,0.9c0.5,0,0.9-0.3,1-0.8c0-0.2,0-0.5-0.2-0.6C27.2,127.8,27,127.7,26.8,127.7
	L26.8,127.7z M22.7,122.3c-2.4-0.4-4.8-0.9-7.1-1.6c-0.5-0.1-1,0.2-1.1,0.6c-0.1,0.5,0.2,1,0.7,1.1c2.4,0.7,4.8,1.2,7.2,1.6
	c0.5,0.1,1-0.3,1-0.7c0-0.2,0-0.5-0.1-0.7S23,122.4,22.7,122.3L22.7,122.3z M19.2,116.6c-2.3-0.6-4.6-1.4-7-2.3
	c-0.5-0.2-1,0.1-1.1,0.5c-0.2,0.5,0.1,1,0.6,1.2c2.4,0.9,4.7,1.6,7.1,2.2c0.5,0.1,1-0.2,1.1-0.6c0.1-0.2,0-0.5-0.1-0.7
	C19.6,116.8,19.4,116.7,19.2,116.6L19.2,116.6z M16.2,110.6c-2.2-0.8-4.5-1.8-6.7-2.9c-0.4-0.2-1,0-1.2,0.4c-0.2,0.5,0,1,0.5,1.2
	c2.3,1.1,4.5,2.1,6.8,2.9c0.5,0.2,1-0.1,1.1-0.5c0.1-0.2,0.1-0.5,0-0.7C16.6,110.8,16.4,110.7,16.2,110.6L16.2,110.6z M13.8,104.3
	c-2.2-1-4.3-2.2-6.4-3.5c-0.4-0.3-1-0.1-1.2,0.3c-0.2,0.4-0.1,1,0.3,1.3c2.1,1.3,4.3,2.5,6.5,3.5c0.4,0.2,1,0,1.2-0.4
	c0.1-0.2,0.1-0.4,0.1-0.7C14.2,104.6,14,104.4,13.8,104.3L13.8,104.3z M12,97.8c-2.1-1.2-4.1-2.6-6.1-4.1c-0.4-0.3-1-0.2-1.2,0.2
	c-0.3,0.4-0.2,1,0.2,1.3c2,1.5,4.1,2.9,6.2,4.1c0.4,0.2,1,0.1,1.2-0.3c0.1-0.2,0.2-0.4,0.1-0.7S12.2,97.9,12,97.8z M10.8,91.2
	c-1.9-1.4-3.8-3-5.7-4.7c-0.4-0.3-0.9-0.3-1.3,0.1c-0.3,0.4-0.3,1,0.1,1.3c1.9,1.7,3.8,3.2,5.7,4.7c0.4,0.3,1,0.2,1.3-0.2
	c0.1-0.2,0.2-0.4,0.2-0.6S11,91.3,10.8,91.2z M10.3,84.5c-1.8-1.6-3.5-3.3-5.2-5.2c-0.3-0.4-0.9-0.4-1.3,0s-0.4,1,0,1.3
	c1.7,1.8,3.5,3.6,5.3,5.2c0.4,0.3,0.9,0.3,1.3-0.1c0.2-0.2,0.2-0.4,0.2-0.6C10.6,84.9,10.5,84.6,10.3,84.5L10.3,84.5z M10.4,77.8
	c-1.6-1.8-3.2-3.6-4.7-5.6c-0.3-0.4-0.9-0.5-1.3-0.2c-0.4,0.3-0.5,0.9-0.2,1.3c1.5,2,3.1,3.9,4.8,5.6c0.3,0.4,0.9,0.4,1.3,0.1
	c0.2-0.2,0.3-0.4,0.3-0.6C10.6,78.2,10.5,77.9,10.4,77.8z M11.1,71.1c-1.5-1.9-2.8-3.9-4.1-6.1c-0.3-0.4-0.8-0.6-1.2-0.3
	C5.2,65,5.1,65.6,5.4,66c1.3,2.1,2.7,4.2,4.2,6.1c0.3,0.4,0.9,0.5,1.3,0.2c0.2-0.1,0.3-0.3,0.3-0.6S11.2,71.3,11.1,71.1L11.1,71.1z
	 M12.4,64.5c-1.3-2-2.5-4.2-3.6-6.4c-0.2-0.5-0.8-0.6-1.2-0.4S7,58.5,7.2,59c1.1,2.2,2.3,4.4,3.6,6.4c0.3,0.4,0.8,0.5,1.2,0.3
	c0.2-0.1,0.4-0.3,0.4-0.5C12.5,64.9,12.5,64.7,12.4,64.5L12.4,64.5z M14.3,58.1c-1.1-2.2-2.1-4.4-2.9-6.7c-0.2-0.5-0.7-0.7-1.2-0.5
	c-0.5,0.2-0.7,0.8-0.5,1.2c0.9,2.3,1.9,4.6,3,6.8c0.2,0.4,0.8,0.6,1.2,0.4c0.2-0.1,0.4-0.3,0.4-0.5C14.4,58.5,14.4,58.3,14.3,58.1
	L14.3,58.1z M16.9,51.8c-0.9-2.2-1.6-4.6-2.3-7c-0.1-0.5-0.6-0.8-1.1-0.6c-0.5,0.2-0.8,0.7-0.6,1.2c0.7,2.4,1.5,4.8,2.4,7
	c0.2,0.5,0.7,0.7,1.2,0.5c0.2-0.1,0.4-0.2,0.5-0.5S16.9,52.1,16.9,51.8z M20,45.9c-0.6-2.3-1.2-4.7-1.6-7.2c-0.1-0.5-0.5-0.8-1-0.7
	c-0.5,0.1-0.8,0.6-0.7,1.1c0.5,2.5,1,4.9,1.7,7.2c0.1,0.5,0.6,0.7,1.1,0.6c0.2-0.1,0.4-0.2,0.5-0.4C20,46.3,20,46.1,20,45.9z
	 M23.6,40.2c-0.4-2.4-0.8-4.8-1-7.3c0-0.5-0.5-0.9-1-0.8c-0.5,0.1-0.9,0.5-0.8,1c0.2,2.5,0.6,4.9,1,7.3c0.1,0.5,0.6,0.8,1,0.7
	c0.2,0,0.4-0.2,0.6-0.3S23.7,40.5,23.6,40.2L23.6,40.2z M27.8,35c-0.2-2.4-0.3-4.8-0.3-7.3c0-0.5-0.4-0.9-0.9-0.9s-0.9,0.4-0.9,1
	c0,2.5,0.1,5,0.3,7.4c0,0.5,0.5,0.8,1,0.8c0.2,0,0.5-0.1,0.6-0.3S27.8,35.2,27.8,35L27.8,35z M32.5,30.1c0-2.4,0.2-4.9,0.4-7.3
	c0-0.5-0.3-0.9-0.8-1c-0.5,0-1,0.4-1,0.9c-0.2,2.5-0.4,5-0.4,7.4c0,0.5,0.4,0.9,0.9,0.9c0.2,0,0.5-0.1,0.6-0.2S32.4,30.3,32.5,30.1
	L32.5,30.1z M37.5,25.7c0.2-2.4,0.6-4.8,1.1-7.2c0.1-0.5-0.2-1-0.7-1c-0.5-0.1-1,0.3-1.1,0.8c-0.5,2.5-0.8,4.9-1,7.3
	c0,0.5,0.3,0.9,0.8,1c0.2,0,0.5,0,0.6-0.2S37.5,25.9,37.5,25.7L37.5,25.7z M43,21.8c0.5-2.4,1-4.7,1.8-7.1c0.2-0.5-0.1-1-0.6-1.1
	c-0.5-0.1-1,0.2-1.2,0.7c-0.7,2.4-1.3,4.8-1.7,7.2c-0.1,0.5,0.2,1,0.7,1c0.2,0,0.5,0,0.7-0.1S42.9,22,43,21.8L43,21.8z M48.8,18.4
	c0.7-2.3,1.5-4.6,2.4-6.9c0.2-0.5,0-1-0.5-1.2s-1,0.1-1.2,0.6c-0.9,2.3-1.7,4.7-2.4,7c-0.1,0.5,0.1,1,0.6,1.1c0.2,0.1,0.5,0,0.7-0.1
	S48.7,18.6,48.8,18.4L48.8,18.4z M54.9,15.5c0.9-2.2,1.9-4.5,3.1-6.7c0.2-0.4,0.1-1-0.4-1.2c-0.5-0.2-1,0-1.3,0.4
	c-1.2,2.2-2.2,4.5-3,6.7c-0.2,0.5,0,1,0.5,1.2c0.2,0.1,0.5,0.1,0.7,0C54.6,15.9,54.8,15.7,54.9,15.5L54.9,15.5z M61.2,13.3
	c1.1-2.1,2.3-4.3,3.7-6.3c0.3-0.4,0.2-1-0.3-1.2c-0.4-0.3-1-0.1-1.3,0.3c-1.3,2.1-2.6,4.3-3.7,6.4c-0.2,0.4,0,1,0.4,1.2
	c0.2,0.1,0.5,0.1,0.7,0.1C60.9,13.6,61.1,13.5,61.2,13.3L61.2,13.3z M67.7,11.6c1.3-2,2.7-4,4.3-6c0.3-0.4,0.2-1-0.2-1.3
	s-1-0.2-1.3,0.2c-1.5,2-3,4-4.2,6c-0.3,0.4-0.1,1,0.3,1.2C66.7,12,67,12,67.2,12C67.4,12,67.6,11.8,67.7,11.6z M74.4,10.6
	c1.5-1.9,3.1-3.7,4.8-5.5c0.3-0.4,0.3-0.9-0.1-1.3c-0.4-0.3-1-0.3-1.3,0.1c-1.7,1.8-3.3,3.7-4.8,5.6c-0.3,0.4-0.2,0.9,0.2,1.3
	c0.2,0.1,0.4,0.2,0.6,0.2C74,10.9,74.2,10.8,74.4,10.6z M81.1,10.2c1.7-1.8,3.4-3.4,5.3-5.1c0.4-0.3,0.4-0.9,0.1-1.3
	s-0.9-0.4-1.3-0.1c-1.9,1.7-3.7,3.4-5.3,5.2c-0.3,0.4-0.3,0.9,0,1.3c0.2,0.2,0.4,0.2,0.6,0.2S80.9,10.4,81.1,10.2z M87.8,10.4
	c1.8-1.6,3.7-3.1,5.7-4.6C93.9,5.6,94,5,93.7,4.6s-0.9-0.5-1.3-0.2c-2,1.5-3.9,3-5.8,4.6c-0.4,0.3-0.4,0.9-0.1,1.3
	c0.2,0.2,0.4,0.3,0.6,0.3C87.4,10.7,87.6,10.6,87.8,10.4L87.8,10.4z M94.5,11.3c1.9-1.4,4-2.8,6.1-4c0.4-0.2,0.6-0.8,0.3-1.2
	c-0.3-0.4-0.9-0.6-1.3-0.3c-2.2,1.3-4.2,2.6-6.2,4.1c-0.4,0.3-0.5,0.9-0.2,1.2c0.1,0.2,0.3,0.3,0.6,0.4S94.3,11.5,94.5,11.3
	L94.5,11.3z M101,12.8c2.1-1.2,4.2-2.4,6.5-3.4c0.5-0.2,0.7-0.7,0.4-1.2c-0.2-0.4-0.8-0.7-1.3-0.4c-2.3,1.1-4.4,2.2-6.5,3.5
	c-0.4,0.2-0.6,0.8-0.3,1.2c0.1,0.2,0.3,0.4,0.5,0.4C100.6,12.9,100.8,12.9,101,12.8L101,12.8z M107.4,14.9c2.2-1,4.4-1.9,6.8-2.8
	c0.5-0.2,0.7-0.7,0.5-1.1c-0.2-0.5-0.7-0.7-1.2-0.6c-2.4,0.9-4.6,1.8-6.8,2.8c-0.4,0.2-0.6,0.8-0.4,1.2c0.1,0.2,0.3,0.4,0.5,0.5
	C107,15,107.2,15,107.4,14.9z M113.6,17.6c2.3-0.8,4.6-1.5,7-2.1c0.5-0.1,0.8-0.6,0.6-1.1c-0.1-0.5-0.7-0.8-1.2-0.7
	c-2.4,0.6-4.8,1.4-7.1,2.2c-0.5,0.2-0.7,0.7-0.5,1.1c0.1,0.2,0.2,0.4,0.4,0.5C113.1,17.6,113.3,17.7,113.6,17.6z M119.4,20.8
	c2.3-0.6,4.7-1.1,7.2-1.5c0.5-0.1,0.8-0.5,0.7-1c-0.1-0.5-0.6-0.9-1.1-0.8c-2.5,0.4-4.9,0.9-7.2,1.5c-0.5,0.1-0.8,0.6-0.7,1.1
	c0.1,0.2,0.2,0.4,0.4,0.5S119.2,20.9,119.4,20.8z M125,24.6c2.4-0.4,4.8-0.6,7.3-0.8c0.5,0,0.9-0.5,0.8-1c-0.1-0.5-0.5-0.9-1-0.9
	c-2.5,0.2-5,0.4-7.3,0.9c-0.5,0.1-0.8,0.5-0.8,1c0,0.2,0.2,0.4,0.3,0.6C124.5,24.6,124.8,24.6,125,24.6L125,24.6z M130.2,28.9
	c2.4-0.2,4.8-0.2,7.3-0.1c0.5,0,0.9-0.4,0.9-0.9c0-0.5-0.4-0.9-0.9-1c-2.5-0.1-5,0-7.4,0.2c-0.5,0-0.9,0.5-0.8,1
	c0,0.2,0.1,0.5,0.3,0.6S129.9,28.9,130.2,28.9L130.2,28.9z M134.9,33.6c2.4,0.1,4.8,0.3,7.3,0.6c0.5,0.1,0.9-0.3,1-0.8
	c0.1-0.5-0.3-1-0.8-1c-2.5-0.3-4.9-0.5-7.4-0.5c-0.5,0-0.9,0.4-0.9,0.9c0,0.2,0.1,0.5,0.2,0.6C134.5,33.5,134.7,33.6,134.9,33.6
	L134.9,33.6z M139.2,38.8c2.4,0.3,4.8,0.7,7.2,1.3c0.5,0.1,1-0.2,1.1-0.7c0.1-0.5-0.2-1-0.7-1.1c-2.4-0.5-4.9-0.9-7.3-1.2
	c-0.5,0-0.9,0.3-1,0.8c0,0.2,0,0.5,0.2,0.6S139,38.8,139.2,38.8L139.2,38.8z M143,44.4c2.4,0.5,4.7,1.2,7.1,1.9
	c0.5,0.2,1-0.1,1.1-0.6s-0.1-1-0.6-1.2c-2.4-0.8-4.8-1.4-7.1-1.9c-0.5-0.1-1,0.2-1.1,0.7c-0.1,0.2,0,0.5,0.1,0.7
	C142.6,44.2,142.8,44.3,143,44.4L143,44.4z M146.3,50.3c2.3,0.7,4.6,1.6,6.9,2.6c0.5,0.2,1,0,1.2-0.5c0.2-0.5-0.1-1-0.5-1.2
	c-2.3-1-4.6-1.8-6.9-2.5c-0.5-0.1-1,0.1-1.1,0.6c-0.1,0.2-0.1,0.5,0,0.7C145.9,50,146,50.2,146.3,50.3L146.3,50.3z M149,56.4
	c2.2,0.9,4.4,2,6.6,3.2c0.4,0.2,1,0.1,1.2-0.4c0.2-0.5,0.1-1-0.4-1.3c-2.2-1.2-4.4-2.3-6.7-3.2c-0.4-0.2-1,0-1.2,0.5
	c-0.1,0.2-0.1,0.5,0,0.7C148.6,56.1,148.8,56.3,149,56.4L149,56.4z M151.1,62.8c2.1,1.1,4.2,2.4,6.2,3.8c0.4,0.3,1,0.2,1.2-0.2
	s0.1-1-0.3-1.3c-2.1-1.4-4.2-2.7-6.3-3.8c-0.4-0.2-1-0.1-1.2,0.4c-0.1,0.2-0.1,0.5-0.1,0.7S150.8,62.7,151.1,62.8L151.1,62.8z
	 M152.6,69.3c2,1.3,3.9,2.8,5.9,4.4c0.4,0.3,0.9,0.3,1.3-0.1c0.3-0.4,0.2-1-0.1-1.3c-1.9-1.6-3.9-3.1-5.9-4.4
	c-0.4-0.3-1-0.2-1.2,0.2c-0.1,0.2-0.2,0.4-0.1,0.7S152.4,69.2,152.6,69.3z M153.4,76c1.9,1.5,3.7,3.2,5.4,4.9c0.4,0.4,0.9,0.4,1.3,0
	c0.3-0.4,0.3-1,0-1.3c-1.8-1.8-3.6-3.4-5.5-4.9c-0.4-0.3-0.9-0.2-1.3,0.1c-0.2,0.2-0.2,0.4-0.2,0.6C153.1,75.7,153.2,75.9,153.4,76z
	 M153.7,82.7c1.7,1.7,3.4,3.5,4.9,5.4c0.3,0.4,0.9,0.4,1.3,0.1c0.4-0.3,0.4-0.9,0.1-1.3c-1.6-1.9-3.3-3.7-5-5.4
	c-0.4-0.3-0.9-0.3-1.3,0c-0.2,0.2-0.3,0.4-0.3,0.6S153.5,82.6,153.7,82.7L153.7,82.7z M153.3,89.4c1.6,1.8,3,3.8,4.4,5.8
	c0.3,0.4,0.8,0.5,1.2,0.2c0.4-0.3,0.5-0.9,0.2-1.3c-1.4-2.1-2.9-4-4.5-5.9c-0.3-0.4-0.9-0.4-1.3-0.1c-0.2,0.2-0.3,0.4-0.3,0.6
	S153.1,89.3,153.3,89.4z M152.3,96.1c1.4,2,2.6,4.1,3.9,6.2c0.2,0.4,0.8,0.6,1.2,0.3c0.4-0.3,0.6-0.8,0.3-1.3
	c-1.2-2.2-2.5-4.3-3.9-6.3c-0.3-0.4-0.8-0.5-1.2-0.2c-0.2,0.1-0.3,0.3-0.4,0.6S152.1,95.9,152.3,96.1L152.3,96.1z M150.6,102.6
	c1.2,2.1,2.3,4.3,3.2,6.6c0.2,0.5,0.7,0.7,1.2,0.4s0.7-0.8,0.5-1.2c-1-2.3-2.1-4.5-3.3-6.6c-0.2-0.4-0.8-0.6-1.2-0.3
	c-0.2,0.1-0.4,0.3-0.4,0.5S150.5,102.4,150.6,102.6L150.6,102.6z M148.4,109c1,2.2,1.9,4.5,2.6,6.8c0.2,0.5,0.7,0.7,1.1,0.6
	c0.5-0.2,0.7-0.7,0.6-1.2c-0.8-2.4-1.7-4.7-2.7-6.9c-0.2-0.4-0.7-0.7-1.2-0.5c-0.2,0.1-0.4,0.3-0.5,0.5
	C148.3,108.5,148.3,108.7,148.4,109L148.4,109z M145.6,115.1c0.8,2.3,1.4,4.6,1.9,7.1c0.1,0.5,0.6,0.8,1.1,0.7
	c0.5-0.1,0.8-0.7,0.7-1.1c-0.6-2.4-1.2-4.8-2-7.1c-0.2-0.5-0.7-0.7-1.1-0.6c-0.2,0.1-0.4,0.2-0.5,0.4
	C145.5,114.6,145.5,114.8,145.6,115.1z M142.2,120.9c0.6,2.3,1,4.8,1.3,7.2c0.1,0.5,0.5,0.9,1,0.8c0.5-0.1,0.9-0.6,0.8-1.1
	c-0.3-2.5-0.8-4.9-1.4-7.3c-0.1-0.5-0.6-0.8-1.1-0.7c-0.2,0.1-0.4,0.2-0.6,0.4C142.1,120.4,142.1,120.6,142.2,120.9L142.2,120.9z
	 M138.3,126.3c0.3,2.4,0.5,4.8,0.6,7.3c0,0.5,0.4,0.9,0.9,0.9c0.5,0,0.9-0.5,0.9-1c-0.1-2.5-0.3-5-0.7-7.4c-0.1-0.5-0.5-0.8-1-0.8
	c-0.2,0-0.4,0.2-0.6,0.3S138.2,126.1,138.3,126.3L138.3,126.3z M133.8,131.4c0.1,2.4,0.1,4.9-0.1,7.3c0,0.5,0.4,0.9,0.9,0.9
	c0.5,0,0.9-0.4,1-0.9c0.1-2.5,0.1-5,0-7.4c0-0.5-0.4-0.9-0.9-0.9c-0.2,0-0.5,0.1-0.6,0.3S133.8,131.2,133.8,131.4L133.8,131.4z
	 M129,136c-0.1,2.4-0.4,4.8-0.8,7.3c-0.1,0.5,0.3,0.9,0.8,1c0.5,0.1,1-0.3,1.1-0.8c0.4-2.5,0.6-4.9,0.7-7.4c0-0.5-0.4-0.9-0.9-0.9
	c-0.2,0-0.5,0.1-0.6,0.2C129.1,135.6,129,135.8,129,136L129,136z M123.7,140.2c-0.3,2.4-0.8,4.8-1.4,7.2c-0.1,0.5,0.2,1,0.7,1.1
	s1-0.2,1.1-0.7c0.6-2.4,1.1-4.9,1.4-7.3c0.1-0.5-0.3-0.9-0.8-1c-0.2,0-0.5,0-0.7,0.1C123.9,139.8,123.7,140,123.7,140.2z
	 M118.1,143.9c-0.6,2.3-1.3,4.7-2.1,7c-0.2,0.5,0.1,1,0.6,1.1c0.5,0.1,1-0.1,1.2-0.6c0.8-2.4,1.5-4.7,2.1-7.1c0.1-0.5-0.2-1-0.7-1.1
	c-0.2-0.1-0.5,0-0.7,0.1S118.1,143.7,118.1,143.9L118.1,143.9z M112.1,147c-0.8,2.3-1.7,4.5-2.8,6.8c-0.2,0.5,0,1,0.4,1.2
	c0.5,0.2,1,0,1.2-0.5c1-2.3,1.9-4.6,2.7-6.9c0.2-0.5-0.1-1-0.6-1.1c-0.2-0.1-0.5-0.1-0.7,0C112.4,146.6,112.2,146.8,112.1,147
	L112.1,147z M105.9,149.5c-1,2.2-2.1,4.4-3.4,6.5c-0.2,0.4-0.1,1,0.3,1.2s1,0.1,1.3-0.4c1.2-2.2,2.4-4.4,3.3-6.6
	c0.2-0.4,0-1-0.4-1.2c-0.2-0.1-0.5-0.1-0.7,0C106.2,149.2,106,149.3,105.9,149.5L105.9,149.5z M99.5,151.5c-1.2,2.1-2.5,4.1-4,6.2
	c-0.3,0.4-0.2,1,0.2,1.2s1,0.2,1.3-0.2c1.4-2.1,2.8-4.1,3.9-6.2c0.2-0.4,0.1-1-0.3-1.2c-0.2-0.1-0.4-0.2-0.7-0.1
	C99.8,151.1,99.6,151.3,99.5,151.5L99.5,151.5z M92.9,152.8c-1.4,2-2.9,3.9-4.5,5.8c-0.3,0.4-0.3,0.9,0.1,1.3c0.4,0.3,1,0.3,1.3-0.1
	c1.6-1.9,3.1-3.9,4.5-5.9c0.3-0.4,0.2-1-0.2-1.2c-0.2-0.1-0.4-0.2-0.6-0.2C93.2,152.5,93,152.6,92.9,152.8L92.9,152.8z M86.2,153.5
	c-1.6,1.8-3.2,3.6-5.1,5.3c-0.4,0.4-0.4,0.9,0,1.3c0.4,0.4,1,0.4,1.3,0c1.8-1.7,3.5-3.6,5.1-5.4c0.3-0.4,0.3-0.9-0.1-1.3
	c-0.2-0.2-0.4-0.2-0.6-0.2C86.6,153.2,86.3,153.3,86.2,153.5L86.2,153.5z"/>
<linearGradient id="SVGID_00000063618956433216938780000010195554890861835663_" gradientUnits="userSpaceOnUse" x1="12.5306" y1="84.3298" x2="151.3693" y2="83.7298" gradientTransform="matrix(1 0 0 -1 1.015526e-02 166)">
	<stop  offset="0" style="stop-color:#BA8B01"/>
	<stop  offset="4.000000e-02" style="stop-color:#CCAA37"/>
	<stop  offset="0.1" style="stop-color:#E7D786"/>
	<stop  offset="0.14" style="stop-color:#F8F4B7"/>
	<stop  offset="0.16" style="stop-color:#FFFFCB"/>
	<stop  offset="0.17" style="stop-color:#FCF9C0"/>
	<stop  offset="0.21" style="stop-color:#F5E6A0"/>
	<stop  offset="0.26" style="stop-color:#F0D888"/>
	<stop  offset="0.3" style="stop-color:#EDD07A"/>
	<stop  offset="0.33" style="stop-color:#ECCE76"/>
	<stop  offset="0.48" style="stop-color:#A26F14"/>
	<stop  offset="0.49" style="stop-color:#A67318"/>
	<stop  offset="0.53" style="stop-color:#C19233"/>
	<stop  offset="0.57" style="stop-color:#D4A847"/>
	<stop  offset="0.61" style="stop-color:#E0B553"/>
	<stop  offset="0.65" style="stop-color:#E4BA58"/>
	<stop  offset="0.67" style="stop-color:#ECD07E"/>
	<stop  offset="0.7" style="stop-color:#F4E4A0"/>
	<stop  offset="0.72" style="stop-color:#FAF3B9"/>
	<stop  offset="0.74" style="stop-color:#FDFBC7"/>
	<stop  offset="0.76" style="stop-color:#FFFFCD"/>
	<stop  offset="0.85" style="stop-color:#E5BD5D"/>
	<stop  offset="1" style="stop-color:#A26F14"/>
</linearGradient>
<circle style="fill:url(#SVGID_00000063618956433216938780000010195554890861835663_);" cx="82" cy="82" r="69.4"/>
<linearGradient id="SVGID_00000071558352331636217420000017733565637489630115_" gradientUnits="userSpaceOnUse" x1="81.9648" y1="151.58" x2="81.9648" y2="15.89" gradientTransform="matrix(1 0 0 -1 4.616988e-03 166.0041)">
	<stop  offset="0" style="stop-color:#A26F14"/>
	<stop  offset="1.000000e-02" style="stop-color:#AE822C"/>
	<stop  offset="4.000000e-02" style="stop-color:#C6A85C"/>
	<stop  offset="7.000000e-02" style="stop-color:#DBC784"/>
	<stop  offset="0.1" style="stop-color:#EADFA3"/>
	<stop  offset="0.13" style="stop-color:#F5F1B9"/>
	<stop  offset="0.15" style="stop-color:#FCFBC6"/>
	<stop  offset="0.18" style="stop-color:#FFFFCB"/>
	<stop  offset="0.19" style="stop-color:#F3EBA9"/>
	<stop  offset="0.21" style="stop-color:#E2CE76"/>
	<stop  offset="0.24" style="stop-color:#D3B64C"/>
	<stop  offset="0.26" style="stop-color:#C8A32B"/>
	<stop  offset="0.28" style="stop-color:#C09513"/>
	<stop  offset="0.3" style="stop-color:#BB8D05"/>
	<stop  offset="0.32" style="stop-color:#BA8B01"/>
	<stop  offset="0.34" style="stop-color:#C39513"/>
	<stop  offset="0.39" style="stop-color:#DAAF44"/>
	<stop  offset="0.42" style="stop-color:#E4BA58"/>
	<stop  offset="0.45" style="stop-color:#ECD07E"/>
	<stop  offset="0.49" style="stop-color:#F4E4A0"/>
	<stop  offset="0.52" style="stop-color:#FAF3B9"/>
	<stop  offset="0.55" style="stop-color:#FDFBC7"/>
	<stop  offset="0.57" style="stop-color:#FFFFCD"/>
	<stop  offset="0.76" style="stop-color:#E5BD5D"/>
	<stop  offset="0.83" style="stop-color:#FFFFCD"/>
	<stop  offset="1" style="stop-color:#A26F14"/>
</linearGradient>
<circle style="fill:url(#SVGID_00000071558352331636217420000017733565637489630115_);" cx="82" cy="82" r="68.5"/>
<linearGradient id="SVGID_00000047023973494830834080000017202337060163485117_" gradientUnits="userSpaceOnUse" x1="130.7641" y1="131.17" x2="130.7641" y2="37.28" gradientTransform="matrix(1 0 0 -1 0 166)">
	<stop  offset="0" style="stop-color:#BA8B01"/>
	<stop  offset="4.000000e-02" style="stop-color:#CCAA37"/>
	<stop  offset="0.11" style="stop-color:#E7D786"/>
	<stop  offset="0.16" style="stop-color:#F8F4B7"/>
	<stop  offset="0.18" style="stop-color:#FFFFCB"/>
	<stop  offset="0.3" style="stop-color:#FFFFCB"/>
	<stop  offset="0.31" style="stop-color:#FCF9C0"/>
	<stop  offset="0.34" style="stop-color:#F5E6A0"/>
	<stop  offset="0.37" style="stop-color:#F0D888"/>
	<stop  offset="0.4" style="stop-color:#EDD07A"/>
	<stop  offset="0.43" style="stop-color:#ECCE76"/>
	<stop  offset="0.49" style="stop-color:#A26F14"/>
	<stop  offset="0.61" style="stop-color:#A26F14"/>
	<stop  offset="0.61" style="stop-color:#A67318"/>
	<stop  offset="0.62" style="stop-color:#C19233"/>
	<stop  offset="0.64" style="stop-color:#D4A847"/>
	<stop  offset="0.66" style="stop-color:#E0B553"/>
	<stop  offset="0.67" style="stop-color:#E4BA58"/>
	<stop  offset="0.67" style="stop-color:#D9A94D"/>
	<stop  offset="0.68" style="stop-color:#C38737"/>
	<stop  offset="0.68" style="stop-color:#B36E27"/>
	<stop  offset="0.68" style="stop-color:#A9601D"/>
	<stop  offset="0.69" style="stop-color:#A65B1A"/>
	<stop  offset="0.7" style="stop-color:#A96221"/>
	<stop  offset="0.71" style="stop-color:#B47537"/>
	<stop  offset="0.73" style="stop-color:#C6965A"/>
	<stop  offset="0.75" style="stop-color:#DEC28B"/>
	<stop  offset="0.77" style="stop-color:#FDFBC9"/>
	<stop  offset="0.77" style="stop-color:#FFFFCD"/>
	<stop  offset="0.8" style="stop-color:#FFFFCD"/>
	<stop  offset="0.85" style="stop-color:#E5BD5D"/>
	<stop  offset="0.89" style="stop-color:#BB913B"/>
	<stop  offset="0.91" style="stop-color:#BB913B"/>
	<stop  offset="0.91" style="stop-color:#BE9337"/>
	<stop  offset="0.93" style="stop-color:#C3972F"/>
	<stop  offset="0.95" style="stop-color:#C5992E"/>
	<stop  offset="1" style="stop-color:#7F470A"/>
</linearGradient>
<path style="fill:url(#SVGID_00000047023973494830834080000017202337060163485117_);" d="M125,37.9c-0.8-0.8-1.8-1.2-2.9-1.2
	s-2.2,0.5-3,1.3c-1.6,1.7-1.6,4.3,0.1,5.9C129.5,54,135.3,67.5,135.3,82s-5.7,27.9-16.1,38.1c-0.8,0.8-1.2,1.8-1.3,2.9
	s0.4,2.2,1.2,3c0.8,0.8,1.9,1.3,3,1.3s2.1-0.4,2.9-1.2c12-11.7,18.7-27.3,18.7-44.1S137,49.6,125,37.9z"/>
<linearGradient id="SVGID_00000072270529929485629610000009806923859029417918_" gradientUnits="userSpaceOnUse" x1="33.0959" y1="131.17" x2="33.0959" y2="37.28" gradientTransform="matrix(1 0 0 -1 0 166)">
	<stop  offset="0" style="stop-color:#BA8B01"/>
	<stop  offset="4.000000e-02" style="stop-color:#CCAA37"/>
	<stop  offset="0.11" style="stop-color:#E7D786"/>
	<stop  offset="0.16" style="stop-color:#F8F4B7"/>
	<stop  offset="0.18" style="stop-color:#FFFFCB"/>
	<stop  offset="0.3" style="stop-color:#FFFFCB"/>
	<stop  offset="0.31" style="stop-color:#FCF9C0"/>
	<stop  offset="0.34" style="stop-color:#F5E6A0"/>
	<stop  offset="0.37" style="stop-color:#F0D888"/>
	<stop  offset="0.4" style="stop-color:#EDD07A"/>
	<stop  offset="0.43" style="stop-color:#ECCE76"/>
	<stop  offset="0.49" style="stop-color:#A26F14"/>
	<stop  offset="0.61" style="stop-color:#A26F14"/>
	<stop  offset="0.61" style="stop-color:#A67318"/>
	<stop  offset="0.62" style="stop-color:#C19233"/>
	<stop  offset="0.64" style="stop-color:#D4A847"/>
	<stop  offset="0.66" style="stop-color:#E0B553"/>
	<stop  offset="0.67" style="stop-color:#E4BA58"/>
	<stop  offset="0.67" style="stop-color:#D9A94D"/>
	<stop  offset="0.68" style="stop-color:#C38737"/>
	<stop  offset="0.68" style="stop-color:#B36E27"/>
	<stop  offset="0.68" style="stop-color:#A9601D"/>
	<stop  offset="0.69" style="stop-color:#A65B1A"/>
	<stop  offset="0.7" style="stop-color:#A96221"/>
	<stop  offset="0.71" style="stop-color:#B47537"/>
	<stop  offset="0.73" style="stop-color:#C6965A"/>
	<stop  offset="0.75" style="stop-color:#DEC28B"/>
	<stop  offset="0.77" style="stop-color:#FDFBC9"/>
	<stop  offset="0.77" style="stop-color:#FFFFCD"/>
	<stop  offset="0.8" style="stop-color:#FFFFCD"/>
	<stop  offset="0.85" style="stop-color:#E5BD5D"/>
	<stop  offset="0.89" style="stop-color:#BB913B"/>
	<stop  offset="0.91" style="stop-color:#BB913B"/>
	<stop  offset="0.91" style="stop-color:#BE9337"/>
	<stop  offset="0.93" style="stop-color:#C3972F"/>
	<stop  offset="0.95" style="stop-color:#C5992E"/>
	<stop  offset="1" style="stop-color:#7F470A"/>
</linearGradient>
<path style="fill:url(#SVGID_00000072270529929485629610000009806923859029417918_);" d="M28.6,82c0-14.4,5.7-28,16.1-38
	c1.7-1.6,1.7-4.3,0.1-5.9c-0.8-0.8-1.9-1.3-3-1.3s-2.1,0.4-2.9,1.2C26.8,49.6,20.2,65.2,20.2,82s6.6,32.4,18.7,44.1
	c0.8,0.8,1.8,1.2,2.9,1.2s2.2-0.4,3-1.3c0.8-0.8,1.2-1.9,1.2-3s-0.5-2.2-1.3-2.9C34.3,109.9,28.6,96.4,28.6,82z"/>
<polygon class="st8" points="89.3,26.5 83.7,26.3 81.7,21 79.7,26.3 74.1,26.5 78.5,30 77,35.5 81.7,32.3 86.4,35.5 84.9,30 "/>
<polygon class="st8" points="64,30.4 60.8,30.3 59.7,27.3 58.7,30.3 55.5,30.4 58,32.4 57.1,35.4 59.7,33.6 62.4,35.4 61.5,32.4 "/>
<polygon class="st8" points="101.9,32.4 101,35.4 103.7,33.6 106.3,35.4 105.4,32.4 107.9,30.4 104.7,30.3 103.7,27.3 102.6,30.3 
	99.4,30.4 "/>
<polygon class="st8" points="74.6,137.4 80.3,137.6 82.2,142.9 84.2,137.6 89.9,137.4 85.4,133.9 86.9,128.4 82.2,131.6 77.5,128.4 
	79,133.9 "/>
<path class="st9" d="M122.1,126.3c-0.9,0-1.7-0.3-2.4-1c-1.3-1.3-1.2-3.4,0.1-4.7c10.6-10.3,16.4-24,16.4-38.7s-5.8-28.4-16.4-38.7
	c-1.3-1.3-1.3-3.3-0.1-4.7c1.3-1.3,3.3-1.3,4.7-0.1c11.9,11.5,18.4,26.9,18.4,43.4s-6.5,31.9-18.4,43.4
	C123.7,126,122.9,126.3,122.1,126.3L122.1,126.3z"/>
<path class="st9" d="M41.8,126.3c-0.8,0-1.7-0.3-2.3-0.9C27.7,113.9,21.1,98.4,21.1,82s6.5-31.9,18.4-43.4c1.3-1.3,3.4-1.2,4.7,0.1
	c1.3,1.3,1.2,3.4-0.1,4.7C33.5,53.5,27.7,67.3,27.7,82s5.8,28.4,16.4,38.7c1.3,1.3,1.3,3.3,0.1,4.7C43.5,126,42.7,126.3,41.8,126.3
	L41.8,126.3z"/>
<path class="st10" d="M128.1,42.8c0,0-12-4.2-46.2-4.2s-46.2,4.2-46.2,4.2c-9.3,10.9-14.3,24.6-14.3,39.1s5.1,28.1,14.3,39.1
	c0,0,12,4.2,46.2,4.2s46.2-4.2,46.2-4.2c9.3-10.9,14.3-24.6,14.3-39.1S137.4,53.7,128.1,42.8z"/>
<path class="st11" d="M35.8,42.8c-9.3,10.9-14.3,24.6-14.3,39.1s5.1,28.2,14.3,39.1c0,0,13.6,4,46.2,4s46.2-4,46.2-4
	c9.3-10.9,14.3-24.6,14.3-39.1s-5.1-28.1-14.3-39.1c0,0-13.6-4-46.2-4S35.8,42.7,35.8,42.8L35.8,42.8z"/>
<path class="st12" d="M35.8,42.8c-9.3,10.9-14.3,24.6-14.3,39.1s5.1,28.2,14.4,39.1c0,0,15.2,3.8,46.2,3.8s46.2-3.8,46.2-3.8
	c9.3-10.9,14.4-24.6,14.4-39.1s-5.1-28.1-14.3-39.1c0,0-15.2-3.8-46.2-3.8S35.8,42.7,35.8,42.8L35.8,42.8z"/>
<path class="st13" d="M35.8,42.8c-9.3,10.9-14.3,24.6-14.3,39.1s5.1,28.2,14.4,39.1c0,0,16.8,3.6,46.1,3.6s46.1-3.6,46.1-3.6
	c9.3-10.9,14.4-24.6,14.4-39.1s-5.1-28.1-14.3-39.1c0,0-16.9-3.6-46.2-3.6S35.8,42.7,35.8,42.8L35.8,42.8z"/>
<path class="st14" d="M35.8,42.8c-9.3,10.9-14.3,24.6-14.3,39.1s5.1,28.2,14.4,39.1c0,0,18.4,3.4,46.1,3.4s46.1-3.4,46.1-3.4
	c9.3-10.9,14.4-24.6,14.4-39.1s-5.1-28.1-14.3-39.1c0,0-18.5-3.4-46.2-3.4S35.8,42.7,35.8,42.8L35.8,42.8z"/>
<path class="st15" d="M35.8,42.8c-9.3,10.9-14.3,24.6-14.3,39.1S26.5,110,35.8,121c0,0,20.1,3.2,46.1,3.2s46.1-3.2,46.1-3.2
	c9.3-10.9,14.4-24.6,14.4-39.2s-5.1-28.1-14.3-39.1c0,0-20.1-3.2-46.2-3.2S35.8,42.7,35.8,42.8L35.8,42.8z"/>
<path class="st16" d="M35.8,42.8c-9.3,10.9-14.3,24.6-14.3,39.1S26.5,110,35.9,121c0,0,21.7,3,46.1,3s46.1-3,46.1-3
	c9.3-10.9,14.4-24.6,14.4-39.2s-5.1-28.1-14.3-39.1c0,0-21.8-3-46.2-3S35.8,42.7,35.8,42.8L35.8,42.8z"/>
<path class="st17" d="M35.8,42.8c-9.3,10.9-14.3,24.6-14.3,39.1s5.1,28.2,14.4,39.2c0,0,23.3,2.8,46.1,2.8S128,121,128,121
	c9.4-10.9,14.4-24.6,14.4-39.2s-5.1-28.1-14.3-39.1c0,0-23.4-2.8-46.2-2.8S35.8,42.7,35.8,42.8L35.8,42.8z"/>
<path class="st18" d="M34.7,42.8c-9.3,10.9-14.3,24.6-14.3,39.1s5.1,28.3,14.5,39.3c0,0,34.6,1.4,46,1.4s46-1.4,46-1.4
	c9.4-10.9,14.5-24.7,14.5-39.3s-5.1-28.1-14.3-39.1c0,0-34.8-1.4-46.2-1.4S34.7,42.7,34.7,42.8L34.7,42.8z"/>
<path class="st19" d="M35.8,42.8c-9.3,10.9-14.3,24.6-14.3,39.1s5.1,28.4,14.6,39.3c0,0,36.2,1.2,46,1.2s46-1.2,46-1.2
	c9.4-11,14.6-24.7,14.6-39.3s-5.1-28.1-14.3-39.1c0,0-36.4-1.2-46.2-1.2S35.8,42.7,35.8,42.8L35.8,42.8z"/>
<path class="st20" d="M35.8,42.8c-9.3,10.9-14.3,24.6-14.3,39.1s5.1,28.4,14.6,39.3c0,0,37.8,1,45.9,1s45.9-1,45.9-1
	c9.4-11,14.6-24.7,14.6-39.3s-5.1-28.1-14.3-39.1c0,0-38-1-46.2-1S35.8,42.7,35.8,42.8L35.8,42.8z"/>
<path class="st21" d="M35.8,42.8c-9.3,10.9-14.3,24.6-14.3,39.1s5.1,28.4,14.6,39.4c0,0,39.4,0.8,45.9,0.8s45.9-0.8,45.9-0.8
	c9.4-11,14.6-24.7,14.6-39.4s-5.1-28.1-14.3-39.1c0,0-39.7-0.8-46.2-0.8S35.8,42.7,35.8,42.8L35.8,42.8z"/>
<path class="st22" d="M35.8,42.8c-9.3,10.9-14.3,24.6-14.3,39.1s5.1,28.4,14.6,39.4c0,0,41,0.6,45.9,0.6s45.9-0.6,45.9-0.6
	c9.4-11,14.6-24.8,14.6-39.4s-5.1-28.1-14.3-39.1c0,0-41.3-0.6-46.2-0.6S35.8,42.7,35.8,42.8z"/>
<path class="st23" d="M35.8,42.8c-9.3,10.9-14.3,24.6-14.3,39.1s5.2,28.4,14.6,39.4c0,0,42.6,0.4,45.9,0.4s45.9-0.4,45.9-0.4
	c9.5-11,14.6-24.8,14.6-39.4s-5.1-28.1-14.3-39.1c0,0-42.9-0.4-46.2-0.4S35.8,42.7,35.8,42.8L35.8,42.8z"/>
<path class="st24" d="M35.8,42.8c-9.3,10.9-14.3,24.6-14.3,39.1s5.2,28.4,14.6,39.4c0,0,44.2,0.2,45.9,0.2s45.9-0.2,45.9-0.2
	c9.5-11,14.6-24.8,14.6-39.4s-5.1-28.1-14.3-39.1c0,0-44.6-0.2-46.2-0.2S35.8,42.7,35.8,42.8L35.8,42.8z"/>
<path class="st25" d="M128.1,42.8H35.8c-9.3,10.9-14.3,24.6-14.3,39.1s5.2,28.5,14.6,39.4h91.7c9.5-11,14.7-24.8,14.7-39.4
	S137.4,53.7,128.1,42.8L128.1,42.8z"/>
<path class="st8" d="M128.1,42.8H35.8c-9.3,10.9-14.3,24.6-14.3,39.1s5.2,28.5,14.6,39.4h91.7c9.5-11,14.7-24.8,14.7-39.4
	S137.4,53.7,128.1,42.8L128.1,42.8z"/>
<linearGradient id="SVGID_00000157275609780567627250000000994443884791500986_" gradientUnits="userSpaceOnUse" x1="33.83" y1="121.43" x2="130.09" y2="121.43" gradientTransform="matrix(1 0 0 -1 0 166)">
	<stop  offset="0" style="stop-color:#A26F14"/>
	<stop  offset="0" style="stop-color:#A67318"/>
	<stop  offset="5.000000e-02" style="stop-color:#C19233"/>
	<stop  offset="9.000000e-02" style="stop-color:#D4A847"/>
	<stop  offset="0.13" style="stop-color:#E0B553"/>
	<stop  offset="0.16" style="stop-color:#E4BA58"/>
	<stop  offset="0.24" style="stop-color:#ECCF7C"/>
	<stop  offset="0.32" style="stop-color:#F4E49E"/>
	<stop  offset="0.4" style="stop-color:#FAF3B7"/>
	<stop  offset="0.47" style="stop-color:#FDFBC5"/>
	<stop  offset="0.53" style="stop-color:#FFFFCB"/>
	<stop  offset="0.59" style="stop-color:#F6E9A7"/>
	<stop  offset="0.66" style="stop-color:#EFD687"/>
	<stop  offset="0.73" style="stop-color:#E9C86F"/>
	<stop  offset="0.79" style="stop-color:#E6BF61"/>
	<stop  offset="0.84" style="stop-color:#E5BD5D"/>
	<stop  offset="1" style="stop-color:#A26F14"/>
</linearGradient>
<path style="fill:url(#SVGID_00000157275609780567627250000000994443884791500986_);" d="M34.8,44c-0.3,0.4-0.6,0.8-1,1.2h96.3
	c-0.3-0.4-0.6-0.8-0.9-1.2H34.8z"/>
<linearGradient id="SVGID_00000001664955596022787590000009994362649739333563_" gradientUnits="userSpaceOnUse" x1="34.17" y1="46.52" x2="129.75" y2="46.52" gradientTransform="matrix(1 0 0 -1 0 166)">
	<stop  offset="0" style="stop-color:#A26F14"/>
	<stop  offset="0" style="stop-color:#A67318"/>
	<stop  offset="5.000000e-02" style="stop-color:#C19233"/>
	<stop  offset="9.000000e-02" style="stop-color:#D4A847"/>
	<stop  offset="0.13" style="stop-color:#E0B553"/>
	<stop  offset="0.16" style="stop-color:#E4BA58"/>
	<stop  offset="0.24" style="stop-color:#ECCF7C"/>
	<stop  offset="0.32" style="stop-color:#F4E49E"/>
	<stop  offset="0.4" style="stop-color:#FAF3B7"/>
	<stop  offset="0.47" style="stop-color:#FDFBC5"/>
	<stop  offset="0.53" style="stop-color:#FFFFCB"/>
	<stop  offset="0.59" style="stop-color:#F6E9A7"/>
	<stop  offset="0.66" style="stop-color:#EFD687"/>
	<stop  offset="0.73" style="stop-color:#E9C86F"/>
	<stop  offset="0.79" style="stop-color:#E6BF61"/>
	<stop  offset="0.84" style="stop-color:#E5BD5D"/>
	<stop  offset="1" style="stop-color:#A26F14"/>
</linearGradient>
<path style="fill:url(#SVGID_00000001664955596022787590000009994362649739333563_);" d="M35.1,120.1h93.6c0.3-0.4,0.6-0.8,1-1.2
	H34.2C34.5,119.3,34.8,119.7,35.1,120.1z"/>
<polygon class="st8" points="99.9,133.5 103.1,133.6 104.2,136.6 105.3,133.6 108.4,133.5 105.9,131.6 106.8,128.5 104.2,130.3 
	101.6,128.5 102.4,131.6 "/>
<polygon class="st8" points="56,133.5 59.2,133.6 60.3,136.6 61.4,133.6 64.5,133.5 62,131.6 62.9,128.5 60.3,130.3 57.7,128.5 
	58.5,131.6 "/>
<path id="Path_13749" class="st28" d="M95.7,72.7c0.2,0.3,0.6,0.6,0.9,0.7c0.4,0.2,0.8,0.3,1.3,0.3c0.8,0.1,1.6-0.3,2.2-0.9
	c0.6-0.8,0.8-1.7,0.8-2.7c0-0.5-0.1-1-0.2-1.5c-0.1-0.4-0.3-0.8-0.5-1.1c-0.2-0.3-0.6-0.6-0.9-0.7c-0.4-0.2-0.8-0.3-1.3-0.3
	c-0.8-0.1-1.6,0.3-2.2,0.9c-0.6,0.8-0.8,1.7-0.8,2.7c0,0.5,0.1,1,0.2,1.5C95.3,72,95.5,72.4,95.7,72.7 M96.8,68.3
	c0.2-0.4,0.7-0.6,1.1-0.6c0.2,0,0.5,0.1,0.7,0.2c0.2,0.1,0.4,0.3,0.5,0.5c0.1,0.2,0.2,0.5,0.3,0.8c0.1,0.3,0.1,0.6,0.1,0.9
	c0.1,0.6-0.1,1.3-0.4,1.8c-0.2,0.4-0.7,0.6-1.1,0.6c-0.2,0-0.5-0.1-0.7-0.2c-0.2-0.1-0.4-0.3-0.5-0.5c-0.1-0.2-0.2-0.5-0.3-0.8
	c-0.1-0.3-0.1-0.6-0.1-1C96.4,69.5,96.5,68.8,96.8,68.3"/>
<path id="Path_13750" class="st28" d="M90,73.6c0.2,0,0.4,0,0.5,0s0.3,0,0.4,0c0.6,0,1.1-0.1,1.7-0.3c0.4-0.2,0.8-0.5,1.1-0.8
	c0.3-0.3,0.5-0.7,0.6-1.2c0.1-0.4,0.2-0.9,0.2-1.4c0-0.5-0.1-0.9-0.2-1.4c-0.1-0.4-0.3-0.8-0.6-1.1c-0.3-0.3-0.7-0.6-1.1-0.7
	c-0.5-0.2-1-0.3-1.6-0.3h-0.5c-0.2,0-0.3,0-0.5,0s-0.4,0-0.5,0s-0.3,0-0.5,0.1v6.9c0.1,0,0.2,0,0.4,0L90,73.6 M90.4,67.8
	c0.1,0,0.2,0,0.3,0c0.2,0,0.3,0,0.4,0c0.3,0,0.6,0.1,0.9,0.2c0.2,0.1,0.4,0.3,0.6,0.5c0.1,0.2,0.2,0.5,0.3,0.7S93,69.7,93,70
	c0,0.3,0,0.6-0.1,0.9c-0.1,0.3-0.2,0.5-0.3,0.8c-0.2,0.2-0.4,0.4-0.6,0.5c-0.3,0.1-0.6,0.2-0.9,0.2c0,0-0.1,0-0.2,0h-0.2l-0.2,0
	c-0.1,0-0.1,0-0.1,0L90.4,67.8L90.4,67.8z"/>
<path id="Path_13752" class="st28" d="M91.3,91.2c-0.2-0.3-0.6-0.6-0.9-0.7c-0.4-0.2-0.8-0.3-1.3-0.3c-0.8-0.1-1.6,0.3-2.2,0.9
	c-0.6,0.8-0.8,1.7-0.8,2.7c0,0.5,0.1,1,0.2,1.5c0.1,0.4,0.3,0.8,0.5,1.1c0.2,0.3,0.6,0.6,0.9,0.7c0.4,0.2,0.9,0.3,1.3,0.3
	c0.8,0.1,1.6-0.3,2.2-0.9c0.6-0.8,0.8-1.7,0.8-2.7c0-0.5-0.1-1-0.2-1.5C91.7,92,91.5,91.6,91.3,91.2 M90.2,95.7
	c-0.2,0.4-0.7,0.6-1.1,0.6c-0.2,0-0.5-0.1-0.7-0.2s-0.4-0.3-0.5-0.5c-0.1-0.2-0.2-0.5-0.3-0.8c-0.1-0.3-0.1-0.6-0.1-1
	c-0.1-0.6,0.1-1.3,0.4-1.8c0.4-0.6,1.2-0.8,1.8-0.4c0.2,0.1,0.4,0.3,0.5,0.5c0.1,0.2,0.2,0.5,0.3,0.8c0.1,0.3,0.1,0.6,0.1,0.9
	C90.7,94.5,90.5,95.1,90.2,95.7"/>
<path id="Path_13753" class="st28" d="M112.1,72.3h-2.8v-1.7h2.5v-1.2h-2.5v-1.6h2.8v-1.2H108v6.9h4.2V72.3L112.1,72.3z"/>
<path id="Path_13754" class="st28" d="M94.4,79.7v-1.2h-4.1v6.9h4.2v-1.2h-2.8v-1.7h2.5v-1.2h-2.5v-1.6L94.4,79.7L94.4,79.7z"/>
<path id="Path_13755" class="st28" d="M84,69.9l-0.2-1.1h0.1l0.5,1.1l2.6,3.7h1v-7h-1.3v3.6l0.2,1.1h-0.1l-0.5-1.1l-2.6-3.7h-1v7H84
	V69.9z"/>
<rect id="Rectangle_502" x="80.3" y="66.6" class="st28" width="1.4" height="6.9"/>
<path id="Path_13756" class="st28" d="M63.3,76.3c0,0.3,0.1,0.4,0.4,0.4c3.3,0,6.7,0,10,0c0.3,0,0.4-0.1,0.4-0.4c0-3.5,0-7,0-10.5
	c0-0.3-0.1-0.6-0.4-0.8c-2.7-2.1-5.3-4.2-7.9-6.2c-0.9-0.7-1.7-1.4-2.6-2c-0.1,0-0.1,0-0.2,0c-4,0-8,0-12,0c-0.2,0-0.4,0.1-0.5,0.2
	c-3.4,2.7-6.8,5.3-10.3,8c-0.2,0.2-0.4,0.4-0.4,0.8c0,10.8,0,21.5,0,32.3c0,0.3,0.1,0.6,0.4,0.8c3.5,2.7,7,5.3,10.4,8v0.1h12.6v-0.1
	c3.5-2.7,7-5.3,10.5-8c0.2-0.2,0.4-0.4,0.3-0.7c0-3.6,0-7.2,0-10.8c0-0.3-0.1-0.4-0.4-0.4c-3.3,0-6.7,0-10,0c-0.3,0-0.4,0.1-0.4,0.4
	c0,2.8,0,5.7,0,8.5c0,0.1,0,0.3,0,0.4H50.9c0-0.1,0-0.2,0-0.3V67.9c0-0.1,0-0.3,0-0.4h12.4c0,0.2,0.1,0.3,0,0.5
	C63.3,70.8,63.3,73.6,63.3,76.3"/>
<path id="Path_13757" class="st28" d="M80.8,84.7c0.3,0.3,0.6,0.5,1,0.6c0.4,0.1,0.8,0.2,1.2,0.2c0.3,0,0.7,0,1-0.1
	c0.3-0.1,0.6-0.2,0.8-0.3L84.5,84c-0.2,0.1-0.3,0.2-0.5,0.2c-0.2,0.1-0.5,0.1-0.8,0.1c-0.3,0-0.6-0.1-0.8-0.2
	c-0.2-0.1-0.4-0.3-0.6-0.5c-0.2-0.2-0.3-0.5-0.4-0.8c-0.1-0.3-0.1-0.7-0.1-1c-0.1-0.6,0.1-1.3,0.5-1.8c0.3-0.4,0.8-0.6,1.3-0.6
	c0.2,0,0.5,0,0.8,0.1c0.2,0,0.4,0.1,0.5,0.2l0.3-1.2c-0.2-0.1-0.4-0.2-0.7-0.2c-0.3-0.1-0.7-0.1-1-0.1c-0.4,0-0.8,0.1-1.1,0.2
	c-0.4,0.1-0.7,0.3-1,0.6c-0.3,0.3-0.6,0.7-0.7,1.1c-0.2,0.5-0.3,1.1-0.3,1.7c0,0.6,0.1,1.1,0.2,1.7C80.3,84,80.5,84.4,80.8,84.7"/>
<path id="Path_13758" class="st28" d="M84,93.2h-2.5v-2.8h-1.3v6.9h1.3v-2.9H84v2.9h1.3v-6.9H84V93.2z"/>
<path id="Path_13759" class="st28" d="M89.8,84.2h-3v-5.7h-1.4v6.9h4.4V84.2L89.8,84.2z"/>
<path id="Path_13760" class="st28" d="M96.5,94.7c0,0.4-0.1,0.8-0.3,1.1c-0.2,0.2-0.6,0.4-0.9,0.3c-0.2,0-0.4,0-0.6-0.1
	c-0.2,0-0.3-0.1-0.4-0.2c-0.1-0.1-0.2-0.3-0.2-0.5c-0.1-0.2-0.1-0.5-0.1-0.7v-4.4h-1.3V95c0,1.6,0.9,2.4,2.6,2.4
	c0.3,0,0.7-0.1,1-0.2c0.3-0.1,0.6-0.2,0.8-0.5c0.2-0.2,0.4-0.5,0.5-0.8c0.1-0.4,0.2-0.8,0.2-1.2v-4.5h-1.3L96.5,94.7L96.5,94.7z"/>
<path id="Path_13761" class="st28" d="M102.3,93.7c-0.2-0.2-0.5-0.3-0.8-0.4c-0.3-0.1-0.5-0.2-0.8-0.3c-0.2-0.1-0.4-0.2-0.6-0.4
	c-0.2-0.1-0.2-0.3-0.2-0.5c0-0.2,0.1-0.4,0.2-0.5c0.2-0.1,0.5-0.2,0.7-0.2c0.3,0,0.6,0,0.9,0.1c0.2,0.1,0.4,0.1,0.7,0.2l0.4-1.1
	c-0.3-0.2-0.6-0.2-0.9-0.3c-0.4-0.1-0.8-0.1-1.1-0.1c-0.3,0-0.6,0-0.9,0.1c-0.3,0.1-0.5,0.2-0.7,0.4c-0.2,0.2-0.4,0.4-0.5,0.6
	c-0.1,0.3-0.2,0.6-0.2,0.9c0,0.3,0.1,0.7,0.2,1c0.2,0.2,0.3,0.5,0.6,0.6c0.2,0.2,0.5,0.3,0.8,0.4c0.3,0.1,0.5,0.2,0.8,0.3
	c0.2,0.1,0.4,0.2,0.6,0.4c0.2,0.1,0.2,0.3,0.2,0.5c0,0.2-0.1,0.5-0.3,0.6c-0.3,0.2-0.6,0.2-0.9,0.2c-0.2,0-0.3,0-0.5,0
	c-0.2,0-0.3-0.1-0.5-0.1c-0.1,0-0.3-0.1-0.4-0.1c-0.1,0-0.2-0.1-0.3-0.1L98.5,97c0.3,0.1,0.6,0.2,0.8,0.3c0.4,0.1,0.9,0.1,1.3,0.1
	c0.3,0,0.7,0,1-0.1c0.3-0.1,0.6-0.2,0.8-0.4c0.2-0.2,0.4-0.4,0.5-0.7c0.1-0.3,0.2-0.6,0.2-0.9c0-0.3-0.1-0.6-0.2-0.9
	C102.7,94.1,102.5,93.9,102.3,93.7"/>
<path id="Path_13762" class="st28" d="M107,73.6v-7h-1.3v3.6l0.2,1.1h-0.1l-0.5-1.1l-2.6-3.7h-1v7h1.3v-3.6l-0.2-1.1h0.1l0.5,1.1
	l2.6,3.7H107z"/>
<path id="Path_13763" class="st28" d="M105.2,94.4h2.5v-1.2h-2.5v-1.6h2.8v-1.2h-4.1v6.9h4.2v-1.2h-2.8V94.4z"/>
<g>
	<path id="Path_13751" class="st28" d="M105.9,80.3c0-0.3-0.1-0.7-0.2-0.9c-0.1-0.2-0.3-0.4-0.6-0.6c-0.3-0.2-0.5-0.2-0.8-0.3
		c-0.3-0.1-0.6-0.1-0.9-0.1c-0.1,0-0.3,0-0.4,0s-0.3,0-0.5,0s-0.3,0-0.5,0.1s-0.3,0.1-0.5,0.1v6.8h1.3v-2.8l0.7,0.1l1.6,2.7h1.6
		l-1.6-2.6l-0.5-0.3c0.4-0.1,0.8-0.4,1.1-0.7C105.8,81.3,105.9,80.8,105.9,80.3 M104.2,81.4c-0.3,0.2-0.6,0.3-0.9,0.3h-0.6v-2
		c0.1,0,0.2,0,0.3,0c0.1,0,0.3,0,0.4,0c0.3,0,0.6,0.1,0.8,0.2c0.2,0.2,0.3,0.4,0.3,0.7C104.5,80.9,104.4,81.2,104.2,81.4"/>
	<rect id="Rectangle_501" x="107.2" y="78.5" class="st28" width="1.4" height="6.9"/>
	<path id="Path_13764" class="st28" d="M113.7,82.1l0.2,1.1h-0.1l-0.5-1.1l-2.6-3.7h-1v7h1.3v-3.6l-0.2-1.1h0.1l0.5,1.1l2.6,3.7h1
		v-7h-1.3L113.7,82.1L113.7,82.1z"/>
	<path id="Path_13765" class="st28" d="M118.4,82.6l1.5,0.2v1.3c-0.1,0.1-0.3,0.2-0.4,0.2c-0.2,0-0.3,0.1-0.5,0.1
		c-0.2,0-0.5-0.1-0.7-0.1c-0.2-0.1-0.4-0.2-0.6-0.4c-0.2-0.2-0.3-0.5-0.4-0.7c-0.1-0.3-0.2-0.7-0.1-1.1c0-0.4,0-0.8,0.1-1.1
		c0.1-0.3,0.2-0.5,0.4-0.8c0.2-0.2,0.4-0.3,0.6-0.4c0.2-0.1,0.5-0.1,0.8-0.1s0.5,0,0.8,0.1c0.2,0,0.4,0.1,0.6,0.2l0.3-1.1
		c-0.2-0.1-0.5-0.1-0.7-0.2c-0.3-0.1-0.7-0.1-1-0.1c-0.4,0-0.8,0.1-1.2,0.2c-0.4,0.1-0.7,0.3-1,0.6c-0.3,0.3-0.6,0.7-0.7,1.1
		c-0.2,0.5-0.3,1.1-0.3,1.7c0,0.6,0.1,1.1,0.2,1.6c0.1,0.4,0.4,0.8,0.7,1.1c0.3,0.3,0.6,0.5,1,0.7c0.4,0.1,0.8,0.2,1.2,0.2
		c0.4,0,0.8-0.1,1.1-0.2c0.4-0.1,0.7-0.3,1-0.5v-3.1h-2.6L118.4,82.6L118.4,82.6z"/>
</g>
<path id="Path_13766" class="st28" d="M116.4,70c-0.2-0.2-0.5-0.3-0.8-0.4c-0.3-0.1-0.5-0.2-0.8-0.3c-0.2-0.1-0.4-0.2-0.6-0.4
	c-0.2-0.1-0.2-0.3-0.2-0.5c0-0.2,0.1-0.4,0.2-0.5c0.2-0.1,0.5-0.2,0.7-0.2c0.3,0,0.6,0,0.9,0.1c0.2,0.1,0.4,0.1,0.7,0.2l0.4-1.1
	c-0.3-0.2-0.6-0.2-0.9-0.3c-0.4-0.1-0.8-0.1-1.1-0.1c-0.3,0-0.6,0-0.9,0.1c-0.3,0.1-0.5,0.2-0.7,0.4c-0.2,0.2-0.4,0.4-0.5,0.6
	c-0.1,0.3-0.2,0.6-0.2,0.9c0,0.3,0.1,0.7,0.2,1c0.2,0.2,0.3,0.5,0.6,0.6c0.2,0.2,0.5,0.3,0.8,0.4c0.3,0.1,0.5,0.2,0.8,0.3
	c0.2,0.1,0.4,0.2,0.6,0.4c0.2,0.1,0.2,0.3,0.2,0.5c0,0.2-0.1,0.5-0.3,0.6c-0.3,0.2-0.6,0.2-0.9,0.2c-0.2,0-0.3,0-0.5,0
	c-0.2,0-0.3-0.1-0.5-0.1c-0.1,0-0.3-0.1-0.4-0.1c-0.1,0-0.2-0.1-0.3-0.1l-0.4,1.2c0.3,0.1,0.6,0.2,0.8,0.3c0.4,0.1,0.9,0.1,1.3,0.1
	c0.3,0,0.7,0,1-0.1c0.3-0.1,0.6-0.2,0.8-0.4c0.2-0.2,0.4-0.4,0.5-0.7c0.1-0.3,0.2-0.6,0.2-0.9c0-0.3-0.1-0.6-0.2-0.9
	C116.9,70.4,116.7,70.2,116.4,70"/>
<rect id="Rectangle_503" x="118.1" y="66.6" class="st28" width="1.4" height="6.9"/>
<path id="Path_13767" class="st28" d="M123.5,66.6h-1l-2.5,7h1.3l0.5-1.5h2.1l0.6,1.5h1.4L123.5,66.6L123.5,66.6z M122.2,70.9
	l0.5-1.5l0.2-1.1h0.1l0.2,1.1l0.5,1.5H122.2z"/>
<path id="Path_13767_00000165226375253221185790000004911465038906472614_" class="st28" d="M98.5,78.4h-1l-2.5,7h1.4l0.5-1.5H99
	l0.6,1.5h1.4L98.5,78.4L98.5,78.4z M97.2,82.8l0.5-1.5l0.2-1.1H98l0.2,1.1l0.5,1.5H97.2z"/>
</svg>
