<svg xmlns="http://www.w3.org/2000/svg" xmlns:xlink="http://www.w3.org/1999/xlink" width="90" height="90" viewBox="0 0 90 90">
  <defs>
    <clipPath id="clip-path">
      <rect id="Rectangle_1651" data-name="Rectangle 1651" width="46.443" height="47.973" fill="#fff"/>
    </clipPath>
  </defs>
  <g id="Group_10006" data-name="Group 10006" transform="translate(-505 -272)">
    <rect id="Rectangle_2022" data-name="Rectangle 2022" width="90" height="90" rx="4" transform="translate(505 272)" fill="#131313"/>
    <g id="Group_9908" data-name="Group 9908" transform="translate(526.778 295)">
      <g id="Group_8586" data-name="Group 8586" clip-path="url(#clip-path)">
        <path id="Path_13872" data-name="Path 13872" d="M45.587,0H.859A.859.859,0,0,0,0,.86V30.521a.859.859,0,0,0,.859.858H17.316L10.883,46.784a.858.858,0,1,0,1.584.662l6.709-16.067h3.189V44.444a.859.859,0,1,0,1.717,0V31.378h3.187l6.709,16.067a.858.858,0,0,0,1.584-.662L29.128,31.378H45.585a.859.859,0,0,0,.858-.858V.859A.857.857,0,0,0,45.586,0Zm-.858,29.661H1.718V1.717H44.729Z" fill="#fff"/>
        <path id="Path_13873" data-name="Path 13873" d="M132.349,52.681h1.477v2.838a.859.859,0,1,0,1.717,0V52.681h1.479a.859.859,0,0,0,.858-.859V42.19a.859.859,0,0,0-.858-.858h-1.479V38.494a.859.859,0,1,0-1.717,0v2.838h-1.477a.859.859,0,0,0-.859.858v9.632a.859.859,0,0,0,.859.859m.858-9.632h2.956v7.915h-2.956Z" transform="translate(-116.555 -33.36)" fill="#fff"/>
        <path id="Path_13874" data-name="Path 13874" d="M42.638,98.69h1.477v2.838a.859.859,0,0,0,1.717,0V98.69h1.479a.859.859,0,0,0,.858-.859V91.3a.859.859,0,0,0-.858-.858H45.833V87.6a.859.859,0,0,0-1.717,0v2.838H42.638a.859.859,0,0,0-.858.858v6.533A.859.859,0,0,0,42.638,98.69Zm.859-6.532h2.956v4.816H43.5Z" transform="translate(-37.035 -76.891)" fill="#fff"/>
        <path id="Path_13875" data-name="Path 13875" d="M222.048,93.18h1.477v2.993a.859.859,0,0,0,1.717,0V93.18h1.477a.859.859,0,0,0,.858-.859V85.359a.859.859,0,0,0-.858-.858h-1.477V80.9a.859.859,0,1,0-1.717,0v3.6h-1.477a.859.859,0,0,0-.858.858v6.962A.859.859,0,0,0,222.048,93.18Zm.859-6.962h2.955v5.245h-2.955Z" transform="translate(-196.067 -70.951)" fill="#fff"/>
        <path id="Path_13876" data-name="Path 13876" d="M311.729,122.817h1.48v3.231a.859.859,0,1,0,1.717,0v-3.231H316.4a.859.859,0,0,0,.858-.859v-4.264a.859.859,0,0,0-.858-.858h-1.477v-3.39a.859.859,0,1,0-1.717,0v3.39h-1.48a.859.859,0,0,0-.859.858v4.264a.859.859,0,0,0,.859.859m.858-4.264h2.957V121.1h-2.957Z" transform="translate(-275.561 -99.799)" fill="#fff"/>
      </g>
    </g>
  </g>
</svg>
