<svg xmlns="http://www.w3.org/2000/svg" width="90" height="90" viewBox="0 0 90 90">
  <g id="Group_10007" data-name="Group 10007" transform="translate(-390 -272)">
    <rect id="Rectangle_1655" data-name="Rectangle 1655" width="90" height="90" rx="4" transform="translate(390 272)" fill="#131313"/>
    <g id="Group_9933" data-name="Group 9933" transform="translate(419.738 291.607)">
      <g id="Group_9934" data-name="Group 9934" transform="translate(0 0)">
        <path id="Path_15255" data-name="Path 15255" d="M26.924,25.779A3.587,3.587,0,0,0,24.5,32.018L21,37.008a3.5,3.5,0,0,0-3.913.376l-3-3.073a3.6,3.6,0,1,0-5.535-.289L5.813,36.669A3.567,3.567,0,0,0,3.6,35.887a3.6,3.6,0,1,0,3.6,3.6,3.565,3.565,0,0,0-.824-2.264L9.092,34.6a3.547,3.547,0,0,0,4.408.239l3.029,3.106a3.561,3.561,0,0,0-.8,2.233,3.6,3.6,0,1,0,5.922-2.727l3.483-4.968a3.552,3.552,0,0,0,1.788.495,3.6,3.6,0,1,0,0-7.2M3.6,42.3a2.811,2.811,0,1,1,2.811-2.811A2.81,2.81,0,0,1,3.6,42.3m5.03-10.4A2.811,2.811,0,1,1,11.441,34.7,2.811,2.811,0,0,1,8.63,31.893m13.51,8.285a2.811,2.811,0,1,1-2.811-2.811,2.81,2.81,0,0,1,2.811,2.811m4.783-7.988a2.811,2.811,0,1,1,2.811-2.811,2.81,2.81,0,0,1-2.811,2.811" transform="translate(0 7.007)" fill="#fff" stroke="#fff" stroke-width="1"/>
        <path id="Path_15256" data-name="Path 15256" d="M2.9,32.275h.789v-5.37H6.448V17.13H3.686V11.86H2.9v5.27H.136v9.775H2.9ZM.925,17.919H5.658v8.2H.925Z" transform="translate(0.037 3.224)" fill="#fff" stroke="#fff" stroke-width="1"/>
        <path id="Path_15257" data-name="Path 15257" d="M9.1,30.691h.79V25.322h2.761V13.18H9.89V7.91H9.1v5.27H6.339V25.322H9.1ZM7.129,13.969h4.734V24.532H7.129Z" transform="translate(1.723 2.15)" fill="#fff" stroke="#fff" stroke-width="1"/>
        <path id="Path_15258" data-name="Path 15258" d="M21.508,27.515H22.3v-5.37h2.761V5.27H22.3V0h-.789V5.27H18.746V22.146h2.762ZM19.536,6.06h4.734v15.3H19.536Z" transform="translate(5.095 0)" fill="#fff" stroke="#fff" stroke-width="1"/>
        <path id="Path_15259" data-name="Path 15259" d="M15.3,36.524h.789v-5.37h2.762V8.755H16.093V3.485H15.3v5.27H12.543v22.4H15.3ZM13.332,9.545h4.734V30.366H13.332Z" transform="translate(3.409 0.947)" fill="#fff" stroke="#fff" stroke-width="1"/>
      </g>
    </g>
  </g>
</svg>
