<svg xmlns="http://www.w3.org/2000/svg" width="33" height="27.182" viewBox="0 0 33 27.182">
  <path id="list" d="M2.5,28.227a1.455,1.455,0,0,1,1.455-1.455H33.045a1.455,1.455,0,1,1,0,2.909H3.955A1.455,1.455,0,0,1,2.5,28.227Zm0-11.636a1.455,1.455,0,0,1,1.455-1.455H33.045a1.455,1.455,0,0,1,0,2.909H3.955A1.455,1.455,0,0,1,2.5,16.591Zm0-11.636A1.455,1.455,0,0,1,3.955,3.5H33.045a1.455,1.455,0,0,1,0,2.909H3.955A1.455,1.455,0,0,1,2.5,4.955Z" transform="translate(-2 -3)" fill="#2b3e47" stroke="#2b3e47" stroke-width="1"/>
</svg>
