<?xml version="1.0" encoding="utf-8"?>
<!-- Generator: Adobe Illustrator 27.1.1, SVG Export Plug-In . SVG Version: 6.00 Build 0)  -->
<svg version="1.1" id="Layer_1" xmlns="http://www.w3.org/2000/svg" xmlns:xlink="http://www.w3.org/1999/xlink" x="0px" y="0px"
	 viewBox="0 0 120 32" style="enable-background:new 0 0 120 32;" xml:space="preserve">
<style type="text/css">
	.st0{fill:#2B2C24;}
	.st1{fill:#74D3EE;}
</style>
<g>
	<g>
		<path class="st0" d="M32.4,21.9v1c0,0.2-0.1,0.3-0.3,0.4c-0.6,0.1-1.2,0.2-1.8,0.2c-2.8,0-3.8-1.1-3.8-2.8v-3.9
			c0-0.2-0.1-0.4-0.4-0.4h-1.4c-0.2,0-0.4-0.1-0.4-0.4V15c0-0.2,0.1-0.4,0.4-0.4h1.4c0.2,0,0.4-0.1,0.4-0.4v-1.9
			c0-0.2,0.1-0.4,0.4-0.4h1.4c0.2,0,0.4,0.1,0.4,0.4v1.9c0,0.2,0.1,0.4,0.4,0.4h2.9c0.2,0,0.4,0.1,0.4,0.4v1.1
			c0,0.2-0.1,0.4-0.4,0.4h-4.6c-0.1,0-0.1,0-0.1,0.1s0.1,0.1,0.1,0.1c0.7,0.2,1.3,0.9,1.3,2.1v1.5c0,0.9,0.4,1.5,2,1.5
			c0.4,0,0.9-0.1,1.4-0.1C32.3,21.6,32.4,21.7,32.4,21.9z M41.5,15v1.2c0,0.2-0.2,0.4-0.4,0.3c-0.6-0.1-0.9-0.1-1.4-0.1
			c-2.3,0-3.2,2.5-3.2,4.8v1.9c0,0.2-0.1,0.4-0.4,0.4h-1.4c-0.2,0-0.4-0.1-0.4-0.4V15c0-0.2,0.1-0.4,0.4-0.4h1.4
			c0.2,0,0.4,0.1,0.4,0.4v2.4c0,0.1,0,0.1,0.1,0.1c0.1,0,0.1,0,0.1-0.1c0.5-2.1,1.5-2.9,3.2-2.9c0.4,0,0.8,0,1.3,0.1
			C41.4,14.7,41.5,14.8,41.5,15z M45.8,12.4c0,0.7-0.6,1.3-1.3,1.3c-0.7,0-1.3-0.6-1.3-1.3s0.6-1.3,1.3-1.3
			C45.2,11.1,45.8,11.7,45.8,12.4z M45.5,16.8v6.3c0,0.2-0.1,0.4-0.4,0.4h-1.4c-0.2,0-0.4-0.1-0.4-0.4V15c0-0.2,0.1-0.4,0.4-0.4
			C44.8,14.7,45.5,15.6,45.5,16.8z M56.2,14.7c0.3,0,0.4,0.2,0.3,0.4l-3.4,8.1c-0.1,0.2-0.2,0.3-0.4,0.3h-1.9
			c-0.2,0-0.3-0.1-0.4-0.3L47,15.1c-0.1-0.2,0-0.4,0.2-0.4h1.6c0.2,0,0.4,0.1,0.4,0.3l1.7,4.3c0.4,1,0.3,2-0.1,3.1
			c-0.1,0.2,0.1,0.3,0.2,0.1l3.2-7.5c0.1-0.2,0.2-0.3,0.4-0.3H56.2z M66.7,18.7v0.7c0,0.2-0.1,0.4-0.4,0.4H62
			c-1.1,0-1.9-0.7-1.9-1.2c0-0.2,0.1-0.4,0.4-0.4h4.2c-0.1-1.3-1.2-2-2.7-2c-1.9,0-2.7,1.1-2.7,2.9c0,1.6,0.8,2.8,2.7,2.8
			c1.2,0,1.9-0.4,2.3-0.9c0.1-0.2,0.2-0.2,0.4-0.2H66c0.3,0,0.4,0.2,0.3,0.5c-0.8,1.8-2.5,2.3-4.4,2.3c-2.7,0-4.8-1.8-4.8-4.5
			c0-2.7,2.1-4.5,4.8-4.5C64.7,14.5,66.7,16.1,66.7,18.7z"/>
		
			<image style="overflow:visible;" width="724" height="621" xlink:href="8462F128.png"  transform="matrix(2.929996e-02 0 0 2.929996e-02 0 6.9184)">
		</image>
	</g>
	<g>
		<g>
			<path class="st1" d="M69.8,11.6h2v2h-2V11.6z M69.8,14.6h2v8.8h-2V14.6z"/>
			<path class="st1" d="M73.9,14.6h2l-0.1,2.3h0c0.5-1.6,1.6-2.5,3.7-2.5c2.2,0,3.6,1.3,3.6,3.4v5.5h-2v-5c0-1.4-0.8-2.2-2.4-2.2
				c-1.7,0-2.8,1-2.8,3v4.2h-2V14.6z"/>
			<path class="st1" d="M83.9,14.6h2.3l2.8,6.9h0l2.8-6.9h2.1L90,23.4h-2.4L83.9,14.6z"/>
			<path class="st1" d="M102.9,19.4h-6.6c0.1,1.7,1,2.6,2.5,2.6c1.3,0,2.1-0.6,2.2-1.6h1.8c-0.1,2-1.7,3.1-4.1,3.1
				c-2.8,0-4.5-1.7-4.5-4.5c0-2.8,1.7-4.6,4.5-4.6c2.5,0,4.1,1.5,4.1,4.2V19.4z M101.2,18c0-1.3-0.8-2-2.3-2c-1.4,0-2.2,0.7-2.5,2.2
				h4.7V18z"/>
			<path class="st1" d="M104.4,20.4h1.8c0,1,0.6,1.6,2.3,1.6c1.6,0,2.3-0.5,2.3-1.3c0-0.3-0.1-0.6-0.6-0.8c-0.4-0.2-1.3-0.2-2.2-0.3
				c-1.4-0.1-2.3-0.3-2.8-0.7c-0.5-0.4-0.8-1-0.8-1.7c0-1.8,1.7-2.8,4.1-2.8c2.7,0,3.9,1.1,3.9,3.1h-1.8c0-1.1-0.6-1.7-2.1-1.7
				c-1.4,0-2.2,0.5-2.2,1.2c0,0.4,0.1,0.7,0.6,0.9c0.4,0.1,1.3,0.2,2.3,0.3c1.2,0.1,2,0.2,2.6,0.6c0.6,0.3,0.9,1,0.9,1.7
				c0,1.8-1.5,2.8-4.3,2.8C105.5,23.5,104.4,22.2,104.4,20.4z"/>
			<path class="st1" d="M115,20.2v-4h-1.4v-1.6h1.1c0.3,0,0.5-0.2,0.5-0.7l0.1-1.3h1.7v2h3v1.6h-3v3.9c0,1.1,0.4,1.7,1.6,1.7
				c0.5,0,1.1-0.1,1.3-0.2v1.6c-0.3,0.1-0.9,0.2-1.6,0.2C115.9,23.5,115,22.2,115,20.2z"/>
		</g>
	</g>
</g>
</svg>
