<svg xmlns="http://www.w3.org/2000/svg" xmlns:xlink="http://www.w3.org/1999/xlink" width="100" height="100" viewBox="0 0 100 100">
  <defs>
    <clipPath id="clip-path">
      <rect id="Rectangle_2367" data-name="Rectangle 2367" width="71.449" height="64.387" fill="none"/>
    </clipPath>
  </defs>
  <g id="Group_10461" data-name="Group 10461" transform="translate(-819 -715)">
    <g id="Group_10458" data-name="Group 10458" transform="translate(833 733)">
      <g id="Group_10457" data-name="Group 10457" transform="translate(-0.001 0)" clip-path="url(#clip-path)">
        <path id="Path_15837" data-name="Path 15837" d="M51.431,17.206H49.857V10.443a.558.558,0,1,0-1.113,0v6.763H46.613c-.334,0-.467.132-.467.465v9.036c0,.332.133.52.467.52h2.131v6.105a.558.558,0,1,0,1.113,0V27.227h1.574c.333,0,1.024-.188,1.024-.52V17.671c0-.333-.692-.465-1.024-.465m-.46,8.907h-3.34V18.32h3.34Z" transform="translate(5.91 1.26)" fill="#fa9600"/>
        <path id="Path_15838" data-name="Path 15838" d="M44.486,24.717H42.948V18.452a.558.558,0,1,0-1.113,0v6.264H39.667c-.333,0-.43.029-.43.362v9.035c0,.333.1.624.43.624h2.168v6a.558.558,0,1,0,1.113,0v-6h1.538c.333,0,1.06-.291,1.06-.624V25.079c0-.333-.728-.362-1.06-.362m-.424,8.907h-3.34V25.83h3.34Z" transform="translate(5.026 2.286)" fill="#fa9600"/>
        <path id="Path_15839" data-name="Path 15839" d="M37.54,21.718h-1.5V15.783a.558.558,0,1,0-1.113,0v5.935h-2.2c-.333,0-.394.358-.394.69v9.035c0,.333.061.667.394.667h2.2v5.96a.558.558,0,1,0,1.113,0V32.11h1.5a.777.777,0,0,0,.726-.667V22.409a.8.8,0,0,0-.726-.69" transform="translate(4.14 1.944)" fill="#fa9600"/>
        <path id="Path_15840" data-name="Path 15840" d="M30.595,23.906H29.13V18.986a.558.558,0,1,0-1.113,0v4.919H25.775c-.333,0-.356.169-.356.5v9.035c0,.333.024.855.356.855h2.241v4.566a.558.558,0,1,0,1.113,0V34.3h1.464c.333,0,.763-.522.763-.855V24.408c0-.333-.43-.5-.763-.5" transform="translate(3.256 2.354)" fill="#fa9600"/>
        <path id="Path_15841" data-name="Path 15841" d="M23.648,28.926H22.221V23.258a.558.558,0,1,0-1.113,0v5.667H18.83c-.333,0-.32.023-.32.355v9.036c0,.332-.012.629.32.629h2.278v4.189a.558.558,0,1,0,1.113,0V38.946h1.427c.334,0,.8-.3.8-.629V29.281c0-.333-.466-.355-.8-.355m-.314,8.907H19.623V30.039h3.711Z" transform="translate(2.371 2.901)" fill="#fa9600"/>
        <path id="Path_15842" data-name="Path 15842" d="M16.7,22.119H15.313V18.452c0-.333-.409-.6-.742-.6s-.742.27-.742.6v3.666H11.884c-.333,0-.283.218-.283.55V31.7c0,.333-.05.807.283.807h1.944v4.615c0,.333.408.6.742.6s.742-.27.742-.6V32.51H16.7a1.044,1.044,0,0,0,.836-.807V22.669c0-.333-.5-.55-.836-.55m-.278,8.907H12.715V23.232h3.711Z" transform="translate(1.486 2.286)" fill="#fa9600"/>
        <path id="Path_15843" data-name="Path 15843" d="M65.072,0H6.378A6.385,6.385,0,0,0,0,6.377V51.363A6.385,6.385,0,0,0,6.378,57.74H29.91v5.4H16.2v1.245H54V63.141H41.54v-5.4H65.072a6.385,6.385,0,0,0,6.378-6.377V6.377A6.385,6.385,0,0,0,65.072,0M40.3,63.141H31.156v-5.4H40.3ZM70.2,51.363a5.137,5.137,0,0,1-5.132,5.132H6.378a5.138,5.138,0,0,1-5.132-5.132V6.377a5.137,5.137,0,0,1,5.132-5.13H65.072A5.136,5.136,0,0,1,70.2,6.377Z" transform="translate(0 0)" fill="#282828"/>
      </g>
    </g>
    <rect id="Rectangle_2370" data-name="Rectangle 2370" width="100" height="100" transform="translate(819 715)" fill="none"/>
  </g>
</svg>
