<?xml version="1.0" encoding="utf-8"?>
<!-- Generator: Adobe Illustrator 27.1.1, SVG Export Plug-In . SVG Version: 6.00 Build 0)  -->
<svg version="1.1" id="Layer_1" xmlns="http://www.w3.org/2000/svg" xmlns:xlink="http://www.w3.org/1999/xlink" x="0px" y="0px"
	 viewBox="0 0 100 100" style="enable-background:new 0 0 100 100;" xml:space="preserve">
<style type="text/css">
	.st0{clip-path:url(#SVGID_00000146486938377968219570000003861136618311812506_);}
	.st1{fill:#282828;}
	.st2{fill:none;}
</style>
<g id="Group_10469" transform="translate(-819 -715)">
	<g id="Group_10458" transform="translate(833 733)">
		<g>
			<defs>
				<rect id="SVGID_1_" x="0" width="71.4" height="64.4"/>
			</defs>
			<clipPath id="SVGID_00000145047217125874185540000008542323608729927614_">
				<use xlink:href="#SVGID_1_"  style="overflow:visible;"/>
			</clipPath>
			
				<g id="Group_10457" transform="translate(-0.001 0)" style="clip-path:url(#SVGID_00000145047217125874185540000008542323608729927614_);">
				<path id="Path_15843" class="st1" d="M65.1,0H6.4C2.9,0,0,2.9,0,6.4v45c0,3.5,2.9,6.4,6.4,6.4h23.5v5.4H16.2v1.2H54v-1.2H41.5
					v-5.4h23.5c3.5,0,6.4-2.9,6.4-6.4v-45C71.4,2.9,68.6,0,65.1,0 M40.3,63.1h-9.1v-5.4h9.1V63.1z M70.2,51.4c0,2.8-2.3,5.1-5.1,5.1
					H6.4c-2.8,0-5.1-2.3-5.1-5.1v-45c0-2.8,2.3-5.1,5.1-5.1h58.7c2.8,0,5.1,2.3,5.1,5.1V51.4z"/>
			</g>
		</g>
	</g>
	<rect id="Rectangle_2370" x="819" y="715" class="st2" width="100" height="100"/>
</g>
<image style="overflow:visible;" width="724" height="621" xlink:href="D3F8155.png"  transform="matrix(4.614525e-02 0 0 4.614525e-02 29.1977 32.2766)">
</image>
</svg>
