<svg xmlns="http://www.w3.org/2000/svg" xmlns:xlink="http://www.w3.org/1999/xlink" width="90" height="90" viewBox="0 0 90 90">
  <defs>
    <clipPath id="clip-path">
      <rect id="Rectangle_2061" data-name="Rectangle 2061" width="60.222" height="45.945" fill="none"/>
    </clipPath>
    <clipPath id="clip-path-2">
      <rect id="Rectangle_2062" data-name="Rectangle 2062" width="53.723" height="39.693" fill="none"/>
    </clipPath>
  </defs>
  <g id="Group_10005" data-name="Group 10005" transform="translate(-505 -254)">
    <rect id="Rectangle_2031" data-name="Rectangle 2031" width="90" height="90" rx="4" transform="translate(505 254)" fill="#131313"/>
    <g id="Group_9924" data-name="Group 9924" transform="translate(516.521 273.152)">
      <g id="Group_10002" data-name="Group 10002" transform="translate(3.368 2.409)">
        <g id="Group_10001" data-name="Group 10001" transform="translate(0 0)">
          <g id="Group_10000" data-name="Group 10000" transform="translate(0 0)" clip-path="url(#clip-path)">
            <g id="Group_10004" data-name="Group 10004" transform="translate(3.25 3.126)">
              <g id="Group_10003" data-name="Group 10003" transform="translate(0 0)" clip-path="url(#clip-path-2)">
                <path id="Path_15312" data-name="Path 15312" d="M26.228,10.6a10.9,10.9,0,0,1,11.847-2.4l1.1-1.9a13.082,13.082,0,0,0-17.4,7.2l2.029.812A10.876,10.876,0,0,1,26.228,10.6" transform="translate(-2.101 -0.503)" fill="#fff"/>
                <path id="Path_15313" data-name="Path 15313" d="M55.407,38.724,43.881,27.17a13.166,13.166,0,0,0-.77-17.715c-.066-.066-.139-.123-.206-.188l-1.132,1.961a10.971,10.971,0,0,1-.209,15.25,10.9,10.9,0,0,1-18.6-7.11l-2.2-.882A13.073,13.073,0,0,0,42.344,28.721L53.859,40.267a1.093,1.093,0,0,0,1.548-1.543" transform="translate(-2.004 -0.894)" fill="#fff"/>
                <path id="Path_15314" data-name="Path 15314" d="M28.356,19.672a3.39,3.39,0,1,0,5.922-2.462L43.136,1.344a.9.9,0,1,0-1.578-.88l-8.8,15.753a3.313,3.313,0,0,0-4.034,1.664L18.432,14.026a2.774,2.774,0,1,0-4.963,1.827l-2.4,6.982-9.824-4A.9.9,0,0,0,.563,20.5l10.709,4.366a.9.9,0,0,0,.341.068.905.905,0,0,0,.855-.61l2.564-7.459a2.731,2.731,0,0,0,2.9-1.1Z" transform="translate(0 0)" fill="#fff"/>
              </g>
            </g>
          </g>
        </g>
      </g>
    </g>
  </g>
</svg>
